<?xml version="1.0" encoding="UTF-8"?>
<svg id="Layer_1" data-name="Layer 1" xmlns="http://www.w3.org/2000/svg" viewBox="0 0 256 256">
  <path d="M129.25,25.25c-2.26-1.73-6.79-1.56-8.69.33-3.83,3.83-4.04,5.49-4.69,37.42-.36,17.33-1.11,34.65-1.68,38.5s-1.35,12.09-1.74,18.31c-.44,6.97-1.2,11.8-1.99,12.59-4.17,4.17-50.09,5.41-62.86,1.7-22.74-6.61-33.98.85-21.57,14.31,12.06,13.08,41.92,18.62,71.43,13.24,8.13-1.48,12.43-.95,12.64,1.56.06.7.03,10.83-.05,22.51-.27,37.65,3.09,48.27,15.3,48.27,11.52,0,12.42-2.97,11.85-39.39-.63-40.47-2.74-36.82,22.3-38.6,7.7-.55,20.69-1.72,28.88-2.61,8.96-.97,17.51-1.35,21.5-.95,3.64.36,8.87.9,11.62,1.18,13.05,1.37,18.8-11.9,9.15-21.13-6.97-6.66-17.85-8.67-35.18-6.5-4.39.55-16.3,1.68-26.47,2.51-10.17.83-21.26,1.79-24.64,2.13-8.17.82-7.73,3.79-7.06-48.14.28-21.81-4.3-54.38-8.05-57.25Z"/>
</svg>