<?xml version="1.0" encoding="UTF-8"?>
<svg id="Layer_1" data-name="Layer 1" xmlns="http://www.w3.org/2000/svg" viewBox="0 0 256 256">
  <path d="M229.76,187.84c-1.25-.09-3.53-.24-5.07-.35-5.15-.36-5.32-1.74-1.36-10.54,7.75-17.21,5.18-17.09-15.09.7-12.41,10.89-11.63,10.65-27.91,8.84-7.44-.83-17.94-1.5-23.32-1.5-15.81,0-16.51-4.41-16.51-103,0-53.84.36-49.37-4.38-54.12-4.49-4.49-7.25-4.88-13.2-1.84q-4,2.04-6.59,0c-3.75-2.95-20.1-2.98-25.59-.04-2.05,1.1-4.66,2-5.8,2-3.34,0-22.23,9.03-32.48,15.54C18.41,65.13,1.57,139.78,22.07,178.24c1.41,2.65,1.11,4.97-1.07,8.26-4.67,7.05-1,14.58,8.22,16.85,1.72.42,4.73,3.19,8.23,7.58,16.82,21.08,52.52,40,75.56,40.05,27.67.06,55.26-10.43,75-28.51,7.33-6.72,8.88-7.46,15.47-7.47,25.28-.04,36.03-4.55,36.03-15.14,0-5.56-4.96-11.68-9.74-12.01ZM34.05,105.5c5.94-29.73,16.34-43.15,43.92-56.7,4.14-2.04,7.98-3.57,8.53-3.41,2.04.6.69,51.33-1.48,55.48-8.47,16.23-28.31,28.63-47.02,29.4-6.77.28-7.74-5.81-3.95-24.77ZM81,221.5c-5.6,1.78-27.95-15.39-22.73-17.46,3.66-1.46,26.01.4,27.58,2.28,3.48,4.19.51,13.48-4.85,15.18ZM74.86,178.1c-10.59-1.07-23.04-.45-29.07,1.47-4.14,1.31-6.36-2.49-11.4-19.5-2.71-9.17-2.87-14.69-.4-14.37.82.11,3.52.71,6,1.34,5.38,1.36,15.55.54,20.78-1.67,6.1-2.59,15.45-7.27,19.72-9.88,6.04-3.69,6.13-3.58,6.85,8.18,2.18,35.57,2.05,35.92-12.48,34.44ZM109.86,38.91c7.01-5.68,7.22-4.51,5.93,32.78-.82,23.77-.81,37.74.07,55.31,2.42,48.71,1.79,56.03-4.71,54.33-4.69-1.23-5.94-138.65-1.29-142.42ZM117.76,230.75c-4.46,5.52-15.95.49-12.83-5.61,1.33-2.6,2.07-5.97,2.07-9.4,0-2.94.54-5.88,1.2-6.54,1.43-1.43,5.7-1.55,7.79-.23,1.85,1.17,3.37,19.81,1.78,21.78ZM147.69,224.25c-3.53.27-5.44-8.44-2.6-11.86,1.36-1.63,18.55-.96,20.41.8,1.79,1.69-12.67,10.67-17.81,11.06Z"/>
</svg>