<?xml version="1.0" encoding="UTF-8"?>
<svg id="Layer_1" data-name="Layer 1" xmlns="http://www.w3.org/2000/svg" viewBox="0 0 256 256">
  <path d="M229.76,187.84c-1.25-.09-3.53-.24-5.07-.35-5.15-.36-5.32-1.74-1.36-10.54,7.75-17.21,5.18-17.09-15.09.7-12.41,10.89-11.63,10.65-27.91,8.84-7.44-.83-17.94-1.5-23.32-1.5-15.36,0-15.57-1.08-16.73-84.92-.38-27.83-.19-28.86,4.73-24.72,6.94,5.84,12.54,1.25,14.43-11.86,3.56-24.56,44.62-20.89,44.53,3.98-.02,5.85-1.92,9.25-12.86,23.02-13.38,16.84-21.58,41.47-14.69,44.11,3.77,1.45,36.39-36.11,43.79-50.41,21.52-41.59-39.59-78.49-72.13-43.55-7.02,7.53-7.08,7.55-7.11,2.1-.08-14.61-7.93-21.87-18.06-16.71q-4,2.04-6.59,0c-3.75-2.95-20.1-2.98-25.59-.04-2.05,1.1-4.66,2-5.8,2-3.34,0-22.23,9.03-32.48,15.54C18.41,65.13,1.57,139.78,22.07,178.24c1.47,2.75,1.09,5.74-1.07,8.49-4.93,6.27-.93,14.37,8.22,16.62,1.72.42,4.71,3.17,8.13,7.46,37.83,47.42,105.86,52.68,150.65,11.66,7.33-6.72,8.88-7.46,15.47-7.47,25.28-.04,36.03-4.55,36.03-15.14,0-5.56-4.96-11.68-9.74-12.01ZM34.09,159.35c-3.22-11-3.04-39.43.34-55.37,6.18-29.08,16.16-41.73,43.53-55.18,4.14-2.04,7.98-3.57,8.53-3.42,1.57.45,1.36,131.49-.21,132.79-.82.68-4.64.64-11.7-.12-9.89-1.06-18.98-.6-29.14,1.49-4.23.87-6.22-2.68-11.35-20.2ZM84.01,218.99c-4.22,4.51-7.89,3.25-21.74-7.49-6.18-4.79-6.98-6.29-4-7.43,2.31-.88,17.59-.34,23.73.84,6.68,1.29,7.64,8.05,2.01,14.08ZM109.86,38.91c7.01-5.68,7.22-4.51,5.93,32.78-.82,23.77-.81,37.74.07,55.31,2.42,48.71,1.79,56.03-4.71,54.33-4.69-1.23-5.94-138.65-1.29-142.42ZM117.76,230.75c-4.46,5.52-15.95.49-12.83-5.61,1.21-2.36,2.07-5.98,2.07-8.66,0-2.53.47-5.48,1.03-6.54,1.11-2.08,5.38-2.59,7.95-.96,1.85,1.17,3.37,19.81,1.78,21.78ZM147.69,224.25c-3.53.27-5.44-8.44-2.6-11.86,1.36-1.63,18.55-.96,20.41.8,1.79,1.69-12.67,10.67-17.81,11.06Z"/>
</svg>