<?xml version="1.0" encoding="UTF-8"?>
<svg id="Layer_1" data-name="Layer 1" xmlns="http://www.w3.org/2000/svg" viewBox="0 0 256 256">
  <defs>
    <style>
      .cls-1 {
        fill: #231f20;
      }
    </style>
  </defs>
  <path class="cls-1" d="M69.27,197.58c13.79-2.89,15.83-2.31,17.34,4.92,1.91,9.12,1.71,10.36-2.77,17.25-5.17,7.93-4.82,12.54,1.16,15.46,9.3,4.53,21.84-6.04,21.96-18.52.06-6.38,1.39-8.68,5.01-8.68,4.69,0,6.04,2.23,6.04,10.01,0,14.37,7.39,21.57,17.53,17.08,6.24-2.76,8.3-7.82,8.29-20.31-.02-21.96.19-22.27,15.86-23.13,26.88-1.48,37.4,3.53,35.89,17.06-1.61,14.41,2.56,31.1,9.04,36.19,13.38,10.53,27.08-2.31,15.9-14.9q-4.5-5.07-4.5-22c0-19.07-.31-18.31,8.13-19.61,18.14-2.8,29.98-20.87,19.22-29.33-4.81-3.78-9.52-2.84-15.16,3.05-5.98,6.24-23.12,10.95-32.2,8.85-3.15-.73-8.44-.73-17.4,0-15.53,1.26-32.57,1.34-34.45.15-2.12-1.35-3.6-38.62-3.62-91.6-.02-49.64.15-48.08-5.57-52.89-3.15-2.65-6.69-3.19-10.57-1.62-4.91,1.98-6.69,6.54-7.55,19.35-1.18,17.48-1.45,73.17-.5,102.66.84,25.99.71,27.25-2.87,28.37-6.2,1.93-5.94,5.09-6.06-73.83q-.12-71.62-2.43-74.08c-4.56-4.86-11.14-2.87-15.02,4.54-1.91,3.65-3.23,59.2-2.49,105.22q.61,37.72-1.67,38.15c-1.25.23-6.1.97-10.78,1.63s-10.75,1.56-13.5,1.99c-14.33,2.24-26.89-.79-29.94-7.22-4.66-9.82-17.6-7.54-17.54,3.09.11,18.37,25.74,28.91,55.25,22.72Z"/>
</svg>