<?xml version="1.0" encoding="UTF-8"?>
<svg id="Layer_1" data-name="Layer 1" xmlns="http://www.w3.org/2000/svg" viewBox="0 0 256 256">
  <defs>
    <style>
      .cls-1 {
        fill: #231f20;
      }
    </style>
  </defs>
  <path class="cls-1" d="M69.2,197.64c19.32-4.57,39.8-3.23,39.8,2.59,0,1.64.66,6.87,1.46,11.63.81,4.75,1.74,10.87,2.09,13.58.48,3.78,1.41,5.72,3.94,8.25,8.67,8.67,19.2-.41,16.6-14.3-5.3-28.34-6.9-27.14,37.08-28,47.15-.93,45.16-1.77,46.82,19.93,1.1,14.38,2.77,19.07,7.85,22.02,16.84,9.8,18.24-37.57,1.62-54.69-7.71-7.94-14.4-8.63-66.45-6.87-31.52,1.06-29.17,2.06-28.5-12.08,2.85-60.12,2.44-58.02,11.21-57.15,63.56,6.27,85.7,1.91,92.33-18.18,5.74-17.4-12.53-26.71-24.68-12.58-6.1,7.09-22.99,9.67-41.06,6.26-2.64-.5-9.75-1.22-15.8-1.61-15.06-.97-14.12-.02-14.99-15.12-1.97-34.16-10.73-47.32-23.2-34.85q-3.48,3.48-3.19,24.56c.35,25.49,4.53,22.49-32.42,23.29-32.91.71-35.16.47-41.33-4.45-18.49-14.73-31.11,5.8-13.71,22.3,8.19,7.77,11.26,8.29,50.7,8.51,19.73.11,36.14.47,36.47.8,1.38,1.38-1.71,66.2-3.43,71.75-.72,2.34-2.31,2.58-20.91,3.11-8.8.25-17.57.99-19.5,1.65-12.31,4.2-32.69.75-36.31-6.13-7.45-14.14-22.41-3.88-15.75,10.8,6.17,13.6,30.34,20.39,53.27,14.97Z"/>
</svg>