<?xml version="1.0" encoding="UTF-8"?>
<svg id="Layer_1" data-name="Layer 1" xmlns="http://www.w3.org/2000/svg" viewBox="0 0 256 256">
  <path d="M225.14,188c-5.47,0-5.81-2.13-1.77-11.1,7.04-15.63,4.76-16.47-9.94-3.65-19.06,16.62-15.85,15.4-35.19,13.43-9.2-.94-20.85-1.7-25.87-1.69-15.05.02-15.86-5.23-15.86-102.99,0-53.95.38-49.35-4.51-54.25-3.79-3.79-4.24-3.97-8.25-3.3-2.33.39-4.91.66-5.74.61-15-.97-19.97-.87-24.5.51-2.75.84-6.57,1.9-8.5,2.36-3.96.94-10.46,3.71-20.04,8.54-31.42,15.83-45.25,37.76-49.54,78.55-2.11,20.05-.65,45.73,3.01,52.87,4.02,7.85,4.09,13.75.22,17.41-7.77,7.32-3.68,15.85,8.87,18.49,3.98.84,5.58,1.82,7.94,4.88,17.45,22.6,53.82,42.33,78.05,42.33,27.99,0,53.82-10.08,75.58-29.49,6.66-5.94,6.34-5.84,23.81-7.51,17.47-1.67,22.61-4.89,22.61-14.15,0-6-5.11-11.84-10.36-11.84ZM38.71,173.26c-12.66-33.81-8.21-79.38,10.14-103.67,8.2-10.87,34.21-25.28,54.15-30.02,3.03-.72,6.07-1.36,6.78-1.44,2.07-.21,3.3,4.67,2.71,10.73-.97,9.95-1.01,71.7-.08,101.77,1.07,34.19,2.06,31.56-11.41,30.27-4.68-.45-15.93-1.52-25-2.39-13-1.24-18.15-1.35-24.28-.49-9.87,1.38-10.84,1.02-13.01-4.76ZM108.53,232c-14.64,0-57.32-23.02-51.11-27.56,1.87-1.37,6.83-1.16,26.08,1.06,6.6.76,15.42,1.69,19.61,2.05,10.45.91,10.24.66,11.04,12.63.83,12.3,1.05,11.83-5.62,11.83ZM143.75,225.66c-3.89.63-5.95-10.06-2.58-13.42,1.38-1.38,22.72-.55,24.33.95,2.03,1.88-14.38,11.28-21.75,12.47Z"/>
</svg>