<?xml version="1.0" encoding="UTF-8"?>
<svg id="Layer_1" data-name="Layer 1" xmlns="http://www.w3.org/2000/svg" viewBox="0 0 256 256">
  <defs>
    <style>
      .cls-1 {
        fill: #231f20;
      }
    </style>
  </defs>
  <path class="cls-1" d="M224.45,31.96c-5.08,2.06-10.43,14.22-11.9,27.04-.58,5.07-2.62,13.94-6.09,26.5-.76,2.75-1.67,7.02-2.02,9.5-4.2,29.34-20.41,50.68-45.94,60.47-3.85,1.48-9.02,3.49-11.5,4.48-10.76,4.28-17.14,5.28-30.59,4.79-37.21-1.36-62.19-3.13-76.98-5.43-10.7-1.67-20.14,7.56-15.98,15.61,2.13,4.11,5.67,5.7,14.21,6.39,17.2,1.38,24.48,11.25,19.34,26.2-4.04,11.73-6.31,13.18-21.73,13.84-11.11.48-15.08,8.05-7.95,15.18,9.87,9.87,44.72.35,44.68-12.2,0-.45.86-2.62,1.92-4.82,5.71-11.88,6.69-18.19,4.7-30.22q-.86-5.22,30.51-5t38.37-2.46c3.85-1.47,10.83-4.06,15.5-5.75,26.31-9.51,39.98-21.03,51.31-43.3,4.77-9.38,9.69-23.05,9.69-26.97,0-1.17.67-4.42,1.49-7.22,2.56-8.73,4.44-16.58,7.59-31.59,2.02-9.64,3.82-15.67,5.38-18,7.49-11.2-1.48-22.12-14.01-17.04Z"/>
</svg>