<?xml version="1.0" encoding="UTF-8"?>
<svg id="Layer_1" data-name="Layer 1" xmlns="http://www.w3.org/2000/svg" viewBox="0 0 256 256">
  <defs>
    <style>
      .cls-1 {
        fill: #231f20;
      }
    </style>
  </defs>
  <path class="cls-1" d="M85.07,119.85c7.48.93,5.34,9.15-2.37,9.15-8.85,0-13.28,6.31-7.83,11.17,8.66,7.74,33.14-5.04,33.14-17.31,0-2.5.61-2.7,11.95-3.76,13.69-1.29,12.78-2.16,12.67,12.2-.17,21.58,7.28,38.8,19.58,45.28,11.94,6.29,19.45-5.79,9.88-15.9-6.79-7.18-10.08-16.02-10.08-27.05,0-8.44-.18-7.87,6.88-21.09,5.92-11.09-1.82-17.97-16.38-14.55-9.55,2.24-37.33,3.38-39.74,1.64-8.01-5.81-9.81-6.71-14.36-7.17-3.06-.31-6.06.03-7.96.9-14.29,6.5-11.15,24.54,4.62,26.5Z"/>
</svg>