<?xml version="1.0" encoding="UTF-8"?>
<svg id="Layer_1" data-name="Layer 1" xmlns="http://www.w3.org/2000/svg" viewBox="0 0 256 256">
  <path d="M219.73,187.02c-6.36-.03-7.73-1.47-7.73-8.19,0-3.7-5.02-18.96-8.48-25.79-3.45-6.8-3.29-7.56,2.89-14.04,16.35-17.14,4.52-30.78-12.46-14.39-8.18,7.89-5.83,8.6-22.62-6.78-7.6-6.96-16.3-14.58-19.32-16.93-13.02-10.11-12.09-7.4-11.35-32.87,1.05-36.51-1.5-45.27-12.73-43.77-9.05,1.21-10.61,5.23-11.51,29.53-.76,20.69-.9,21.18-5.32,18.57-3.92-2.32-4.31-5.09-3.49-24.65.8-18.98-.6-22.74-8.51-22.74-7.06,0-10.12,5.55-10.85,19.68-.63,12.26-.76,12.41-7.51,8.21-2.88-1.79-9.5-5.47-14.73-8.18-10.82-5.61-14.37-7.64-21.71-12.39-12.11-7.84-20.36-10.11-23.63-6.49-3.05,3.37-.96,10.17,3.12,10.17,1.38,0,8.03,3.75,10.73,6.04,3.68,3.13,12.24,8.8,17.66,11.7,16.75,8.94,34.85,22.49,34.8,26.05-.02,1.49.17,23.95.43,49.9.55,55.36,2.02,49.93-13.1,48.37-7.65-.79-12.98-.81-18.29-.07-4.12.57-11.41,1.48-16.2,2.02-14.73,1.65-20.84,5.44-20.77,12.89.08,9.53,3.37,10.52,36.68,11.11,30.85.55,30.64.5,31.85,6.57.5,2.49-.06,3.92-3.01,7.79-5.99,7.85-5.7,14.42.76,17.12,9.71,4.06,21.54-6.62,21.65-19.54.05-6.21,1.18-7.95,5.17-7.95,4.52,0,5.87,2.3,5.87,10.01,0,10.65,2.97,16.06,9.85,17.96,8.62,2.38,16.15-5.62,16.15-17.16,0-10.45,11.44-11.21,18.95-1.26,6.15,8.14,11.45,10.81,21.22,10.71,8.74-.09,9.47-.41,19.13-8.44,3.19-2.65,6.13-4.82,6.53-4.82,10.74,0,23.11-3.28,26.76-7.09,9.24-9.65.23-20.82-16.86-20.89ZM115.32,180.83c-2.44,1.31-5.97.5-6.76-1.53-.86-2.25-1.99-79.46-1.2-82.6.81-3.24,2.65-3.45,5.23-.6,2.21,2.44,2.78,10.47,3.99,56.03.71,26.96.68,27.66-1.26,28.7ZM170.84,158c-5.87,10.1-10.84,20.63-10.84,22.94,0,2.87-2.23,4.06-7.59,4.06-9.2,0-9.24-.09-9.92-24.5-.32-11.55-1.05-25.59-1.63-31.2-.57-5.61-.75-10.67-.4-11.25,1.19-1.92,2.34-1.13,12.73,8.7,5.67,5.36,12.6,11.78,15.39,14.25,7.93,7.04,7.95,7.18,2.25,17ZM185,187.11c-6.12-.83-5.66-11.12.78-17.56,1.97-1.97,4.77.16,5.82,4.45,3.24,13.23,2.66,14.38-6.6,13.11Z"/>
</svg>