<?xml version="1.0" encoding="UTF-8"?>
<svg id="Layer_1" data-name="Layer 1" xmlns="http://www.w3.org/2000/svg" viewBox="0 0 256 256">
  <defs>
    <style>
      .cls-1 {
        fill: #231f20;
      }
    </style>
  </defs>
  <path class="cls-1" d="M211,152.36c16.48,2.35,20.57,1.3,23.66-6.09,6.34-15.16-12.27-23.48-44.14-19.73-34.07,4.01-40.49,2.56-30.39-6.86,6.85-6.39,9.69-10.52,11.86-17.27.7-2.16,1.77-4.55,2.38-5.32,11.53-14.44-5.73-43.77-26.8-45.55-9.04-.76-11.35-1.69-12.04-4.83-3.29-14.9-4.9-20.42-6.28-21.47-2.26-1.73-6.79-1.56-8.69.33-3.83,3.83-4.04,5.49-4.69,37.42-.36,17.32-1.11,34.65-1.68,38.5s-1.35,12.04-1.74,18.21c-1.04,16.43-33.69,23.62-64.95,14.3-22.26-6.64-33.75,1.08-21.47,14.41,12.06,13.08,41.92,18.62,71.43,13.24,8.13-1.48,12.43-.95,12.64,1.56.06.7.04,10.9-.03,22.66-.19,31.3,1.31,39.89,7.97,45.49,6.62,5.57,17.68,1.6,19.44-6.97,1.54-7.53,1.51-7.49,11.4-10.75,18.28-6.01,27.97-22.66,26.92-46.24-.58-13.01,11.96-18.38,35.21-15.06ZM136.67,103.88c.09-3.51.32-12.91.5-20.88.18-8.05.77-14.85,1.33-15.29.55-.43,2.57-.55,4.5-.26,1.93.29,4.48.53,5.67.54,12.7.06,13.62,24.89,1.38,37-9.71,9.61-13.66,9.28-13.38-1.11ZM151.12,189c-1.28,2.37-8.37,6.04-11.12,5.76q-2.5-.26-2.79-15.76c-.35-18.71-.16-19.67,4.05-20.89,15.65-4.52,20.61,11.02,9.86,30.89Z"/>
</svg>