<?xml version="1.0" encoding="UTF-8"?>
<svg id="Layer_1" data-name="Layer 1" xmlns="http://www.w3.org/2000/svg" viewBox="0 0 256 256">
  <path d="M29.12,180c6.1-4.82,31.81-5.97,47.66-2.13,9.53,2.31,17.32,3.88,27.72,5.6,4.4.73,12.5,2.54,18,4.04,13.64,3.71,16,4.21,23.5,4.99,8.92.93,16.08,3.09,22.81,6.89,3.13,1.77,7.83,4.2,10.44,5.41,2.61,1.21,6.74,3.13,9.17,4.25,7.32,3.39,7.51,4.25,2.25,9.87-12.84,13.72.23,32.92,17.46,25.66,19.17-8.08,14.15-41.98-7.74-52.26-5.7-2.68-5.68-5.43.06-10.48,13.75-12.1,14.78-16.37,15.2-63.34.45-49.85,1.48-53.44,20.22-70.83,11.46-10.64-.99-23.32-14.26-14.53-13.57,8.99-24.09,29.26-25.49,49.1-1.01,14.33.99,13.57-36.12,13.7-34.46.12-44.29,4.5-35.23,15.69,3.4,4.2,4.84,4.37,38.09,4.37,37.8,0,33.67-2.45,32.7,19.41-1.05,23.58-6.67,35.02-18.28,37.2-6.42,1.21-36.36-.23-40.79-1.95-2.2-.86-6.47-2.03-9.5-2.61-3.02-.58-7.96-1.72-10.97-2.55-3.01-.83-6.71-1.5-8.22-1.5s-6.93-.87-12.03-1.93c-25.7-5.35-26.08-5.39-41.48-4.74-27.93,1.17-38.28,6.5-38.29,19.72,0,8.25,4.99,9.37,13.11,2.95Z"/>
</svg>