<?xml version="1.0" encoding="UTF-8"?>
<svg id="Layer_1" data-name="Layer 1" xmlns="http://www.w3.org/2000/svg" viewBox="0 0 256 256">
  <defs>
    <style>
      .cls-1 {
        fill: #231f20;
      }
    </style>
  </defs>
  <path class="cls-1" d="M63.82,128.49c28.99.01,25.65-6.18,24.87,46.03-.74,50.13.08,54.48,10.32,54.48,12.16,0,12.43-1.15,12.82-55.31.28-39.08.54-45.89,1.79-46.37,2.45-.94,2.59-.03,2.81,17.88.11,9.52.94,22.48,1.84,28.81.9,6.32,2.1,18.25,2.66,26.5,1.72,25.03,4.04,31.5,11.28,31.5,8.92,0,11.92-10.37,9.35-32.31-1.85-15.81-3.4-67.22-2.17-72.12,1.49-5.95,7.14-3.15,6.93,3.43-2.02,63,3.57,82.89,26.48,94.21,44.88,22.18,78.9-51.62,46.95-101.84-6.97-10.96-20.62-17.78-37.95-18.98-12.14-.83-11.01,2.53-10.08-30.26,1.02-35.88-.59-34.46,34.57-30.54,23.77,2.65,31.71.6,31.71-8.2,0-14.39-35.07-21.99-86.5-18.74-3.3.21-10.17,1.07-15.27,1.91-7.65,1.27-18.01,1.49-59.2,1.25-58.26-.33-59.16-.14-57.66,12.47,1.37,11.52,6.38,13.2,39.66,13.27,14.59.03,27.08.4,27.75.81.91.56,1.22,8.36,1.22,31.08,0,33.85.54,31.53-7.33,31.57-2.29.01-6.19.5-8.67,1.08-21.3,4.99-37.94-1.33-40.43-15.36-1.55-8.72-9.2-8.45-12.67.46-7.83,20.08,9.97,33.28,44.92,33.29ZM169.24,124.77c9.81-6.72,30.69,3.34,38.87,18.73,17.59,33.09-11.99,82.19-34.28,56.9-7.04-7.98-10.88-71.32-4.59-75.63ZM146,49.5c3.28-3.95,5.48-1.48,5.81,6.5,1.39,33.89-3.67,56.1-10.83,47.48-2.11-2.54,2.38-50.8,5.02-53.98ZM108.15,48.12c.79-2.09,1.34-2.3,4.62-1.77,4.09.66,6.66,3.24,5.59,5.62-.38.84-.95,12.87-1.27,26.73-.42,18.16-.94,25.55-1.84,26.45-2.7,2.7-3.68-.93-4.44-16.43-.41-8.38-1.38-20.4-2.15-26.73-.88-7.24-1.07-12.38-.51-13.88Z"/>
</svg>