<?xml version="1.0" encoding="UTF-8"?>
<svg id="Layer_1" data-name="Layer 1" xmlns="http://www.w3.org/2000/svg" viewBox="0 0 256 256">
  <path d="M35.81,84c4.78.54,12.07,1.44,16.19,2.01,7.45,1.03,8.44.97,49-2.91,13.66-1.31,13.49-2.13,10.87,52.43-1.49,30.95.21,91.74,2.72,97.01,3.93,8.29,11.27,9.86,17.41,3.72,4.89-4.9,4.51-.3,4.51-54.25,0-109.03-2.3-102.02,33.58-102.28,32.09-.23,29.93-.51,49.7,6.43,13.04,4.58,22.21,1.39,22.21-7.71,0-3.23-6.76-10.43-9.79-10.43-1.12,0-4.43-.84-7.37-1.88-10.04-3.53-15.34-5.08-19.57-5.73-6.08-.93-6.62-2.06-4.27-8.9,1.1-3.19,2-7.71,2-10.03,0-6.04,1.43-6.85,10.57-5.99,8.7.81,12.57-.29,14.3-4.09,5.54-12.15-10.32-21.49-27.76-16.35-7.15,2.11-13.26,5.9-14.89,9.24-1.94,3.97-4.19,12.11-4.78,17.22-.96,8.4-1.28,9.12-5.18,11.77-16.87,11.48-36.79,8.47-35.64-5.37.85-10.18-1.7-16.16-8.1-18.99-10.14-4.48-17.53,2.72-17.53,17.08,0,8.9-.76,9.61-11.21,10.48-4.56.38-11.21,1.15-14.79,1.7-3.57.56-19.55,1.31-35.5,1.67-34.19.78-37.38,1.74-37.47,11.27-.07,7.45,6.05,11.24,20.77,12.89Z"/>
</svg>