<?xml version="1.0" encoding="UTF-8"?>
<svg id="Layer_1" data-name="Layer 1" xmlns="http://www.w3.org/2000/svg" viewBox="0 0 256 256">
  <defs>
    <style>
      .cls-1 {
        fill: #231f20;
      }
    </style>
  </defs>
  <path class="cls-1" d="M149.82,88.01c64.26,1.53,69.08,1.11,76.63-6.67,12.52-12.89,16.29-49.29,5.67-54.78-3.82-1.97-3.96-1.96-7.85.41-4.59,2.8-6.22,7.69-7.3,21.88-1.64,21.51.33,20.68-46.99,19.75-45.96-.9-41.32.83-42.19-15.68-.84-15.89-1.04-16.89-4.29-20.75-6.37-7.57-14.56-3.79-15.86,7.31-2.5,21.45-2.93,23.58-4.96,24.67-2.62,1.41-22.39.31-33.18-1.84-24.4-4.85-46.47.94-52.92,13.88-7.59,15.23,7.21,26.9,15.11,11.91,3.61-6.86,23.78-10.29,36.31-6.18,1.92.63,9.58,1.42,17,1.74,18.72.82,21.08,3.6,17.06,20.06-.03.14-4.48.25-9.89.25-22.2,0-39.55,24.52-30.07,42.52,7.05,13.39,22.92,21.15,32.81,16.03q6.1-3.16,6.11,24.17c.02,27.15.86,33.47,5.35,40.27,10.71,16.18,33.28,5.41,24.06-11.48-2.53-4.64-4.23-125.03-1.8-127.46.29-.29,9.83-.3,21.2-.03ZM82.01,146c-12.43-4.1-10.57-18.55,3.49-27.16,3.84-2.35,5.66-2.31,10.59.2,12.16,6.21-.94,31.29-14.08,26.96Z"/>
</svg>