<?xml version="1.0" encoding="UTF-8"?>
<svg id="Layer_1" data-name="Layer 1" xmlns="http://www.w3.org/2000/svg" viewBox="0 0 256 256">
  <defs>
    <style>
      .cls-1 {
        fill: #231f20;
      }
    </style>
  </defs>
  <path class="cls-1" d="M141.87,147.51c-6.04,3.28-2.19,15.25,10.92,33.98,9.78,13.97,21.24,10.05,16.4-5.61-5.74-18.6-19.33-32.71-27.32-28.37Z"/>
  <path class="cls-1" d="M98.24,123.75c5.89.81,6.3,2.02,3.88,11.52-1.16,4.56-2.11,8.94-2.11,9.74,0,2.13-3.65,10.98-9.91,23.99-6.97,14.49-8.29,24.89-3.74,29.44,6.12,6.12,14.11.44,17.05-12.11.36-1.56,1.3-4.18,2.08-5.83.78-1.65,2.62-5.69,4.1-8.97,6.88-15.28,30.57-39.29,47.92-48.57,1.65-.88,7.5-3.98,13-6.88,14.89-7.86,18.16-15.04,9.5-20.87-3.92-2.64-4.15-2.62-17.5,1.27-4.95,1.44-11.3,3.04-14.11,3.56-2.81.52-6.63,1.57-8.5,2.33-14.73,6.03-15.76,4.86-16.2-18.37-.46-24.58-5.22-34.4-11.6-23.91-2.04,3.35-2.72,8.65-3.63,27.91-.74,15.66-1.14,17.76-3.54,18.52-2.19.69-15.63-1.92-20.93-4.07-10.95-4.44-15.01-3.34-11.53,3.12,4.44,8.24,16.77,16.94,25.77,18.17Z"/>
</svg>