<?xml version="1.0" encoding="UTF-8"?>
<svg id="Layer_1" data-name="Layer 1" xmlns="http://www.w3.org/2000/svg" viewBox="0 0 256 256">
  <defs>
    <style>
      .cls-1 {
        fill: #231f20;
      }
    </style>
  </defs>
  <path class="cls-1" d="M208,17.44c-15.51.36-29.81.17-36.5-.49-14.34-1.41-50.71-2-61.34-1-4.59.43-13.14,1.51-19,2.41-42.2,6.41-49.11,6.9-54.16,3.8-5.26-3.23-9.52-2.84-13.6,1.24-7.69,7.69-2.01,21.62,10.27,25.19,7.03,2.04,7.38,3.3,2.49,9.12-22.54,26.86-29.18,86.57-13.56,121.94.77,1.73,1.39,3.5,1.39,3.93,0,18.2,32.01,49.99,61.5,61.08,49.74,18.71,113.05-12.33,137.75-67.52,9.05-20.23,7.21-19.31-32.75,16.35-47.36,42.27-45.79,42.79-46.75-15.5-.89-54.5-.95-54.05,5.81-46.89,12.55,13.31,35.63,15.42,51.22,4.7,13.17-9.06,19.48-36.8,10.26-45.06-8.03-7.19-16.02-.25-16.03,13.92-.02,15.69-14.61,24.17-28.47,16.56-17.02-9.35-14.79-35.08,4.41-50.65,7.69-6.23,13.06-14.78,13.06-20.77,0-4.07.78-4.23,25.5-5.32,27.6-1.21,34.51-4.09,34.5-14.39-.02-11.31-5.87-13.36-36-12.67ZM55.82,205.34c-4.37-4.51-11.82-16.22-11.82-18.58,0-.57-.84-2.89-1.88-5.15-8.4-18.39-10.12-26.56-10.12-48.02,0-48.52,18.85-79.56,52.48-86.43,7.38-1.51,7.14-2.38,7.81,27.58.33,14.71,1.13,30.35,1.77,34.75,2.95,20.09-.07,54.94-5.84,67.43-6.15,13.29-5.19,26.62,2.83,39.65,7.63,12.39,20.64,2.36,14.85-11.45-2.85-6.81-3.24-16.43-.81-20.17,7.84-12.1,8.86-45.46,3.73-122.28-1.02-15.3-.99-17.96.24-18.73,7-4.43,9.5,17.71,7.9,70.06-.66,21.42.54,108.21,1.56,112.86,3.21,14.68-43.03-1.19-62.71-21.52ZM160.29,56.3c-3.79,2.57-8.42,6.7-10.28,9.18-5.66,7.55-6.74,5.87-7.16-11.16-.16-6.39.17-9.65,1.08-10.75,1.55-1.87,1.96-1.89,13.57-.5,14.08,1.69,14.8,5.09,2.79,13.22Z"/>
</svg>