<?xml version="1.0" encoding="UTF-8"?>
<svg id="Layer_1" data-name="Layer 1" xmlns="http://www.w3.org/2000/svg" viewBox="0 0 256 256">
  <defs>
    <style>
      .cls-1 {
        fill: #231f20;
      }
    </style>
  </defs>
  <path class="cls-1" d="M214.73,71.41c-6.84,8.19-16.77,9.13-55.96,5.36-16.15-1.56-15.49-1.09-15.93-11.27-.45-10.45,1.71-11.43,7.74-3.52,6.47,8.49,14.81,9.12,18.05,1.36,4.19-10.04-9.74-27.31-22.04-27.33-2.27,0-4.27-1.43-9.13-6.5-7.3-7.63-11.08-8.48-17.68-4-4.45,3.02-8.83,3.22-11.28.5-2.3-2.54-7.45-2.61-10.61-.14-1.31,1.03-3.51,2.19-4.89,2.59-4.95,1.43-19.58,8.95-23.5,12.07-2.2,1.75-5.07,3.53-6.38,3.94-3.5,1.11-16.85,14.64-18.62,18.88-1.72,4.12-3.75,4.61-8.67,2.06-11.1-5.74-19.49,7.96-12.34,20.16,7.34,12.52,14,14.85,43.71,15.26,29.73.41,26.3-6.12,24.93,47.43-1.39,54.09-2.97,64.28-11.41,73.5-4.44,4.84-15.12-.65-24.99-12.85-2.05-2.53-3.72-4.91-3.72-5.29s-1.8-3.07-4-5.99c-2.2-2.91-4-5.62-4-6.01s-2.38-3.95-5.29-7.91c-2.91-3.96-6.29-8.83-7.51-10.83-4.41-7.23-12.11-7.46-15.58-.47-2.53,5.11-1.12,9.82,5.75,19.1,2.85,3.85,8.32,11.91,12.15,17.92,11.59,18.14,22.61,28.43,32.7,30.52,2.35.49,6.98,2.04,10.28,3.45,5.87,2.51,6.51,2.56,29.5,2.57,33.33.01,40.31-2.06,66.6-19.71,6.35-4.26,13.07-8.57,14.95-9.57,4.37-2.34,17.42-14.17,24.31-22.05,5.57-6.38,5.93-7.02,11.18-20.13,1.76-4.4,3.93-9.8,4.82-12,1.33-3.28,1.71-9.61,2.13-35q.51-31,4.72-36.29c14.43-18.12-5.16-37.52-19.98-19.79ZM95.05,62.56c-1.3,11.46-.74,11.1-18.69,11.92-19.03.87-19.4-2.79-1.36-13.22,2.48-1.43,5.48-3.47,6.68-4.54s4.35-3,7-4.3c7.48-3.66,7.87-3.04,6.37,10.13ZM112.63,52.25c1.63-6.09,3.2-1.65,3.52,10,.24,8.63-.69,11.77-3.07,10.3-1.16-.72-1.51-16.37-.46-20.3ZM109.51,227.5c-7.09,0-7.73-1.07-4.56-7.64,1.14-2.36,2.49-6.9,3-10.08.51-3.19,1.21-6.24,1.55-6.79,2.15-3.48,5.67,6.94,5.86,17.34q.13,7.17-5.85,7.17ZM115.86,127.93c-.85,24.49-2.1,31.06-3.2,16.87-.85-10.91-.84-42.28,0-43.13,3.72-3.72,4.12-.46,3.19,26.26ZM205.57,167.52c-.85,1.64-1.56,3.6-1.56,4.35-.02,4.75-18.24,24.18-28.11,29.98-2.97,1.75-8.77,5.56-12.9,8.48-18.26,12.91-24.87,14.82-26.41,7.66-3.03-14.11,0-110.58,3.58-114.16,1.36-1.36,2.84-1.68,6.07-1.32,19.33,2.16,42.36,3.61,52.77,3.33,15.74-.43,19.68,36.54,6.57,61.68Z"/>
</svg>