<?xml version="1.0" encoding="UTF-8"?>
<svg id="Layer_1" data-name="Layer 1" xmlns="http://www.w3.org/2000/svg" viewBox="0 0 256 256">
  <defs>
    <style>
      .cls-1 {
        fill: #231f20;
      }
    </style>
  </defs>
  <path class="cls-1" d="M93.07,103c1.93,0,4.01-6.67,2.95-9.47-.74-1.95-4.78-4.82-6.33-4.49-.1.02-1.53.75-3.18,1.62-13.63,7.17-20.3,34.18-10.09,40.87,5.38,3.53,7.17.9,9.58-14.03,1.1-6.82,4.85-14.5,7.08-14.5Z"/>
  <path class="cls-1" d="M127.5,129.01c-15.19,2.25-16.13,2.28-18.93.44-10.41-6.82-.42-21.45,14.65-21.45,7.46,0,9.09-.3,10.79-2,7.41-7.41-9.61-14.95-23.78-10.53-5.08,1.59-12.82,7.65-13.78,10.8-.37,1.23-1.41,3.06-2.3,4.07-14.59,16.59,2.19,34.3,31.47,33.22,21.53-.79,23.39-.29,23.39,6.39,0,10.52-13.93,17.3-31.02,15.08-4.12-.53-8.22-.99-9.12-1-.9-.02-4.12-2.51-7.14-5.53-6.63-6.63-10.74-7.07-13.73-1.47-7.32,13.68,28.74,29.25,49.52,21.37,2.2-.83,5.35-1.94,7-2.45,35.3-10.96,20.27-52.47-17-46.94Z"/>
</svg>