<?xml version="1.0" encoding="UTF-8"?>
<svg id="Layer_1" data-name="Layer 1" xmlns="http://www.w3.org/2000/svg" viewBox="0 0 256 256">
  <path d="M201.85,212.47c-34.03,3.56-47.26,1.67-39.72-5.67,12-11.68,17.93-39.85,11.44-54.3-6.02-13.4-11.77-21.42-18.06-25.2-1.88-1.13-1.6-1.58,4.63-7.5,6.87-6.52,9.7-10.67,11.86-17.38.7-2.16,1.77-4.55,2.38-5.32,10.9-13.65-5.13-43.06-24.67-45.25-9.93-1.11-10.71-1.71-10.71-8.29,0-15.14-8.84-24.44-16.22-17.06-3.13,3.13-4.44,9.4-5.81,27.9-.58,7.76-1.76,20.18-2.63,27.6-1.62,13.89-2.2,104.63-.74,116.73,1.44,11.97,4.43,11.22-46.09,11.57-47.42.33-50.68,1.17-52.13,13.41-1.49,12.61-.6,12.81,57.66,12.47,43.79-.25,51.13-.07,59.7,1.45,36.41,6.46,89,.8,98.6-10.62,10.08-11.98-1.14-17.5-29.49-14.54ZM137.78,68.18c1.07-.82,3.05-1.11,5.22-.76,1.92.31,4.48.56,5.67.57,12.69.06,13.64,24.47,1.43,36.84-5.45,5.53-11.11,8.77-13.63,7.8-2.63-1.01-1.42-42.36,1.3-44.45ZM154.15,182.3c-1.02,2.31-2.13,4.98-2.47,5.94-1.65,4.69-11.25,7.46-12.17,3.51-1.28-5.5-3.52-30.84-3.52-39.84,0-11.11.23-11.38,7.29-8.43,10.3,4.3,16.42,26.21,10.85,38.83Z"/>
</svg>