<?xml version="1.0" encoding="UTF-8"?>
<svg id="Layer_1" data-name="Layer 1" xmlns="http://www.w3.org/2000/svg" viewBox="0 0 256 256">
  <path d="M102.21,75.08c-28.53,13.6-37.86,66.15-15.71,88.46,25.33,25.5,82.07,8.74,85.19-25.17,1.38-14.94-12.65-14.28-15.08.71-2.17,13.38-29.17,26.02-47.04,22.02-34.6-7.74-24.69-77.1,11.02-77.1,5.84,0,8.41-1.4,8.41-4.58,0-7.93-14.37-10.26-26.79-4.34Z"/>
  <path d="M122.92,110.58c-3.97,4.22-4.27,25.67-.41,30.25,7.26,8.63,18.91.18,12.38-8.98-1.56-2.2-1.94-3.78-1.47-6.16,3.09-15.59-2.49-23.63-10.5-15.12Z"/>
</svg>