<?xml version="1.0" encoding="UTF-8"?>
<svg id="Layer_1" data-name="Layer 1" xmlns="http://www.w3.org/2000/svg" viewBox="0 0 256 256">
  <defs>
    <style>
      .cls-1 {
        fill: #231f20;
      }
    </style>
  </defs>
  <path class="cls-1" d="M31.56,92.23c3.05-6.43,15.61-9.46,29.94-7.22,2.75.43,8.82,1.32,13.5,1.99s9.51,1.39,10.75,1.62q2.25.42,1.67,42.15c-.67,49.05.53,97.46,2.51,101.23,3.9,7.42,10.46,9.4,15.02,4.54q2.31-2.46,2.43-74.08c.13-78.93-.13-75.76,6.06-73.83,4.09,1.28,4.47,8.75,2.41,47.98-1.5,28.62.27,90.74,2.75,95.95,3.92,8.26,11.26,9.81,17.39,3.68,4.9-4.9,4.51-.15,4.53-55.25.02-50.92,1.49-86.75,3.63-88.11,1.85-1.17,18.48-1.11,34.68.13,9.18.7,14.53.69,17.19-.02,8.2-2.21,26.32,2.8,32.16,8.9,5.65,5.89,10.35,6.83,15.16,3.05,10.76-8.47-1.08-26.54-19.22-29.34-8.44-1.3-8.12-.54-8.12-19.61q0-16.93,4.5-22c9.44-10.62,2.29-22.23-10.82-17.55-10.34,3.69-16.24,19.91-14.12,38.84,1.51,13.54-9.01,18.54-35.89,17.06-15.67-.86-15.88-1.18-15.86-23.13.01-12.49-2.05-17.55-8.29-20.31-10.14-4.48-17.53,2.72-17.53,17.08,0,7.71-1.35,10.01-5.87,10.01-3.99,0-5.12-1.74-5.17-7.95-.11-13.21-12.35-23.94-21.96-19.26-5.98,2.92-6.33,7.53-1.16,15.46,4.64,7.12,4.65,7.2,2.92,16.31-1.5,7.9-2.62,8.42-13.72,6.34-33.51-6.27-58.91,3.3-59.02,22.23-.06,10.63,12.88,12.91,17.54,3.09Z"/>
</svg>