<?xml version="1.0" encoding="UTF-8"?>
<svg id="Layer_1" data-name="Layer 1" xmlns="http://www.w3.org/2000/svg" viewBox="0 0 256 256">
  <path d="M164.03,69.98c-3.06,3.06-3.4,6.38-1.64,15.98,2.21,12.1,2.03,12.41-6.78,11.62-37.15-3.33-42.63-2.6-41.43,5.52.82,5.53,7,7.05,35.32,8.71,20.63,1.21,5.06,20.29-16.49,20.22-3.84-.01-26.85-3.76-34.02-5.54-7.92-1.96-10.52,7.81-3.96,14.92,11.62,12.61,14.76,30.24,6.96,39.1-9.34,10.6-5.55,22.05,5.21,15.75,11.53-6.76,16.92-29.4,10.58-44.48-2.75-6.55-1.95-8.18,3.49-7.11,29.85,5.88,64.11-19.5,56.33-41.72-.28-.79-.98-6.8-1.57-13.35-1.11-12.37-2.76-17.6-6.36-20.12-2.72-1.9-3.26-1.85-5.62.51Z"/>
</svg>