<?xml version="1.0" encoding="UTF-8"?>
<svg id="Layer_1" data-name="Layer 1" xmlns="http://www.w3.org/2000/svg" viewBox="0 0 256 256">
  <defs>
    <style>
      .cls-1 {
        fill: #231f20;
      }
    </style>
  </defs>
  <path class="cls-1" d="M230.33,51.89c6.72-5.99,8.36-9.98,6.22-15.11-7.21-17.26-36.48,8.49-40.04,35.22-1.12,8.44.73,7.99-29.85,7.33-32.7-.7-29.65,1.04-30.84-17.5-1.58-24.52-10.73-40.92-17.95-32.17-1.08,1.31-1.37,6.81-1.37,25.75q0,24.09-8,24.8c-4.4.4-12.05,1.24-17,1.88-29.96,3.88-53.98,1.86-60.5-5.07-9.29-9.89-17.86-6.16-15.05,6.56,3.88,17.57,35.42,24.21,84.84,17.84,18.48-2.38,18.41-2.42,18.05,10.33-.15,5.36-.14,15.15.03,21.75.78,30.86-.62,33.02-18.87,29-20.7-4.56-72.61-4-79.95.85-8.96,5.93-3.69,17.58,6.65,14.72,2.57-.71,9.15-.57,22.22.45,10.22.8,21.73,1.48,25.58,1.5,3.85.02,10.6.69,15,1.49s11.71,1.75,16.25,2.11c11.52.92,11.1-.25,8.44,23.72-3.25,29.21-2.99,32.56,2.8,35.98,7.16,4.23,15.01-1.31,15.01-10.61,0-1.86.65-7.84,1.44-13.3.79-5.46,1.75-14.55,2.13-20.2.84-12.49.28-12.07,15.31-11.53,14.59.52,15.94.82,17.27,3.74.96,2.11,9.5,8.56,11.33,8.56,6.71,0,15.43,12.28,10.98,15.46-16.47,11.76-11.81,34.08,6.74,32.29,23.81-2.29,23.35-47.77-.61-59.14-4.46-2.12-4.52-3.2-.28-4.98,15.42-6.44,21.59-26.07,20.05-63.82-.82-20.33-1.06-19.82,9.35-19.82,7.17,0,7.62-.14,10.88-3.4,7.77-7.77,1.38-16.6-12.02-16.6-12.27,0-9.26-14.74,5.75-28.11ZM192.9,157.94c-2.26,7.55-9.78,10.09-29.62,10-25.69-.11-28.23-2.08-23.6-18.31.57-2,9.07-1.86,25.32.42,3.57.5,11.06.92,16.63.93,12.08.02,13.15.69,11.27,6.96ZM192,129.24c-4.76,1.11-49.78-.37-51.95-1.71-1.99-1.23-1.36-26.24.7-27.53,3.1-1.95,52.43-.33,54.03,1.78,3.31,4.35,1.06,26.56-2.78,27.46Z"/>
  <path class="cls-1" d="M223.72,175.13c-7.94,5.92-7.3,17.93,1.18,22.32,5.55,2.87,10.97,1.19,15.54-4.79,8.08-10.59-6.1-25.45-16.73-17.52Z"/>
</svg>