<?xml version="1.0" encoding="UTF-8"?>
<svg id="Layer_1" data-name="Layer 1" xmlns="http://www.w3.org/2000/svg" viewBox="0 0 256 256">
  <path d="M230.07,131.79c-6.97-5.97-18.2-7.85-34.6-5.79-4.39.55-16.3,1.68-26.47,2.51-10.17.83-21.26,1.79-24.64,2.13-8.17.82-7.73,3.79-7.06-48.14.53-40.61-6.58-64.29-17.07-56.94-2.01,1.41-2.43,1.41-4.45,0-2.88-2.02-15.38-1.98-22.28.06-2.75.81-6.62,1.84-8.6,2.27-12.1,2.66-35.18,16.16-45.4,26.55-25.23,25.66-33.57,87.47-16.89,125.21.77,1.73,1.39,3.5,1.39,3.93,0,18.2,32.01,49.99,61.5,61.08,49.76,18.71,113.04-12.31,137.75-67.52,9.08-20.3,7.45-19.47-33.25,16.78-26.23,23.36-43.15,34.35-50.68,32.9-1.79-.35-3.52-58.92-1.92-65.27.83-3.32,4.79-4.32,22.1-5.55,7.7-.55,20.69-1.72,28.88-2.61,8.96-.97,17.51-1.35,21.5-.95,3.64.36,8.87.88,11.62,1.15,13.52,1.33,19.08-12.8,8.57-21.8ZM87.5,226.02c-.55-.43-2.13-1.12-3.5-1.53-14.22-4.3-40-28.64-40-37.76,0-.56-.84-2.86-1.88-5.12-4.81-10.53-8.65-22.95-7.61-24.62.36-.59,2.04-.34,4.29.64,13.36,5.8,39.16,7.57,58.66,4.04,8.13-1.47,12.43-.94,12.64,1.57.06.7.03,10.83-.05,22.51-.16,22.1,1.04,35.61,3.59,40.55,3.76,7.27-16.68,7.07-26.15-.26ZM114.56,97.5c-.82,6.6-1.8,16.87-2.17,22.82-.41,6.57-1.18,11.32-1.95,12.09-4.09,4.09-50.09,5.4-62.51,1.79-4.16-1.21-8.91-2.2-10.55-2.2-11.46,0-3.69-42.35,11.46-62.41,8.47-11.21,35.65-26.06,54.92-30,3.44-.7,6.58-1.59,6.96-1.98,5.07-5.07,7.4,31.24,3.84,59.89Z"/>
</svg>