<?xml version="1.0" encoding="UTF-8"?>
<svg id="Layer_1" data-name="Layer 1" xmlns="http://www.w3.org/2000/svg" viewBox="0 0 256 256">
  <path d="M191.09,112.32c-7.82-.93-7.47.11-7.25-21.49.29-28.21,1.68-35.94,7.05-39.11,9.7-5.73,12.37-16.65,5.7-23.32-4.8-4.8-9.33-4.75-13.25.17-1.57,1.96-4.7,5.49-6.97,7.84-9.87,10.22-11.33,15.84-12.08,46.59-.65,26.38-3,34.77-7.65,27.25-2-3.24-.9-55.99,1.25-59.98,10.03-18.59-8.89-31.39-22.57-15.26-7.05,8.31-7.82,12.01-7.83,37.42,0,17.44-.31,23.02-1.26,23.33-.69.23-1.25.04-1.25-.42-.17-65.35.12-63.53-10.87-68.4-6.03-2.67-8.77-2.45-12.2.99-3.92,3.92-3.76,7.34.63,13.72q3.55,5.16,4.16,28.22c.68,25.87.94,24.76-6.71,28.64-5.01,2.54-12,9.56-12,12.05,0,3.36-4.65,6.45-9.71,6.45-2.64,0-8.5.76-13.03,1.7-7.86,1.63-8.47,1.62-13.27-.1-5.89-2.12-8-1.18-8,3.56,0,8.42,8.58,12.97,25.5,13.54q16,.54,17.93,5.41c2.62,6.54,6.12,10.35,11.8,12.83,2.9,1.26,5.94,2.63,6.77,3.03,1.26.63,1.63,6.08,2.34,34.64.9,36.24,1.25,38.67,5.79,39.2,7.67.89,8.5-2.81,9.82-43.76,1.49-46.55,3.3-45.78,4.61,1.96.93,33.92,4.95,46,15.31,46s11.98-5.98,11.46-48.4c-.52-41.85.2-54.1,3.19-54.1,1.94,0,2,.7,2.09,22.5.13,30.86,3.51,48.64,11.48,60.45,29.36,43.51,81.66-18.67,60.9-72.39-4.98-12.88-26.89-28.97-41.88-30.74ZM213.82,192.13c-8,14.62-17.25,20.29-23.02,14.12-5.16-5.51-6.25-9.2-9.97-33.75-1.3-8.55-.36-37.16,1.28-39.13,5.34-6.44,31.25,9.39,33.62,20.55,1.97,9.23.76,33.33-1.91,38.21Z"/>
</svg>