<?xml version="1.0" encoding="UTF-8"?>
<svg id="Layer_1" data-name="Layer 1" xmlns="http://www.w3.org/2000/svg" viewBox="0 0 256 256">
  <path d="M197.94,124.62c-8.18,7.89-5.82,8.6-22.66-6.82-23.79-21.78-77.69-59.15-106.28-73.7-9.58-4.87-13.22-6.95-20.71-11.8-12.11-7.84-20.36-10.11-23.63-6.49-3.05,3.37-.96,10.17,3.12,10.17,1.38,0,8.03,3.75,10.73,6.04,3.78,3.22,12.31,8.84,18.11,11.93,8.65,4.62,35.03,22.72,52.58,36.1,4.02,3.06,11.81,8.65,17.31,12.42,14.89,10.19,21,15.05,31.5,25,5.23,4.96,11.79,11.03,14.58,13.51,7.94,7.04,7.96,7.17,2.26,17-14.48,24.94-17.09,48.05-6.89,60.93,9.76,12.32,25.54,13.09,37.9,1.85,14.17-12.88,14.88-41.68,1.68-67.74-3.45-6.8-3.29-7.56,2.89-14.04,16.35-17.14,4.52-30.78-12.46-14.39ZM197.05,199.86c-3.25,11.97-14.45,12.16-16.68.29-1.08-5.73,5.3-26.48,9.39-30.57,5.04-5.04,10.61,18.08,7.29,30.29Z"/>
</svg>