<?xml version="1.0" encoding="UTF-8"?>
<svg id="Layer_1" data-name="Layer 1" xmlns="http://www.w3.org/2000/svg" viewBox="0 0 256 256">
  <path d="M219.79,177.85c-19.63,6.89-17.65,6.63-49.7,6.42-35.86-.23-33.59,6.7-33.59-102.78,0-53.27.36-48.88-4.38-53.62-4-3.99-7.12-4.76-11.74-2.9-4.62,1.87-6.66,6.63-7.51,17.52-1.22,15.63-1.47,75.53-.46,108.12,1.07,34.19,2.06,31.56-11.41,30.27-40.56-3.88-41.55-3.94-49-2.91-4.13.57-11.41,1.47-16.19,2.01-14.73,1.65-20.84,5.44-20.77,12.89.08,9.53,3.28,10.49,37.47,11.27,15.95.36,31.93,1.11,35.5,1.67,3.57.56,10.23,1.32,14.79,1.7,10.48.87,11.21,1.57,11.21,10.58,0,14.39,7.33,21.5,17.53,16.99,6.4-2.83,8.95-8.81,8.1-18.99-1.03-12.37,4.51-14.81,23.04-10.15,13.79,3.47,16.75,6.04,17.64,15.33.57,5.96,2.65,13.74,4.92,18.43,3.9,8.07,22.48,13.23,33.19,9.22,17.34-6.49,13.53-22.2-4.95-20.47-9.06.85-10.47.06-10.47-5.88,0-2.29-.92-6.78-2.04-9.97-2.42-6.87-1.84-8.08,4.31-9.02,4.23-.65,9.53-2.2,19.57-5.73,2.94-1.03,6.25-1.88,7.37-1.88,3.03,0,9.79-7.21,9.79-10.43,0-9.11-9.17-12.29-22.21-7.71Z"/>
</svg>