<?xml version="1.0" encoding="UTF-8"?>
<svg id="Layer_1" data-name="Layer 1" xmlns="http://www.w3.org/2000/svg" viewBox="0 0 256 256">
  <path d="M90.73,176.27c-11.15.29-20.7,1.01-22.73,1.72-12.2,4.24-32.68.79-36.31-6.11-7.45-14.14-22.41-3.88-15.75,10.8,6.2,13.66,30.33,20.39,53.47,14.92,8.39-1.98,39.34-3.25,41.6-1.7,1.16.8,1.62,4.15,2.05,14.82.76,18.96,4.88,26.27,14.8,26.29,10.04.01,12.15-4.57,12.15-26.34s-4.42-18.58,33.75-19.34c43.03-.86,41.6-1.52,43.24,20,1.1,14.38,2.77,19.07,7.85,22.02,16.81,9.78,18.21-37.6,1.62-54.69-7.18-7.39-5.62-7.16-47.74-7.16-30.77,0-37.94-.25-38.63-1.36-.46-.75-.66-24.15-.44-52,.22-27.85,0-55.37-.48-61.14-1.15-13.58-.26-15.52,6.68-14.66,55.52,6.94,94.17,1.91,94.15-12.24-.02-11.31-5.87-13.36-36-12.67-15.51.36-29.81.17-36.5-.49-15.04-1.47-50.93-1.99-62.44-.9-5.19.49-13.07,1.55-17.5,2.34-4.43.79-11.21,1.73-15.06,2.08s-10.89,1.29-15.63,2.09c-13.36,2.25-19.73,2.14-23.87-.41-12.38-7.62-22.82,7.72-13.35,19.6,6.46,8.1,16.55,10.38,35.16,7.96,6.98-.91,15.4-1.93,18.7-2.27s9.82-1.22,14.5-1.97c27.61-4.42,24.53-12.53,24.36,64.19-.17,75.03,2.78,65.96-21.63,66.59Z"/>
</svg>