<?xml version="1.0" encoding="UTF-8"?>
<svg id="Layer_1" data-name="Layer 1" xmlns="http://www.w3.org/2000/svg" viewBox="0 0 256 256">
  <path d="M208,17.44c-15.51.36-29.81.17-36.5-.49-15.04-1.47-50.93-1.99-62.44-.9-5.19.49-13.07,1.55-17.5,2.34-4.43.79-11.21,1.74-15.06,2.11-3.85.37-10.7,1.3-15.21,2.08-13.02,2.24-20.16,2.11-24.29-.42-5.25-3.23-9.52-2.85-13.6,1.24-7.69,7.69-2.01,21.62,10.27,25.19,7.03,2.04,7.38,3.3,2.49,9.12-22.54,26.86-29.18,86.57-13.56,121.94.77,1.73,1.39,3.5,1.39,3.93,0,18.2,32.01,49.99,61.5,61.08,49.74,18.71,113.05-12.33,137.75-67.52,9.06-20.24,7.25-19.33-32.75,16.36-26.05,23.26-36.85,30.88-42.88,30.29-3.61-.35-4.68-32.2-3.85-114.3.23-22.55-.01-45.95-.53-52-1.22-14.13-.39-16.03,6.62-15.16,55.52,6.94,94.17,1.91,94.15-12.24-.02-11.31-5.87-13.36-36-12.67ZM55.82,205.34c-4.37-4.51-11.82-16.22-11.82-18.58,0-.57-.84-2.89-1.88-5.15-8.4-18.39-10.12-26.56-10.12-48.02,0-48.52,18.85-79.56,52.48-86.43,7.38-1.51,7.14-2.38,7.81,27.58.33,14.71,1.13,30.35,1.77,34.75,2.95,20.09-.07,54.94-5.84,67.43-6.15,13.29-5.19,26.62,2.83,39.65,7.63,12.39,20.64,2.36,14.85-11.45-2.85-6.81-3.24-16.43-.81-20.17,7.84-12.1,8.86-45.46,3.73-122.28-1.02-15.3-.99-17.96.24-18.73,7.03-4.45,9.51,17.49,7.9,70.06-.66,21.42.54,108.21,1.56,112.86,3.2,14.63-43.1-1.26-62.71-21.52Z"/>
</svg>