<?xml version="1.0" encoding="UTF-8"?>
<svg id="Layer_1" data-name="Layer 1" xmlns="http://www.w3.org/2000/svg" viewBox="0 0 256 256">
  <defs>
    <style>
      .cls-1 {
        fill: #231f20;
      }
    </style>
  </defs>
  <path class="cls-1" d="M240.75,67.25c-4.37-4.51-12.08-4.72-16.87-.44-6.97,6.23-4.28,18.45,4.97,22.63,12.02,5.42,21.5-12.26,11.89-22.19Z"/>
  <path class="cls-1" d="M184.74,164.89c6.81.97,6.51.45,7.37,12.87,2.12,30.62,27.19,61.11,40.82,49.65,2.54-2.14,3.08-3.32,3.08-6.81,0-4.47-.1-4.62-8.54-12.6-13.7-12.96-14.59-16.68-15.45-64.5-.87-48.91-1.11-50-13.69-63.71-5.45-5.93-5.47-5.8,1.53-10.12,10.58-6.53,17.7-15.45,21.56-27,4.93-14.75-15.61-31.8-29.42-24.42-10.92,5.83-12.33,19.32-2.95,28.3,3.64,3.49,3.66,4.01.2,5.96-1.51.86-4.1,2.42-5.75,3.47-22.72,14.51-29.03,13.06-27.99-6.43,1.02-19.08-2.78-28.55-11.45-28.55-9.1,0-13.83,10.38-14.91,32.71-.44,9.11-1.13,14.66-1.92,15.45-2.67,2.67-3.45-.94-3.98-18.32-.62-20.53-2.84-26.61-9.4-25.67-3.9.56-4.82,4.17-4.91,19.33-.2,33.15,1.71,30.67-27.44,35.59-3.3.56-8.22,1.66-10.93,2.46-11.91,3.5-39.77,1.94-45.45-2.55-8.12-6.42-13.12-5.3-13.11,2.95.01,13.22,10.36,18.55,38.29,19.72,15.46.65,18.82.25,41.23-4.81,4.96-1.12,10.36-1.89,12-1.7,4.41.5,3.79,3.08-.97,4.07-2.17.45-4.65,1.42-5.5,2.15-.85.73-3.67,2.36-6.25,3.63-12.8,6.25-19.13,16.32-19.23,30.56-.11,14.61,7.22,21.58,28.34,26.95,7.46,1.9,7.31,1.34,6.69,24.87q-.55,20.89-4.07,26.01c-10.01,14.53,6.34,22.79,18.98,9.6,2.89-3.02,3-3.46,3.07-12.81.35-44.07.44-46.35,1.67-45.94.94.31,1.25,5.47,1.28,20.83.04,22.62.99,26.87,7.82,34.92,13.68,16.13,32.65,3.27,22.54-15.27-13.48-24.71-.32-44.71,26.86-40.84ZM101.82,144.2c-13.58,0-15.49-13.35-3.03-21.22,7.83-4.95,8.66-4.26,8.99,7.54.33,11.74-.52,13.69-5.96,13.69ZM159.32,87.7c21.6-4.21,30.88,6.42,32.24,36.9.95,21.21,2.48,19.41-16.56,19.41-20.52,0-18.55,2.88-19.29-28.12-.63-26.35-.5-27.38,3.61-28.18Z"/>
</svg>