<?xml version="1.0" encoding="UTF-8"?>
<svg id="Layer_1" data-name="Layer 1" xmlns="http://www.w3.org/2000/svg" viewBox="0 0 256 256">
  <path d="M123,26c-3.2,2.5-5.24,2.5-7.5,0-2.25-2.49-14.18-2.7-22-.39-2.75.81-6.62,1.84-8.6,2.27-3.26.72-5.52,1.64-16.9,6.94-32.56,15.14-48.21,38.75-52.47,79.18-2.96,28.07-.84,47.74,7.08,65.65.77,1.73,1.39,3.5,1.39,3.93,0,.83,1.88,5.11,7.7,17.54,4.11,8.77,3.96,9.43-2.2,10.12-15.64,1.76-19.92,20.62-5.62,24.72,1.78.51,10.93.66,20.54.33,17.36-.6,27.83.97,33.24,4.96,14.87,10.97,47.59,11.94,76.83,2.28,9.57-3.16,10.84-3.33,29.5-3.84,37.52-1.04,58.52-12.16,47.07-24.92q-2.93-3.27-16.5-3.07c-15.5.22-15.46.25-9.26-7.08,14.18-16.79,26.04-40.61,20.21-40.61-1.66,0-6.47,4.04-35.35,29.77-25.27,22.5-27.33,23.23-43.12,15.26-6.8-3.43-6.05-1.05-9.15-29.03-3.07-27.64-3.35-95.48-.51-122.5,2.89-27.47-3.02-40.4-14.39-31.5ZM117.92,42.96c-.4,2.5-1.02,9.72-1.39,16.04-.37,6.33-1.32,16.66-2.1,22.96-1.56,12.5-1.98,108.6-.53,118.84,1.25,8.8,1.76,8.6-24.07,9.34-33.79.97-36.12-.46-48.36-29.64-8.07-19.24-9.47-26.15-9.47-46.68,0-54.76,22.02-83.61,72-94.35,3.58-.77,7.85-1.83,9.5-2.35s3.3-.99,3.67-1.04c1.21-.16,1.48,2.27.75,6.87Z"/>
  <path d="M164.34,117.06c22.7,5.06,41.04-16.06,33-38.02-5.43-14.83-27.04-23.48-41.13-16.46-22.51,11.23-16.89,48.9,8.13,54.48ZM160.17,77.75c1.19-2.3,4.72-2.19,7.83.25,1.37,1.08,2.95,1.97,3.5,1.98,5.97.16,10.69,11.9,6.4,15.9-11.76,10.96-25.5-3.09-17.73-18.13Z"/>
</svg>