<?xml version="1.0" encoding="UTF-8"?>
<svg id="Layer_1" data-name="Layer 1" xmlns="http://www.w3.org/2000/svg" viewBox="0 0 256 256">
  <path d="M20.83,226.35c3.65,3.3,11.51,1.07,23.46-6.66,7.49-4.85,11.14-6.93,20.71-11.8,7.49-3.81,19.33-10.96,35.5-21.42,9.77-6.32,9.5-6.57,9.5,8.53,0,32.37,9.1,47.37,22.39,36.92,5.26-4.14,5.37-5.02,4.87-36.41-.63-39.45-1.9-37.69,28.74-40.04,9.62-.74,21.9-1.87,27.28-2.52,5.38-.64,12.8-.87,16.5-.5,3.7.37,8.97.89,11.72,1.16,9.27.91,16.06-6.45,13.57-14.73-1.18-3.93-8.17-10.84-11.01-10.88-3.95-.06-10.01-3.94-11.93-7.65-1.09-2.1-4.04-5.83-6.56-8.28-5.3-5.15-5.48-6.33-2.06-13.09,20.05-39.58,5.89-81.07-25.61-75.01-23.46,4.51-26.69,36.38-7.09,70.06,5.72,9.83,5.7,9.97-2.25,16.98-2.8,2.47-8.01,7.25-11.58,10.63-19.8,18.7-20.43,17.46-19.7-39.11.33-25.92-4.59-56.18-9.41-57.87-9.98-3.5-11.26.61-12.03,38.37-.35,17.33-1.1,34.65-1.67,38.5s-1.35,12.09-1.74,18.31c-.44,6.97-1.2,11.8-1.99,12.59-4.17,4.17-50.09,5.41-62.86,1.7-22.77-6.61-33.98.85-21.54,14.34,11.73,12.73,38.65,18.13,67.73,13.59,9.71-1.52,10.69-1.05,6.54,3.09-4.86,4.86-38.02,27.72-47.72,32.89-5.8,3.1-14.33,8.71-18.11,11.93-2.91,2.47-9.39,6.04-10.99,6.04-4.15,0-6.05,7.3-2.69,10.35ZM186.45,127.29c-4.9.93-6.39-.66-3.5-3.74,3.02-3.22,4.78-3.23,6.23-.05,1.34,2.93,1.26,3.03-2.73,3.79ZM179.1,45.6c7.1-9.02,15.74,2.19,14.57,18.9-1.35,19.27-5.34,23.45-11.21,11.73-6.58-13.16-7.87-24.89-3.36-30.62Z"/>
</svg>