<?xml version="1.0" encoding="UTF-8"?>
<svg id="Layer_1" data-name="Layer 1" xmlns="http://www.w3.org/2000/svg" viewBox="0 0 256 256">
  <path d="M75.36,163.31c-39.44.21-42.5.72-50.69,8.5-17.4,16.51-4.78,37.04,13.71,22.3,6.2-4.94,8.41-5.18,41.33-4.45,36.96.81,32.78-2.19,32.43,23.3-.33,23.91,1.22,28.05,10.55,28.05,10.34,0,14.15-9.22,15.83-38.32.87-15.05-.48-13.78,16.49-15.44,39.06-3.81,48.54-2.97,55.32,4.92,12.18,14.17,30.47,4.89,24.72-12.54-6.63-20.08-28.77-24.44-92.33-18.18-8.79.87-8.23,3.75-11.28-57.63-.67-13.57-2.92-12.66,28.57-11.6,52.06,1.75,58.75,1.06,66.45-6.87,16.62-17.11,15.22-64.48-1.62-54.69-5.08,2.96-6.75,7.64-7.85,22.02-1.66,21.71.33,20.86-46.82,19.93-44-.87-42.46.29-37.11-27.92,2.65-13.96-7.87-23.09-16.57-14.38-2.53,2.53-3.46,4.47-3.94,8.25-.34,2.72-1.28,8.83-2.09,13.58-.81,4.75-1.46,9.99-1.46,11.63,0,5.87-18.24,7.04-39.82,2.56-23.75-4.94-46.17.98-52.6,13.89-7.59,15.23,7.21,26.9,15.11,11.91,3.64-6.92,23.88-10.35,36.31-6.16,1.93.65,10.7,1.4,19.5,1.66,18.65.56,20.19.79,20.91,3.12,1.72,5.58,4.81,70.37,3.42,71.76-.34.34-16.75.7-36.47.8Z"/>
</svg>