<?xml version="1.0" encoding="UTF-8"?>
<svg id="Layer_1" data-name="Layer 1" xmlns="http://www.w3.org/2000/svg" viewBox="0 0 256 256">
  <path d="M210.32,71.84c-6.78,7.89-16.27,8.73-55.32,4.92-16.97-1.66-15.62-.39-16.49-15.44-1.97-34.16-10.73-47.3-23.2-34.82q-3.49,3.49-3.18,23.48c.35,22.02-.14,24.24-4.43,20.21-1.28-1.2-2.62-2.19-2.98-2.19s-3.26-1.73-6.44-3.85c-12.44-8.29-23.19-14.77-32.28-19.46-10.77-5.56-14.31-7.58-21.71-12.37-15.41-9.98-25.29-10.81-25.29-2.14,0,2.53,2.7,5.83,4.77,5.83,1.38,0,8.03,3.75,10.73,6.04,3.69,3.14,12.25,8.8,17.69,11.71,16.04,8.56,29.08,18.87,26.02,20.58-.39.22-7.91.35-16.71.29-17.48-.12-15.47.43-27.09-7.43-12.29-8.31-23.11,4.45-15.19,17.9,8.38,14.21,12.56,15.37,56.15,15.61,43.15.24,38.95-5.72,35.1,49.8-1.88,27.05-1.88,50.27,0,61.36.81,4.75,1.74,10.87,2.09,13.58.48,3.78,1.41,5.72,3.94,8.25,8.7,8.7,19.33-.51,16.5-14.29-2.42-11.77-2-75.98.67-100.65,1-9.26.33-9.66,29.56,17.19,13.95,12.81,13.59,11.78,7.62,22.06-14.48,24.94-17.09,48.05-6.89,60.93,9.76,12.32,25.54,13.09,37.9,1.85,14.17-12.88,14.88-41.68,1.68-67.74-3.45-6.8-3.29-7.56,2.89-14.04,16.26-17.05,4.54-30.8-12.36-14.49-7.95,7.68-7.16,7.54-12.94,2.3-25.45-23.07-25.69-23.55-10.78-21.89,39.89,4.45,67.75-7.75,65.4-28.63-1.49-13.23-15.72-15.73-25.41-4.46ZM185.76,169.58c5.04-5.04,10.61,18.08,7.29,30.29-3.25,11.97-14.45,12.16-16.68.29-1.08-5.73,5.3-26.48,9.39-30.57Z"/>
</svg>