<?xml version="1.0" encoding="UTF-8"?>
<svg id="Layer_1" data-name="Layer 1" xmlns="http://www.w3.org/2000/svg" viewBox="0 0 256 256">
  <path d="M19.04,121.96c-2.59,2.59-2.6,6.9-.03,11.82,5.97,11.45,19.25,15.67,36.6,11.65,27.31-6.33,39.25-2,27.1,9.83-8.7,8.47-12.73,15.61-12.7,22.51.03,8.36,8.12,22.7,14.74,26.12,4.97,2.57,1.48,14.06-5.77,19.01-11.85,8.08-3.78,17.18,11.52,12.98,7.87-2.16,13.74-11.14,17.1-26.15,1.79-7.98,5.4-2.97,5.4,7.48,0,16.06,8,23.23,15.9,14.24q3.1-3.54,3.12-18.25c.02-17.61-.52-16.58,9.79-18.68,13.53-2.75,19.19-.6,19.19,7.29,0,11.34,15.47,13.38,19.05,2.52,6.12-18.55-9.92-33.35-33.45-30.86-15.35,1.63-14.07,2.53-14.39-10.14-.42-16.61,1.15-17.27,32.78-13.85,44.92,4.86,74-.38,74-13.33,0-8.41-7.65-10.58-21.81-6.2-15.19,4.7-36.92,1.86-32.75-4.28,13.01-19.17,6.58-35.85-14.58-37.81-5.01-.46-11.85-1.34-15.19-1.94-3.34-.61-9.02-.97-12.62-.8-9.77.45-9.12,2.51-9-28.77.12-30.48-.22-32.37-5.88-32.37-7.66,0-10.04,8.63-10.98,39.76-.94,30.95-3.33,33.3-4.31,4.24-.67-19.76-1.25-22.4-7.34-33.19-6.05-10.73-14.63-14.05-19.95-7.73-3.64,4.33-2.83,12.23,1.84,17.92,5.11,6.23,7.35,42.34,2.84,45.75-7.82,5.92-23.97-5.56-25.69-18.25-1.89-14.01-7.56-15.44-9.69-2.44-3.2,19.47,12.05,36.94,32.24,36.94,4.88,0,6.33,2.43,5.52,9.26-.85,7.22-1.16,7.39-14.41,8.03-6.49.31-13.98,1.29-16.74,2.19-10.53,3.41-27.43,2.6-32.58-1.55-6.35-5.13-6.63-5.22-8.89-2.96ZM132.38,105.19c1.16-1.88,16.89-1.42,27.62.81,5.23,1.09,9.61,1.98,9.75,1.99,1.5.08-.5,4.7-3.23,7.42-8.2,8.21-31.67,13.92-34.61,8.43-1.22-2.28-.86-16.5.47-18.65Z"/>
</svg>