<?xml version="1.0" encoding="UTF-8"?>
<svg id="Layer_1" data-name="Layer 1" xmlns="http://www.w3.org/2000/svg" viewBox="0 0 256 256">
  <defs>
    <style>
      .cls-1 {
        fill: #231f20;
      }
    </style>
  </defs>
  <path class="cls-1" d="M223.88,70.29c-8.96,7.57-5.28,21.63,5.68,21.69,4.8.03,9.46-4.12,11.38-10.14,3.19-10.02-9.04-18.31-17.05-11.55Z"/>
  <path class="cls-1" d="M234.44,219.97c-3.73-1.6-4.49-2.45-5.49-6.16-.64-2.36-1.95-5.43-2.91-6.81-5.5-7.86-6.06-12.51-6.36-52.33-.37-50.67-4.21-62.31-23.93-72.68-6.3-3.31-6.07-4,2.88-8.59,16.79-8.61,24.82-20.88,24.82-37.91,0-16.37-16.4-28.11-28.2-20.19-9.57,6.43-9.06,19.07,1.12,27.84,6.52,5.62-6.42,14.8-26.36,18.71-6.33,1.24-14.93,3.13-19.12,4.19-8.9,2.26-21.68,2.63-22.44.64-.85-2.21,4.15-28.28,5.9-30.78,4.48-6.4-.1-16.92-7.36-16.92-6.09,0-9.45,3.22-12.94,12.39-1.34,3.53-6.04,31.8-6.04,36.35,0,3.98-2.42,5.23-10.32,5.32-2.85.03-7.43.48-10.18.99-2.75.51-13.1,1.36-23,1.88-10.84.57-19.99,1.56-23,2.5-6.74,2.1-11.35,1.97-15.27-.43-8.66-5.28-14.42,2.87-7.68,10.87,7.4,8.8,20.42,9.52,80.61,4.47,8.78-.74,8.46-1.67,9.14,27.21.31,13.22,1.27,29.42,2.13,36,6.1,46.42,6.54,52.87,3.73,54.38-1.12.6-16.93,1.02-40.16,1.06-39.86.07-40.94.13-47.49,2.8-13.28,5.4-19.16,13.91-13.91,20.15,3.33,3.96,6.47,3.98,15.07.08q6.62-3,75.41-3c72.66,0,78.95.31,108.93,5.46,8.17,1.4,13.71,1.84,20.83,1.64,11.11-.31,12.31-14.53,1.61-19.12ZM128.31,93.25c1.3-2.02,17.84-1.56,27.19.75,4.4,1.09,8.97,1.98,10.16,1.99,21.77.12,31.75,9.84,33.26,32.41q.75,11.23-10.94,11.99c-5.24.34-13.07,1.3-17.42,2.13-8.37,1.6-40.04,1.45-41.6-.21-1.05-1.11-1.66-47.5-.65-49.06ZM196.18,214.06c-3.67-.67-18.74-1.46-33.49-1.77-32.42-.67-29.28,1.31-30.16-19-1.41-32.27-1.53-30.81,2.47-30.62,28.58,1.33,33.08,1.33,41.5,0,22.02-3.46,23.82-2.67,22.85,9.97-.81,10.56,1.04,26.39,4.05,34.69,2.96,8.17,2.59,8.51-7.23,6.73Z"/>
</svg>