<?xml version="1.0" encoding="UTF-8"?>
<svg id="Layer_1" data-name="Layer 1" xmlns="http://www.w3.org/2000/svg" viewBox="0 0 256 256">
  <path d="M208.24,212.3c-8.35,1.07-8.95-.44-3.01-7.53,2.44-2.9,5.95-7.52,7.82-10.27,1.86-2.75,4.11-5.9,4.99-7,2.46-3.08,8.96-18.37,8.96-21.08,0-5.27-2.41-3.47-37.52,27.93-23.7,21.19-24.26,21.43-37.13,15.26-8.3-3.98-7.38-1.37-10.26-29.1-2.4-23.11-3.75-57.98-2.29-58.88,1.49-.92,4.2.37,4.2,2.01,0,1.94,7.69,10.14,12.17,12.98,13.1,8.29,31.89,7.95,44.6-.8,13.17-9.06,19.48-36.8,10.26-45.06-8.03-7.19-16.02-.25-16.03,13.92-.02,15.69-14.61,24.17-28.47,16.56-17.02-9.35-14.79-35.08,4.41-50.65,8.84-7.17,13.06-14.71,13.06-23.33,0-12.67-9.59-12.35-15.39.51-1.4,3.11-3.62,5.36-8.55,8.7-7.61,5.15-11.47,9.7-15.55,18.29-4.14,8.74-5.14,2.94-3.03-17.64,2.07-20.15,1.17-26.87-4.13-31.04-4.98-3.92-11.56-1.52-12.93,4.71-.33,1.5-.99,3.99-1.48,5.55-.49,1.55-1.38,9.88-1.97,18.5-.59,8.62-1.82,20.85-2.73,27.18-1.78,12.36-1.98,107.62-.25,118.5.93,5.83.05,8.02-3.56,8.92-7.16,1.8-7.66-.03-5.23-19.48,1.63-13.06,3.44-109.77,2.82-150.11-.01-.92,1.55-2.64,3.47-3.83,11.36-7.02-4.07-15.16-21-11.07-1.65.4-3.98,1.25-5.18,1.9-1.2.65-3.14,1.17-4.31,1.17-1.9,0-5.65,1.5-17,6.81-32.65,15.27-48.21,38.75-52.47,79.19-2.96,28.07-.84,47.74,7.08,65.65.77,1.73,1.39,3.5,1.39,3.93,0,.86,2.27,6.01,7.56,17.18,4.16,8.78,4.24,10.03.69,10.75-11.42,2.31-16.97,13.83-10.16,21.08,3.52,3.75,7.78,4.37,25.41,3.71q17.44-.66,31.99,5.75c25.38,11.18,42.45,11.63,73,1.94q12-3.81,33.5-4.32c33.07-.78,52-7.61,52-18.74,0-8.52-9.37-11.25-29.76-8.64ZM87.02,209.34c-1.33,1.39-16.09,1.78-21.88.58-10.4-2.16-17.52-12.18-26.94-37.92-7.29-19.91-8.67-44.91-3.76-68.02,6.18-29.08,16.16-41.73,43.53-55.18,9.77-4.8,9.41-5.13,10.29,9.28.95,15.56-.15,150.12-1.24,151.26Z"/>
</svg>