<?xml version="1.0" encoding="UTF-8"?>
<svg id="Layer_1" data-name="Layer 1" xmlns="http://www.w3.org/2000/svg" viewBox="0 0 256 256">
  <defs>
    <style>
      .cls-1 {
        fill: #231f20;
      }
    </style>
  </defs>
  <path class="cls-1" d="M229.76,187.84c-1.25-.09-3.53-.24-5.07-.35-5.15-.36-5.32-1.74-1.36-10.54,8.19-18.18,5.37-17.48-19.82,4.85-7.06,6.26-7.76,6.4-23.18,4.69-7.44-.83-17.94-1.5-23.32-1.5-15.78,0-16.51-4.58-16.51-103.5,0-53.27.36-48.88-4.38-53.62-4.49-4.49-7.25-4.88-13.2-1.84q-4,2.04-6.59,0c-3.75-2.95-20.1-2.98-25.59-.04-2.05,1.1-4.58,2-5.61,2-7.71,0-35.42,16.06-45.62,26.44-24.51,24.93-34.04,92.63-17.43,123.8,1.41,2.65,1.11,4.97-1.07,8.26-4.67,7.04-1,14.58,8.19,16.85,1.68.41,4.91,3.38,8.63,7.94,38.52,47.14,105.48,52.13,150.18,11.18,7.33-6.72,8.88-7.46,15.47-7.47,25.28-.04,36.03-4.55,36.03-15.14,0-5.56-4.96-11.68-9.74-12.01ZM34.44,103.98c6.18-29.08,16.16-41.73,43.53-55.18,4.14-2.04,7.97-3.58,8.51-3.42,1.55.44,1.36,131.52-.19,132.8-.82.68-4.64.64-11.69-.12-9.78-1.05-24.25-.28-29.02,1.55-10.56,4.05-17.73-44.6-11.14-75.63ZM84.01,218.99c-4.22,4.51-7.89,3.25-21.74-7.49-6.18-4.79-6.98-6.29-4-7.43,2.31-.88,17.59-.34,23.73.84,6.68,1.29,7.64,8.05,2.01,14.08ZM109.86,38.91c7.01-5.68,7.22-4.51,5.93,32.78-.82,23.77-.81,37.74.07,55.31,2.42,48.71,1.79,56.03-4.71,54.33-4.69-1.23-5.94-138.65-1.29-142.42ZM117.76,230.75c-4.46,5.52-15.95.49-12.83-5.61,1.21-2.36,2.07-5.98,2.07-8.66,0-2.53.47-5.48,1.03-6.54,1.11-2.08,5.38-2.59,7.95-.96,1.85,1.17,3.37,19.81,1.78,21.78ZM147.69,224.25c-3.53.27-5.44-8.44-2.6-11.86,1.36-1.63,18.55-.96,20.41.8,1.79,1.69-12.67,10.67-17.81,11.06Z"/>
</svg>