<?xml version="1.0" encoding="UTF-8"?>
<svg id="Layer_1" data-name="Layer 1" xmlns="http://www.w3.org/2000/svg" viewBox="0 0 256 256">
  <path d="M226.5,153.4c-11.62,5.13-10.16,21.28,2.27,25.05,9.99,3.04,19.17-11.9,12.2-19.85-5.45-6.21-9.16-7.55-14.46-5.21Z"/>
  <path d="M208,155.52c0-.67.9-2.02,2-3.02s2.01-2.98,2.03-4.41c.01-1.43.9-6.42,1.97-11.09,1.68-7.35,1.96-12.49,2.01-38,.08-35.25,2.15-42.38,14.83-51.09,8.33-5.72,10.46-13.96,4.93-19.11-12.65-11.81-38.77,17.66-39.61,44.7-.47,15.15.16,14.49-14.04,14.53-6.4.02-14.84.45-18.78.96-26.17,3.4-24.58,5.62-24.07-33.49.46-35.64.61-33.99-3.32-36.02-3.66-1.89-5.96-1.87-8.75.09-6.93,4.85-6.5-.25-9.04,107-.99,42.12-.22,40.35-15.6,35.53-41.19-12.92-89.57-2.01-89.57,20.21,0,6.01,7.59,7.33,10.44,1.81,4.97-9.61,37.49-12.19,64.56-5.12,6.88,1.79,15.15,3.85,18.38,4.57,7.98,1.78,7.83,1.43,7.45,16.41-.4,16.04.08,15.49-14.56,16.39-5.92.36-12.57,1.1-14.77,1.63-6.84,1.66-42.36,1.26-50.19-.57-19.6-4.57-24.76,6.44-7.48,15.96,10.11,5.57,46.35,7.83,65.98,4.1,12.46-2.36,114.8-2.42,124.48-.06,15.89,3.86,24.85-9.29,12.33-18.12q-4.3-3.03-4.98-11.91c-1.09-14.24-8.9-27.35-20.25-34-5.35-3.14-5.36-3.43-.38-10.76,2.2-3.24,4-6.43,4-7.1ZM151.69,109.75c6.5.1,13.84-.2,16.31-.66,7.24-1.35,25.42-1.27,26.8.11,2.1,2.1,1.54,17.17-.8,21.54-1.1,2.05-2,4.44-2,5.3,0,14.31-13.01,26.39-31.09,28.85-19.65,2.68-23.42,2.18-23.37-3.15.52-58.74-1.26-52.22,14.15-52ZM203.07,212.93c-1.92,3.03-61.83,3.87-67.29.95-8.8-4.71-.67-28.47,9.42-27.55,3.47.31,9.46.19,13.3-.27,28.11-3.4,53.89,12.14,44.57,26.87Z"/>
</svg>