<?xml version="1.0" encoding="UTF-8"?>
<svg id="Layer_1" data-name="Layer 1" xmlns="http://www.w3.org/2000/svg" viewBox="0 0 256 256">
  <path d="M145.79,102.59c5.69,1.03,5.85,1.41,6.51,15.15,2.7,56.54,57.98,61.89,59.45,5.76.51-19.44-.08-18.04,9.69-22.88,16.82-8.31,23.62-22.68,15-31.68-6.56-6.85-14.66-5.79-22.12,2.89-5.77,6.72-8.69,7.47-28.02,7.27-16.08-.17-16.57-.67-15.4-15.88.99-12.83,1.54-13.88,7.81-14.82,14.48-2.17,9.92-18.23-5.22-18.35-14.1-.12-20.2,7.28-21.67,26.28-1.1,14.21-1.82,17.62-4.04,19.02-3.33,2.1-4.5-.73-5.18-12.63-1.97-34.34-8.16-45.19-21.76-38.15-2.32,1.2-3.69,1.33-5.7.56-5.48-2.11-12.46-2.14-19.65-.08-3.85,1.1-8.62,2.37-10.6,2.81-12.78,2.86-35.27,16.23-46.51,27.66-4.46,4.53-8.99,8.52-10.07,8.87-5.53,1.76-7.6,5.94-7.8,15.81-.11,5.44-.87,11.37-1.84,14.29-7.31,22.17-5.38,64.09,3.92,85.15.77,1.73,1.39,3.5,1.39,3.93,0,1.06,3.19,8.15,8.28,18.42,14.93,30.12,63.2,54.04,96.01,47.58,3.96-.78,9.26-1.69,11.76-2.03,28.49-3.84,68.61-37.79,83.2-70.4,9.08-20.3,7.45-19.47-33.25,16.78-26.08,23.23-44.33,35.08-50.42,32.74-4.18-1.6-5.52-52.87-2.6-99.1,1.59-25.07,1.99-26.2,8.81-24.98ZM173.25,105.63c1.99-.85,16.11.5,17.59,1.69,2.65,2.13,1.19,29.43-1.7,31.77-5.64,4.56-13.9-1.06-16-10.89-1.57-7.34-1.5-21.88.11-22.57ZM112.61,39.58c2.19-5.71,3.25-.71,3.47,16.41.19,14.78-.42,18.16-2.99,16.57-1.16-.72-1.59-30.08-.48-32.97ZM115.86,127.93c-.85,24.49-2.1,31.06-3.2,16.87-.85-10.91-.84-42.28,0-43.13,3.72-3.72,4.12-.46,3.19,26.26ZM92.12,148.25c-1.49,58.3-4.25,72.67-13.96,72.73-8.08.05-34.13-26.11-34.17-34.33,0-.63-.71-2.5-1.57-4.15-1.93-3.7-4.68-11.42-7.94-22.27-4.28-14.26-3.3-51.24,1.61-60.41.79-1.48,1.66-1.84,3.24-1.35,6.38,1.98,12.02,2.43,30.79,2.47,26.3.06,23.36-6.26,21.99,47.3ZM50.19,74.1c-7.18-3.84,18.59-23.88,38.81-30.19,5.21-1.62,6.47-.81,6.8,4.34,1.47,22.84-24.14,37.34-45.62,25.85ZM108.31,231.98c-7.77.02-8.59-5.52-2.16-14.52.41-.57,1.19-3.83,1.74-7.26s1.28-6.67,1.62-7.22c2.03-3.28,4.88,4.78,6.52,18.42,1.27,10.52,1.24,10.55-7.71,10.57Z"/>
</svg>