<?xml version="1.0" encoding="UTF-8"?>
<svg id="Layer_1" data-name="Layer 1" xmlns="http://www.w3.org/2000/svg" viewBox="0 0 256 256">
  <path d="M224.25,82.36c-5.09-6.37-5.97-6.53-33.37-6.17-21.29.28-24.7.54-26.86,2.07-5.82,4.12-8.76,1.61-8.39-7.15.24-5.56,1.54-7.47,4.48-6.55,11.98,3.72,11.33-21.16-.73-27.61-1.55-.83-3.55-3.49-4.87-6.5-4.36-9.85-10.27-11.81-17.95-5.95-5.38,4.11-10.38,4.6-15.07,1.5-9.75-6.46-37.89-.77-52,10.51-2.2,1.76-5.07,3.54-6.38,3.95-3.19,1.01-16.39,14.14-18.63,18.53-.98,1.92-3.51,5.47-5.62,7.87-24.88,28.35-19.35,38.43,21.44,39.13,32.96.56,31.24-.12,26.65,10.59-6.42,14.98,0,34.42,13.61,41.23,6.99,3.5,6.81,2.66,6.14,28.32q-.6,23.06-3.95,28.21c-1.84,2.83-3.82,6.05-4.41,7.15-1.59,2.99-9.07,3.19-16.2.42-13.15-5.1-15.79-6.28-18.16-8.14-2.88-2.25-11.94-12.9-11.98-14.08-.01-.44-1.82-3.18-4.02-6.09-2.2-2.91-4-5.62-4-6.01s-2.38-3.95-5.29-7.91c-2.91-3.96-6.29-8.83-7.51-10.83-4.41-7.23-12.11-7.46-15.58-.47-2.53,5.11-1.12,9.82,5.75,19.1,2.85,3.85,8.32,11.91,12.15,17.92,11.59,18.14,22.61,28.43,32.7,30.52,2.35.49,6.98,2.04,10.28,3.45,5.87,2.51,6.51,2.56,29.5,2.57,33.33.01,40.31-2.06,66.6-19.71,6.35-4.26,13.06-8.57,14.92-9.56,3.91-2.09,17.6-14.33,22.59-20.18,1.87-2.2,4.39-5.1,5.61-6.45,1.22-1.35,2.71-3.83,3.32-5.51.61-1.68,2.49-6.43,4.17-10.55,7.05-17.26,6.8-15.49,6.8-48.11s-.01-32.37-5.75-39.53ZM101.44,140.58c-3.19-2.33-2.79-20.07.51-22.74,4.05-3.28,4.54-2.05,4.61,11.5.06,13.61-.42,14.68-5.12,11.24ZM108.28,67.44c-.91,17.35-58.28,36.08-58.28,19.02,0-5.33,16.04-24.1,24.97-29.24,2.49-1.43,5.8-3.64,7.35-4.91,2.43-1.99,14.09-7.99,18.68-9.62,7.53-2.67,8.54.75,7.28,24.75ZM125.28,46.69c2.98-1.12,3.82,2.67,3.62,16.29-.23,15.42-.53,17.24-2.78,16.81-3.07-.59-3.87-31.96-.84-33.1ZM131.11,222.11c-4.32,3.5-8.5,1.77-7.17-2.96.41-1.46.81-15.02.88-30.15.07-15.12.14-27.87.15-28.33.01-.46.58-.65,1.27-.42.95.32,1.26,5.91,1.28,23.33q.03,22.92,2.97,29.78t.61,8.75ZM205.57,163.52c-.85,1.64-1.56,3.6-1.56,4.35-.02,4.34-17.08,23.08-26.01,28.56-2.48,1.52-7.05,4.52-10.16,6.67-12.35,8.51-12.09,9.65-11.96-51.74.11-54.52-.01-53.31,5.5-53.44,1.72-.04,5.38-.91,8.13-1.92,4.1-1.51,8.09-1.86,22.18-1.92,23.56-.11,30.94,36.75,13.89,69.44Z"/>
</svg>