<?xml version="1.0" encoding="UTF-8"?>
<svg id="Layer_1" data-name="Layer 1" xmlns="http://www.w3.org/2000/svg" viewBox="0 0 256 256">
  <path d="M159.5,156.03c7.7-.57,20.69-1.76,28.88-2.64,8.94-.96,17.52-1.34,21.5-.94,3.64.36,8.87.88,11.62,1.15,13.41,1.32,18.99-12.88,8.57-21.8-6.97-5.97-18.2-7.85-34.6-5.79-4.39.55-16.3,1.68-26.47,2.51-10.17.83-21.26,1.79-24.64,2.13-8.17.82-7.73,3.79-7.06-48.14.3-22.83-4.42-55.42-8.32-57.51-2.69-1.44-6.22-1.21-8.76.57-2.01,1.41-2.43,1.41-4.45,0-2.88-2.02-15.38-1.98-22.28.06-2.75.81-6.62,1.84-8.6,2.27-12.1,2.66-35.18,16.16-45.4,26.55-25.23,25.66-33.57,87.47-16.89,125.21.77,1.73,1.39,3.5,1.39,3.93,0,18.26,31.91,49.95,61.5,61.08,43.74,16.45,97.21-4.27,126.94-49.21,2.17-3.28,4.67-6.86,5.57-7.96,2.46-3.02,8.99-18.33,8.99-21.08,0-5.34-.92-4.65-37.31,27.77-25.9,23.08-42.87,34.08-50.35,32.64-1.78-.34-3.54-58.95-1.96-65.24.84-3.34,4.47-4.25,22.11-5.56ZM88.47,226.63c-1.09-.75-3.1-1.71-4.47-2.13-13.06-4.01-31.1-19.73-37.14-32.35-8.36-17.49-13.78-32.87-12.38-35.13,2.3-3.73,20.84,15.59,35.56,37.05,4.89,7.13,14.58,19.3,20.2,25.38,7.14,7.72,5.95,12.53-1.78,7.18ZM114.56,97.5c-.82,6.6-1.8,16.87-2.17,22.82-.41,6.5-1.18,11.32-1.93,12.08-4.14,4.14-50.04,5.47-62.53,1.82-4.16-1.22-8.91-2.21-10.55-2.21-11.38,0-3.6-42.7,11.38-62.47,8.37-11.05,35.92-26.05,54.99-29.94,3.44-.7,6.58-1.59,6.96-1.98,5.07-5.07,7.4,31.24,3.84,59.89Z"/>
</svg>