<?xml version="1.0" encoding="UTF-8"?>
<svg id="Layer_1" data-name="Layer 1" xmlns="http://www.w3.org/2000/svg" viewBox="0 0 256 256">
  <defs>
    <style>
      .cls-1 {
        fill: #231f20;
      }
    </style>
  </defs>
  <path class="cls-1" d="M31.5,126.18c.8-6.22,1.74-11.76,2.07-12.31s1.22-4.23,1.96-8.18c1.23-6.56,2.74-12.02,5.59-20.19.57-1.65,1.67-5.25,2.43-8s1.82-5.9,2.35-7,1.9-4.2,3.04-6.9c11.68-27.59,20.71-32.98,32.67-19.49,5.44,6.13,8.17,31.78,5.36,50.39-5.62,37.3-.25,60.29,12.67,54.13,5.09-2.43,5.7-5.04,5.46-23.63-.14-11.3.28-19.3,1.34-25.38.85-4.89,1.55-11.36,1.55-14.4,0-16.75,8.99-39.54,18.45-46.76,11.78-8.98,35.21,5.59,37.63,23.41.5,3.64,1.61,9.6,2.48,13.24,2.43,10.17,1.75,80.89-.83,85.6-3.28,6.01-24.4,18.71-32.74,19.7-38.43,4.55-46.35,9.07-28.11,16.04,15.96,6.1,41.62,1.49,53.77-9.66,3.02-2.77,5.77-2,6.13,1.71,4.27,43.82,28.72,62.16,55.97,41.99,15.74-11.65,26.08-38.34,20.74-53.5-.82-2.34-1.5-5.55-1.5-7.14,0-16.29-25.3-29.43-44-22.86-11.75,4.13-10.91,6.64-10.69-31.75.31-54.88-2.47-68.51-16.81-82.13-11.87-11.27-28.44-17.83-39-15.44-9.49,2.15-16.7,6.93-23.05,15.26-4.73,6.2-5.35,6.23-10.12.41-13.67-16.68-32.04-19.95-44.6-7.92-10.82,10.37-27.73,44.81-27.73,56.48,0,1.56-.65,4.67-1.45,6.93-4.05,11.47-6.18,48.32-3.21,55.43,4.72,11.3,9.23,4.59,12.16-18.09ZM198.21,163.1c16.92-6.16,25.49.63,28.46,22.55,1.19,8.74-6.08,22.58-16.02,30.49-14.28,11.38-25.61-.64-27.2-28.85-.93-16.5.64-19.06,14.75-24.2Z"/>
</svg>