<?xml version="1.0" encoding="UTF-8"?>
<svg id="Layer_1" data-name="Layer 1" xmlns="http://www.w3.org/2000/svg" viewBox="0 0 256 256">
  <defs>
    <style>
      .cls-1 {
        fill: #231f20;
      }
    </style>
  </defs>
  <path class="cls-1" d="M93.15,103c4.94-8.92,6.6-11,8.82-11,3.91,0,9.36,11.52,10.47,22.16.39,3.66,1.31,8.7,2.07,11.2q1.37,4.54-8.15,18.75c-13.63,20.35-17.1,34.18-8.98,35.73,3.95.75,20.39-16.94,22.37-24.09.92-3.31,4.13-1.79,9.06,4.31,17.8,22,41.14,19.78,47.72-4.54,5.21-19.23-11.79-29.76-17.45-10.81-3.6,12.06-5.1,13.08-11.18,7.59-10.81-9.77-11.82-15.97-3.86-23.83,14.24-14.06,19.88-33.85,12.91-45.31-3.38-5.56-8.95-2.73-8.95,4.56,0,19.02-14.25,31.64-18.14,16.07-5.5-21.98-17.87-32.63-33.19-28.56-8.4,2.22-14.98,13.52-16.33,28.01-1.41,15.11,4.37,15.01,12.81-.23Z"/>
</svg>