<?xml version="1.0" encoding="UTF-8"?>
<svg id="Layer_1" data-name="Layer 1" xmlns="http://www.w3.org/2000/svg" viewBox="0 0 256 256">
  <defs>
    <style>
      .cls-1 {
        fill: #231f20;
      }
    </style>
  </defs>
  <path class="cls-1" d="M73.15,101.67c27.21-5.98,30.78-5.95,29.16.24-.6,2.31-.46,2.28-11.82,2.11-20.33-.31-37.45,25.31-28.4,42.5,7.05,13.39,22.92,21.15,32.81,16.03,6.11-3.16,6.1-3.25,6.11,24.67.01,27.47.73,32.78,5.43,39.87,10.6,16.02,33.09,5.28,24.08-11.5-2.78-5.17-4.64-45.19-2.32-49.83,1.41-2.82,59.61-2.28,62.47.58.38.38,1.03,5.53,1.45,11.43,2.17,30.79,27.13,61.16,40.81,49.65,3.76-3.17,4.41-10.16,1.21-13.16-21.42-20.09-21.21-19.41-22.12-70.75-.79-44.18-1.2-47.17-7.89-56.77-12.94-18.6-29.94-23.76-63.04-19.16-13.84,1.92-12.88,2.97-13.46-14.73-.68-20.96-5.87-28.76-15.29-22.94-4.26,2.63-3.76.42-7.41,33.09-1.43,12.76-1.09,12.39-13.42,15-5.5,1.17-13.73,3-18.29,4.06-16.64,3.89-41.94,2.8-48.09-2.06-10.24-8.09-18.08-.65-11.2,10.63,6.26,10.27,36.8,15.96,59.23,11.03ZM82.01,146c-12.43-4.1-10.57-18.55,3.49-27.16,3.84-2.35,5.66-2.31,10.59.2,12.16,6.21-.94,31.29-14.08,26.96ZM128.23,116.93c.32-29.91-.75-28.22,18.77-29.72,10.86-.84,19.45-.71,26.7.38,11.02,1.66,16.81,13.68,17.85,37.04.97,21.79,4.82,19.38-30.86,19.36-37.08-.02-32.77,3.57-32.45-27.05Z"/>
</svg>