<?xml version="1.0" encoding="UTF-8"?>
<svg id="Layer_1" data-name="Layer 1" xmlns="http://www.w3.org/2000/svg" viewBox="0 0 256 256">
  <defs>
    <style>
      .cls-1 {
        fill: #231f20;
      }
    </style>
  </defs>
  <path class="cls-1" d="M77.01,236.17c43.75-.23,51.17-.05,59.72,1.47,36.41,6.46,88.99.8,98.6-10.62,10.18-12.1-.96-17.52-29.76-14.5-35.63,3.74-59.19,0-60.91-9.65-5.34-29.9-7.18-112.16-3.26-145.63,3.11-26.58-4.34-42.04-14.82-30.74-2.97,3.2-4.35,10.18-5.62,28.46-.56,8-1.69,20.17-2.52,27.04-.83,6.87-1.69,14.3-1.93,16.5-.64,6.12,1.05,103.79,1.83,105.53,1.07,2.38-1.49,4.96-5.59,5.62-5.56.9-5.9-1.04-3.52-20.15,3.36-26.97,3.26-151.38-.12-156.82-4.82-7.76-14.96-7.46-19.25.57-.79,1.48-1.2,27.32-1.42,88.54-.2,58.06-.64,86.8-1.34,87.5-.66.66-10.77,1.08-27.83,1.14-33.59.13-38.55,1.78-39.92,13.29-1.49,12.58-.64,12.76,57.64,12.46Z"/>
</svg>