<?xml version="1.0" encoding="UTF-8"?>
<svg id="Layer_1" data-name="Layer 1" xmlns="http://www.w3.org/2000/svg" viewBox="0 0 256 256">
  <path d="M189.5,194.41c-26.08,23.27-29.5,25.16-29.5,16.27,0-1.07-.97-3.51-2.16-5.44-2.52-4.07-2.41-1.51-2.08-51.52.28-41.74-.41-38.92,8.92-36.68,17.82,4.28,34.32-8.64,34.32-26.87s-11.52-28.96-31.31-29.51c-13.58-.38-12.89.36-12.11-13,1.34-22.77-7.93-33.67-19.04-22.42-5.76,5.83-7.22,13.42-7.99,41.75-1.32,47.94-3.13,48.51-4.63,1.45-1.48-46.56-4.06-50.25-29.95-42.9-3.01.85-7.09,1.91-9.07,2.34-12.07,2.64-35.18,16.15-45.4,26.55-25.23,25.66-33.57,87.47-16.89,125.21.77,1.73,1.39,3.5,1.39,3.93,0,18.2,32.01,49.99,61.5,61.08,43.77,16.46,97.2-4.25,126.94-49.21,2.17-3.28,4.68-6.86,5.57-7.96,2.46-3.02,8.99-18.33,8.99-21.08,0-5.36-.73-4.81-37.5,27.99ZM159.45,79.47c1.69-4.05,4.6-4.55,8.55-1.47,1.38,1.08,2.95,1.97,3.5,1.98,5.97.16,10.69,11.9,6.4,15.9-10.83,10.09-24.45-2.04-18.45-16.42ZM108.27,70.02c-.64,23.6-1.01,28.39-2.27,29.01-.82.41-3.87,1.78-6.77,3.04-20.18,8.78-19.3,45.43,1.33,55.75,6.99,3.5,6.81,2.66,6.14,28.32q-.6,23.06-4.29,28.42c-4.04,5.87-4.35,11.56-.76,14.18,4.88,3.57-7.1,1.08-15.15-3.15-1.65-.86-3.36-1.58-3.8-1.58-8.92-.07-38.66-28.79-38.71-37.39,0-.62-.71-2.47-1.57-4.12-7.25-13.9-10.42-28.74-10.42-48.79,0-53.58,19.43-80.15,68.5-93.68,8.82-2.43,8.66-3.04,7.77,29.98ZM101.44,140.58c-3.19-2.33-2.79-20.07.51-22.74,4.05-3.28,4.54-2.05,4.61,11.5.06,13.61-.42,14.68-5.12,11.24ZM134.42,228.27c-2.16.45-6.96,1.5-10.68,2.34-8.23,1.86-16.19-.21-8.37-2.17,9.18-2.3,9.46-4.29,9.62-67.77,0-.46.56-.65,1.25-.42.95.32,1.25,5.9,1.26,23.33,0,25.62.74,29,8.2,37.87,4.01,4.76,3.82,5.77-1.29,6.82Z"/>
</svg>