<?xml version="1.0" encoding="UTF-8"?>
<svg id="Layer_1" data-name="Layer 1" xmlns="http://www.w3.org/2000/svg" viewBox="0 0 256 256">
  <path d="M73.05,236.18c43.72-.23,51.2-.05,59.72,1.46,36.38,6.46,88.97.79,98.57-10.63,10.12-12.02-1.13-17.51-29.76-14.5-35.63,3.74-59.18,0-60.91-9.65-5.34-29.9-7.18-112.16-3.26-145.63,3.12-26.64-3.93-41.44-14.63-30.74-3.14,3.13-4.44,9.41-5.81,27.9-.57,7.76-1.7,19.78-2.5,26.72-1.58,13.63-2.04,109.32-.57,119.59,1.39,9.73,3.76,9.25-46.39,9.6-47.42.33-50.68,1.17-52.13,13.41-1.49,12.59-.63,12.77,57.68,12.46Z"/>
</svg>