<?xml version="1.0" encoding="UTF-8"?>
<svg id="Layer_1" data-name="Layer 1" xmlns="http://www.w3.org/2000/svg" viewBox="0 0 256 256">
  <defs>
    <style>
      .cls-1 {
        fill: #231f20;
      }
    </style>
  </defs>
  <path class="cls-1" d="M125.85,35.5c-3.45-6.28-8.4-8.54-13.08-5.96-3.58,1.97-4.44,3.76-5.26,10.96-.38,3.3-1.29,10.95-2.04,17-.75,6.05-1.67,17.3-2.04,25s-.8,15.12-.93,16.5c-.14,1.37-.3,3.06-.37,3.75-.09.91-2.83,1.25-9.96,1.25-22.2,0-39.55,24.52-30.07,42.52,7.05,13.39,22.92,21.15,32.81,16.03q6.1-3.16,6.11,24.17c.02,27.15.86,33.47,5.35,40.27,10.67,16.12,32.8,5.75,24.17-11.32q-2.72-5.37-2.88-91.27c-.14-77.7-.32-86.18-1.81-88.9ZM82.01,146c-12.43-4.1-10.57-18.55,3.49-27.16,3.82-2.34,5.66-2.31,10.47.14,12.2,6.22-.8,31.36-13.96,27.02Z"/>
</svg>