<?xml version="1.0" encoding="UTF-8"?>
<svg id="Layer_1" data-name="Layer 1" xmlns="http://www.w3.org/2000/svg" viewBox="0 0 256 256">
  <path d="M187,191.81c-53.67.24-49.48,1.12-48.54-10.15,1.12-13.41,25.54-15.32,25.54-2,0,8.37,14.53,11.01,18.49,3.36,6.85-13.25-9.99-29.99-31.93-31.73-16.56-1.32-16.98-13.41-.56-16.18,32.1-5.42,44.35-16.66,44.25-40.61-.11-25.48-11.37-32.87-45.25-29.7-13.86,1.3-13,2.53-13-18.49,0-11.21-.41-18.21-1.15-19.59-3.52-6.58-10.19-7.59-15.45-2.33q-3.4,3.4-3.4,22.36c0,21.3-.98,24.72-6.87,24.04-2.53-.29-2.63-.53-2.52-6.3.48-25.38-3.84-37.55-12.23-34.45-5.21,1.93-6.02,4.64-6.73,22.59-.83,21.08.18,19.85-16.28,19.85-15.21,0-17.37-1.35-17.37-10.83s-6.44-13.29-10.25-5.67c-8.74,17.5,7.15,33.7,33.31,33.95,13.11.12,14.55,28.78,2.05,40.9-8.72,8.47-10.65,12.37-9.88,20.02.95,9.4,4.22,13.95,16.09,22.34,8.75,6.19,2.26,17.55-10.82,18.93-18.86,1.99-30.67.42-43.1-5.75-7.39-3.67-14.35.95-11.05,7.33,6.6,12.77,36.15,21.25,57.01,16.36,10.41-2.44,11.78,2.15,3.13,10.46-6.64,6.38-7.51,11.17-2.86,15.82,8.3,8.3,22.74-.7,27.43-17.11,3.91-13.69,12.77-13.23,14.48.75,2.41,19.65,15.42,18.65,15.44-1.19,0-7.77-3.48-7.3,53.91-7.38,57.36-.08,56.1.12,56.1-8.85,0-10.51-2.69-11.01-58-10.76ZM107.03,90.93c1.13-2.12,6.37-2.71,7.52-.85,1.4,2.26,2.56,24.08,1.36,25.53-6.6,7.96-14.53-14.1-8.87-24.68ZM111.78,191c-5.01,0-6.99-11.33-2.53-14.48,5.47-3.87,9.25-1.69,9.24,5.32-.02,7.09-1.53,9.16-6.7,9.16ZM118.25,152.18c-7.11,6.05-11.25,4.16-11.25-5.15,0-6.21,1.75-9.65,5.26-10.33,4.08-.79,4.59-.72,6.17.87,2.29,2.29,2.17,12.61-.18,14.61ZM135.61,91.84c-.14-7.3-.23-7.24,11.72-7.91,26.08-1.46,27.67-.85,27.67,10.54,0,12.97-6.1,17.36-30.69,22.05-6.31,1.21-8.33-4.53-8.71-24.68Z"/>
</svg>