<?xml version="1.0" encoding="UTF-8"?>
<svg id="Layer_1" data-name="Layer 1" xmlns="http://www.w3.org/2000/svg" viewBox="0 0 256 256">
  <path d="M116.8,185.18c-31.81-15.63-57.66-15.25-72.41,1.07-10.95,12.11,2.26,22.85,16.61,13.49,11.35-7.41,24.61-6.17,46.5,4.35,33.17,15.93,67.81-4.62,71.26-42.28.45-4.96-1.84-12.58-5.93-19.69q-2.15-3.73,2.36-8.24c32.57-32.57,9.9-76.96-32.77-64.15-18.04,5.41-45.51,9.09-55.01,7.37-6.33-1.15-8.95-3.37-21.61-18.29-4.47-5.27-7.58-6.99-10.84-5.99-16.26,4.98,6.18,39.59,28.64,44.16,12.23,2.49,43.74-1.05,62.97-7.07,15.93-4.99,21.93-2.18,21.93,10.26,0,20.34-18.69,31.51-50.5,30.18-23.48-.98-33.12,7.29-21.44,18.41,3.84,3.65-.75,3.2,38.91,3.8,21.9.33,22.14.47,21.21,11.74-1.62,19.47-21.53,29.9-39.87,20.89Z"/>
</svg>