<?xml version="1.0" encoding="UTF-8"?>
<svg id="Layer_1" data-name="Layer 1" xmlns="http://www.w3.org/2000/svg" viewBox="0 0 256 256">
  <defs>
    <style>
      .cls-1 {
        fill: #231f20;
      }
    </style>
  </defs>
  <path class="cls-1" d="M24,183.58c0,1.02,3.04,7.81,8.24,18.38,14.23,28.97,61.83,53.45,93.26,47.98,3.3-.57,8.78-1.46,12.17-1.98,25.38-3.84,57.5-26.4,74.77-52.51,2.17-3.28,4.68-6.86,5.57-7.96,2.46-3.02,8.99-18.33,8.99-21.08,0-5.34-.69-4.83-37,27.51-34.71,30.92-55.38,41.34-57.16,28.83-.37-2.61-1.67-6.35-2.88-8.31q-2.2-3.56-2.08-84.65c.13-87.35-.16-83.14,5.87-84.27,11.31-2.12,15.41-10.57,8.83-18.22-2.92-3.4-38.93-4.62-49.08-1.66-2.75.8-6.62,1.81-8.6,2.25-12.1,2.66-35.18,16.16-45.4,26.55-25.23,25.66-33.57,87.47-16.89,125.21.77,1.73,1.39,3.5,1.39,3.93ZM105.97,226.18c5.64,7.62-1.48,7.51-18.58-.3-2.26-1.03-4.42-1.88-4.8-1.88-8.76,0-38.55-28.85-38.6-37.38,0-.62-.71-2.47-1.57-4.12-10.45-20.03-12.89-40.65-4.92-41.59,17.06-2.02,21.21-1.27,24.02,4.34,7.2,14.43,23.05,22.65,33.39,17.3q6.1-3.16,6.11,24.17c.02,26.64.95,34.03,4.96,39.46ZM100.54,129.56c-1.8,14.4-17.08,22.19-24.65,12.57-2.89-3.67-2.09-5.03,5.11-8.71,3.58-1.82,8.73-5.59,11.46-8.37,6.94-7.06,9.35-5.71,8.07,4.51ZM42.87,78.7c7.04-13.64,31.52-31.62,47.87-35.15,1.78-.38,3.49-1.12,3.81-1.62,3.13-5.06,6.48.69,3.94,6.77-1.36,3.26-7.03,28.66-9.73,43.63-1.18,6.54-2.31,7.9-15.01,18.08-11.92,9.55-40.58,14.82-41.59,7.65-.84-5.94,5.52-29.29,10.72-39.34Z"/>
</svg>