<?xml version="1.0" encoding="UTF-8"?>
<svg id="Layer_1" data-name="Layer 1" xmlns="http://www.w3.org/2000/svg" viewBox="0 0 256 256">
  <path d="M99.01,169.2c14.17,21.4,53.74,18.5,57.37-4.21,1.54-9.62-8-13.19-12.83-4.81-5,8.69-4.33,8.31-14.72,8.31-9.17,0-9.53-.09-13.63-3.33-10.35-8.2,1.07-25.17,16.94-25.17,9.02,0,19.79-8.18,19.86-15.09,0-.78.66-3.21,1.46-5.41,7.41-20.56-9.64-46.23-28.47-42.88-13.28,2.36-22.85,8.58-24.97,16.23-3.16,11.38,3.79,14.38,10.93,4.71,5.25-7.11,15.95-10.51,21.94-6.97,5.68,3.35,7.26,7.28,7.32,18.16.08,14.29-1.2,15.79-15.72,18.31-20.74,3.59-35.2,27.49-25.49,42.14Z"/>
</svg>