<?xml version="1.0" encoding="UTF-8"?>
<svg id="Layer_1" data-name="Layer 1" xmlns="http://www.w3.org/2000/svg" viewBox="0 0 256 256">
  <path d="M204.5,17.42c-14.75.34-29.71.15-36.5-.48-15.62-1.44-51.48-1.97-62.45-.93-4.92.47-13.25,1.54-18.5,2.39-36.83,5.93-49.12,6.78-54.05,3.76-10.79-6.63-21.11,4.39-15.39,16.44,2.52,5.31,7.4,8.92,14.76,10.91,7.72,2.09,8.04,2.95,3.22,8.83-22.05,26.92-28.41,86.39-12.98,121.32.77,1.73,1.39,3.5,1.39,3.93,0,18.2,32.01,49.99,61.5,61.08,43.75,16.46,97.21-4.27,126.94-49.21,2.17-3.28,4.67-6.86,5.57-7.96,2.46-3.02,8.99-18.33,8.99-21.08,0-5.34-.69-4.83-37,27.51-25.33,22.57-39.41,32.07-47.49,32.07-2.18,0-2.36-3.14-2.97-52.06-.66-52.73-.08-58.57,4.85-49.19,9.32,17.73,38.39,23.44,56.38,11.06,13.17-9.06,19.48-36.8,10.26-45.06-8.03-7.19-16.02-.25-16.03,13.92-.02,15.44-14.06,23.9-27.98,16.85-17.61-8.92-15.59-35.11,3.92-50.93,7.69-6.23,13.06-14.78,13.06-20.77,0-4.04.82-4.23,23.55-5.35,25.46-1.26,32.46-4.36,32.44-14.35-.02-11.25-5.93-13.37-35.5-12.68ZM77.5,221.31c-15.5-8.07-33.46-26.65-33.51-34.65,0-.63-.71-2.5-1.57-4.15-10.38-19.89-13.63-51.77-8.01-78.52,7.45-35.46,28.1-54.93,63.59-59.94,16.18-2.28,14.47-12.67,14.65,89.36.13,75.9.35,87.67,1.7,91.55,3.8,10.9-11.9,9.34-36.85-3.65ZM160.34,56.29c-7.42,5.04-10.59,8.53-15,16.52-1.57,2.84-3.3,5.02-3.85,4.85-1.84-.58-3.39-30.77-1.72-33.53,1.32-2.19,1.87-2.32,6.95-1.73,3.03.36,8.84.93,12.89,1.27,11.89,1,12.11,4.88.72,12.62Z"/>
</svg>