<?xml version="1.0" encoding="UTF-8"?>
<svg id="Layer_1" data-name="Layer 1" xmlns="http://www.w3.org/2000/svg" viewBox="0 0 256 256">
  <defs>
    <style>
      .cls-1 {
        fill: #231f20;
      }
    </style>
  </defs>
  <path class="cls-1" d="M146,180.7c39.26-13.52,51.41-22.57,64.31-47.92,4.77-9.38,9.69-23.05,9.69-26.97,0-1.17.67-4.42,1.49-7.22,2.56-8.73,4.44-16.58,7.59-31.59,2.02-9.64,3.82-15.67,5.38-18,7.52-11.24-1.13-21.88-13.85-17.04-5.08,1.93-10.62,14.34-12.06,27.04-.58,5.06-2.61,13.92-6.08,26.5-.76,2.75-1.67,7.02-2.03,9.5-4.2,29.34-20.48,50.76-45.94,60.45-3.85,1.46-8.48,3.31-10.28,4.11-4.99,2.2-7.07,1.85-7.93-1.3-1.7-6.24-.87-81.97,1.1-100.75,2.9-27.56-3.82-41.8-14.62-31-3.14,3.14-4.44,9.41-5.81,27.9-.57,7.76-1.7,19.78-2.5,26.72-1,8.67-1.46,23.22-1.46,46.56,0,41.75,1.67,37.96-16.08,36.43-7.38-.64-22.42-1.57-33.42-2.08-11-.51-21.57-1.4-23.49-1.97-12.96-3.89-25.54,5.21-20.55,14.86,2.13,4.11,5.67,5.7,14.22,6.39,26.17,2.09,30.55,27.56,5.02,29.15-16.2,1-21.94,4.16-23.35,12.82-2.18,13.44,17.79,21.61,37.16,15.21,8.11-2.68,65.79-3.34,79.73-.9,37.23,6.5,89.43.94,99.1-10.55,10.12-12.02-1.13-17.51-29.76-14.5-34.92,3.66-59.02,0-60.87-9.23-3.09-15.44-2.01-20.06,5.29-22.57ZM95.53,210c-21.11.63-20.02,1.07-20.05-8.11,0-4.07-.41-9.83-.9-12.8q-.88-5.41,17.41-4.81c21.45.71,20.21-.01,21.53,12.39,1.43,13.37,2.3,12.72-17.99,13.33Z"/>
</svg>