<?xml version="1.0" encoding="UTF-8"?>
<svg id="Layer_1" data-name="Layer 1" xmlns="http://www.w3.org/2000/svg" viewBox="0 0 256 256">
  <defs>
    <style>
      .cls-1 {
        fill: #231f20;
      }
    </style>
  </defs>
  <path class="cls-1" d="M228.67,184c13.31,0,19.67-8.86,11.93-16.6-3.26-3.26-3.71-3.4-10.88-3.4-10.41,0-10.17.51-9.35-19.82,1.91-47.1-6.41-63.14-35.13-67.68-5.57-.88-5.41-2.48.71-6.96,24.32-17.85,16.85-61.17-8.55-49.63-10.45,4.74-11.52,20.38-1.66,24.18,8.41,3.23-10,18.94-28.71,24.5-6.87,2.04-7.05,1.79-8.11-11.22-.48-5.97-1.34-13.28-1.91-16.24-.56-2.96-1.03-7.15-1.03-9.3,0-9.82-7.64-15.5-15.01-11.15-5.79,3.42-6.05,6.76-2.8,35.98,2.68,24.08,3.16,22.81-8.94,23.75-4.81.37-10.55,1.11-12.75,1.63s-11.85,1.42-21.44,1.99c-9.59.57-22.67,1.46-29.05,1.98-7.69.63-12.85.61-15.28-.07-10.37-2.86-15.65,8.78-6.68,14.71,7.35,4.86,59.03,5.4,79.95.84,18.26-3.98,19.65-1.85,18.87,29.01-.17,6.6-.18,16.38-.03,21.75q.36,12.76-17.96,10.31c-40.81-5.39-71.43-1.6-81.23,10.07-11.25,13.39-.51,26.96,11.35,14.34,6.52-6.94,30.7-8.97,60.5-5.08,4.95.65,12.6,1.5,17,1.89q8,.72,8,24.8c0,25.44.19,26.58,4.71,27.76,6.76,1.77,13.31-13.54,14.62-34.18,1.18-18.53-1.87-16.8,30.83-17.5,30.57-.65,28.72-1.11,29.85,7.33,3.56,26.73,32.83,52.48,40.04,35.22,2.14-5.13.5-9.12-6.22-15.11-15.13-13.48-18.07-28.11-5.66-28.11ZM148.17,96.95c23.64-3.83,46.12.37,48.73,9.11,1.88,6.27.81,6.94-11.27,6.96-5.57.01-13.05.43-16.63.93-16.25,2.28-24.75,2.42-25.32.42-3.07-10.75-1.6-16.43,4.49-17.42ZM172.44,164.58c-31.96.89-29.44,2.14-29.44-14.64,0-15.48-1.1-14.46,16-14.85,6.32-.14,11.72-.49,12-.78.78-.8,26.34.14,27.75,1.02.89.56,1.25,4.31,1.25,13.03,0,16.82,2.47,15.37-27.56,16.21Z"/>
  <path class="cls-1" d="M220.5,49.96c-12.54,5.22-8.93,23.04,4.66,23.04,9.33,0,14.27-10.77,8.22-17.96-4.31-5.12-8.66-6.84-12.88-5.08Z"/>
</svg>