<?xml version="1.0" encoding="UTF-8"?>
<svg id="Layer_1" data-name="Layer 1" xmlns="http://www.w3.org/2000/svg" viewBox="0 0 256 256">
  <path d="M103.22,23.11c-2.95,1.09-6.05,6.39-6.64,11.35-.26,2.22-1.17,9.66-2.03,16.53-.85,6.88-1.99,28.22-2.53,47.44-.82,29.51-1.22,35.18-2.54,36.5-2.67,2.66-27.76,2.11-37.89-.83-22.77-6.61-33.98.85-21.54,14.35,8.98,9.74,23.96,14.7,45.19,14.97,21.96.28,21.04,24.34-1.81,47.34-12.07,12.16-12.45,20.94-1.01,23.81,10.33,2.59,35.58-30.44,35.58-46.55,0-2.58,1.27-9.88,3.8-21.85,1.84-8.73,2.69-2.12,2.43,19.05-.27,22.61.81,36.02,3.31,40.85,5.59,10.8,19.62,10.43,23.61-.62,1.41-3.91,3.53-4.92,8.38-4.02,26.66,5,56.85-33.59,46.92-59.97-3.45-9.16,3.1-11.04,28.05-8.07,7.32.87,11.75-1.36,14.16-7.12,5.07-12.14-10.7-22.58-31.49-20.84-16.5,1.38-14.66,2.37-14.7-7.94-.06-14.87-.12-15.17-4.4-19.81-4.56-4.94-19.52-12.8-28.07-14.74-5.61-1.27-6.76-2.17-16.09-12.57-3.56-3.97-3.59-4.1-4.25-15.44-1.33-22.92-5.32-32.49-12.78-30.62-5.82,1.46-6.32,4.24-7,38.69-.34,17.32-1.13,35.55-1.75,40.5-.62,4.95-1.4,13.42-1.73,18.82-.6,9.77-2.2,13.24-4.45,9.62-.46-.74-.57-24.66-.24-53.14.68-58.76.63-59.06-8.5-55.68ZM178.99,169.97c5,12.07-13.63,31.95-28.9,30.85-9.27-.67-9.08-.23-9.08-21.28,0-19.85.25-20.76,6-21.81,12.78-2.32,28.44,3.67,31.99,12.24ZM140.5,98.25c.74-2.13,20.7,4.33,28.38,9.18,10.88,6.87,3.19,19.41-13.66,22.28-12.67,2.16-20.55-14.67-14.72-31.46Z"/>
</svg>