<?xml version="1.0" encoding="UTF-8"?>
<svg id="Layer_1" data-name="Layer 1" xmlns="http://www.w3.org/2000/svg" viewBox="0 0 256 256">
  <path d="M54.25,197.03c-4.67,2.36-16.59,10.15-19.75,12.9-2.84,2.47-9.36,6.08-10.99,6.08-4.15,0-6.04,7.3-2.68,10.35,3.65,3.3,11.51,1.07,23.46-6.66,7.59-4.92,11.22-6.97,20.71-11.75,4.68-2.35,9.93-5.33,11.68-6.6,5.23-3.82,6.76-3.18,9.35,3.92,5.59,15.36,10.96,19.74,18.03,14.71,4.21-3,4.81-7.78,1.85-14.83-4.11-9.8-3.46-16.97,2.05-22.59,8.52-8.69,8.91-7.81,9.27,20.96.34,26.68,3.31,33.48,14.65,33.5,11.43.01,12.22-2.86,12.06-43.67-.1-27.01.15-34.74,1.18-35.98.72-.87,4.59-4.25,8.6-7.53,4.01-3.27,12.8-11.09,19.53-17.38,14.45-13.48,12.47-13.01,20.8-4.96,16.9,16.31,28.62,2.56,12.36-14.49-6.18-6.48-6.33-7.23-2.89-14.04,6.72-13.25,8.85-22.38,8.92-38.15.07-17.29-.46-16.47,11.13-16.99,16.13-.72,24.51-9.61,18.44-19.57-4.43-7.27-5.43-7.47-34-6.81-15.51.36-29.81.17-36.5-.49-14.75-1.45-50.85-1.99-61.94-.94-4.92.47-11.67,1.32-15,1.9-5.7.99-29.52,4.22-45.06,6.11-6.39.78-7.41.64-11.73-1.59-10.09-5.2-18.43-.41-17.56,10.09,1.12,13.52,14.67,20.32,35.05,17.58,40.58-5.46,36.29-8.31,37.03,24.63.33,14.71,1.13,30.35,1.77,34.75,2.71,18.42-.18,57.48-4.64,62.77-3.9,4.64-25.6,19.91-35.17,24.75ZM180.23,45.67c9.15-3.68,14.49,3.81,13.44,18.83-1.29,18.47-5.28,23.29-10.66,12.87-7.45-14.42-8.76-29.3-2.78-31.7ZM143.75,44.13c1.34-2.19,1.89-2.33,7.04-1.72,7.7.91,8.03,1.34,7.44,9.71-.96,13.44,2.21,23.98,12.61,41.89,5.71,9.83,5.69,9.98-2.26,16.97-2.79,2.46-9.02,8.28-13.84,12.94-11.66,11.28-11.02,12.82-10.9-26.09.05-17.78-.27-36.6-.73-41.82-.67-7.66-.54-9.96.63-11.87ZM109.09,43.92c2.01-1.27,4.5-1.13,5.66.33,2.78,3.49,3.19,107.21.43,109.97-2.61,2.61-3.18-.78-3.2-19.03-.02-16.53-1.48-49.13-3.58-80.04-.57-8.37-.43-10.51.7-11.23Z"/>
</svg>