<?xml version="1.0" encoding="UTF-8"?>
<svg id="Layer_1" data-name="Layer 1" xmlns="http://www.w3.org/2000/svg" viewBox="0 0 256 256">
  <path d="M97.71,167.79c-3.41,2.36-10.71,7.49-16.21,11.41-12.71,9.05-22.54,15.44-29.25,19.02-2.91,1.55-7.86,4.65-11.01,6.89-10.24,7.27-16.11,10.89-17.61,10.89-4.24,0-6.2,7.26-2.79,10.35,3.65,3.3,11.51,1.07,23.46-6.66,7.39-4.79,10.94-6.81,21.71-12.37,5.23-2.7,15.57-8.78,23-13.52,18.61-11.88,17.57-12.07,17.18,3.21-.32,12.37-.36,12.55-3.75,17.51-9.85,14.38,6.5,22.62,19,9.57q2.92-3.05,3.32-27.31c.22-13.34.6-24.45.83-24.68,1.19-1.19,1.52,2.05,1.8,17.53.33,18.66,1.68,23.96,7.97,31.38,13.67,16.12,32.58,3.34,22.57-15.27-3.03-5.63-3.1-53.11-.08-57.88,11.26-17.83,28.7-27.64,36.23-20.37,16.9,16.31,28.62,2.56,12.36-14.49-6.18-6.48-6.33-7.23-2.89-14.04,15.51-30.6,12.04-60.02-8.63-73.29-11.84-7.6-32.17,1.98-34.92,16.46-1.88,9.91-3.14,8.49-4.54-5.12-1.55-15.1-10.25-20.5-18.9-11.75-5.76,5.83-7.22,13.42-7.99,41.75-1.31,47.74-3.12,48.5-4.61,1.96-1.31-40.95-2.14-44.65-9.82-43.76-4.53.53-4.89,2.96-5.79,39.2-.7,28.56-1.07,34.01-2.34,34.64-.82.41-3.87,1.77-6.77,3.04-20.31,8.84-19.28,44.9,1.6,56.14,4.65,2.5,3.93,4.71-3.13,9.59ZM179.73,44.75c6.94-7.67,15.06,3.82,13.95,19.75-1.68,24-8.44,24.16-15.49.37-3.05-10.3-2.66-15.48,1.55-20.12ZM156.48,63.03c1.23-1.99,2.5.23,3.47,6.04,1.05,6.34,4.02,13.13,10.88,24.93,4.23,7.26,4.78,8.81,3.81,10.6-1.54,2.85-15.89,15.46-17.14,15.06-2.09-.67-3.04-53.37-1.02-56.63ZM101.44,140.58c-3.19-2.33-2.79-20.07.51-22.74,4.05-3.28,4.54-2.05,4.61,11.5.06,13.61-.42,14.68-5.12,11.24Z"/>
</svg>