<?xml version="1.0" encoding="UTF-8"?>
<svg id="Layer_1" data-name="Layer 1" xmlns="http://www.w3.org/2000/svg" viewBox="0 0 256 256">
  <defs>
    <style>
      .cls-1 {
        fill: #231f20;
      }
    </style>
  </defs>
  <path class="cls-1" d="M229.76,187.84c-1.25-.09-3.53-.24-5.07-.35-5.15-.36-5.32-1.74-1.36-10.54,8.19-18.18,5.37-17.48-19.82,4.85-7.14,6.33-7.93,6.5-23.14,4.73-7.3-.85-17.75-1.54-23.22-1.54-14.9,0-13.8,2.27-15.27-31.5-1.76-40.43-2.05-58.78-.95-60.47,1.3-1.99,2.04-1.01,2.73,3.6,4.87,32.55,56.98,25.24,55.07-7.73-1.66-28.77-54.74-41.67-54.74-13.3,0,.7-.51,2.54-1.14,4.09-1.98,4.89-2.6-.54-2.06-18.21.99-32.78-3.94-42.54-17.88-35.43q-4,2.04-6.59,0c-3.75-2.95-20.1-2.98-25.59-.04-2.05,1.1-4.66,2-5.8,2-3.34,0-22.23,9.03-32.48,15.54C18.41,65.13,1.57,139.78,22.07,178.24c1.41,2.65,1.11,4.97-1.07,8.26-4.67,7.05-1,14.58,8.22,16.85,1.72.42,4.71,3.17,8.13,7.46,37.83,47.42,105.86,52.68,150.65,11.66,7.33-6.72,8.88-7.46,15.47-7.47,25.28-.04,36.03-4.55,36.03-15.14,0-5.56-4.96-11.68-9.74-12.01ZM160.17,77.75c1.19-2.3,4.72-2.19,7.83.25,1.38,1.08,2.95,1.97,3.5,1.98,5.97.16,10.69,11.9,6.4,15.9-11.76,10.96-25.5-3.09-17.73-18.13ZM81,221.5c-5.6,1.78-27.95-15.39-22.73-17.46,3.66-1.46,26.01.4,27.58,2.28,3.48,4.19.51,13.48-4.85,15.18ZM86.29,178.18c-.82.68-4.64.64-11.69-.12-9.78-1.05-24.25-.28-29.02,1.55-10.56,4.05-17.73-44.6-11.14-75.63,6.18-29.08,16.16-41.73,43.53-55.18,4.14-2.04,7.97-3.58,8.51-3.42,1.55.44,1.36,131.52-.19,132.8ZM109.86,38.91c7.01-5.68,7.22-4.51,5.93,32.78-.82,23.77-.81,37.74.07,55.31,2.42,48.71,1.79,56.03-4.71,54.33-4.69-1.23-5.94-138.65-1.29-142.42ZM117.76,230.75c-4.46,5.52-15.95.49-12.83-5.61,1.33-2.6,2.07-5.97,2.07-9.4,0-2.94.54-5.88,1.2-6.54,1.43-1.43,5.7-1.55,7.79-.23,1.85,1.17,3.37,19.81,1.78,21.78ZM145.55,224.66c-1.92-.74-2.19-10.62-.33-12.48,1.41-1.41,18.6-.57,20.28,1,2,1.86-16.8,12.69-19.95,11.48Z"/>
</svg>