<?xml version="1.0" encoding="UTF-8"?>
<svg id="Layer_1" data-name="Layer 1" xmlns="http://www.w3.org/2000/svg" viewBox="0 0 256 256">
  <defs>
    <style>
      .cls-1 {
        fill: #231f20;
      }
    </style>
  </defs>
  <path class="cls-1" d="M159.5,156.03c7.7-.57,20.69-1.76,28.88-2.64,8.94-.96,17.52-1.34,21.5-.94,3.64.36,8.87.88,11.62,1.15,18.88,1.85,18.26-21.75-.69-26.52-8.99-2.26-10.74-4.59-7.72-10.24,4.02-7.51,2.91-21.64-2.05-26.08-8.03-7.19-16.02-.25-16.03,13.92-.02,15.44-14.06,23.9-27.98,16.85-17.61-8.92-15.59-35.11,3.92-50.93,8.84-7.17,13.06-14.71,13.06-23.33,0-12.67-9.59-12.35-15.39.51-1.41,3.13-3.63,5.37-8.76,8.84-6.89,4.66-12.65,11.28-15.27,17.54-5.26,12.55-6.96,9.51-8.63-15.4-1.99-29.76-6.64-39.55-15.73-33.18-2.01,1.41-2.43,1.41-4.45,0-2.88-2.02-15.38-1.98-22.28.06-2.75.81-6.57,1.85-8.5,2.31-20.18,4.8-47.44,24.32-56.01,40.1-17.04,31.39-19.88,81.08-6.38,111.62.77,1.73,1.39,3.5,1.39,3.93,0,13.53,25.17,43.24,45.5,53.7,29.85,15.36,51.41,17.21,82.47,7.09,19.4-6.32,47.13-28.76,60.47-48.92,2.17-3.28,4.67-6.86,5.57-7.96,2.46-3.02,8.99-18.33,8.99-21.08,0-5.34-.69-4.83-37,27.51-26.23,23.36-43.15,34.35-50.68,32.9-1.79-.35-3.52-58.92-1.92-65.28.82-3.28,4.53-4.21,22.1-5.52ZM87.5,226.02c-.55-.43-2.13-1.12-3.5-1.53-14.22-4.3-40-28.64-40-37.76,0-.56-.84-2.86-1.88-5.12-4.81-10.53-8.65-22.95-7.61-24.62.36-.59,2.04-.34,4.29.64,13.36,5.8,39.16,7.57,58.66,4.04,8.13-1.47,12.42-.94,12.65,1.57.07.7.04,10.79-.06,22.41-.19,21.96,1.02,35.68,3.59,40.64,3.76,7.27-16.68,7.07-26.15-.26ZM114.56,97.5c-.82,6.6-1.8,16.87-2.17,22.82-.41,6.5-1.18,11.32-1.93,12.08-4.14,4.14-50.04,5.47-62.53,1.82-4.16-1.22-8.91-2.21-10.55-2.21-11.46,0-3.69-42.35,11.46-62.41,8.47-11.21,35.65-26.06,54.92-30,3.44-.7,6.58-1.59,6.96-1.98,5.07-5.07,7.4,31.24,3.84,59.89ZM136.59,122.5c-.29-2.2-.27-5.01.05-6.25.32-1.24.95-2.25,1.4-2.25s1.12,1.01,1.48,2.25c.37,1.24,1.72,3.83,3,5.75,4.45,6.67,4.35,9-.41,9-4.44,0-4.39.08-5.54-8.5Z"/>
</svg>