<?xml version="1.0" encoding="UTF-8"?>
<svg id="Layer_1" data-name="Layer 1" xmlns="http://www.w3.org/2000/svg" viewBox="0 0 256 256">
  <defs>
    <style>
      .cls-1 {
        fill: #231f20;
      }
    </style>
  </defs>
  <path class="cls-1" d="M206.29,212.42c-36.44,4.06-46.07,1.34-27.66-7.83,12.04-6,33.37-23.74,33.37-27.76,0-.55,2.14-5.31,4.75-10.57,4.97-10.01,7.92-59.23,4.11-68.69-1.83-4.56-7.53-11.19-10.75-12.52-4.91-2.04-50.95-1.01-54.08,1.21-3.17,2.25-14.51,2.48-15.73.33-3.75-6.66.66-21.37,5.16-17.21,8.19,7.59,18.71.93,15.54-9.83-2.08-7.07-6.11-12.5-11.22-15.12-5.13-2.63-6.2-4.1-8.39-11.45-2.51-8.46-9.54-11.56-14.64-6.46-1.38,1.38-2.78,3.85-3.11,5.47-1.13,5.67-7.83,4.89-15.9-1.87-4.34-3.63-10.35-3.92-15.04-.71-2.09,1.42-4.73,2.59-5.88,2.59-2.95,0-20.55,8.7-25.33,12.51-2.2,1.76-5.07,3.54-6.38,3.95-3.19,1.01-16.39,14.14-18.63,18.53-.98,1.92-3.51,5.47-5.62,7.87-25.49,29.04-19.6,38.52,24.18,38.93,38.81.37,33.99-6.87,33.14,49.78-.78,51.88.75,48.25-19.19,45.39-13.09-1.87-15.32-3.52-32.21-23.81-16.45-19.76-16.88-20.17-21.28-20.17-10.77,0-12,8.27-2.71,18.31,5.84,6.31,17.24,20.19,19.62,23.88q1.73,2.69-3.88,5.34c-10.73,5.08-12.76,15.54-4.24,21.86,2.76,2.05,3.5,2.08,52.61,1.8,41.23-.23,51.47-.02,59.46,1.27,37.54,6.04,89.73.53,98.96-10.44,9.99-11.87-1.55-17.66-29.04-14.6ZM88.52,77.5q-.02,18-23.27,18.27c-26.05.3-25.03.64-21.18-6.9,2.79-5.47,17.29-20.42,22.9-23.62,2.49-1.42,5.44-3.39,6.56-4.38,1.11-.99,4.04-2.91,6.5-4.27,8.32-4.6,8.53-4.09,8.5,20.9ZM114.44,209.42c-7.19,1.81-7.73-.21-5.37-20.02,1.19-9.98,2.09-26.41,2.48-45.29.34-16.29.79-30.19,1-30.87,3.08-9.96,4.43,4.53,4.51,48.15.03,18.75.43,36.35.89,39.1.97,5.83.11,8.02-3.51,8.92ZM120.23,63.71c-.59,17.38-3.65,29-7.07,26.89-1.66-1.02-1.62-33.74.04-35.4,4.24-4.24,7.34-.49,7.03,8.51ZM144.61,201.25c-3.28-10.87-7.23-90.59-4.64-93.71.93-1.12,3.33-1.56,8.9-1.62,4.76-.05,9.5-.77,12.63-1.92,6.94-2.56,38.47-2.89,40.93-.43,1.34,1.34,1.57,5.03,1.57,24.98,0,25.9.79,22.04-8.17,39.74-6.6,13.04-49,40.31-51.22,32.95Z"/>
</svg>