<?xml version="1.0" encoding="UTF-8"?>
<svg id="Layer_1" data-name="Layer 1" xmlns="http://www.w3.org/2000/svg" viewBox="0 0 256 256">
  <defs>
    <style>
      .cls-1 {
        fill: #231f20;
      }
    </style>
  </defs>
  <path class="cls-1" d="M208.24,212.3c-8.35,1.07-8.95-.45-3-7.53,14.33-17.05,26.12-40.77,20.26-40.77-1.63,0-6.87,4.43-35.9,30.31-23.79,21.22-24.38,21.46-37.24,15.29-6.31-3.03-7.16-3.77-7.69-6.75-7.57-42.41-7.43-136.16.19-128.01,6.42,6.87,12.66,2.02,14.59-11.35,3.55-24.5,44.62-20.89,44.53,3.91-.02,5.94-1.88,9.27-12.86,23.09-18.47,23.24-24.29,55.85-6.94,38.89,34.56-33.8,46.24-59.38,36.38-79.65-11.88-24.42-53.12-30.81-70.61-10.94-4.87,5.53-6.16,5.06-7.79-2.83-2.69-13.02-15.21-16.69-17.73-5.19-.33,1.5-.99,3.98-1.47,5.51-.48,1.53-1.36,9.63-1.94,18-.58,8.37-1.74,20.84-2.57,27.71-.83,6.88-1.69,14.3-1.93,16.5-.64,6.12,1.05,103.79,1.83,105.53,1.07,2.38-1.49,4.96-5.59,5.62-5.54.9-5.9-1.07-3.57-19.65,1.64-13.14,3.46-109.57,2.83-150.17-.01-.92,1.55-2.64,3.47-3.83,11.36-7.02-4.07-15.16-21-11.07-1.65.4-3.98,1.25-5.18,1.9-1.2.65-3.14,1.17-4.31,1.17-1.9,0-5.65,1.5-17,6.81-32.65,15.27-48.21,38.75-52.47,79.19-2.96,28.07-.84,47.74,7.08,65.65.77,1.73,1.39,3.5,1.39,3.93,0,.86,2.27,6.01,7.56,17.18,4.16,8.78,4.24,10.03.69,10.75-11.42,2.31-16.97,13.83-10.16,21.08,3.52,3.75,7.78,4.37,25.41,3.71,17.01-.64,20.17-.1,30.53,5.25,21.64,11.16,47.27,11.82,76.46,1.97,9.85-3.33,10.32-3.38,31.5-3.87,33.05-.75,52-7.58,52-18.72,0-8.52-9.37-11.25-29.76-8.64ZM87.02,209.34c-1.33,1.39-16.09,1.78-21.88.58-7.85-1.63-21.11-16.24-21.15-23.31,0-.62-.71-2.47-1.57-4.12-10.38-19.89-13.63-51.77-8.01-78.52,6.05-28.78,16.19-41.71,43.09-54.94,10.31-5.07,9.87-5.43,10.76,9.04.95,15.56-.15,150.12-1.24,151.26Z"/>
</svg>