<?xml version="1.0" encoding="UTF-8"?>
<svg id="Layer_1" data-name="Layer 1" xmlns="http://www.w3.org/2000/svg" viewBox="0 0 256 256">
  <defs>
    <style>
      .cls-1 {
        fill: #231f20;
      }
    </style>
  </defs>
  <path class="cls-1" d="M113,129.73c-9.89,8.46,1.51,20.51,12.1,12.79,6.7-4.88,7.78-5,14.4-1.69,7.88,3.95,14.62,4.97,18.05,2.72,6.3-4.13,4.6-11.73-3.55-15.81-6.49-3.25-6.02-5.01,3.5-13.15,13.02-11.13,15.35-15.01,10.57-17.57-5.84-3.12-17.11,1.77-31.39,13.62-5.02,4.17-7.22,3.3-16.89-6.65-9.27-9.55-11.66-10.65-14.31-6.61-2.53,3.87.74,13.27,7.65,21.99,4.78,6.03,4.78,6.15-.13,10.35Z"/>
  <path class="cls-1" d="M126.92,167.78c-6.62,5.92-2.44,16.22,6.59,16.22,5.98,0,11.36-6.37,10-11.84-1.85-7.44-10.58-9.75-16.59-4.38Z"/>
  <path class="cls-1" d="M136.02,71.01c5.27,2.82,13.33-2.05,14.6-8.83,1.66-8.87-8.67-15.38-15.42-9.71-5.33,4.49-4.85,15.5.81,18.53Z"/>
  <path class="cls-1" d="M80.26,128.29c4.48-7.68-5.54-15.79-12.63-10.22-3.26,2.56-3.38,5.82-.39,10.39,4.21,6.43,9.19,6.36,13.01-.18Z"/>
  <path class="cls-1" d="M199.28,115.68c-6.53,1.32-9.26,11.44-4.2,15.57,4.24,3.46,13.2,1.34,15.6-3.7,3.41-7.15-2.78-13.6-11.4-11.86Z"/>
</svg>