<?xml version="1.0" encoding="UTF-8"?>
<svg id="Layer_1" data-name="Layer 1" xmlns="http://www.w3.org/2000/svg" viewBox="0 0 256 256">
  <defs>
    <style>
      .cls-1 {
        fill: #231f20;
      }
    </style>
  </defs>
  <path class="cls-1" d="M231.01,210.41c-.02-2.55-3.59-20.03-5.5-26.91-3.13-11.26-5.51-21.36-5.51-23.34,0-3.24-4.39-15.92-8.55-24.72-10.56-22.31-21.23-32.68-44.34-43.09-5.16-2.33-9.86-4.7-10.42-5.26-.66-.66-1.08-11.02-1.16-28.31-.14-29.73-.38-31.16-6.14-35.69-4.06-3.2-7.82-2.69-12.51,1.69-5.65,5.27-7.85,14.58-7.88,33.23-.02,16.57-.67,21.21-2.89,20.79-1.8-.34-2.76-10.97-2.99-33.09-.15-14.72-3.17-21.4-9.27-20.53-3.94.56-4.5,3.67-5.21,28.55-.82,29.02,1.07,26.37-19.19,27.05q-15.73.53-14.84-5.37c1.94-12.95.94-18.33-6.41-34.4-5.77-12.61-21.76-20.11-37.29-17.49-17.05,2.88-14.24,18.64,3.54,19.8,12.62.83,13.07,1.19,18.94,14.96,5.65,13.26-4.84,25.69-21.69,25.71-6.23,0-10.02,2.05-12.15,6.55-4.36,9.18,5.94,18,17.99,15.41,2.73-.59,14.55-1.69,26.27-2.45s22.88-1.9,24.8-2.54c3.65-1.2,8.39-.62,8.39,1.04,0,.53-1.24,1.22-2.75,1.52-1.51.31-3.87,1.19-5.25,1.95-1.38.76-4.41,2.29-6.74,3.39-28.3,13.4-19.51,50.55,13.07,55.17,12.39,1.76,12.22,1.37,11.3,26.83q-.67,18.53-4.15,23.59c-9.97,14.47,6.42,22.69,19.02,9.54q2.99-3.12,3.24-32.76c.15-18.17.64-30.02,1.26-30.64,1.37-1.37,1.32-2.06,1.43,23.4.1,24.92.92,28.75,7.91,37,13.67,16.12,32.46,3.44,22.62-15.26-2.61-4.97-2.51-2.42-2.2-53.52.29-47.11-1.17-44.35,17.02-32.44,11.52,7.54,27.23,36.69,27.21,50.48,0,1.23.86,5.39,1.91,9.24,4.14,15.2,6.01,23.24,6.61,28.5,2.35,20.69,9.65,30.7,20.85,28.59,9.28-1.74,10.36-9.23,3.13-21.59-.8-1.38-1.47-3.44-1.48-4.59ZM108.17,131.85c-.23,14.45-.63,14.94-10.56,13.01-16.89-3.28-16.62-15.78.47-22.49,10-3.92,10.3-3.64,10.09,9.48Z"/>
</svg>