<?xml version="1.0" encoding="UTF-8"?>
<svg id="Layer_1" data-name="Layer 1" xmlns="http://www.w3.org/2000/svg" viewBox="0 0 256 256">
  <path d="M171.65,101.82c-2.25,14.1-7.11,16.44-11.27,5.45-6.72-17.72-25.05-28.79-37.94-22.92-3.85,1.76-10.42,9.34-10.47,12.08-.02,1.14-.68,3.19-1.47,4.57-7.46,13.05,4.22,31.29,22.47,35.07,18.06,3.75,18.39,4.54,6.52,15.77-4.74,4.48-9.26,8.15-10.05,8.15s-4.2.96-7.57,2.13c-5.57,1.93-7.69,2.08-22.75,1.66-20.93-.59-25.2.52-23.34,6.05,1.24,3.69,25.69,9.05,35.23,7.72,2.47-.34,7.71-1.04,11.64-1.55,17.44-2.26,41.36-23.25,41.36-36.29,0-2.24,1.94-4.73,9.38-12.06,7.02-6.92,9.55-10.11,10.07-12.69.38-1.9,1.38-5.62,2.22-8.26,1.25-3.94,1.31-5.34.29-7.79-3.61-8.72-12.75-6.86-14.32,2.92ZM135.68,121.63c-12.08-4.27-15.35-11.75-9.14-20.89,4.54-6.68,12.01-2.95,19.24,9.6,6.52,11.33,2.56,15.77-10.09,11.29Z"/>
</svg>