<?xml version="1.0" encoding="UTF-8"?>
<svg id="Layer_1" data-name="Layer 1" xmlns="http://www.w3.org/2000/svg" viewBox="0 0 256 256">
  <defs>
    <style>
      .cls-1 {
        fill: #231f20;
      }
    </style>
  </defs>
  <path class="cls-1" d="M174.23,120.01c-15.46-.02-14.79.96-13.3-19.58.59-8.21,1.55-21.45,2.12-29.43q1.04-14.5,5.4-18.5c14.14-12.97-1.63-26.93-16.09-14.23-7.9,6.94-10.51,20.92-12.05,64.57-.68,19.28-1.1,20.53-6.58,19.49-5.73-1.08-5.5.61-5.89-43.12-.31-35.26-.58-41.11-1.99-43.71-3.4-6.27-8.38-8.54-13.06-5.96-3.58,1.97-4.44,3.76-5.26,10.97-.38,3.3-1.29,10.95-2.04,17-.75,6.05-1.67,17.3-2.04,25s-.8,15.12-.93,16.5c-.14,1.38-.3,3.06-.37,3.75-.09.91-2.83,1.25-9.99,1.25-11.48,0-13.12.78-24.14,11.51-9.04,8.81-12.34,8.9-20.31.58-6.88-7.17-12.74-7.57-15.04-1.02-2.05,5.83,10.22,21.16,17.95,22.41,2.15.35,4.83.82,5.96,1.05,1.33.27,2.89,2.26,4.43,5.66,6.71,14.85,23.32,23.84,33.92,18.36q6.1-3.16,6.11,24.17c.02,27.15.86,33.47,5.35,40.26,10.71,16.18,33.26,5.41,24.06-11.48-4.92-9.03-3.94-72.83,1.13-74.11,8.28-2.08,9.43.91,9.43,24.43,0,10.28.46,20.26,1.03,22.19.57,1.92,1.43,7.64,1.92,12.7,3.64,37.47,61.22,44.54,79.04,9.7.82-1.6,2.89-5.16,4.6-7.91,23.73-38.14-4.92-82.43-53.36-82.49ZM94.43,124.26c-10.26,2.14-16.01-1.11-9.24-5.23,4.18-2.55,6.46-2.55,10.64,0,4.13,2.52,3.69,4.16-1.4,5.23ZM208.31,195.26c-12.91,22.21-44.29,23.71-44.31,2.12,0-2.69-.48-7.58-1.07-10.88-1.24-7.01-1.94-42.86-.86-44.6.4-.65,2.46-1.52,4.58-1.93,9.85-1.9,24.69.49,31.66,5.1,19.14,12.68,22.37,28.9,10,50.18Z"/>
</svg>