<?xml version="1.0" encoding="UTF-8"?>
<svg id="Layer_1" data-name="Layer 1" xmlns="http://www.w3.org/2000/svg" viewBox="0 0 256 256">
  <defs>
    <style>
      .cls-1 {
        fill: #231f20;
      }
    </style>
  </defs>
  <path class="cls-1" d="M20.83,226.35c3.65,3.3,11.51,1.07,23.46-6.66,7.5-4.86,11.15-6.93,20.71-11.79,8.03-4.08,15.74-8.7,27.76-16.63,7.7-5.08,8.24-4.5,8.26,8.96.02,13.05,1.64,21.15,5.35,26.76,10.69,16.15,33.19,5.46,24.12-11.46-2.62-4.89-2.67-5.34-2.83-25.14-.18-23.02-.63-21.66,9.34-28.21,9.12-5.99,19.68-14.6,34.28-27.98,16.84-15.42,14.49-14.71,22.66-6.82,16.99,16.4,28.81,2.75,12.47-14.39-6.18-6.48-6.33-7.23-2.89-14.04,20.05-39.58,5.89-81.07-25.61-75.01-23.46,4.51-26.69,36.38-7.09,70.06,5.72,9.83,5.7,9.97-2.25,16.99-2.79,2.47-9.13,8.34-14.08,13.05-28.47,27.07-26.48,29.22-26.58-28.76-.09-51.63-.45-57.82-3.56-62.03-6.73-9.09-15.47-5.33-16.86,7.25-.36,3.3-1.27,10.95-2.02,17-.75,6.05-1.67,17.3-2.04,25s-.8,15.13-.93,16.5c-.14,1.38-.3,3.06-.37,3.75-.09.91-2.83,1.25-9.96,1.25-22.2,0-39.55,24.52-30.07,42.52,7.03,13.36,22.07,20.82,32.23,16,5.72-2.71,8.4-.85,4.92,3.4-2.78,3.4-37.03,26.98-46.64,32.11-5.8,3.1-14.33,8.71-18.11,11.93-2.91,2.47-9.39,6.04-10.99,6.04-4.15,0-6.04,7.3-2.68,10.35ZM179.1,45.6c7.1-9.02,15.74,2.19,14.57,18.9-1.35,19.27-5.34,23.45-11.21,11.73-6.58-13.16-7.87-24.89-3.36-30.62ZM82.01,146c-12.43-4.1-10.57-18.55,3.49-27.16,3.84-2.35,5.66-2.32,10.59.2,12.16,6.21-.94,31.29-14.08,26.96Z"/>
</svg>