<?xml version="1.0" encoding="UTF-8"?>
<svg id="Layer_1" data-name="Layer 1" xmlns="http://www.w3.org/2000/svg" viewBox="0 0 256 256">
  <path d="M204,17.44c-15.51.36-29.81.17-36.5-.49-14.34-1.41-50.71-1.99-61.34-.99-4.58.43-13.14,1.51-19,2.41-42.2,6.41-49.11,6.9-54.16,3.8-12.38-7.6-22.82,7.72-13.35,19.6,6.46,8.1,16.55,10.38,35.16,7.96,6.98-.91,15.4-1.93,18.7-2.27s9.82-1.22,14.5-1.97c27.81-4.45,24.48-16.2,24.58,86.92.05,47.35.44,87.67.87,89.6,4.37,19.41,26.38,20.47,26.51,1.27.04-6.11.7-6.71,11.42-10.4,19.05-6.56,31.33-40,22.17-60.37-6.02-13.4-11.77-21.42-18.06-25.2-1.88-1.13-1.6-1.58,4.63-7.5,6.87-6.52,9.7-10.67,11.86-17.38.7-2.16,1.77-4.55,2.38-5.32,10.9-13.65-5.13-43.06-24.67-45.25-9.13-1.02-10.71-1.9-10.71-5.95,0-3.79,2.31-4.31,13.05-2.92,49.02,6.34,87.97.64,87.95-12.88-.02-11.3-5.87-13.36-36-12.67ZM140.67,68.67c4.58-4.59,16.04,2.13,18.19,10.66,2.64,10.5-11.45,35.13-17.83,31.18-1.13-.7-1.47-40.73-.35-41.84ZM140.16,144.31c1.78-2.14,3.91-1.52,7.4,2.18,9.99,10.6,11.44,27.77,3.58,42.51-1.16,2.17-7.54,5.44-9.31,4.76-1.92-.74-3.49-47.25-1.67-49.45Z"/>
</svg>