<?xml version="1.0" encoding="UTF-8"?>
<svg id="Layer_1" data-name="Layer 1" xmlns="http://www.w3.org/2000/svg" viewBox="0 0 256 256">
  <path d="M238.89,63.31c-5.01-3.31-7.04-2.73-14.92,4.31-5.76,5.14-15.98,12.39-17.47,12.39-.33,0-2.62.92-5.08,2.04-36.51,16.63-68.91,4.95-68.91-24.84,0-22.65-.21-26.08-1.76-28.92-2.96-5.41-7.67-6.78-11.8-3.43-2.13,1.72-2.34,2.92-3.13,17.75-2.18,40.96-1.63,40.06-21.25,35.32-4.37-1.05-9.83-1.92-12.13-1.92-6.09,0-6.96-1.61-4.36-8.14,7.06-17.77-5.28-33.79-26.07-33.86-7.74-.02-12.53-1.59-18.63-6.1-7.17-5.3-11.68-5.43-14.07-.41-4.47,9.37,10.85,23.54,26.86,24.84,15.49,1.26,17.92,5.91,7.83,14.99-5.69,5.12-10.89,6.81-17.17,5.6-14.69-2.84-22.69,1.6-21.53,11.94.62,5.5,5.89,11.12,10.45,11.16,28.19.2,70.71,3.48,78.27,6.03,9.15,3.09,8.2-4.85,8.36,69.28.16,74.49.89,77.99,14.9,71.6,5.41-2.46,5.24-.29,5.24-69.93,0-73.29-1.35-67.75,15.31-62.88,23.02,6.72,36.94,20.58,49.61,49.34,2.81,6.38,6.32,21.27,7.55,32.04,2.87,25.2,5.26,32.06,12.93,37.22,9.84,6.61,19.76-2.34,14.09-12.72-4.14-7.58-4.99-10.13-4.99-15.01,0-2.79-.63-8.32-1.41-12.28-.78-3.96-1.69-9.23-2.04-11.71-2.81-20.09-15-45.61-29.12-61-3.54-3.86-6.43-7.68-6.43-8.49,0-1.57.84-1.84,10.87-3.56,3.5-.6,7.1-1.47,8-1.94.9-.47,4.33-2.08,7.63-3.59,24.23-11.08,35.71-27.63,24.39-35.12Z"/>
</svg>