<?xml version="1.0" encoding="UTF-8"?>
<svg id="Layer_1" data-name="Layer 1" xmlns="http://www.w3.org/2000/svg" viewBox="0 0 256 256">
  <path d="M24.1,182.26c5.16-4.35,28.77-2.76,49.76,3.35,2.95.86,9.7,1.97,15,2.46,18.97,1.78,23.87,3.68,22.68,8.82-2.32,9.95-6.84,16.11-11.81,16.11s-7,7.4-2.92,11.31c10.06,9.64,26.49-1.48,32.62-22.07,3.39-11.39,5.65-10.99,7.2,1.25,3.04,23.98,17.5,38.46,27.96,28,3.83-3.83,3.31-8.95-1.59-15.51-10.41-13.95-9.17-22.42,3.5-23.98,19.01-2.33,31.05-8.72,38-20.17,10.26-16.9,10.56-18.5,10.54-56.85-.02-48.24,2.85-58.67,19.11-69.42,14.11-9.33,4.73-24.7-10.67-17.47-13.82,6.5-25.56,27.11-28.11,49.39-1.71,14.89-2.66,16.5-9.74,16.49-2.28,0-8.74.53-14.35,1.18-16.48,1.91-15.28,4.18-15.31-28.9-.03-35.29-1.61-41.27-10.89-41.27-8.41,0-9.09,2.72-9.1,36.65-.02,33.61-.19,34.76-4.72,31.54-3.03-2.16-4.26-19.49-4.26-59.95,0-14.32-7.78-20.92-15.82-13.41-4.28,4-4.56,6.86-3.75,38.15.81,31.61,1.79,28.38-9.79,32.54-38.29,13.76-33.4,64.43,7.04,72.93,4.29.9,6.15,3.14,4.21,5.08-1.62,1.62-25.67-.24-31.16-2.41-9.9-3.91-38.91-6.05-47.65-3.5-9.59,2.79-10.97,3.5-14.58,7.49-8.95,9.9-1.41,20.56,8.59,12.14ZM169,114.96c7.43-.3,15.38-.64,17.68-.75,9.7-.48,11.97,29.4,3.18,41.95-1.02,1.46-1.86,3.05-1.86,3.53,0,6.31-26.85,16.32-31.44,11.73-10.13-10.13-.03-55.96,12.44-56.46ZM100.8,144.45c-15.63-5.33-15.3-31.26.47-37.05,6.21-2.28,7.13-.38,9.31,19.21,1.89,16.97-.35,21.05-9.78,17.84Z"/>
</svg>