<?xml version="1.0" encoding="UTF-8"?>
<svg id="Layer_1" data-name="Layer 1" xmlns="http://www.w3.org/2000/svg" viewBox="0 0 256 256">
  <path d="M122.68,233c10.35,0,14.15-9.22,15.83-38.33.8-13.82,1.67-15.59,7-14.25,2.07.52,2.4,1.34,2.93,7.33,2.49,28.03,20.19,42,46.15,36.43,13.69-2.94,33.41-19.54,33.41-28.14,0-.55,1.65-3.58,3.67-6.73,5.17-8.08,5.46-22.4.89-43.16-5.41-24.54-28.61-40.13-53.57-36.01-10.87,1.79-10.21,4.17-9.48-34.07.72-37.42,1.26-41.41,6.05-44.23,11.82-6.98,1.5-21.92-11.55-16.72-12.15,4.85-14.6,14.9-14.83,60.84-.09,18.95-.42,35.25-.73,36.22-1.07,3.36-13.1,5.14-15.46,2.3-1.79-2.16-2-68.5-.24-76.84,1.54-7.31.19-13.77-3.5-16.66-6.47-5.09-15.48.09-16.69,9.59-.34,2.72-1.28,8.83-2.09,13.58-1.75,10.34-1.92,35.43-.37,55.17,1.44,18.26,3.8,16.67-25.15,16.95-30.68.3-38.71-2.24-50.66-16.01-8.44-9.73-15.05-8.48-14.03,2.66,1.98,21.79,25.53,33.4,67.3,33.18,13.18-.07,23.55.27,23.87.79.82,1.33,1.19,16.83.41,17.6-.36.36-16.79.74-36.5.83-39.42.2-42.48.71-50.68,8.48-17.4,16.51-4.78,37.04,13.71,22.3,6.2-4.94,8.41-5.18,41.33-4.46,36.96.81,32.78-2.19,32.43,23.3-.33,23.91,1.22,28.05,10.55,28.05ZM208.74,187.58c-1.97,17.44-33.01,23.56-38.16,7.52-4.9-15.26-3.58-17.43,11.08-18.11,21.42-.99,28.09,1.62,27.08,10.58ZM168.35,140.18c.74-7.92.8-7.99,8.21-9.07,16.25-2.37,25.77.7,32.5,10.48,4.07,5.92,3.83,10.07-.56,9.56-1.65-.19-11.04-.44-20.86-.56-20.84-.25-20.27.06-19.3-10.41ZM139.5,135.74c8.41-1.23,9.04-.66,8.67,7.96-.33,7.63-1.08,8.79-6.38,9.72-5.56.98-7.79-1.67-7.79-9.3,0-6.43.83-7.7,5.5-8.38Z"/>
</svg>