<?xml version="1.0" encoding="UTF-8"?>
<svg id="Layer_1" data-name="Layer 1" xmlns="http://www.w3.org/2000/svg" viewBox="0 0 256 256">
  <path d="M125.99,139.62c-6.06,2.42-7.61,9.77-2.48,11.74,21.62,8.3,39.21-33.42,20.88-49.51-5.56-4.88-18.86-6.37-27.08-3.03-7.64,3.1-11.54,7.83-13.88,16.8-3.1,11.92.67,16.62,6.32,7.86,1.24-1.92,3.25-5.03,4.48-6.93,4.97-7.67,19.36-8.2,23.13-.85,4.14,8.08-1.52,19.98-11.37,23.92Z"/>
  <path d="M174.68,124.53c-4.23-2.77-10.68,1.57-10.68,7.19,0,31.59-61.66,47.51-73.29,18.93-11.98-29.45-7.84-47.84,12.81-56.85,10.84-4.73,12.82-7.54,8.28-11.76-2.12-1.98-8.03-2.66-11.81-1.37-27.67,9.46-35.42,31.25-24.59,69.15,8.5,29.77,39.06,39.48,73.59,23.39,20.25-9.44,37.03-41.25,25.68-48.69Z"/>
</svg>