<?xml version="1.0" encoding="UTF-8"?>
<svg id="Layer_1" data-name="Layer 1" xmlns="http://www.w3.org/2000/svg" viewBox="0 0 256 256">
  <defs>
    <style>
      .cls-1 {
        fill: #231f20;
      }
    </style>
  </defs>
  <path class="cls-1" d="M23.64,43.07c4.82,2.33,5.21,2.36,43.86,2.62,50.11.34,47.78-.14,46.39,9.6-.41,2.86-.77,15.89-.81,28.96-.09,28.48-32.91,41.42-61.93,24.42-15.33-8.99-25.91.09-14.19,12.17,9.5,9.79,13.07,10.64,45.44,10.83,33.98.2,30.57-1.66,30.59,16.72,0,7.64.67,19.56,1.47,26.5.8,6.94,1.93,18.96,2.5,26.72,1.79,24.12,4.11,30.4,11.25,30.4,8.86,0,11.79-10.05,9.37-32.14-3.24-29.62-3.38-66.54-.25-67.97,6.9-3.15,7.16-2.2,7.16,26.21,0,54.16,8.83,70.63,37.39,69.73,32.65-1.03,52.67-27.83,45.09-60.33-.51-2.2-1.79-7.82-2.85-12.5-4.85-21.55-12.73-30.51-35.63-40.51-2.2-.96-7.15-1.97-11-2.25-10.92-.78-10.43,1.12-7.47-29.24.62-6.32.98-18.02.8-26q-.37-16.74,31.02-13.46c20.87,2.16,25.59,1.77,29.34-2.43,14.81-16.58-24.88-28.18-83.69-24.46-3.3.21-10.21,1.08-15.35,1.93-7.66,1.27-18.05,1.51-57.5,1.36-58.07-.23-52.2-.54-55.73,2.99-5.79,5.79-3.35,16.24,4.72,20.15ZM164.97,152.5c.55-7.7,1.01-15.25,1.02-16.78,0-1.97.67-3.03,2.26-3.62,11.72-4.35,35.67,12.79,35.77,25.62.01,1.53.91,6.13,2,10.21,4.46,16.76,2.34,26.06-7.38,32.52-19.07,12.66-28.36,9.58-31.24-10.36-.68-4.73-1.74-11.97-2.34-16.09-.78-5.3-.8-11.6-.09-21.5ZM142.14,49.33c6.73-8.11,8.79,7.41,5.96,44.88-1.22,16.09-3.7,20.22-10.12,16.78-3.57-1.91.13-56.81,4.16-61.66Z"/>
</svg>