<?xml version="1.0" encoding="UTF-8"?>
<svg id="Layer_1" data-name="Layer 1" xmlns="http://www.w3.org/2000/svg" viewBox="0 0 256 256">
  <path d="M219.79,177.85c-19.63,6.89-17.65,6.63-49.7,6.42-35.86-.23-33.59,6.7-33.59-102.78,0-53.27.36-48.88-4.38-53.62-4-3.99-7.12-4.76-11.74-2.9-8.3,3.35-10.63,40.18-7.97,125.65,1.07,34.19,2.06,31.56-11.41,30.27-40.56-3.88-41.55-3.94-49-2.91-4.13.57-11.41,1.47-16.19,2.01-14.73,1.65-20.84,5.44-20.77,12.89.08,9.53,3.28,10.49,37.47,11.27,15.95.36,31.93,1.11,35.5,1.67,3.57.56,10.23,1.32,14.79,1.7,10.45.87,11.21,1.58,11.21,10.48,0,14.37,7.39,21.57,17.53,17.08,6.4-2.83,8.95-8.81,8.1-18.99-1.03-12.37,4.86-14.91,23.37-10.1,9.73,2.53,30.68,2.26,36.5-.46,1.65-.77,5.7-2.06,9-2.85,3.3-.79,8.25-2.15,11-3s7.47-2.25,10.5-3.11c9.69-2.73,14.09-9.63,10.54-16.51-2.42-4.68-11.09-5.61-20.75-2.22Z"/>
</svg>