<?xml version="1.0" encoding="UTF-8"?>
<svg id="Layer_1" data-name="Layer 1" xmlns="http://www.w3.org/2000/svg" viewBox="0 0 256 256">
  <path d="M25.12,180c6.15-4.86,31.43-5.95,48.09-2.07,4.56,1.06,11.89,2.69,16.29,3.62,12.3,2.61,11.5,1.44,11.52,16.73.02,14.98,1.49,22.85,5.35,28.7,10.64,16.08,33.2,5.47,24.17-11.36-2.79-5.2-4.04-21.52-1.81-23.75,2.56-2.56,27.28,2.54,35.94,7.43,3.21,1.81,7.98,4.28,10.59,5.5s6.74,3.13,9.17,4.25c7.32,3.39,7.51,4.25,2.25,9.87-12.84,13.72.23,32.92,17.46,25.66,19.2-8.1,14.19-41.96-7.74-52.26-5.7-2.68-5.68-5.43.06-10.48,13.72-12.08,14.66-16.02,15.56-65.34.87-47.83,1.76-51.55,15.45-64.5,8.42-7.96,8.54-8.14,8.51-12.44-.06-7.84-8.17-12.26-15.23-8.31-15.53,8.68-27.1,29.32-28.63,51.08-1.01,14.33-.17,14.06-41.61,13.48q-22-.31-22.57-28.81c-.46-23.26-.86-29.05-2.15-31.5-3.29-6.24-8.33-8.55-13.01-5.96-3.58,1.97-4.44,3.76-5.26,10.96-.38,3.3-1.29,10.95-2.04,17-.75,6.05-1.67,17.3-2.04,25s-.8,15.12-.93,16.5c-.14,1.38-.3,3.06-.37,3.75-.09.91-2.83,1.25-9.96,1.25-23.93,0-40.81,27.01-28.36,45.38,4.81,7.11,4.61,7.23-12.97,7.94-28.45,1.14-38.82,6.41-38.83,19.73,0,8.25,4.99,9.37,13.11,2.95ZM129.1,117.37c2.52-3.04,61.73-1.87,62.51,1.24,3.7,14.72-2.48,42.75-10.98,49.84-5.85,4.88-39.43,6.28-48.14,2.01-4.09-2-7.07-48.66-3.4-53.09ZM85.5,118.84c3.84-2.35,5.66-2.31,10.59.2,12.16,6.21-.94,31.29-14.08,26.96-12.43-4.1-10.57-18.55,3.49-27.16Z"/>
  <path d="M220.08,175.41c-7.84,8.08-3.71,21.62,6.57,21.57,8.29-.04,14.99-10.97,11.22-18.3-4.05-7.86-11.94-9.31-17.79-3.27Z"/>
</svg>