<?xml version="1.0" encoding="UTF-8"?>
<svg id="Layer_1" data-name="Layer 1" xmlns="http://www.w3.org/2000/svg" viewBox="0 0 256 256">
  <defs>
    <style>
      .cls-1 {
        fill: #231f20;
      }
    </style>
  </defs>
  <path class="cls-1" d="M45.59,219.81c-22.58-1.76-29.2,1.41-24.32,11.63,4.5,9.45,62.6,12.93,101.23,6.07,4.4-.78,17.68-1.9,29.5-2.49,11.82-.59,25.55-1.5,30.5-2.03,14.95-1.58,27.19-1.22,34.34,1.02,11.43,3.58,18.26,1.3,19.74-6.59,2.92-15.55-14.25-18.35-82.87-13.47-17.8,1.27-17.4,1.69-16.34-16.81.83-14.56-.76-13.52,21.93-14.3,37.87-1.31,47.15-8.24,54.09-40.34,1.08-5.01,1.66-15.69,2.01-37.5.67-40.67,3.33-51.84,13.77-57.86,10.78-6.2,7.62-19.14-4.67-19.14-14.76,0-26.14,18.7-28.59,47-1.69,19.52-1.04,18.62-12.24,16.88-7.36-1.15-21.96-.57-27.27,1.07-1.6.5-6.03,2.07-9.85,3.49-8.81,3.29-8.24,4.53-8.92-19.44-.69-24.81-2.19-43.24-3.74-46.26-7.18-13.92-21.39-6.09-18.71,10.3,1.85,11.32,2.22,119.36.42,120.86-4.19,3.47-4.44,1.28-4.49-39.21-.04-30.26-.36-39.55-1.55-44.7-.83-3.58-2.47-11-3.66-16.5-6.33-29.34-19.87-46.62-30.18-38.51-3.35,2.64-3.42,4.65-.36,10.76,1.31,2.61,3.72,7.45,5.36,10.75,1.64,3.3,3.3,8.17,3.7,10.83.39,2.66,1.36,6.65,2.14,8.88.78,2.22,1.43,5.16,1.43,6.53s.94,6.37,2.08,11.11c11.85,49.03,2.22,79.15-25.31,79.15-33.24,0-44.77,5.16-44.77,20.05,0,9.79,6.19,13.04,11.72,6.15,5.17-6.44,10.84-7.73,27.86-6.34,7.69.63,16.98,1.14,20.64,1.14,8.43,0,8.16-.58,7.88,17.43-.34,21.89-3.51,23.41-42.51,20.38ZM143.87,115.93c2.55-.04,7.55-.89,11.13-1.9,22-6.2,38.96-1.43,38.98,10.96.07,30.81-6.56,37-39.61,37-18.22,0-16.28,2.55-17.05-22.39-.73-23.5-.71-23.57,6.55-23.67ZM109.66,184.83c4.57-5.05,8.04-.56,8.26,10.69.09,4.83.64,10.98,1.22,13.67,1.49,6.94-6.01,12.44-9.84,7.21-2.1-2.88-1.81-29.17.36-31.56Z"/>
</svg>