<?xml version="1.0" encoding="UTF-8"?>
<svg id="Layer_1" data-name="Layer 1" xmlns="http://www.w3.org/2000/svg" viewBox="0 0 256 256">
  <defs>
    <style>
      .cls-1 {
        fill: #231f20;
      }
    </style>
  </defs>
  <path class="cls-1" d="M176.43,134.61c3.77,1.45,36.39-36.11,43.79-50.41,15.95-30.81-12.49-62.59-50.28-56.19-10.4,1.76-22.09,10.24-25.49,18.49-.91,2.2-2.33,4.77-3.16,5.7-2.57,2.9-1.36,15.28,2,20.53,6,9.36,13.54,5.68,15.84-7.73,4.41-25.79,44.95-23.61,44.86,2.41-.02,5.94-1.88,9.27-12.86,23.09-13.38,16.84-21.58,41.47-14.69,44.11Z"/>
  <path class="cls-1" d="M214.57,211.69c-15.5.22-15.46.25-9.26-7.08,14.19-16.8,26.04-40.61,20.2-40.61-1.56,0-11.1,8.06-38.88,32.84-18.41,16.43-21.22,17.94-29.75,16.02-4.47-1.01-15.89-6.48-15.92-7.63-.01-.4-.44-3.66-.94-7.24-4.55-31.96-6.51-120.27-3.1-139.5,4.51-25.45-2.39-41.54-13.94-32.5-3.2,2.5-5.24,2.5-7.5,0-2.25-2.49-14.18-2.7-22-.39-2.75.81-6.62,1.84-8.6,2.27-12.1,2.66-35.18,16.16-45.4,26.55-25.23,25.66-33.57,87.47-16.89,125.21.77,1.73,1.39,3.5,1.39,3.93,0,.83,1.88,5.11,7.7,17.54,4.11,8.77,3.96,9.43-2.2,10.13-15.57,1.75-19.93,20.61-5.72,24.69,1.71.49,10.96.64,20.55.33,17.46-.56,27.93,1,33.33,4.98,14.86,10.96,47.92,11.95,76.83,2.3,9.61-3.21,10.76-3.36,29.5-3.87,37.51-1.03,58.52-12.15,47.07-24.92q-2.93-3.27-16.5-3.07ZM117.92,42.96c-.4,2.5-1.02,9.72-1.39,16.04-.37,6.33-1.32,16.66-2.1,22.96-1.56,12.5-1.98,108.6-.53,118.84,1.25,8.8,1.76,8.6-24.07,9.36-33.74.99-36.11-.46-48.36-29.66-8.07-19.24-9.47-26.15-9.47-46.68,0-54.76,22.02-83.61,72-94.35,3.58-.77,7.85-1.83,9.5-2.35s3.3-.99,3.67-1.04c1.21-.16,1.48,2.27.75,6.87Z"/>
</svg>