<?xml version="1.0" encoding="UTF-8"?>
<svg id="Layer_1" data-name="Layer 1" xmlns="http://www.w3.org/2000/svg" viewBox="0 0 256 256">
  <defs>
    <style>
      .cls-1 {
        fill: #231f20;
      }
    </style>
  </defs>
  <path class="cls-1" d="M31,93.61c15.82-1.19,50.32,3.86,52.71,7.73.39.63.8,16,.92,34.15.12,18.16.66,43.79,1.21,56.97q.99,23.95-1.93,29.72c-7.41,14.67,5.96,24.28,16.44,11.81,6.87-8.16,6.98-9.03,5.68-43.99-3.29-88.25-3.26-88.54,9.27-81.84,2.21,1.18,1.75,24.35-.96,47.84-4.24,36.74,1.25,80,10.16,80,9.63,0,10.85-4.81,10.39-40.93-.34-26.97,1.24-69.84,2.67-72.14,2.38-3.85,13.64,3.87,23.71,16.26,7.11,8.75,14.74,19.37,14.74,20.51,0,.37.83,2.5,1.84,4.74,4.37,9.66,10.16,24.66,10.16,26.32,0,18.58,38.94,54.51,48.6,44.85,5.9-5.9,5.17-7.94-7.49-21.03-13.17-13.62-18.73-21.74-21.62-31.57-2.91-9.89-11.48-30.19-16.05-38-4.39-7.51-14.06-19.78-22.61-28.69-7.29-7.59-7.04-7.83,9.17-8.63,34.43-1.7,62-23.58,62-49.21,0-18.79-18.58-11.49-23.69,9.3-2.97,12.1-25.24,20.35-55.51,20.58-23.74.18-21.3,3.51-21.3-29.16,0-23.87-.2-27.15-1.87-30.97-6.78-15.51-23.2-8.02-19.6,8.94,2,9.41.75,44.78-1.65,46.53-2.27,1.66-5.52,1.65-7.79,0-1.68-1.23-1.72-2.52-.6-22.24,1.87-32.95.03-41.46-8.95-41.46-7.83,0-9.64,5.52-10.51,32q-.86,26.35-5.42,25.69c-22.55-3.11-21.31-2.19-17.67-13.14,3.73-11.21,3.33-19.09-1.31-25.82-10.71-15.57-34.31-25.5-43.07-18.13-4.37,3.68-2.73,14.41,2.21,14.41,7.31,0,23.71,12.73,23.71,18.4s-12.72,15.94-23.65,18.73c-18.28,4.66-11.77,22.94,7.65,21.48Z"/>
</svg>