<?xml version="1.0" encoding="UTF-8"?>
<svg id="Layer_1" data-name="Layer 1" xmlns="http://www.w3.org/2000/svg" viewBox="0 0 256 256">
  <path d="M187.5,108.27q-19-.77-18.82-18.77c.28-27.83,2.97-36.26,16.68-52.25,12.31-14.36-3.01-26.73-16.07-12.98-15.23,16.03-20.25,30.45-21.04,60.44-.63,24.06-.9,24.84-8.43,24.12-4.77-.46-6.87-53.41-2.87-72.22,2.69-12.67-6.77-22.25-15.33-15.52-3.79,2.98-4.56,4.89-5.68,14.16-2.31,19.13-5.91,23.92-8.04,10.71-.54-3.34-1.37-6.83-1.85-7.76-.48-.93-2.29-4.73-4.03-8.45-5.17-11.04-13.28-14.76-19.95-9.15-3.39,2.85-4.17,8-1.81,12.02,9.27,15.83,10.86,23.88,11.08,56.02.18,27.38-18.91,33.32-47.85,14.9-9.24-5.88-10.17-6.36-14.42-7.51-12.88-3.47-12.2,5.45,1.28,16.8,15.66,13.19,24.28,16.35,48.15,17.69,14.96.83,14.5.44,14.5,12.5s1.81,11.75-26,12.16c-29.81.44-36.09,2.7-43.78,15.75-7.93,13.45,2.9,26.21,15.19,17.9,11.82-7.99,8.88-7.34,31.95-7.1,26.71.27,24.4-2.29,25.51,28.32.75,20.42,1.45,22.32,8.08,21.77,6.67-.56,8.05-5.44,8.05-28.45,0-18.73.55-22.19,3.15-19.6.55.55,1.05,10.08,1.16,22.19.22,23.97,1.42,27.06,10.48,27.06,10.34,0,14.07-9.41,15.82-39.83.8-13.94,4.63-17.74,6.08-6.04,4.64,37.4,37.56,49.75,72.8,27.31,17.69-11.26,21.98-19.54,21.99-42.44.03-45.46-14.55-62.05-55.99-63.73ZM114.13,154.79c-1.65-.32-3.02-18.02-1.67-21.55,1.44-3.76,3.08-.07,3.7,8.34.77,10.43.28,13.65-2.03,13.21ZM142.95,154c-5.05,0-7.75-18.29-3.36-22.68,5.69-5.69,8.41-2.52,8.41,9.81,0,10.31-1,12.87-5.05,12.87ZM212.5,195.8c-21.64,14.37-36.12,12.34-42.1-5.91-2.72-8.31-1.88-11.39,3.33-12.17,29.96-4.52,55.13,7.22,38.77,18.08ZM210.5,151.47c-5-1.42-8.85-1.62-23.14-1.18-11.89.37-17.48.19-18.25-.58-1.2-1.2-1.59-19.9-.44-21.04,2.22-2.22,34.23.13,39.9,2.94,5.37,2.66,11.75,12.22,11.86,17.77.09,4.78-.23,4.85-9.92,2.09Z"/>
</svg>