<?xml version="1.0" encoding="UTF-8"?>
<svg id="Layer_1" data-name="Layer 1" xmlns="http://www.w3.org/2000/svg" viewBox="0 0 256 256">
  <defs>
    <style>
      .cls-1 {
        fill: #231f20;
      }
    </style>
  </defs>
  <path class="cls-1" d="M79.7,74.33c-32.91.71-35.16.47-41.33-4.45-18.49-14.73-31.11,5.8-13.71,22.3,8.2,7.78,11.26,8.29,50.67,8.47,41.06.19,37.24-.8,36.91,9.61-.32,10.34,1.35,9.71-25.74,9.64-41.04-.11-64.27,11.52-66.24,33.17-1.01,11.14,5.59,12.39,14.03,2.66,21.63-24.95,77.76-24.52,75.82.57-1.57,20.35-1.41,45.15.35,55.54.81,4.75,1.74,10.87,2.09,13.58,1.24,9.79,11.01,15.09,16.92,9.18,3.64-3.64,4.75-9.16,3.27-16.21-1.78-8.42-1.58-74.7.22-76.88,2.37-2.86,14.4-1.08,15.47,2.29.31.97.64,17.27.73,36.22.24,49.35,3.69,60.18,19.61,61.71,11.42,1.1,16.41-11.9,6.76-17.59-4.79-2.82-5.33-6.81-6.04-44.24-.72-38.22-1.38-35.85,9.45-34.06,24.95,4.12,48.19-11.49,53.59-36,4.58-20.76,4.28-35.08-.89-43.16-2.02-3.15-3.67-6.18-3.67-6.73,0-8.59-19.71-25.21-33.38-28.14-25.99-5.57-43.69,8.39-46.18,36.43-.53,6-.86,6.82-2.93,7.33-5.33,1.34-6.21-.43-7-14.25-1.97-34.16-10.73-47.32-23.2-34.85q-3.48,3.48-3.19,24.56c.35,25.49,4.53,22.49-32.42,23.29ZM168.45,70.15c1.62-11.56,5.19-17.53,11.05-18.47,12.9-2.08,28.1,6.64,29.25,16.77,1.01,8.92-3.92,10.91-26.5,10.66-12.8-.14-14.85-1.47-13.8-8.96ZM184.72,105.7c8.34.27,16.52.04,18.78-.53,8.97-2.25,11.05,1.27,5.49,9.34-10.38,15.08-39.27,16.03-40.64,1.34-1.01-10.77-1.09-10.71,16.37-10.15ZM136.04,103.96c1.63-1.63,2.79-1.91,5.75-1.38,10.28,1.81,9.71,19.1-.58,17.76-7.59-.99-10.7-10.84-5.17-16.37Z"/>
</svg>