<?xml version="1.0" encoding="UTF-8"?>
<svg id="Layer_1" data-name="Layer 1" xmlns="http://www.w3.org/2000/svg" viewBox="0 0 256 256">
  <path d="M79.7,74.34c-32.92.72-35.13.48-41.33-4.46-18.49-14.73-31.11,5.8-13.71,22.3,8.2,7.78,11.26,8.29,50.68,8.48,43.15.21,38.97-5.72,35.12,49.82-1.88,27.05-1.88,50.27,0,61.36.81,4.75,1.74,10.87,2.09,13.58,1.2,9.49,10.22,14.67,16.69,9.59,2.55-2,5.38-10.21,4.19-12.13-1.6-2.59.58-5.81,4.33-6.36,9.09-1.34,20.51-5.99,24.67-10.03,11.69-11.36,17.54-39.74,11.13-54-6.03-13.42-11.86-21.54-18.06-25.17-1.88-1.1-1.56-1.6,5-8.11,3.85-3.82,8.18-8.44,9.62-10.28q2.62-3.34,16.04-3.07c30.35.61,51.55-12.04,49.58-29.57-1.49-13.2-15.72-15.73-25.37-4.5-5.16,6-8.84,7.2-22.1,7.2-10.56,0-11.39-.33-12.73-5-3.72-13.02-13.51-21.96-24.13-22.02-11.2-.07-13.15-1.55-14.84-11.26-2.83-16.32-12.61-22.87-21.25-14.23q-3.48,3.48-3.19,24.56c.35,25.49,4.53,22.49-32.43,23.3ZM140.75,68.05c.96-.58,2.65-.83,3.75-.56,1.1.26,3.01.49,4.23.5,3.9.02,9.19,5.7,6.93,7.44-4.06,3.14-16.67.18-16.67-3.91,0-1.33.79-2.89,1.75-3.46ZM135.95,104.05c1.97-1.97,6.41-2.16,11.8-.5,4.09,1.26-4.34,8.57-10.16,8.82-4.01.17-5.02-4.94-1.64-8.32ZM132.62,141.81c1.53-2.48,11.75,1.15,15.67,5.56,9.36,10.53,10.49,26.77,2.88,41.64-2.3,4.5-16.61,8.58-19.19,5.47-1.25-1.51-.65-50.56.65-52.66Z"/>
</svg>