<?xml version="1.0" encoding="UTF-8"?>
<svg id="Layer_1" data-name="Layer 1" xmlns="http://www.w3.org/2000/svg" viewBox="0 0 256 256">
  <path d="M29.15,176.51c14.26,3.07,18.52,3.48,36.07,3.48,20.38,0,19.79-.28,19.79,9.48,0,3.08.64,8.4,1.42,11.81.78,3.41,1.95,10.71,2.6,16.2,1.57,13.34,3.92,17.5,9.86,17.5,9.11,0,11.72-8.19,8.59-27-5.27-31.76-6.48-30.57,33.02-32.42,6.6-.31,13.57-1.02,15.5-1.58,1.93-.56,7.21-1.48,11.75-2.04,57.95-7.2,89.55-46.78,73.44-91.97-8.62-24.19-39.75-41.02-60.85-32.91-6.29,2.42-12.09,7.85-15.95,14.95-4.16,7.64-5.3,8.05-10.37,3.71-24.16-20.68-64.27-7.5-70.71,23.24-2.07,9.86-3.01,53.15-1.36,62.61,1.8,10.33,3.38,9.83-28.66,9.09-21.05-.48-28.04-.97-30.87-2.15-5.17-2.16-8.7-1.91-11.24.79-5.94,6.32,1.8,13.72,17.98,17.2ZM176.26,117.25c.49-38.79,2.58-47.76,12.03-51.73,1.65-.69,3.94-1.07,5.1-.83,42.01,8.46,42.81,66.57,1.11,80.75-20.48,6.96-18.73,9.66-18.24-28.18ZM102.56,93.02c2.23-9.47,9.26-15.83,18.94-17.11,9.8-1.31,16.02.69,23.32,7.5,7.54,7.03,8.46,11.78,9.74,50.32.8,23.95,2.53,21.65-17.06,22.69-7.15.38-17.14,1.34-22.19,2.13-9.43,1.48-11.78,1.29-12.67-1.02-3.1-8.09-3.16-51.44-.09-64.5Z"/>
</svg>