<?xml version="1.0" encoding="UTF-8"?>
<svg id="Layer_1" data-name="Layer 1" xmlns="http://www.w3.org/2000/svg" viewBox="0 0 256 256">
  <defs>
    <style>
      .cls-1 {
        fill: #231f20;
      }
    </style>
  </defs>
  <path class="cls-1" d="M126.94,114.58c8.84-7.17,13.06-14.71,13.06-23.33,0-8.75-6.22-12.35-11.16-6.47-1.29,1.53-3.19,4.67-4.23,6.98-1.41,3.13-3.63,5.37-8.76,8.84-43.13,29.2-19.43,97.89,29.08,84.28,20.94-5.88,35.18-36.96,22.67-49.48-8.17-8.17-16.58-1.44-16.59,13.27-.02,15.69-14.61,24.17-28.47,16.56-17.05-9.36-14.81-35.06,4.41-50.65Z"/>
  <path class="cls-1" d="M194,193.93c-26.44,23.55-42.81,34.01-53.33,34.09-1.19,0-6.4.91-11.57,2-16.19,3.42-22.74,2.7-37.71-4.14-2.26-1.03-4.42-1.88-4.8-1.88-8.76,0-38.55-28.85-38.6-37.38,0-.62-.71-2.47-1.57-4.12-16.74-32.09-13.66-86.31,6.42-112.91,8.6-11.39,35.6-26.04,55.52-30.12,13.72-2.81,17.93-7.26,12.25-12.95-3.02-3.02-14.44-3.47-23.11-.91-2.75.81-6.62,1.84-8.6,2.27-12.1,2.66-35.18,16.16-45.4,26.55-25.23,25.66-33.57,87.47-16.89,125.21.76,1.73,1.39,3.5,1.39,3.93,0,18.17,32.05,50.01,61.5,61.08,49.74,18.71,113.05-12.33,137.75-67.52,9.08-20.3,7.45-19.47-33.25,16.78Z"/>
</svg>