<?xml version="1.0" encoding="UTF-8"?>
<svg id="Layer_1" data-name="Layer 1" xmlns="http://www.w3.org/2000/svg" viewBox="0 0 256 256">
  <defs>
    <style>
      .cls-1 {
        fill: #231f20;
      }
    </style>
  </defs>
  <path class="cls-1" d="M222.92,178.92c-7.12,7.12-1.39,20.08,8.87,20.08,5.9,0,12.43-8.58,10.69-14.05-2.77-8.74-13.54-12.05-19.56-6.03Z"/>
  <path class="cls-1" d="M215.49,85c1.05-18.98,6.5-28.94,19.4-35.44,20.11-10.14,10.51-27.57-10.04-18.23-16.24,7.38-27.53,25.21-29.38,46.42-.88,10.03-1.87,11.65-7.07,11.44-3.93-.16-40.83,3.42-44.76,4.34-5.21,1.22-6.95-6.76-5.89-27.02,1.35-26.05-9.08-53.5-17.01-44.75-3.23,3.56-3.42,7.13-3.05,55.98.44,59.04,2.61,52.46-17.8,54.04-7.96.61-17.6,1.77-21.42,2.58-19.51,4.1-41.45,4.14-49.22.09-8.92-4.65-18.32,1.92-14.08,9.84,4.35,8.13,24.06,14.94,38.95,13.46,19.25-1.92,27.84-2.98,30.91-3.81,21.33-5.78,31-3.29,31,8s.06,11.08-12.95,11.07c-5.8,0-16.85.66-24.55,1.47-7.7.81-18.28,1.92-23.5,2.46-17.51,1.81-26.58,5.71-31.89,13.73-7.14,10.77-.82,21.27,8.11,13.48,7.6-6.63,10.31-7.31,35.29-8.89,49.78-3.14,49.66-3.16,47.41,9.44-2.53,14.17-1.95,25.37,1.59,30.39,9.5,13.47,26.77,5.17,19.38-9.31-1.75-3.43-2-5.13-1.44-9.71.38-3.05,1.04-9.07,1.48-13.36,1.1-10.84,14.06-14.57,30.49-8.78,3.25,1.15,7.01,2.08,8.36,2.08,9.07,0,16.88,12.56,9.81,15.78-3.49,1.59-7.27,7.05-8.63,12.49-5.04,20.05,19.98,28.14,31.15,10.07,4.98-8.06.74-39.66-6.17-45.9-2.83-2.56-2.38-5.2,1.68-9.69,4.21-4.66,8.1-12.93,9.46-20.11,1.4-7.4,1.65-7.47,12.68-3.69,11.67,4,16.04,3.21,18.8-3.4,3.57-8.55-4.41-15.32-22.43-19.03-9.08-1.87-8.62.17-6.13-27.01.5-5.5,1.18-14.73,1.5-20.5ZM180.67,167.43c-36.68,7.29-44.08,6.63-44.47-3.93-.5-13.62-.83-13.32,16.15-14.43,26.96-1.77,37.83-1.1,38.5,2.37,1.12,5.81-4.66,14.9-10.17,15.99ZM192.07,121c-.64,7.26-51.87,12.37-53.26,5.31-2.16-10.95.31-13.05,16.69-14.19,35.92-2.5,37.55-2.11,36.57,8.88Z"/>
</svg>