<?xml version="1.0" encoding="UTF-8"?>
<svg id="Layer_1" data-name="Layer 1" xmlns="http://www.w3.org/2000/svg" viewBox="0 0 256 256">
  <defs>
    <style>
      .cls-1 {
        fill: #231f20;
      }
    </style>
  </defs>
  <path class="cls-1" d="M88.58,140.62c9.67-2.58,14.42-8.62,14.43-18.36.02-14.19,9.66-22.62,17.92-15.67,3.64,3.06,4.09,7.96,1.49,16-9.4,28.98,3.16,56.32,23,50.07,5-1.58,14.59-10,14.59-12.81,0-1.71,10.35-15.83,14.76-20.15,5.23-5.12,5.64-5.23,14.45-4.14,7.25.9,9.23-1.7,6.73-8.84-3.41-9.77-15.9-13.9-24.55-8.12-6.91,4.61-21.17,20.34-23.5,25.9-6.8,16.27-12.1-.43-6.34-20,6.73-22.88-8.42-42.78-30.04-39.46-13.56,2.09-26,15.3-27.15,28.84-.91,10.75-.3,10.11-9.62,10.14-33.29.12-44.79,4.09-36.77,12.7,4.58,4.92,37.31,7.43,50.61,3.89Z"/>
</svg>