<?xml version="1.0" encoding="UTF-8"?>
<svg id="Layer_1" data-name="Layer 1" xmlns="http://www.w3.org/2000/svg" viewBox="0 0 256 256">
  <defs>
    <style>
      .cls-1 {
        fill: #231f20;
      }
    </style>
  </defs>
  <path class="cls-1" d="M224.25,86.36c-5.09-6.37-5.97-6.53-33.37-6.17-21.29.28-24.7.54-26.86,2.07-2.62,1.86-34.3,2.73-35.39.97-1.02-1.66-.99-30.27.03-31.29,2.53-2.54,17.22,4.13,21.7,9.85,12.56,16.04,25.98,2.36,14.59-14.85-3.03-4.57-13.31-10.91-17.71-10.92-1.24,0-3.93-.9-5.98-2-2.51-1.35-5.64-2-9.59-2-4.34,0-6.51-.52-8.4-2-5.67-4.46-28.96-2.84-40.48,2.82-5.34,2.62-11.42,6.15-13.51,7.83-2.1,1.68-4.87,3.4-6.18,3.81-3.18,1.01-16.38,14.15-18.61,18.53-.98,1.92-3.51,5.47-5.62,7.87-22.39,25.51-18.51,38.45,11.69,38.96,22.06.37,22.63.65,16.03,7.64-17.73,18.8,5.96,56.92,27.99,45.06,6.39-3.44,6.41-3.37,6.41,24.23,0,19.81.33,26.02,1.63,30.78,2.82,10.34,3.09,9.92-6.51,10.25-8.64.3-8.71.28-24.62-6.06-6.81-2.72-19.36-14.33-19.47-18.03-.01-.44-1.83-3.18-4.03-6.09-2.2-2.91-4-5.62-4-6.01s-2.38-3.95-5.29-7.91c-2.91-3.96-6.29-8.83-7.51-10.83-4.41-7.23-12.11-7.46-15.58-.47-2.54,5.12-1.11,9.84,5.78,19.1,2.86,3.85,8.33,11.92,12.15,17.93,11.52,18.14,25.15,30.57,33.51,30.57,1.39,0,2.98.44,3.51.98,3.81,3.81,12.49,5.02,35.83,5.01,32.88-.02,40.01-2.15,66.19-19.73,6.35-4.26,13.06-8.57,14.92-9.56,3.91-2.09,17.6-14.33,22.59-20.18,1.87-2.2,4.39-5.1,5.61-6.45,1.22-1.35,2.71-3.83,3.32-5.51.61-1.68,2.49-6.43,4.17-10.55,7.05-17.26,6.8-15.49,6.8-48.11s-.01-32.37-5.75-39.53ZM82.01,146c-12.43-4.1-10.57-18.55,3.49-27.16,3.82-2.34,5.66-2.31,10.47.14,12.2,6.22-.8,31.36-13.96,27.02ZM105.58,55.36c-.38,3.93-1.11,12.54-1.63,19.14-1.42,18.17.66,16.94-29.31,17.27-27.6.3-26.43.66-22.57-6.9,2.78-5.45,17.27-20.41,22.9-23.64,2.49-1.43,5.8-3.64,7.35-4.91,2.51-2.06,14.73-8.31,18.67-9.57,4.04-1.28,5.3,1.09,4.58,8.61ZM205.57,167.52c-.86,1.64-1.56,3.6-1.56,4.35-.02,4.74-18.22,24.16-28.11,30-2.97,1.75-8.55,5.42-12.4,8.16-17.58,12.48-27.94,16.4-30.32,11.48-.8-1.65-2.37-4.8-3.49-7-1.99-3.91-2.99-100.71-1.1-106.76,1.2-3.84,6.18-5.12,22.41-5.78,10.53-.43,16.78-1.14,19.5-2.22,3.08-1.23,7.94-1.61,21.18-1.66,23.57-.1,30.93,36.76,13.89,69.45Z"/>
</svg>