<?xml version="1.0" encoding="UTF-8"?>
<svg id="Layer_1" data-name="Layer 1" xmlns="http://www.w3.org/2000/svg" viewBox="0 0 256 256">
  <defs>
    <style>
      .cls-1 {
        fill: #231f20;
      }
    </style>
  </defs>
  <path class="cls-1" d="M231.07,214.77q-2.93-3.27-16.5-3.07c-15.5.22-15.46.25-9.26-7.08,14.19-16.8,26.04-40.61,20.2-40.61-1.56,0-11.1,8.06-38.88,32.84-21.35,19.05-24.23,19.94-39.59,12.18-6.79-3.43-6.04-1.04-9.17-29.03-3.08-27.59-3.36-96.53-.49-123,2.92-26.9-3.09-39.84-14.4-31-3.2,2.5-5.24,2.5-7.5,0-2.25-2.49-14.18-2.7-22-.39-2.75.81-6.62,1.84-8.6,2.27-12.1,2.66-35.18,16.16-45.4,26.55-25.23,25.66-33.57,87.47-16.89,125.21.77,1.73,1.39,3.5,1.39,3.93,0,.83,1.88,5.11,7.7,17.54,4.11,8.77,3.96,9.43-2.2,10.12-15.64,1.76-19.92,20.62-5.62,24.72,1.78.51,10.93.66,20.54.33,17.36-.6,27.83.97,33.24,4.96,15.97,11.78,53.22,11.88,83.33.22,2.32-.9,10.05-1.52,23-1.84,37.43-.93,58.54-12.08,47.07-24.86ZM117.65,43.75c-.35,4.26-1.09,14.05-1.65,21.75-.56,7.7-1.46,16.92-1.99,20.5-1.13,7.58-1.22,106.96-.11,114.8,1.25,8.8,1.76,8.6-24.07,9.34-33.79.97-36.12-.46-48.36-29.64-8.07-19.24-9.47-26.15-9.47-46.68,0-54.76,22.02-83.61,72-94.35,3.58-.77,7.85-1.83,9.5-2.35s3.4-.99,3.89-1.04c.51-.05.62,3.29.26,7.66Z"/>
</svg>