<?xml version="1.0" encoding="UTF-8"?>
<svg id="Layer_1" data-name="Layer 1" xmlns="http://www.w3.org/2000/svg" viewBox="0 0 256 256">
  <path d="M214.32,71.84c-6.78,7.89-16.27,8.73-55.32,4.92-16.98-1.66-15.62-.39-16.49-15.44-1.9-32.96-8.22-43.69-21.66-36.74-2.32,1.2-3.69,1.33-5.7.56-5.48-2.11-12.46-2.14-19.65-.08-3.85,1.1-8.62,2.37-10.6,2.81-12.78,2.86-35.27,16.23-46.51,27.66-4.46,4.53-8.99,8.52-10.07,8.87-5.53,1.76-7.6,5.94-7.8,15.81-.11,5.44-.87,11.37-1.84,14.29-7.31,22.17-5.38,64.09,3.92,85.15.77,1.73,1.39,3.5,1.39,3.93,0,18.17,32.05,50.01,61.5,61.08,43.72,16.44,97.23-4.3,126.94-49.21,2.17-3.28,4.68-6.86,5.57-7.96,2.46-3.02,8.99-18.33,8.99-21.08,0-5.15-1.24-4.25-32.65,23.66-30.55,27.16-48.36,39.05-54.78,36.59-4.18-1.6-5.51-52.61-2.59-99.1,1.6-25.48,1.72-25.8,9.72-25.01,63.56,6.27,85.7,1.91,92.33-18.18,5.75-17.43-12.54-26.71-24.72-12.54ZM112.61,39.58c2.19-5.71,3.25-.71,3.47,16.41.19,14.78-.42,18.16-2.99,16.57-1.16-.72-1.59-30.08-.48-32.97ZM115.86,127.93c-.85,24.49-2.1,31.06-3.2,16.87-.85-10.91-.84-42.28,0-43.13,3.72-3.72,4.12-.46,3.19,26.26ZM36.09,99.83c.79-1.48,1.66-1.84,3.24-1.35,6.16,1.91,11.51,2.43,25.41,2.47,17.72.05,18.3.49,11.52,8.76-7.19,8.77-36.21,18.15-43.07,13.91-2.32-1.43-.33-17.78,2.89-23.8ZM91.92,159.21c-1.16,45.76-4.69,61.71-13.65,61.77-8.27.06-34.23-25.97-34.28-34.37,0-.62-.71-2.47-1.57-4.12-10.05-19.26-13-41.43-5.32-40.02,12.63,2.31,40.96-5.78,48.89-13.97,6.95-7.17,6.9-7.43,5.93,30.71ZM95.29,58.75c-1.21,14.4-29.11,23.91-45.09,15.36-7.19-3.85,18.85-24.1,38.8-30.17,7.24-2.2,7.64-1.26,6.29,14.82ZM108.31,231.98c-7.77.02-8.59-5.52-2.16-14.52.41-.57,1.19-3.83,1.74-7.26s1.28-6.67,1.62-7.22c2.03-3.28,4.88,4.78,6.52,18.42,1.27,10.52,1.24,10.55-7.71,10.57Z"/>
</svg>