<?xml version="1.0" encoding="UTF-8"?>
<svg id="Layer_1" data-name="Layer 1" xmlns="http://www.w3.org/2000/svg" viewBox="0 0 256 256">
  <defs>
    <style>
      .cls-1 {
        fill: #231f20;
      }
    </style>
  </defs>
  <path class="cls-1" d="M218.56,65.33c-5.29,1.8-5.55,1.6-5.58-4.24-.06-14.38-3.11-22.57-11.14-29.87-12.36-11.24-28.14-10.47-37.9,1.85-5.21,6.58-7.29,21.78-4.66,34.07,2,9.34,1.57,9.8-8.53,9.14-11.95-.78-11.39-.1-12.24-14.94-1.97-34.16-10.73-47.32-23.2-34.85q-3.48,3.49-3.19,24.56c.35,25.49,4.53,22.49-32.43,23.3-32.92.72-35.13.48-41.33-4.46-18.49-14.73-31.11,5.8-13.71,22.3,8.2,7.78,11.26,8.29,50.68,8.48,40.97.2,37.21-.73,36.97,9.16-1.16,47.05-1.2,47.27-11.58,55.37-12.7,9.92-39.64,28.29-48.12,32.82-5.8,3.1-14.33,8.71-18.11,11.93-2.91,2.47-9.39,6.04-10.99,6.04-4.15,0-6.05,7.3-2.69,10.35,3.65,3.3,11.51,1.07,23.46-6.66,7.49-4.85,11.14-6.93,20.71-11.8,7.66-3.9,21.39-12.21,35.77-21.65,7.27-4.77,8.23-3.84,8.23,7.99,0,4.94.66,12.87,1.46,17.63.81,4.75,1.74,10.87,2.09,13.58,1.2,9.49,10.22,14.67,16.69,9.59,3.45-2.71,5.04-9.4,3.72-15.67-.56-2.67-1.29-15.07-1.63-27.56-.69-25.63-.79-25.17,6.8-30.31,8.76-5.92,22.65-17.4,34.87-28.8,14.74-13.75,12.72-13.25,21.05-5.21,16.1,15.54,28.67,2.89,13.37-13.46-6.04-6.46-5.89-8.54.73-9.96,11.12-2.39,24.38-12.09,26.89-19.68,3.97-12.02-5.39-22.83-16.48-19.05ZM166.06,113.45c-1.41,1.07-6.39,5.62-11.06,10.1-13.51,12.96-20.01,17.87-21.56,16.27-2.12-2.18.53-34.6,2.97-36.39,1.14-.83,3.52-1.16,6.45-.88,2.55.25,9.78.91,16.06,1.48,14.58,1.33,15.74,2.86,7.15,9.4ZM193.73,64.62c-1.18,19.27-9.97,19.49-15.55.38-3.06-10.46-2.67-15.6,1.54-20.25,6.94-7.67,15,3.75,14.01,19.86Z"/>
</svg>