<?xml version="1.0" encoding="UTF-8"?>
<svg id="Layer_1" data-name="Layer 1" xmlns="http://www.w3.org/2000/svg" viewBox="0 0 256 256">
  <defs>
    <style>
      .cls-1 {
        fill: #231f20;
      }
    </style>
  </defs>
  <path class="cls-1" d="M208.5,17.42c-14.75.34-29.72.15-36.5-.48-15.56-1.43-51.47-1.98-62.32-.94-4.85.46-13.17,1.53-18.5,2.37-5.33.84-12.38,1.8-15.68,2.14s-9.6,1.26-14,2.05c-12.64,2.28-20.35,2.15-24.5-.4-12.38-7.62-22.82,7.72-13.35,19.6,5.99,7.51,16.75,10.35,31.61,8.36,40.58-5.46,36.29-8.31,37.03,24.63.33,14.71,1.13,30.35,1.77,34.75,2.95,20.09-.07,54.94-5.84,67.43-6.15,13.29-5.19,26.62,2.83,39.65,7.63,12.39,20.64,2.36,14.85-11.45-2.85-6.81-3.24-16.43-.81-20.17,8.01-12.36,8.8-44.21,3.24-131.15-.66-10.31,1.81-14.09,6.28-9.62,1.79,1.79,3.18,42.94,2.36,69.82-1.31,43.03.34,110.12,2.83,114.79,5.33,10.02,19.32,10.9,23.05,1.45,1.25-3.17,1.42-158.56.19-174.24-.98-12.48.03-14.5,6.81-13.66,55.52,6.94,94.17,1.91,94.15-12.24-.02-11.25-5.93-13.37-35.5-12.68Z"/>
</svg>