<?xml version="1.0" encoding="UTF-8"?>
<svg id="Layer_1" data-name="Layer 1" xmlns="http://www.w3.org/2000/svg" viewBox="0 0 256 256">
  <defs>
    <style>
      .cls-1 {
        fill: #231f20;
      }
    </style>
  </defs>
  <path class="cls-1" d="M27.66,235q6.62-3,75.41-3c72.66,0,78.95.31,108.93,5.46,8.17,1.4,13.71,1.84,20.83,1.64,11.11-.31,12.31-14.53,1.61-19.12-3.73-1.6-4.49-2.45-5.49-6.16-.64-2.36-1.93-5.43-2.88-6.81-5.65-8.21-6.09-11.78-6.39-52.01-.48-62.66-6.3-71.99-49.17-78.93-3.3-.53-9.15-1.66-13-2.5-3.85-.84-11.35-1.54-16.67-1.55-11.88-.02-12.84-.35-12.81-4.37.05-6.12,4.68-29.39,6.32-31.72,6.41-9.16-4.34-21.4-13.37-15.23-5.7,3.89-12.97,30.28-12.97,47.05,0,3.93-2.46,5.25-9.82,5.28-2.58,0-8.96.68-14.18,1.48s-14,1.49-19.5,1.52c-5.5.03-13.6.76-18,1.63-13.81,2.73-16.11,2.78-20.05.45-13.12-7.74-14.73,7.96-1.65,16.09,5.01,3.12,30.49,2.82,74.36-.86,8.78-.74,8.46-1.67,9.14,27.21.31,13.22,1.27,29.42,2.13,36,5.69,43.33,6.45,52.78,4.33,54.15-.69.44-19.92,1.03-42.75,1.31-45.86.55-44.43.34-54.83,8.03-14.01,10.36-5.66,22.29,10.49,14.97ZM203.4,207.33c2.96,8.17,2.59,8.51-7.23,6.73-3.67-.67-18.74-1.46-33.49-1.77-32.42-.67-29.28,1.31-30.16-19-1.41-32.27-1.53-30.81,2.47-30.62,28.58,1.33,33.08,1.33,41.5,0,22.02-3.46,23.82-2.67,22.85,9.97-.81,10.56,1.04,26.39,4.05,34.69ZM128.31,93.25c.95-1.46,15.85-1.67,22.19-.31,2.2.47,6.7,1.38,10,2.01,34.33,6.58,36.41,8.34,38.42,32.55,1.02,12.22,1.15,12.06-10.63,12.84-5.39.36-13.36,1.33-17.72,2.17-8.39,1.61-40.05,1.46-41.62-.19-1.05-1.11-1.66-47.5-.65-49.06Z"/>
</svg>