<?xml version="1.0" encoding="UTF-8"?>
<svg id="Layer_1" data-name="Layer 1" xmlns="http://www.w3.org/2000/svg" viewBox="0 0 256 256">
  <path d="M22.61,179.65c.77,1.73,1.39,3.5,1.39,3.93,0,18.2,32.01,49.99,61.5,61.08,43.75,16.45,97.21-4.27,126.94-49.21,2.17-3.28,4.68-6.86,5.57-7.96,2.46-3.02,8.99-18.33,8.99-21.08,0-5.34-.69-4.83-37,27.51-26.08,23.23-44.33,35.08-50.42,32.74-6.27-2.41-5.14-120.18,1.19-123.53,1.1-.58,9.44-.24,22.74.92,11.55,1.02,21.32,1.87,21.72,1.89,9.83.63-4.97,23.05-15.22,23.05-12.53,0-16.42,14.32-5.2,19.13,16.55,7.09,42.2-13.32,42.2-33.59,0-6.39,1.81-9.42,6.34-10.62,20.7-5.5,33.21-24.43,23.11-34.98-5.75-6-15.76-5.7-19.89.6-3.41,5.2-4.56,3.23-4.56-7.8,0-16.38-3.41-23.1-13.96-27.64-18.84-8.11-38.29,1.46-41.54,20.45-.37,2.17-1.28,6.19-2.02,8.94-.74,2.75-1.73,6.58-2.19,8.5-.92,3.81-3.59,4.97-7.1,3.09-1.69-.9-2.02-2.64-2.66-13.76-1.9-32.98-8.22-43.7-21.66-36.75-2.32,1.2-3.69,1.33-5.7.56-5.48-2.11-12.46-2.14-19.65-.08-3.85,1.1-8.62,2.37-10.6,2.81-3.26.73-5.53,1.66-16.9,6.95-10.72,4.98-21.05,12.19-29.07,20.28-4.71,4.76-9.47,8.93-10.57,9.28-5.57,1.77-7.63,5.93-7.83,15.82-.11,5.44-.87,11.37-1.84,14.29-7.31,22.17-5.38,64.09,3.92,85.15ZM180.36,52.12c2.49-1.26,8.19-.73,10.22.95,2.91,2.42,1.42,23.04-1.82,25.09-2.36,1.5-13.5.96-15.2-.73-3.22-3.22,2.07-22.92,6.79-25.31ZM112.61,39.58c2.19-5.71,3.25-.71,3.47,16.41.19,14.78-.42,18.16-2.99,16.57-1.16-.72-1.59-30.08-.48-32.97ZM115.86,127.93c-.85,24.49-2.1,31.06-3.2,16.87-.85-10.91-.84-42.28,0-43.13,3.72-3.72,4.12-.46,3.19,26.26ZM106.15,217.47c.41-.57,1.19-3.83,1.74-7.26s1.28-6.67,1.62-7.22c2.03-3.28,4.88,4.78,6.52,18.42,1.27,10.52,1.24,10.55-7.71,10.57-7.77.02-8.59-5.52-2.16-14.52ZM89,43.92c6.16-1.92,6.52-1.38,6.32,9.58-.39,21.38.99,20.17-23.95,21.09-20.01.74-23.37.23-23.37-3.51,0-4.8,27.31-22.9,41-27.17ZM36.09,99.83c.79-1.48,1.66-1.84,3.24-1.35,6.38,1.98,12.02,2.43,30.79,2.47,26.3.06,23.36-6.26,21.99,47.3-1.49,58.3-4.25,72.67-13.96,72.73-8.08.05-34.13-26.11-34.17-34.33,0-.63-.71-2.5-1.57-4.15-1.93-3.7-4.68-11.42-7.94-22.27-4.28-14.26-3.3-51.24,1.61-60.41Z"/>
</svg>