<?xml version="1.0" encoding="UTF-8"?>
<svg id="Layer_1" data-name="Layer 1" xmlns="http://www.w3.org/2000/svg" viewBox="0 0 256 256">
  <defs>
    <style>
      .cls-1 {
        fill: #231f20;
      }
    </style>
  </defs>
  <path class="cls-1" d="M204.5,17.42c-14.75.34-29.71.15-36.5-.48-15.62-1.44-51.48-1.97-62.45-.93-4.92.47-13.25,1.54-18.5,2.39-37.09,5.98-49.08,6.81-54.05,3.76-10.79-6.63-21.11,4.39-15.39,16.44,2.52,5.31,7.4,8.92,14.76,10.91,7.72,2.09,8.04,2.95,3.22,8.83-22.05,26.92-28.41,86.39-12.98,121.32.77,1.73,1.39,3.5,1.39,3.93,0,18.2,32.01,49.99,61.5,61.08,49.74,18.7,111.91-11.65,137.56-67.17,9.6-20.77,7.45-19.71-32.77,16.19-25.46,22.73-35.72,29.85-45.94,31.89-4.63.92-4.55,2.33-4.56-82.93,0-42.43-.34-81.43-.75-86.65-.98-12.48.03-14.5,6.81-13.66,55.52,6.94,94.17,1.91,94.15-12.24-.02-11.25-5.93-13.37-35.5-12.68ZM77.5,221.31c-15.5-8.07-33.46-26.65-33.51-34.65,0-.63-.71-2.5-1.57-4.15-10.38-19.89-13.63-51.77-8.01-78.52,7.48-35.59,30.6-56.85,65.59-60.31,13.91-1.38,12.47-11.53,12.65,89.74.13,75.88.35,87.67,1.7,91.55,3.8,10.9-11.9,9.34-36.85-3.65Z"/>
</svg>