<?xml version="1.0" encoding="UTF-8"?>
<svg id="Layer_1" data-name="Layer 1" xmlns="http://www.w3.org/2000/svg" viewBox="0 0 256 256">
  <defs>
    <style>
      .cls-1 {
        fill: #231f20;
      }
    </style>
  </defs>
  <path class="cls-1" d="M224.25,31.27c-8.09.91-13.81,11.14-15.78,28.23-.54,4.65-2.71,14.04-6.01,26-.76,2.75-1.67,7.02-2.03,9.5-4.26,29.57-20.2,50.55-45.93,60.46-3.85,1.48-9.03,3.49-11.5,4.46-16.14,6.31-14.42,13.12-15-59.25-.44-55.25-.68-62.5-2.15-65.17-3.45-6.28-8.4-8.54-13.08-5.96-3.58,1.97-4.44,3.76-5.26,10.97-.38,3.3-1.29,10.95-2.03,17s-1.66,17.3-2.04,25c-.38,7.7-.83,15.12-1,16.5-.17,1.38-.34,3.06-.38,3.75-.05.91-2.74,1.25-9.9,1.25-28.61,0-42.14,30.5-23.05,51.93,2.68,3.01,4.87,5.76,4.87,6.11,0,.89-20.13.07-28-1.14-3.58-.55-8.08-1.25-10.02-1.55-11.16-1.74-20.79,7.32-16.53,15.56,2.13,4.11,5.67,5.7,14.22,6.39,17.2,1.38,24.47,11.24,19.33,26.2-4.04,11.73-6.31,13.18-21.73,13.84-11.11.48-15.08,8.05-7.95,15.18,9.87,9.87,44.72.35,44.68-12.2,0-.45.86-2.62,1.92-4.82,5.71-11.89,6.69-18.18,4.69-30.25q-.87-5.25,11.19-5.25c15.71,0,15.2-.51,15.2,15.36,0,19.19,3.62,29.36,11.96,33.62,13.03,6.65,24.42-4.6,17.58-17.35-5.96-11.09-3.7-31.63,3.47-31.63,4.35,0,32.9-10.32,41.79-15.11,21.66-11.66,44.2-43.82,44.2-63.09,0-1.17.67-4.42,1.49-7.22,2.56-8.73,4.44-16.58,7.59-31.59,2.02-9.64,3.82-15.67,5.38-18,6.76-10.11,1.61-19.06-10.21-17.73ZM82.28,146.08c-12.74-4.51-11.11-18.51,3.18-27.22,3.86-2.35,5.69-2.33,10.51.12,11.98,6.11-.91,31.63-13.69,27.1Z"/>
</svg>