<?xml version="1.0" encoding="UTF-8"?>
<svg id="Layer_1" data-name="Layer 1" xmlns="http://www.w3.org/2000/svg" viewBox="0 0 256 256">
  <defs>
    <style>
      .cls-1 {
        fill: #231f20;
      }
    </style>
  </defs>
  <path class="cls-1" d="M88,100.33c0-5.57,16.5-16.33,25.05-16.33,7.74,0,10.41-4.63,5.5-9.54-3.91-3.91-16.92-3.59-24.54.61-8.03,4.42-22,20.1-22,24.69,0,.45-.9,2.59-2,4.74s-2,4.67-2,5.59-.71,3.37-1.58,5.45c-14.64,35.05,31.56,87.16,62.6,70.6,1.92-1.02,4.6-2.21,5.97-2.64,18.63-5.86,40.67-44.42,33.72-59-4.78-10.02-17.36-3.81-14.56,7.18,1.17,4.58-1.73,15.9-4.7,18.36-.79.66-1.44,1.8-1.44,2.53,0,5.71-20.59,20.12-30.16,21.1-30.18,3.12-50.53-41.81-31.63-69.83.98-1.46,1.79-3.04,1.79-3.52Z"/>
</svg>