<?xml version="1.0" encoding="UTF-8"?>
<svg id="Layer_1" data-name="Layer 1" xmlns="http://www.w3.org/2000/svg" viewBox="0 0 256 256">
  <path d="M22.61,179.65c.77,1.73,1.39,3.5,1.39,3.93,0,1.06,3.19,8.15,8.28,18.42,14.93,30.12,63.2,54.04,96.02,47.58,3.96-.78,9.26-1.69,11.76-2.03,22.38-3.02,55.86-27.11,72.39-52.09,2.17-3.28,4.67-6.86,5.57-7.96,2.46-3.02,8.99-18.33,8.99-21.08,0-5.07-4-2.27-27.9,19.52-31.3,28.53-47.58,40.07-56.56,40.07-2.54,0-2.74-5.75-2.77-79.15-.03-78.69-.11-77.57,5.08-72,6.42,6.87,12.66,2.02,14.6-11.35,3.53-24.4,44.62-20.79,44.53,3.91-.02,5.94-1.88,9.27-12.86,23.09-18.47,23.24-24.29,55.85-6.94,38.89,33.62-32.88,46.45-60.05,36.95-78.24-2.92-5.58-2.38-6.73,3.53-7.52,15.48-2.06,20.35-16.94,8.09-24.72-3.14-2-4.17-2.05-28.26-1.49-14.75.34-29.71.15-36.5-.48-15.92-1.47-51.56-1.97-62.94-.89-5.19.49-13.07,1.54-17.5,2.33s-10.98,1.72-14.56,2.07-10.34,1.28-15.04,2.08c-13.47,2.28-20.81,2.17-24.96-.38-10.79-6.64-21.11,4.38-15.39,16.43,2.52,5.31,7.4,8.92,14.76,10.91,7.72,2.09,8.04,2.95,3.22,8.83-22.05,26.92-28.41,86.39-12.98,121.32ZM140.25,42.66c2.9-1.17,3.75-.57,3.75,2.65,0,3.81-2.16,7.33-3.85,6.29-1.56-.96-1.48-8.3.1-8.93ZM73.85,50.77c4.34-2.27,16.47-5.65,24.15-6.74,16.18-2.28,14.47-12.67,14.65,89.36.13,75.93.35,87.67,1.7,91.55,3.2,9.17-10.9,9.46-27.92.58-1.61-.84-3.29-1.53-3.72-1.53-8.93-.07-38.66-28.79-38.71-37.39,0-.62-.71-2.47-1.57-4.12-10.4-19.93-13.65-51.87-7.98-78.52,5.88-27.68,15.55-40.73,39.41-53.2Z"/>
</svg>