<?xml version="1.0" encoding="UTF-8"?>
<svg id="Layer_1" data-name="Layer 1" xmlns="http://www.w3.org/2000/svg" viewBox="0 0 256 256">
  <defs>
    <style>
      .cls-1 {
        fill: #231f20;
      }
    </style>
  </defs>
  <path class="cls-1" d="M69,114c3.02-1.06,6.49-1.95,7.7-1.97,1.21-.02,5.68-1.83,9.93-4.03,11.29-5.84,11.83-5.69,11.41,3.27-.53,11.27,3.02,17.73,9.73,17.73,6.02,0,7.81-3.04,8.53-14.54,1.21-19.29.94-19.01,19.33-20,18.5-.99,20.81,5.36,16.34,45.04-2.05,18.22-29.61,31.35-47.09,22.44-5.55-2.83-8.3-2.3-8.69,1.67-1.13,11.58,23.79,17.12,42.04,9.35,9.78-4.16,9.44-4.62,9.95,13.21.87,29.94,13.9,45.68,32.34,39.04,37.34-13.44,44.46-73.58,9.15-77.25-24.2-2.51-22.39-.92-20.85-18.27.64-7.26,1.17-15.51,1.17-18.33,0-6.87,1.56-8.15,6.65-5.42,16.66,8.93,49.3-10.26,37.04-21.78-3.34-3.14-5.28-2.76-14.2,2.8-10.64,6.64-12.41,6.44-25.73-2.78-4.83-3.35-5.22-4.12-6.18-12.46-.53-4.65-1.27-6.25-6.44-14.08-14.19-21.46-41.59-22.22-48.73-1.34-1.66,4.86-3.33,3.86-6.25-3.74-6.08-15.82-17.85-21.46-34.66-16.63-13.69,3.93-23.52,11.33-27.62,20.79-16.66,38.38-3.9,67.48,25.12,57.27ZM167.74,161.25c2.5-1.9,16.29-.25,24.51,2.93,11.9,4.6-.17,40.43-15.13,44.91-11.97,3.59-20.41-39.46-9.38-47.83ZM124.93,69.54c.51-.31,1.47-2.25,2.13-4.31.66-2.05,1.65-4.3,2.2-4.99,3.03-3.82,14.85,2.33,19.76,10.28,3.54,5.72-4.33,7.9-23.77,6.56-1.46-.1-1.74-6.67-.32-7.54ZM59.33,64.5c3.29-6.23,9.4-10.72,17.1-12.56,10.28-2.46,13.14.82,17.67,20.32,2.56,10.99,2.71,10.53-4.89,14.94-12.97,7.53-15.75,8.62-29.38,11.45-7.88,1.64-8.2-19.57-.5-34.15Z"/>
</svg>