<?xml version="1.0" encoding="UTF-8"?>
<svg id="Layer_1" data-name="Layer 1" xmlns="http://www.w3.org/2000/svg" viewBox="0 0 256 256">
  <defs>
    <style>
      .cls-1 {
        fill: #231f20;
      }
    </style>
  </defs>
  <path class="cls-1" d="M164.34,117.06c22.7,5.06,41.04-16.06,33-38.02-5.43-14.83-27.04-23.48-41.13-16.46-22.51,11.23-16.89,48.9,8.13,54.48ZM160.17,77.75c1.19-2.3,4.72-2.19,7.83.25,1.38,1.08,2.95,1.97,3.5,1.98,5.97.16,10.69,11.9,6.4,15.9-11.76,10.96-25.5-3.09-17.73-18.13Z"/>
  <path class="cls-1" d="M190.29,193.69c-25.82,23.05-31.09,26.76-45.34,31.9-9.69,3.49-11.25,3.13-12.1-2.83-.37-2.61-1.65-6.32-2.84-8.25q-2.16-3.5-2.33-89.75c-.19-97.79.57-89.35-8.78-96.75-5.79-4.57-15.06-5.45-25.39-2.39-2.75.81-6.62,1.84-8.6,2.27-12.1,2.66-35.18,16.16-45.4,26.55-25.23,25.66-33.57,87.47-16.89,125.21.77,1.73,1.39,3.5,1.39,3.93,0,18.2,32.01,49.99,61.5,61.08,49.74,18.71,113.05-12.33,137.75-67.52,9.06-20.26,7.23-19.34-32.96,16.54ZM55.82,205.34c-4.46-4.6-11.81-16.22-11.82-18.69,0-.63-.71-2.5-1.57-4.15-7.25-13.9-10.42-28.74-10.42-48.79,0-47.56,26.49-89.1,57.23-89.74.7-.02,3.07-.88,5.27-1.92,11.99-5.68,13.52-3.54,11.05,15.44-.79,6.05-1.74,17.3-2.12,25s-.8,15.12-.93,16.5c-.14,1.38-.3,3.06-.37,3.75-.09.91-2.83,1.25-9.96,1.25-22.2,0-39.55,24.52-30.07,42.52,7.05,13.39,22.92,21.15,32.81,16.03q6.1-3.16,6.11,24.17c.02,26.64.95,34.03,4.96,39.46,11.16,15.1-33.22-3.35-50.16-20.84ZM82.01,146c-12.43-4.1-10.57-18.55,3.49-27.16,3.84-2.35,5.66-2.32,10.59.2,12.16,6.21-.94,31.29-14.08,26.96Z"/>
</svg>