<?xml version="1.0" encoding="UTF-8"?>
<svg id="Layer_1" data-name="Layer 1" xmlns="http://www.w3.org/2000/svg" viewBox="0 0 256 256">
  <path d="M166,219.98c-10.17.73-20.06,1.37-21.96,1.42-5.08.14-5.78-2.01-4.79-14.54.45-5.7.62-33.13.38-60.96-.53-61.41-6.39-53.4,39.09-53.4,42.12,0,40.56.23,47.74-7.16,16.62-17.11,15.22-64.48-1.62-54.69-5.08,2.96-6.75,7.64-7.85,22.02-1.64,21.52-.21,20.86-43.24,20-38.17-.76-33.74,1.79-33.78-19.49-.04-19.19-.43-20.88-5.53-24.24-3.76-2.48-9.06-2.47-13.14.02-5.88,3.58-7.62,8.72-8.24,24.32-.43,10.68-.89,14.02-2.05,14.82-2.19,1.5-31.99.27-41.58-1.73-24.65-5.12-47.24,1.19-53.48,14.95-6.66,14.67,8.31,24.93,15.75,10.8,3.63-6.89,24.03-10.33,36.31-6.13,1.97.68,11.89,1.43,22.73,1.73,24.4.67,21.46-8.42,21.62,66.72.17,77.44,4.76,68.2-31.36,63.17-45.27-6.29-53.12-5.7-61.35,4.62-9.89,12.41.41,26.46,14.13,19.28,4.42-2.31,5.25-2.42,12.23-1.57,15.34,1.86,31.77,4.12,40.62,5.57,22.48,3.69,52.14,4.24,80.87,1.5,6.52-.62,21.38-.81,36.5-.46,28.58.66,29.57.46,34.01-6.81,10.21-16.75-15.52-23.81-72.01-19.77Z"/>
</svg>