<?xml version="1.0" encoding="UTF-8"?>
<svg id="Layer_1" data-name="Layer 1" xmlns="http://www.w3.org/2000/svg" viewBox="0 0 256 256">
  <defs>
    <style>
      .cls-1 {
        fill: #231f20;
      }
    </style>
  </defs>
  <path class="cls-1" d="M190.5,196.98c-22.86,20.42-39.79,30.96-49.83,31.03-1.19,0-6.4.91-11.57,2-15.44,3.26-26.24,2.01-38.67-4.48-1.61-.84-3.29-1.53-3.73-1.53-8.92-.07-38.66-28.79-38.71-37.39,0-.62-.71-2.47-1.57-4.12-6.88-13.19-12.8-39.67-9.17-41.03.69-.26,8-.87,16.25-1.35,9.76-.57,16.35-1.44,18.87-2.5,2.13-.89,4.6-1.62,5.5-1.62,7.3,0,25.04-14.98,30.48-25.72,2.52-4.98,9.27-31.48,11.15-43.78,2.31-15.12,5.31-19.41,14.35-20.55,14.79-1.86,20.26-9.89,12.72-18.66-2.92-3.39-38.89-4.6-49.08-1.65-2.75.8-6.62,1.8-8.6,2.24-3.26.72-5.52,1.64-16.9,6.94-32.56,15.14-48.21,38.75-52.47,79.18-2.96,28.07-.84,47.74,7.08,65.65.76,1.73,1.39,3.5,1.39,3.93,0,18.2,32.01,49.99,61.5,61.08,49.72,18.7,113.06-12.35,137.75-67.52,9.11-20.36,6.96-19.19-36.75,19.84ZM37.93,106.05c6.45-32.45,28.12-56.3,56.81-62.51,1.78-.38,3.49-1.12,3.81-1.62,3.13-5.06,6.48.69,3.94,6.77-1.3,3.12-6.3,25.4-9.71,43.31-3.38,17.73-17.71,26.99-44.04,28.44-14.38.79-13.94,1.38-10.8-14.38Z"/>
</svg>