<?xml version="1.0" encoding="UTF-8"?>
<svg id="Layer_1" data-name="Layer 1" xmlns="http://www.w3.org/2000/svg" viewBox="0 0 256 256">
  <path d="M74.63,236.06c41.99-.17,49.39.03,58,1.56,36.53,6.48,89.09.83,98.71-10.6,10.04-11.94-1.39-17.68-29.04-14.6-14.5,1.62-27.91,2.05-30.66,1-1.31-.5-1.45-2.49-.96-13.75.32-7.27.05-18.76-.59-25.66-2.95-31.81-3.53-29.47,7.42-30.24,17.3-1.23,38.08-15.94,43.45-30.76.7-1.93,2.13-7.32,3.18-12,1.05-4.68,2.33-10.3,2.85-12.5,7.58-32.51-12.44-59.31-45.09-60.33-28.56-.9-37.39,15.57-37.39,69.73,0,28.41-.26,29.35-7.16,26.21-3.13-1.43-2.99-38.35.25-67.97,2.82-25.73-4.36-40.09-14.81-29.64-3.14,3.14-4.44,9.41-5.81,27.9-.57,7.76-1.7,19.78-2.5,26.72-.8,6.94-1.47,18.86-1.48,26.5-.02,18.36,3.39,16.49-30.59,16.71-32.38.2-35.94,1.05-45.44,10.85-11.72,12.08-1.14,21.15,14.19,12.17q5.69-3.33,32.21-3.33c33.12,0,29.61-3.3,29.71,27.97.04,12.94.41,25.87.82,28.73,1.39,9.73,3.76,9.24-46.39,9.6-38.65.27-39.04.29-43.86,2.63-8.06,3.91-10.51,14.35-4.72,20.15,3.53,3.53-2.38,3.21,55.7,2.98ZM164.96,82.5c3.76-26.77,4.98-30.72,10.27-33.27,5.53-2.66,12.86-.68,23.41,6.32,9.73,6.46,11.84,15.76,7.38,32.52-1.09,4.09-1.99,8.68-2,10.21-.04,4.4-4.5,12.09-9.65,16.62-9.88,8.7-26.55,12.72-27.86,6.73-1.4-6.41-2.45-32.76-1.55-39.13ZM137.75,145.06c2.18-1.3,6.36-.45,7.94,1.61,1.56,2.04,2.17,7.87,3.24,30.83,1.3,28.04-.71,36.5-6.91,29.03-3.54-4.26-7.39-59.62-4.27-61.47Z"/>
</svg>