<?xml version="1.0" encoding="UTF-8"?>
<svg id="Layer_1" data-name="Layer 1" xmlns="http://www.w3.org/2000/svg" viewBox="0 0 256 256">
  <defs>
    <style>
      .cls-1 {
        fill: #231f20;
      }
    </style>
  </defs>
  <path class="cls-1" d="M229.5,208.44c-11.76-6.94-16.01-31.47-13.45-77.56.83-14.85.8-21.06-.09-25.5-2.17-10.8-3.12-9.92,10.28-9.52q11.75.35,15.25-3.15c6.89-6.89,2.2-16.58-8.15-16.81-17.85-.4-20.81-3.58-15.21-16.33,10.12-23.03-6.23-50.58-23.77-40.07-9.58,5.74-10.21,18.7-1.31,26.72,15.42,13.88-1.73,28.81-34.81,30.31-21.03.95-19.35,2.67-19.11-19.41.25-23.15-2.56-29.65-12.49-28.91-7.45.56-8.14,2.73-7.79,24.38.32,20.06.02,21.42-4.83,21.42-4.47,0-5.7-2.52-6.38-13-1.36-21.17-12.57-35.75-25.08-32.61-6.04,1.52-5.73,12.3.45,16.12,3.97,2.45,7.13,21.04,3.91,23.02-.58.36-4.74-.03-9.25-.88-20.52-3.83-44.81-3.08-51.77,1.61-11.19,7.54-14.05,28.06-3.91,28.06,3.43,0,3.82-.35,9.39-8.38,3.29-4.74,19.34-5.28,42.91-1.44,13.56,2.21,13.23,1.84,14.03,15.66.36,6.23,1.1,14.04,1.65,17.34.55,3.3,1.25,28.05,1.56,55,.62,53.82.54,52.59,3.64,55.47,4.57,4.26,12.52,1.34,15.44-5.66,2.39-5.73,1.41-94.78-1.24-111.82-2.56-16.52-1.79-19.27,4.9-17.43,5.68,1.57,5.69,1.66,5.73,40.61.06,73.8,3.08,103.32,10.57,103.32s8.85-5.1,9.22-41.81c.28-27.64.54-32.39,1.83-32.89.83-.32,9.01.17,18.18,1.08,9.17.91,20.27,1.65,24.67,1.65,10.97,0,10.78-.22,11.59,13.15,1.96,32.32,25.84,59.73,40.33,46.3,5.69-5.27,3.05-12.16-6.92-18.05ZM195.24,139.5c-.85,8.07,1.16,7.72-34.74,6.08-22.78-1.04-20.47,1.75-20.49-24.63-.02-24.06,0-24.15,6.39-23.36,2.25.28,6.79.09,10.09-.42,36.71-5.67,43.07,1.28,38.74,42.33Z"/>
  <path class="cls-1" d="M244.18,126.75c3.23-10.62-6.77-19.35-15.83-13.82-5.95,3.63-6.51,16.77-.87,20.47,5.75,3.77,14.6.25,16.69-6.65Z"/>
</svg>