<?xml version="1.0" encoding="UTF-8"?>
<svg id="Layer_1" data-name="Layer 1" xmlns="http://www.w3.org/2000/svg" viewBox="0 0 256 256">
  <defs>
    <style>
      .cls-1 {
        fill: #231f20;
      }
    </style>
  </defs>
  <path class="cls-1" d="M68.74,210.09c2.69-1.12,9.52-2.46,15.71-3.1,6.02-.61,11.3-1.33,11.73-1.6,1.73-1.07,4.82,1.75,4.83,4.4.1,22.31,21.96,33.87,31.59,16.7,1.03-1.84,1.46-1.64,6.8,3.25,15.88,14.52,33.3,2.74,18.4-12.44-9.3-9.48-5.55-14.79,9.69-13.73,11.66.81,12.03.95,14.93,5.91,7.82,13.34,24.51,4.39,19.07-10.23-4.5-12.07-11.03-15.1-35.93-16.65-11.29-.7-10.54,1.19-10.56-26.55-.01-15.36-.55-27.65-1.58-35.59-2.62-20.34-2.4-21.01,6.75-20.6,17.03.77,43.82-20.97,43.81-35.56-.01-11.64-14.3-19.45-32.5-17.75-17.25,1.61-16.52,1.92-18.01-7.78-2.22-14.4-16.33-12.17-17.55,2.78-1.1,13.49-7.62,14.83-8.87,1.83-1.18-12.35-7.37-18-14.73-13.45-3.76,2.32-3.99,2.98-5.29,14.53-.55,4.92-1.58,9.46-2.28,10.09-4.19,3.8-25.83,7.37-45.1,7.44-6.61.03-11.67-3.55-11.67-8.25,0-8.02-9.23-12.67-12.97-6.54-2.8,4.59-2.54,8.73,1.03,16.29,7.27,15.39,19.67,17.96,62.09,12.89,4.6-.55,7.23,1.59,5.47,4.44-.28.45-.59,5.03-.7,10.16-.28,13.95.49,13.03-10.86,13.03-22.09,0-39.4,24.57-29.96,42.51,7.05,13.39,22.92,21.15,32.81,16.04,5.52-2.86,6.1-1.92,6.1,9.94,0,10-.12,10.6-2.25,11.49-2.59,1.08-15.71,3.57-23.67,4.5-2.98.35-6.97,1.28-8.87,2.07-8.17,3.41-10.2,1.18-5.21-5.72,7.63-10.53-2.85-18.4-13.58-10.21-25.97,19.81-8.98,48.04,21.32,35.45ZM164,67.96c3.57-.37,7.03-.74,7.67-.82,6.52-.79,5.37,2.15-4.62,11.76-5.21,5.02-9.61,10.21-10.54,12.43-2.59,6.19-3.97,4.13-4.3-6.41-.46-14.77.22-15.75,11.79-16.96ZM128.43,73.11c.89-1.43,1.87-1.41,3.37.09.85.85,1.21,7.14,1.23,21.75.02,12.5.6,24.47,1.48,30.55,3.73,25.74.04,63.45-5.65,57.76-1.28-1.28-1.7-108.1-.43-110.15ZM82.01,146c-12.43-4.1-10.57-18.55,3.49-27.16,3.84-2.35,5.66-2.31,10.59.2,12.16,6.21-.94,31.29-14.08,26.96Z"/>
</svg>