<?xml version="1.0" encoding="UTF-8"?>
<svg id="Layer_1" data-name="Layer 1" xmlns="http://www.w3.org/2000/svg" viewBox="0 0 256 256">
  <path d="M194.37,193.63c-29.12,26.01-39.63,32.46-56.75,34.85-2.68.38-5.39.88-6.02,1.12-1.29.49-9.76-7.16-11.48-10.37-.62-1.15-1.12-6.36-1.12-11.58s-.67-13-1.5-17.32-1.5-9.06-1.5-10.56c0-28.61-32.39-54.89-68-55.19-13.64-.11-13.8-.45-9.65-20.31,7.4-35.38,30.43-56.7,70.01-64.82,13.72-2.81,17.93-7.26,12.25-12.95-3.02-3.02-14.44-3.47-23.11-.91-2.75.81-6.62,1.84-8.6,2.27-12.1,2.66-35.18,16.16-45.4,26.55-25.23,25.66-33.57,87.47-16.89,125.21.76,1.73,1.39,3.5,1.39,3.93,0,18.26,31.91,49.95,61.5,61.08,49.74,18.71,113.05-12.33,137.75-67.52,9.06-20.25,7.24-19.34-32.88,16.49ZM92.47,226.63c-1.09-.75-3.1-1.71-4.47-2.13-14.41-4.43-39.95-28.62-40.01-37.88,0-.62-.71-2.47-1.57-4.12-5.75-11.02-12.07-35.52-9.76-37.83,1.51-1.51,18.72-.61,26.67,1.4,18.46,4.67,30.34,19.58,33.31,41.81,4.53,33.86,3.44,44.02-4.17,38.76Z"/>
</svg>