<?xml version="1.0" encoding="UTF-8"?>
<svg id="Layer_1" data-name="Layer 1" xmlns="http://www.w3.org/2000/svg" viewBox="0 0 256 256">
  <defs>
    <style>
      .cls-1 {
        fill: #231f20;
      }
    </style>
  </defs>
  <path class="cls-1" d="M108.63,170.04c-4.4-9.29-13.44-5.8-12.42,4.8.95,9.86,15.17,20.46,27.43,20.45,25.77-.03,43.92-41.32,25.8-58.69-5.19-4.98-5.25-5.32-1.86-10.31,8.44-12.4,10.22-23.43,5.55-34.29-7.78-18.1-28.86-28.04-42.64-20.1-10.06,5.8-16.21,20.06-12.33,28.58,2.17,4.76,8.33,4.64,9.37-.18,4.06-18.93,17.98-23.05,29.73-8.79,10.42,12.65.45,33.74-18.14,38.38-10.39,2.59-11.3,3.31-10.92,8.53.48,6.51,3.74,7.56,18.82,6.08,11.87-1.17,14.45,1.52,13.69,14.25-1.38,23.21-22.86,30.78-32.08,11.31Z"/>
</svg>