<?xml version="1.0" encoding="UTF-8"?>
<svg id="Layer_1" data-name="Layer 1" xmlns="http://www.w3.org/2000/svg" viewBox="0 0 256 256">
  <path d="M22.61,179.65c.77,1.73,1.39,3.5,1.39,3.93,0,14.05,26.2,44.39,47,54.42,2.48,1.19,5.64,2.78,7.04,3.52,42.15,22.34,102.92,1.52,134.4-46.06,2.17-3.28,4.68-6.86,5.57-7.96,2.46-3.02,8.99-18.33,8.99-21.08,0-5.13-1.63-3.95-32.4,23.43-42.89,38.17-51.78,42.54-52.95,26-.92-12.93-.78-54.09.19-55.61,1.33-2.1,6.93-3.19,21.66-4.24,7.7-.55,20.7-1.72,28.88-2.6,8.96-.97,17.51-1.35,21.5-.95,3.64.36,8.87.88,11.62,1.15,13.41,1.32,18.99-12.88,8.57-21.8-6.97-5.96-18.18-7.84-34.6-5.8-4.39.55-16.07,1.66-25.97,2.48-9.9.82-20.99,1.78-24.64,2.14-8.76.86-8.24,4.14-7.56-48.12.28-21.81-4.29-54.38-8.05-57.25-2.71-2.08-6.91-1.5-9.07,1.25-2.35,2.99-4.27,3.16-6.6.59-2.63-2.91-13.24-6.1-14.86-4.48-.67.67-12.03,4.04-17.82,5.29-12,2.59-35.17,16.13-45.4,26.54-25.23,25.66-33.57,87.47-16.89,125.21ZM114.24,37.43c1.05-1.33,2.78-2.43,3.84-2.43,2.55,0,2.85,42.38.46,64-.82,7.42-1.84,18-2.26,23.49-.76,9.84-2.79,13.81-4.62,9.04-1.73-4.52.66-91.66,2.59-94.11ZM108.02,187.75c0-1.79.67-5.95,1.46-9.25.8-3.3,1.47-7.21,1.48-8.69.02-1.48.5-3.9,1.06-5.39,2.03-5.35,2.47-.83,2.52,25.91.04,24.79.23,27.71,2.12,33.34,3.1,9.21-4.39,11.39-20.15,5.87-8.67-3.03-8.64-2.95-2.77-10.68,8.56-11.26,14.23-23.64,14.27-31.12ZM34.15,104.51c6.7-31.19,25.11-51.52,54.85-60.58,6.15-1.87,6.48-1.17,5.09,10.89-.61,5.32-1.55,25.18-2.08,44.12-.81,29.04-1.21,34.69-2.53,36-2.6,2.59-27.75,2.1-37.48-.73-4.12-1.2-9.75-2.25-12.5-2.34-8.45-.27-9.75-6.89-5.35-27.37Z"/>
</svg>