<?xml version="1.0" encoding="UTF-8"?>
<svg id="Layer_1" data-name="Layer 1" xmlns="http://www.w3.org/2000/svg" viewBox="0 0 256 256">
  <path d="M148.9,45.4c2.53.3,9.33.79,15.1,1.08s18.26,1.01,27.74,1.6c35.49,2.2,51.61-3.11,48.77-16.06-1.62-7.39-8.55-9.52-19.67-6.04-7.15,2.24-19.04,2.59-34.84,1.01-5.23-.52-18.95-1.43-30.5-2.02-11.55-.59-24.6-1.72-29-2.51-17.44-3.13-56.26-4.32-77-2.35-19.16,1.82-27.7,6.79-24.94,14.53,2.28,6.4,5.35,7.06,25.41,5.51,38.71-3,41.8-1.5,42.14,20.4.28,17.99.53,17.43-7.77,17.43-3.6,0-13.01.5-20.92,1.11-17.24,1.33-22.53.12-27.74-6.36-5.52-6.87-11.68-3.53-11.68,6.34,0,14.73,11.65,19.91,44.77,19.91,29.75,0,26.4-4.62,26.94,37.16.46,36,.78,32.69-5.73,60.94-1.09,4.73-1.98,9.34-1.98,10.23s-1.41,4.45-3.12,7.9c-1.72,3.45-4.19,8.4-5.5,11.01-3.06,6.11-2.99,8.12.36,10.76,8.84,6.95,24.8-10.23,28.35-30.51.39-2.2,1.44-7.15,2.35-11,.91-3.85,2.32-9.92,3.14-13.5,1.16-5.05,1.54-15.1,1.71-45q.22-38.5,2.72-38.5c2.7,0,3.81,103.27,1.29,119.42-2.71,17.36,11.16,25.81,18.62,11.35,1.56-3.02,3.05-21.45,3.74-46.26.67-23.97.1-22.73,8.92-19.44,3.81,1.42,8.25,2.99,9.85,3.49,5.3,1.65,19.9,2.22,27.27,1.07,11.2-1.75,10.54-2.65,12.24,16.88,2.45,28.3,13.83,47,28.59,47,12.33,0,15.33-11.89,4.82-19.12-11.07-7.62-13.28-16.78-13.93-57.88-1.04-65.16-10.55-77.95-57.95-77.99-20.52-.01-19.25.97-20.08-15.55-.78-15.68-.17-16.98,7.53-16.07ZM123.12,51.13c-.59,2.95-1.14,8.97-1.22,13.37-.21,11.08-3.23,15.22-7.96,10.94-2.25-2.04-2.93-27.7-.83-31.62.9-1.68,1.74-1.94,4.68-1.47,5.67.92,6.6,2.46,5.34,8.78ZM141.32,120.39c.35-11.29.9-20.94,1.22-21.46,2.12-3.43,40.91-.31,46.22,3.71,6.41,4.86,12.45,33.74,8.4,40.13-3.26,5.14-24.16,6.9-38.09,3.19-4.09-1.09-9.32-1.98-11.63-1.98-6.76,0-6.84-.3-6.12-23.61Z"/>
</svg>