<?xml version="1.0" encoding="UTF-8"?>
<svg id="Layer_1" data-name="Layer 1" xmlns="http://www.w3.org/2000/svg" viewBox="0 0 256 256">
  <path d="M205.57,212.51c-36.47,3.82-59.34.01-60.98-10.16-5.94-36.85-5.39-41.02,6.68-50.68,5.08-4.06,14.85-12.61,21.73-19.01,14.75-13.72,12.73-13.22,21.05-5.18,16.9,16.31,28.62,2.56,12.36-14.49-6.18-6.48-6.33-7.23-2.89-14.04,20.05-39.58,5.89-81.07-25.61-75.01-23.46,4.51-26.69,36.38-7.09,70.06,5.72,9.82,5.7,9.96-2.24,17-2.79,2.48-9.74,8.91-15.44,14.3-6.16,5.83-11.03,9.67-12.01,9.48-2.45-.48-2.23-52.09.32-77.29,2.47-24.38-.11-33.5-9.46-33.5-6.96,0-9.34,6.67-11.03,30.96-.56,8-1.79,20.17-2.74,27.04-1.37,9.92-1.67,18.2-1.44,40.08.29,27.72-.21,32.92-3.2,32.92-1.26,0-1.5-8.1-1.78-59.25-.37-69.4-.25-68.75-12.8-68.75-10.29,0-10.99,3.89-10.4,57.84.83,75.5-.04,88.76-6.11,93.43-7.7,5.92-23.43,16.31-29.89,19.76-3.2,1.71-8.04,4.67-10.76,6.58-2.72,1.91-8.29,5.06-12.38,7-11.37,5.4-14.13,11.16-9.05,18.91,4.02,6.13,2.09,5.94,56.75,5.65,43.6-.23,51.07-.05,59.59,1.46,36.38,6.46,88.97.79,98.57-10.63,10.12-12.03-1.13-17.51-29.76-14.5ZM179.1,45.6c7.1-9.02,15.74,2.19,14.57,18.9-1.35,19.27-5.34,23.45-11.21,11.73-6.58-13.16-7.87-24.89-3.36-30.62ZM87.1,209.3c-1.13,1.13-21.1,2.26-21.1,1.2,0-1.9,4.42-5.82,9.64-8.55,3.22-1.69,6.53-3.73,7.35-4.53,2.93-2.88,4.49-1.27,4.81,4.99.17,3.24-.15,6.34-.7,6.89ZM112.77,209.65c-5.79.94-6.78-20.88-1.32-29.22,3.8-5.8,5.21-3.41,5.81,9.82.3,6.74.83,12.94,1.17,13.78.97,2.41-1.6,4.96-5.66,5.62Z"/>
</svg>