<?xml version="1.0" encoding="UTF-8"?>
<svg id="Layer_1" data-name="Layer 1" xmlns="http://www.w3.org/2000/svg" viewBox="0 0 256 256">
  <defs>
    <style>
      .cls-1 {
        fill: #231f20;
      }
    </style>
  </defs>
  <path class="cls-1" d="M120.35,161.06c23.27,5.19,41.37-16.74,32.48-39.35-5.44-13.82-27.08-21.88-40.61-15.13-22.51,11.23-16.89,48.9,8.13,54.48ZM116.17,121.75c1.19-2.3,4.72-2.19,7.83.25,1.38,1.08,2.95,1.97,3.5,1.98,5.97.16,10.69,11.9,6.4,15.9-11.76,10.96-25.5-3.09-17.73-18.13Z"/>
  <path class="cls-1" d="M97.5,25.61c-2.75.81-6.62,1.84-8.6,2.27-12.1,2.66-35.18,16.16-45.4,26.55-25.23,25.66-33.57,87.47-16.89,125.21.76,1.73,1.39,3.5,1.39,3.93,0,18.2,32.01,49.99,61.5,61.08,49.74,18.71,113.05-12.33,137.75-67.52,8.56-19.13,5.41-17.99-24.24,8.79-23.7,21.39-28.74,25.66-36.65,30.99-7.14,4.81-21.61,11.06-25.69,11.09-1.19,0-6.4.91-11.57,2-17.79,3.75-26.83,2.1-47.6-8.71-15.5-8.07-33.46-26.65-33.51-34.65,0-.63-.71-2.5-1.57-4.15-16.74-32.09-13.66-86.31,6.42-112.91,8.6-11.39,35.6-26.04,55.52-30.12,13.72-2.81,17.93-7.26,12.25-12.95-3.02-3.02-14.44-3.47-23.11-.91Z"/>
</svg>