<?xml version="1.0" encoding="UTF-8"?>
<svg id="Layer_1" data-name="Layer 1" xmlns="http://www.w3.org/2000/svg" viewBox="0 0 256 256">
  <path d="M125.44,30c-10.12,0-15.44,10.88-15.44,31.54,0,8.18-15.68,10.02-40.82,4.79-24.4-5.07-47.02,1.3-53.24,15-6.66,14.67,8.31,24.93,15.75,10.8,3.65-6.92,23.92-10.36,36.31-6.15,1.93.65,11.15,1.44,20.5,1.74,20.37.66,21.08.86,21.98,6.18,1.48,8.77-1.31,10.58-13.02,8.43-29.13-5.35-59.44.25-71.36,13.18-12.48,13.54-1.31,21.02,21.49,14.39,12.87-3.75,58.66-2.49,62.87,1.72.77.77,1.54,5.68,1.98,12.58.39,6.22,1.18,14.46,1.74,18.31s1.32,21.17,1.67,38.5c.77,37.76,2.05,41.87,12.03,38.37,4.82-1.69,9.73-31.95,9.41-57.87-.67-52.32-1.19-48.98,7.56-48.12,3.65.36,14.74,1.32,24.64,2.14s21.59,1.93,25.97,2.48c16.42,2.04,27.63.17,34.6-5.8,10.42-8.92,4.84-23.12-8.57-21.8-2.75.27-7.98.79-11.62,1.15-3.98.4-12.56.02-21.5-.94-8.18-.88-21.18-2.07-28.88-2.64-21.89-1.63-23.08-2.24-22.32-11.57q.32-3.91,39.82-3.91c44.04,0,42.25.26,49.45-7.16,12.56-12.93,16.32-49.27,5.67-54.78-3.82-1.97-3.96-1.96-7.85.41-4.59,2.8-6.22,7.69-7.3,21.88-1.63,21.38-.09,20.69-44.32,19.8-39.99-.8-36.14,1.16-35.28-17.9.87-19.33-1.74-24.75-11.94-24.75Z"/>
</svg>