<?xml version="1.0" encoding="UTF-8"?>
<svg id="Layer_1" data-name="Layer 1" xmlns="http://www.w3.org/2000/svg" viewBox="0 0 256 256">
  <path d="M101,180.9c-40.56-3.88-41.55-3.94-49-2.91-4.13.57-11.41,1.47-16.19,2.01-14.73,1.65-20.84,5.44-20.77,12.89.08,9.53,3.28,10.49,37.47,11.27,15.95.36,31.93,1.11,35.5,1.67s10.23,1.32,14.79,1.7c10.48.87,11.21,1.57,11.21,10.58,0,10.71,2.84,15.93,9.71,17.83,8.77,2.42,16.29-5.48,16.29-17.12,0-7.98,14.24-9.51,45-4.83,3.57.54,10.14,1,14.59,1.01,9.2.02,10.76.97,11.93,7.24,2.93,15.78,22.52,20.44,26.09,6.21.59-2.35-2.56-10.66-4.49-11.86-1.78-1.1-1.29-6.16,1.01-10.58,3.11-5.96,2.13-9.97-4.01-16.46-3.54-3.75-5.16-6.38-5.64-9.15-.36-2.14-1.52-7.06-2.57-10.95-1.05-3.89-1.91-8.03-1.91-9.22,0-9.88-14.9-39.69-25.08-50.18-6.96-7.17-26.36-18.35-37.96-21.87-21.28-6.46-20.3-5.07-20.07-28.35.29-28.98-2.63-36.92-13.08-35.51-9.18,1.23-10.65,5.28-11.47,31.55-.77,24.71-.24,23.36-9.53,24.29-22.56,2.26-29.14,1.24-28.2-4.39,1.32-8,.98-17.07-.8-21.38-10.3-24.87-12.25-26.9-28.81-29.93-7.48-1.37-11.49-1.56-15.75-.74-15.53,2.99-11.41,18.52,5.2,19.61,12.62.83,13.07,1.19,18.94,14.96,5.65,13.26-4.84,25.69-21.69,25.71-6.23,0-10.02,2.05-12.15,6.55-4.37,9.21,6.09,18.01,18.25,15.35,5.32-1.16,69.8-5.26,71.65-4.55,1.33.51,3.6,42.02,3.57,65.37-.02,15.77.32,15.37-12.02,14.19ZM136.4,105.41c.73-1.91,2.75-1.78,7.83.52,2.35,1.06,6.98,2.97,10.28,4.24,12.62,4.84,22.46,11.49,28.33,19.14,7.6,9.91,17.17,32.82,17.17,41.11,0,1.32.87,5.18,1.93,8.59,3.13,10.06,1.5,10.54-25.43,7.49-7.15-.81-17.56-1.48-23.14-1.49-15.16-.03-14,2.36-15.46-32.02-.66-15.68-1.4-32.48-1.63-37.34-.23-4.86-.18-9.47.12-10.25Z"/>
</svg>