<?xml version="1.0" encoding="UTF-8"?>
<svg id="Layer_1" data-name="Layer 1" xmlns="http://www.w3.org/2000/svg" viewBox="0 0 256 256">
  <defs>
    <style>
      .cls-1 {
        fill: #231f20;
      }
    </style>
  </defs>
  <path class="cls-1" d="M235.02,210.41c-.02-2.55-3.59-20.03-5.5-26.91-3.13-11.26-5.51-21.36-5.51-23.34,0-6.21-9.21-27.96-16.59-39.16-9.54-14.48-25.1-25.44-46.82-32.97-2.8-.97-8.69-3.06-13.09-4.65q-8-2.88-38.86-2.64t-30-5.5c1.28-8.49.95-16.57-.84-20.9-10.27-24.81-12.24-26.86-28.79-29.89-7.48-1.37-11.49-1.56-15.75-.74-15.53,2.99-11.41,18.52,5.2,19.61,12.64.83,14.04,1.97,18.98,15.45,5.01,13.67-4.92,25.21-21.73,25.22-6.23,0-10.02,2.05-12.15,6.55-4.36,9.19,5.96,18.02,17.99,15.4,4.23-.92,31.86-2.99,74.47-5.56,11.14-.68,21.49,1.12,31.99,5.55,2.48,1.04,6.98,2.86,10,4.04,19.01,7.4,28.29,15.64,36.94,32.8,4.06,8.06,9.06,23.24,9.06,27.5,0,1.23.86,5.39,1.91,9.24,4.14,15.2,6.01,23.24,6.61,28.5,2.35,20.69,9.64,30.7,20.85,28.59,9.28-1.74,10.36-9.23,3.13-21.59-.8-1.38-1.47-3.44-1.48-4.59Z"/>
</svg>