<?xml version="1.0" encoding="UTF-8"?>
<svg id="Layer_1" data-name="Layer 1" xmlns="http://www.w3.org/2000/svg" viewBox="0 0 256 256">
  <path d="M117.76,95.95c-14.2,4.53-25.54,32.85-18.22,45.51,12.58,21.78,36.51,21.31,49.46-.96,11.65-20.04-10.23-51.25-31.24-44.55ZM136.98,132.15c-3.92,14.12-18.82,15.78-26.72,2.99-4.46-7.23.44-19.81,9.24-23.73,10.76-4.78,21.14,7.54,17.48,20.74Z"/>
  <path d="M168.16,125.72c-2.47,1.84-2.72,2.71-3.39,12.03-2.18,30.13-40.01,53.95-64.26,40.46-2.19-1.22-4.4-2.22-4.9-2.22-14.55,0-26.1-44.6-17.21-66.46,5.81-14.3,14.8-23.91,31.07-33.2,12.85-7.34,14.35-9.27,10.21-13.16-3.42-3.22-8-2.73-16.96,1.81-18.86,9.55-38.73,32-38.73,43.76,0,1.11-.67,3.93-1.5,6.26-3.43,9.71-1.61,32.49,3.74,47,18.36,49.79,94.35,42.36,111.23-10.88,5.5-17.35.01-32.34-9.31-25.4Z"/>
</svg>