<?xml version="1.0" encoding="UTF-8"?>
<svg id="Layer_1" data-name="Layer 1" xmlns="http://www.w3.org/2000/svg" viewBox="0 0 256 256">
  <defs>
    <style>
      .cls-1 {
        fill: #231f20;
      }
    </style>
  </defs>
  <path class="cls-1" d="M31.56,92.23c3.15-6.65,15.46-9.51,30.56-7.1,3.51.56,10.65,1.54,15.88,2.19,11.35,1.4,11.64,1.56,12.52,6.78.98,5.82.34,6.08-15.67,6.41-21.39.44-35.79,5.28-44.81,15.07-12.41,13.46-1.18,20.92,21.57,14.32,10.14-2.94,35.22-3.49,37.89-.83,1.33,1.33,1.72,7.02,2.56,37,.57,20.4,1.62,39.76,2.47,45.62.81,5.6,1.48,11.68,1.49,13.5.02,11.94,7.86,19.8,14.17,14.19q2.11-1.87,1.53-53.92c-.32-28.63-.2-52.65.26-53.4,2.24-3.62,3.84-.15,4.44,9.62.33,5.4,1.11,13.87,1.73,18.82.62,4.95,1.41,23.17,1.75,40.5.74,37.77,2.02,41.85,12.01,38.38,4.83-1.68,9.74-31.88,9.41-57.88-.66-51.99-1.11-48.95,7.06-48.17,3.38.32,12.22,1.08,19.64,1.67,7.43.59,19.4,1.74,26.6,2.54,22.13,2.47,31.9,1.15,39.47-5.33,10.42-8.92,4.84-23.12-8.57-21.8-2.75.27-7.98.79-11.62,1.15-3.98.4-12.56.02-21.5-.94-8.18-.88-21.17-2.07-28.86-2.65-21.21-1.59-22.52-2.17-22.52-10.12,0-5.94-4.52-5.33,39-5.34,40.69,0,39.3.2,46.45-7.17,16.62-17.11,15.22-64.48-1.62-54.69-5.08,2.96-6.75,7.64-7.85,22.02-1.64,21.47-.34,20.85-42.27,20.02-37.76-.75-34.2,1.17-33.34-17.95.87-19.33-1.74-24.75-11.94-24.75s-15.44,10.88-15.44,31.45c0,9.68-6.39,9.97-9.96.45-7.23-19.25-26.74-36.27-35.11-30.63-7.92,5.33-6.65,10.58,5.59,23.12,13.05,13.37,12.06,15.67-5.2,12.05-29.55-6.2-55.18,4.32-55.29,22.71-.06,10.63,12.88,12.91,17.54,3.09ZM114.39,92.58c.96,2.5.71,8.24-.4,8.92-1.25.77-3-3.65-3-7.57,0-3.18,2.34-4.11,3.39-1.35Z"/>
</svg>