<?xml version="1.0" encoding="UTF-8"?>
<svg id="Layer_1" data-name="Layer 1" xmlns="http://www.w3.org/2000/svg" viewBox="0 0 256 256">
  <path d="M230.3,211.94c-22.59-.25-29.83-30.71-23.18-97.44,1.38-13.85.7-21.44-2.7-29.93-3.39-8.47-3.17-8.7,9.8-9.7,17.66-1.36,24.25-4.18,27.47-11.73,4.24-9.96-7.44-18.73-16.43-12.33-8.45,6.02-18.5,4.88-15.53-1.76,5-11.22,3.94-20.23-3.22-27.4-6.57-6.57-13.27-8.61-20.67-6.3-12.45,3.88-15.52,18.41-6.11,28.96,6.79,7.61,3.07,8.75-25.9,7.88-20.22-.6-18.2.71-20.65-13.45-2.64-15.3-6.42-20.83-12.13-17.77-4.12,2.2-5.17,5.41-5.77,17.55-.74,14.98-15.32,18.1-69.53,14.89-21.59-1.28-39.24,6.79-37.31,17.07,1.08,5.79,7.15,7.29,13.57,3.38,3.37-2.05,4.13-2.1,20-1.29,9.07.47,28.43.73,43,.6,16.23-.16,27.07.13,27.97.73,2.63,1.77,3.71,33.02,3.51,101.1-.2,67.28-.21,67.05,4.43,69.45,14.18,7.33,18.62-7.05,16.75-54.26-1.16-29.24-.09-30.24,25.51-24.23,4.58,1.08,10.67,2.25,13.54,2.62,7.85,1.01,7.47.07,12.24,30.42,3.79,24.12,38.15,44.06,52.02,30.19,7.76-7.75,1.97-17.11-10.66-17.25ZM186.51,116.59c-.82,5.45-1.5,14.21-1.5,19.46,0,12.72-2.16,14.25-14.51,10.35-2.99-.94-10.52-1.8-18.75-2.13-7.56-.3-13.77-.82-13.79-1.16-.02-.33-.17-8.48-.34-18.11-.16-9.62-.84-24.05-1.51-32.06-.86-10.41-.91-15.36-.15-17.36.85-2.25,1.5-2.68,3.3-2.19,1.23.34,7.86,1.08,14.73,1.64,30.79,2.54,37.16,10.68,32.51,41.56Z"/>
  <path d="M224.21,90.84c-6.58,3.51-8.57,9.59-5.26,16.08,7.06,13.83,21.04,12.01,21.04-2.73,0-11.39-7.53-17.75-15.79-13.35Z"/>
</svg>