<?xml version="1.0" encoding="UTF-8"?>
<svg id="Layer_1" data-name="Layer 1" xmlns="http://www.w3.org/2000/svg" viewBox="0 0 256 256">
  <defs>
    <style>
      .cls-1 {
        fill: #231f20;
      }
    </style>
  </defs>
  <path class="cls-1" d="M176.43,134.61c3.77,1.45,36.39-36.11,43.79-50.41,15.95-30.82-12.47-62.59-50.28-56.19-16.6,2.81-29.11,17.1-29.22,33.35-.13,19.74,15.13,22.76,18.4,3.64,4.42-25.85,44.96-23.61,44.86,2.48-.02,5.85-1.92,9.25-12.86,23.02-13.38,16.84-21.58,41.47-14.69,44.11Z"/>
  <path class="cls-1" d="M190,193.93c-34.71,30.92-55.38,41.34-57.16,28.83-.37-2.61-1.66-6.34-2.86-8.29q-2.19-3.54-2.33-89.75c-.17-97.75.6-89.31-8.76-96.71-5.79-4.57-15.06-5.45-25.39-2.39-2.75.81-6.62,1.84-8.6,2.27-3.26.72-5.52,1.64-16.9,6.94-32.56,15.14-48.21,38.75-52.47,79.18-2.96,28.07-.84,47.74,7.08,65.65.77,1.73,1.39,3.5,1.39,3.93,0,18.2,32.01,49.99,61.5,61.08,49.74,18.71,113.05-12.33,137.75-67.52,9.08-20.3,7.45-19.47-33.25,16.78ZM87.39,225.88c-2.26-1.03-4.42-1.88-4.8-1.88-8.76,0-38.55-28.85-38.6-37.38,0-.62-.71-2.47-1.57-4.12-7.25-13.9-10.42-28.74-10.42-48.79,0-47.62,26.46-89.08,57.27-89.74.68-.02,3.03-.88,5.23-1.92,11.99-5.68,13.52-3.54,11.05,15.44-.79,6.05-1.74,17.3-2.12,25s-.8,15.12-.93,16.5c-.14,1.37-.3,3.06-.37,3.75-.09.91-2.83,1.25-9.96,1.25-22.2,0-39.55,24.52-30.07,42.52,7.05,13.39,22.92,21.15,32.81,16.03q6.1-3.16,6.11,24.17c.02,26.64.95,34.03,4.96,39.46,5.64,7.62-1.48,7.51-18.58-.3ZM82.01,146c-12.43-4.1-10.57-18.55,3.49-27.16,3.84-2.35,5.66-2.32,10.59.2,12.16,6.21-.94,31.29-14.08,26.96Z"/>
</svg>