<?xml version="1.0" encoding="UTF-8"?>
<svg id="Layer_1" data-name="Layer 1" xmlns="http://www.w3.org/2000/svg" viewBox="0 0 256 256">
  <path d="M163.71,156.02c7.58-.57,20.49-1.75,28.67-2.63,8.94-.96,17.52-1.34,21.5-.94,3.64.36,8.87.88,11.62,1.15,9.27.91,16.06-6.45,13.57-14.73-1.05-3.51-8.08-10.86-10.4-10.86-5.52,0-14.83-4.37-16.6-7.79-1.05-2.04-3.98-5.71-6.5-8.17-5.3-5.15-5.48-6.33-2.06-13.09,10.05-19.83,12.39-48.21,4.95-59.99-17.32-27.44-50.25-17.3-50.44,15.54-.08,13.03,3.1,22.85,12.79,39.5,5.98,10.28,6.34,9.25-7.62,22.06-21.46,19.7-21.75,19.69-22.45-.34-.27-7.82-.05-18.5.5-23.72.7-6.63.67-12.67-.11-20-.61-5.77-1.39-14.77-1.73-20-1.35-20.76-5.31-29.5-12.54-27.69-5.82,1.46-6.32,4.24-7,38.69-.34,17.33-1.13,35.55-1.75,40.5-.62,4.95-1.4,13.42-1.73,18.82-.6,9.77-2.2,13.24-4.45,9.62-.46-.74-.57-24.66-.24-53.14.68-58.76.63-59.06-8.5-55.68-2.95,1.09-6.05,6.4-6.64,11.35-.26,2.22-1.18,9.88-2.04,17.03-.86,7.15-2,28.5-2.53,47.44-.81,29.03-1.21,34.69-2.53,36-2.66,2.65-27.76,2.1-37.88-.84-22.77-6.61-33.98.85-21.54,14.35,8.89,9.64,23.76,14.59,45.04,15,16.78.32,17.95.95,14.73,8.01-1.57,3.44-24.33,19.62-37.69,26.8-5.43,2.92-14,8.6-17.65,11.71-2.91,2.47-9.39,6.04-10.99,6.04-4.15,0-6.04,7.3-2.68,10.35,3.67,3.32,11.77,1,23.46-6.74,5.67-3.75,16.25-9.68,21.54-12.07,1.83-.83,5.34-2.86,7.8-4.52,10.18-6.87,9.85-2.17-.57,8.17-11.73,11.64-11.93,20.55-.51,23.42,10.32,2.59,35.45-30.66,35.45-46.91,0-4.12,2.03-7.02,4.57-6.53,1.81.35,1.92,1.19,1.64,13.13-.65,27.99,3.82,39.71,15.15,39.71s12.43-3.04,11.85-38.9c-.64-39.87-2.15-37.25,22.5-39.09ZM185.31,127.98c-4.24.02-5.03-1.59-2.24-4.56,2.91-3.1,4.47-3.06,6.58.16,2.03,3.1.78,4.37-4.34,4.4ZM179.73,44.75c6.94-7.67,15.06,3.82,13.95,19.75-1.68,24-8.44,24.16-15.49.37-3.05-10.3-2.66-15.48,1.55-20.12Z"/>
</svg>