<?xml version="1.0" encoding="UTF-8"?>
<svg id="Layer_1" data-name="Layer 1" xmlns="http://www.w3.org/2000/svg" viewBox="0 0 256 256">
  <path d="M222.27,126.54c-4.27-.99-8.33-1.96-9.02-2.14-1.54-.42-1.63-4.82-.16-7.57,4.02-7.51,2.91-21.64-2.05-26.08-8.03-7.19-16.02-.25-16.03,13.92-.02,15.44-14.07,23.9-27.98,16.85-17.61-8.93-15.6-35.1,3.92-50.93,8.84-7.17,13.06-14.71,13.06-23.33,0-12.67-9.59-12.35-15.39.51-1.41,3.13-3.62,5.37-8.69,8.8-6.24,4.22-11.92,10.03-11.92,12.19,0,1.34-5.89,6.7-6.59,6-.34-.34-1.01-7.44-1.51-15.78-.97-16.4-3.98-31.67-6.65-33.71-2.71-2.08-6.91-1.5-9.07,1.25-2.36,3-4.47,3.17-6.89.58-2.83-3.04-12.91-6.13-14.57-4.47-.62.62-11.29,3.83-17.72,5.33-12.93,3.02-35.11,15.93-45.5,26.5-25.23,25.66-33.57,87.47-16.89,125.21.77,1.73,1.39,3.5,1.39,3.93,0,14.05,26.2,44.39,47,54.42,2.48,1.19,5.64,2.78,7.04,3.52,47.96,25.42,119.15-6.13,145.21-64.37,9.06-20.25,7.24-19.34-32.88,16.49-25.53,22.8-37.87,31.37-45.2,31.37-3.58,0-4.18-5.83-4.18-41,0-28.56-1.95-26.14,22.52-27.97,7.69-.58,20.68-1.77,28.86-2.65,8.94-.96,17.52-1.34,21.5-.94,3.64.36,8.87.88,11.62,1.15,20.78,2.04,17.9-22.15-3.23-27.05ZM34.44,103.98c6.57-30.94,24.78-50.98,54.56-60.04,6.15-1.87,6.48-1.17,5.09,10.89-.61,5.32-1.55,25.18-2.08,44.12-.81,29.04-1.21,34.69-2.53,36-2.6,2.59-27.75,2.1-37.48-.73-4.12-1.2-9.75-2.25-12.5-2.34-8.6-.27-9.68-6.17-5.06-27.9ZM76.51,207.75c-9.05,9.96-32.43-5.23-32.52-21.13,0-.62-.71-2.47-1.57-4.12-2.65-5.07-9.42-25.56-9.42-28.49,0-1.59,1.23-1.24,7.41,2.11,9.34,5.06,18.18,6.93,34.4,7.28,20.96.46,21.8,22.23,1.7,44.34ZM96.52,229.55c-8.67-3.03-8.64-2.95-2.77-10.68,8.56-11.26,14.23-23.64,14.27-31.12,0-1.79.67-5.95,1.46-9.25.8-3.3,1.47-7.21,1.48-8.69.02-1.48.5-3.9,1.06-5.39,2.04-5.35,2.47-.82,2.49,25.91.02,25.25.18,27.59,2.18,33.15,3.35,9.33-4.29,11.62-20.18,6.06ZM118.53,99c-.82,7.42-1.84,18-2.26,23.49-.76,9.84-2.79,13.81-4.62,9.04-1.73-4.52.66-91.66,2.59-94.11,1.05-1.33,2.78-2.43,3.84-2.43,2.55,0,2.85,42.38.46,64Z"/>
</svg>