<?xml version="1.0" encoding="UTF-8"?>
<svg id="Layer_1" data-name="Layer 1" xmlns="http://www.w3.org/2000/svg" viewBox="0 0 256 256">
  <defs>
    <style>
      .cls-1 {
        fill: #231f20;
      }
    </style>
  </defs>
  <path class="cls-1" d="M69.32,197.57c12.93-2.71,13.26-2.57,16.68,7.22,5.55,15.9,10.82,20.33,18.07,15.17,4.13-2.94,4.8-7.78,2-14.53-3.3-7.96-2.69-9.85,3.33-10.24,6.8-.43,7.04.04,7.66,15.61.76,18.96,4.89,26.2,14.95,26.19,9.88,0,11.92-4.47,11.97-26.18.04-21.33-4.02-18.84,31.89-19.54,40.65-.79,39.5-1.35,41.14,20.05,1.1,14.38,2.77,19.07,7.85,22.02,16.81,9.78,18.21-37.6,1.62-54.69-7.15-7.36-5.83-7.16-45.95-7.16q-36,0-36.63-6.5c-.35-3.58-.43-26.98-.18-52,.25-25.02.03-50.23-.48-56-1.2-13.58-.32-15.53,6.64-14.66,55.52,6.94,94.17,1.91,94.15-12.24-.02-11.25-5.93-13.37-35.5-12.68-14.75.34-29.72.15-36.5-.48-15.5-1.43-51.46-1.98-62.18-.95-4.77.46-13.32,1.54-19,2.41-41.6,6.38-48.75,6.87-53.82,3.75-12.38-7.61-22.82,7.72-13.35,19.6,5.99,7.51,16.75,10.35,31.61,8.36,40.58-5.46,36.29-8.31,37.03,24.63.33,14.71,1.13,30.35,1.77,34.75,1.44,9.82.53,44.88-1.42,54.77-1.9,9.62-3.75,11.28-13.46,12.09-4.25.35-9.29,1.14-11.21,1.74-12.78,4.02-32.69.61-36.29-6.23-7.45-14.14-22.41-3.88-15.75,10.8,6.28,13.83,28.68,20.08,53.38,14.9ZM109.07,43.94c7-4.43,9.69,19.52,7.79,69.56-.35,9.35-.42,25.77-.14,36.5.56,21.51-.06,25.38-3.97,24.82-1.82-.26-2.21-.89-2.02-3.32,1.92-25.68,1.31-60.7-1.9-108.83-1.02-15.3-.99-17.96.24-18.73Z"/>
</svg>