<?xml version="1.0" encoding="UTF-8"?>
<svg id="Layer_1" data-name="Layer 1" xmlns="http://www.w3.org/2000/svg" viewBox="0 0 256 256">
  <path d="M193.94,124.62c-8.18,7.89-5.82,8.6-22.66-6.82-14.03-12.85-25.08-21.9-33.28-27.26-10.42-6.81-9.99-5.78-10.05-24.49-.09-27.69-1.4-33.49-8.36-36.9-6.06-2.97-11.04,1.71-12.06,11.34-2.19,20.59-3.15,25.5-4.98,25.5-.78,0-7.63-3.95-15.23-8.79-7.6-4.83-17.64-10.73-22.31-13.1-9.57-4.86-13.21-6.93-20.71-11.79-12.11-7.84-20.36-10.11-23.63-6.49-3.05,3.37-.96,10.17,3.12,10.17,1.38,0,8.03,3.75,10.73,6.04,3.78,3.22,12.31,8.84,18.11,11.93,10.47,5.59,43.68,28.61,47.69,33.06,2.39,2.66,2.76,3.85,2.57,8.29-.39,9.1.13,8.68-10.82,8.68-22.09,0-39.4,24.57-29.96,42.51,7.04,13.36,22.89,21.18,32.49,16.01,6.39-3.44,6.41-3.37,6.41,24.24s.87,33.38,5.54,40.47c10.53,15.99,33.01,4.94,23.87-11.73-2.81-5.12-4.11-104.21-1.4-106.91,1.65-1.65,9.66,4.74,34.23,27.35,13.92,12.81,13.57,11.78,7.6,22.06-14.48,24.94-17.1,48.05-6.89,60.93,9.76,12.32,25.54,13.09,37.9,1.85,14.17-12.88,14.88-41.68,1.68-67.74-3.45-6.8-3.29-7.56,2.89-14.04,16.35-17.14,4.52-30.78-12.47-14.39ZM82.01,146c-12.43-4.1-10.57-18.55,3.49-27.16,3.84-2.35,5.66-2.31,10.59.2,12.16,6.21-.94,31.29-14.08,26.96ZM193.05,199.86c-3.25,11.97-14.45,12.16-16.68.29-1.08-5.73,5.3-26.48,9.39-30.57,5.04-5.04,10.61,18.08,7.29,30.29Z"/>
</svg>