<?xml version="1.0" encoding="UTF-8"?>
<svg id="Layer_1" data-name="Layer 1" xmlns="http://www.w3.org/2000/svg" viewBox="0 0 256 256">
  <path d="M41.99,74c5.74,0,15.17-3.51,17.31-6.44,2.45-3.36,3.77-3.24,9.98.94,12.74,8.58,27.93,3.77,35.61-11.28,12.62-24.74-18.9-45.47-37.81-24.86-3.18,3.47-4.56,3.34-9.21-.86-2.13-1.92-4.67-3.5-5.65-3.5s-2.77-.69-3.98-1.54c-3.38-2.37-11.17-2.87-14.74-.95-21.54,11.62-15.09,48.49,8.49,48.49ZM78.07,43.9c2.55-3.59,3.58-3.62,7.13-.22,4.6,4.41,2.97,12.31-2.54,12.31s-8.26-6.94-4.59-12.1ZM36.67,43.67c2.66-2.67,11.69.37,13.41,4.51,2.89,6.98-5.72,13.45-11.07,8.32-2.93-2.8-4.38-10.79-2.33-12.83Z"/>
</svg>