<?xml version="1.0" encoding="UTF-8"?>
<svg id="Layer_1" data-name="Layer 1" xmlns="http://www.w3.org/2000/svg" viewBox="0 0 256 256">
  <defs>
    <style>
      .cls-1 {
        fill: #231f20;
      }
    </style>
  </defs>
  <path class="cls-1" d="M143.53,98.12c2.8,12.74,19.03,22.04,33.13,18.96,33.91-7.39,28.62-53.65-6.45-56.47-11.84-.95-15.57.8-25.02,11.76-4.31,5-4.16,5.37-5.25-12.91-1.09-18.15-4.07-32.93-6.96-34.47-3.22-1.72-6.73-1.12-8.8,1.51-2.35,2.99-4.27,3.16-6.6.59-2.63-2.91-13.24-6.1-14.86-4.48-.67.67-12.03,4.04-17.82,5.29-3.26.7-5.51,1.62-16.9,6.92-32.56,15.14-48.21,38.75-52.47,79.18-2.96,28.07-.84,47.74,7.08,65.65.77,1.73,1.39,3.5,1.39,3.93,0,14.05,26.2,44.39,47,54.42,2.48,1.19,5.64,2.78,7.04,3.52,42.15,22.34,102.92,1.52,134.4-46.06,2.17-3.28,4.68-6.86,5.57-7.96,2.46-3.02,8.99-18.33,8.99-21.08,0-5.25-2.7-3.25-36.8,27.3-25.38,22.74-37.68,31.29-45.03,31.29-3.59,0-4.19-5.9-4.16-40.9.02-28.58-1.82-26.26,22.31-28.05,7.79-.58,20.87-1.77,29.05-2.65,8.94-.97,17.52-1.34,21.5-.95,3.64.36,8.87.88,11.62,1.15,13.41,1.32,18.99-12.88,8.57-21.8-6.92-5.92-18.63-7.91-34.25-5.81-4.03.54-15.65,1.66-25.82,2.48-10.18.82-21.51,1.79-25.2,2.16-8.02.79-7.43,2.05-8.22-17.62-.65-16.28.9-24.15,2.94-14.88ZM160.17,77.75c1.19-2.3,4.72-2.19,7.83.25,1.38,1.08,2.95,1.97,3.5,1.98,5.97.16,10.69,11.9,6.4,15.9-11.76,10.96-25.5-3.09-17.73-18.13ZM89,43.94c6.17-1.9,6.62-.92,5.11,11.34-.62,5.07-1.56,24.71-2.1,43.65-.82,29.03-1.21,34.69-2.53,36-2.6,2.59-27.75,2.1-37.48-.73-4.12-1.2-9.75-2.25-12.5-2.34-6.93-.22-7.5-.92-7.5-9.27,0-37.61,21.9-67.82,57-78.66ZM76.27,207.88c-9.14,9.6-32.19-5.58-32.28-21.26,0-.62-.71-2.47-1.57-4.12-2.65-5.07-9.42-25.56-9.42-28.49,0-1.59,1.23-1.24,7.41,2.11,9.34,5.06,18.18,6.93,34.4,7.28,21.01.46,21.76,23.14,1.46,44.48ZM108.57,231.71c-17.69-.93-21.42-4.16-14.82-12.85,8.56-11.26,14.23-23.64,14.27-31.12,0-1.79.67-5.95,1.46-9.25.8-3.3,1.47-7.21,1.48-8.69.02-1.48.5-3.9,1.06-5.39,2.04-5.35,2.47-.82,2.49,25.91.02,25.25.18,27.59,2.18,33.15,2.91,8.11,2.26,8.77-8.13,8.23ZM118.53,99c-.82,7.42-1.84,18-2.26,23.49-.76,9.84-2.79,13.81-4.62,9.04-1.73-4.52.66-91.66,2.59-94.11,1.05-1.33,2.78-2.43,3.84-2.43,2.55,0,2.85,42.38.46,64Z"/>
</svg>