<?xml version="1.0" encoding="UTF-8"?>
<svg id="Layer_1" data-name="Layer 1" xmlns="http://www.w3.org/2000/svg" viewBox="0 0 256 256">
  <defs>
    <style>
      .cls-1 {
        fill: #231f20;
      }
    </style>
  </defs>
  <path class="cls-1" d="M199.1,185.93c-41.39,37.73-64.32,50.47-66.26,36.82-.37-2.61-1.66-6.35-2.87-8.3q-2.2-3.56-2.33-89.75c-.15-97.73.61-89.29-8.75-96.69-5.79-4.57-15.06-5.45-25.39-2.39-2.75.81-6.62,1.84-8.6,2.27-12.1,2.66-35.18,16.16-45.4,26.55-25.23,25.66-33.57,87.47-16.89,125.21.77,1.73,1.39,3.5,1.39,3.93,0,18.2,32.01,49.99,61.5,61.08,43.74,16.45,97.21-4.27,126.94-49.21,2.17-3.28,4.68-6.86,5.57-7.96,2.46-3.02,8.99-18.33,8.99-21.08,0-5.07-4-2.27-27.9,19.52ZM87.37,226.06c-2.11-1.13-4.2-2.06-4.65-2.06-8.87,0-38.68-28.77-38.72-37.38,0-.62-.71-2.47-1.57-4.12-5.88-11.27-12.05-35.49-9.67-37.94.41-.42,5.92-.59,12.25-.36,13.2.47,14.4.98,22.65,9.8,4.93,5.26,8.59,7.76,14.6,9.95,7.16,2.61,12.11,22.87,12.96,53.05.34,12.07-.47,13-7.84,9.06ZM97.55,138.1c-3.29,4.97-4.36,4.9-10.63-.66-2.83-2.51-6.22-4.98-7.53-5.48-4.92-1.87-1.27-9.06,6.94-13.67,10.55-5.92,18.71,8.49,11.22,19.81ZM105.55,57.5c-.79,6.05-1.74,17.3-2.12,25s-.8,15.13-.93,16.5c-.14,1.37-.3,3.06-.37,3.75-.09.91-2.83,1.25-9.96,1.25-12.78,0-16.66,2.38-29.77,18.28-2.08,2.52-2.23,2.54-16,2.38-16.36-.19-16.29-.08-12.05-20.38,4.9-23.4,11.97-35.48,26.66-45.51,8.13-5.55,25.67-14.74,28.25-14.79.68-.02,3.03-.88,5.23-1.92,11.99-5.68,13.52-3.54,11.05,15.44Z"/>
</svg>