<?xml version="1.0" encoding="UTF-8"?>
<svg id="Layer_1" data-name="Layer 1" xmlns="http://www.w3.org/2000/svg" viewBox="0 0 256 256">
  <defs>
    <style>
      .cls-1 {
        fill: #231f20;
      }
    </style>
  </defs>
  <path class="cls-1" d="M143.83,102.7c8.39.8,8.45.92,9.14,18.52,1.77,44.93,48.04,42.63,50.64-2.52.67-11.58,1.82-14.7,5.4-14.7,6.85,0,23.75-12.74,26.02-19.62,5.19-15.73-13.3-27.34-22.89-14.36-2.85,3.86-5.15,3.91-5.15.11,0-1.58-.68-4.79-1.5-7.13s-1.49-5.66-1.49-7.38c.08-16.53-13.3-30.45-26.68-27.76-16.12,3.24-23.49,13.68-24.92,35.33-.77,11.69-1.31,12.81-6.1,12.81-6.68,0-6.99-.58-7.8-14.67-1.66-28.83-5.63-38.62-15.48-38.17-1.94.09-9.15.47-16.03.84-8.05.44-13.88,1.27-16.37,2.34-2.13.91-4.74,1.66-5.81,1.66-3.21,0-22.21,9.12-32.36,15.52-3.28,2.07-9.56,7.45-13.96,11.95-6.57,6.73-8.7,8.3-11.91,8.82-8.09,1.3-12.06,8.7-9.04,16.86,2.62,7.07,2.73,8.47,1.07,13.53-7.25,22.03-5.28,64,3.99,84.97.77,1.73,1.39,3.5,1.39,3.93,0,18.2,32.01,49.99,61.5,61.08,49.74,18.71,113.06-12.33,137.75-67.52,9.08-20.3,7.38-19.43-33.56,17.04-33.12,29.52-57.06,41.91-56.51,29.27.05-1.08-.48-6.9-1.18-12.95-1.44-12.49-.72-58.78,1.36-88.36q1.43-20.27,10.48-19.44ZM174.17,130.59c-2.26-2.26-2.47-23.17-.25-24.54,5.85-3.61,10.05.63,10.07,10.16.02,12.02-4.93,19.27-9.82,14.38ZM176.02,50.21c8.26-8.87,14.12,10.8,7.91,26.54-1.09,2.76-8.83,3.28-10.94.74-2.96-3.56-.78-23.19,3.03-27.28ZM100.5,40.03c5.51-1.52,10.32-1.2,10.87.72,1.26,4.35,1.12,31.33-.18,32.13-1.51.93-60.88,2.44-62.27,1.58-7.95-4.91,25.49-27.23,51.57-34.42ZM110.42,211c4.31,22.76-1.11,26.26-23.3,15.03-.89-.45-4.54-2.27-8.12-4.04-16.2-8.02-35-26.94-35-35.24,0-.57-.84-2.89-1.88-5.15-2.55-5.59-5.52-13.73-8.03-22.03-3.55-11.73-2.63-52.04,1.33-58.46.49-.79,75.61-.43,76.41.37.94.94.21,27.29-1.37,49.38-1.87,26.11-1.89,50.36-.04,60.12Z"/>
</svg>