<?xml version="1.0" encoding="UTF-8"?>
<svg id="Layer_1" data-name="Layer 1" xmlns="http://www.w3.org/2000/svg" viewBox="0 0 256 256">
  <defs>
    <style>
      .cls-1 {
        fill: #231f20;
      }
    </style>
  </defs>
  <path class="cls-1" d="M36.81,191.08c6.28-1.22,11.48.48,17.17,5.6,10.09,9.07,7.66,13.73-7.83,14.99-16.01,1.3-31.33,15.47-26.86,24.84,2.4,5.02,6.9,4.89,14.07-.41,6.1-4.51,10.89-6.08,18.63-6.1,20.79-.07,33.13-16.09,26.07-33.86-2.6-6.53-1.73-8.14,4.36-8.14,2.3,0,7.76-.86,12.13-1.92,19.62-4.74,19.08-5.65,21.25,35.32.91,17.06,1.86,19.6,7.36,19.6,8.22,0,9.32-4.04,9.32-34.2s32.4-41.48,68.91-24.84c2.46,1.12,4.75,2.04,5.08,2.04,1.49,0,11.71,7.25,17.47,12.39,7.89,7.04,9.91,7.62,14.92,4.31,11.13-7.37.17-23.6-23.39-34.64-9.98-4.68-11.1-5.08-17-6.08-9.64-1.64-10.5-1.93-10.5-3.48,0-.81,2.9-4.63,6.43-8.49,14.12-15.38,26.3-40.91,29.12-61,.35-2.48,1.26-7.74,2.04-11.71.78-3.96,1.41-9.49,1.41-12.28,0-4.88.85-7.43,4.99-15.01,5.67-10.37-4.26-19.33-14.09-12.72-7.67,5.16-10.06,12.02-12.93,37.22-5.34,46.8-37.54,85.88-68.66,83.31q-3.81-.31-3.81-64.31c0-35.2-.37-65.02-.82-66.26-2.09-5.75-10.12-6.69-15.44-1.82q-3.73,3.42-3.87,69.25c-.15,74.12.81,66.18-8.37,69.28-7.56,2.55-50.18,5.83-78.37,6.03-4.82.03-10.63,6.69-10.63,12.18,0,9.77,7.74,13.64,21.81,10.92Z"/>
</svg>