<?xml version="1.0" encoding="UTF-8"?>
<svg id="Layer_1" data-name="Layer 1" xmlns="http://www.w3.org/2000/svg" viewBox="0 0 256 256">
  <path d="M235.12,67.62c-5.25-5.35-5.53-11.44-.86-18.35,6.99-10.34,1.99-19.34-10-17.99-8.45.95-13.59,10.67-16.16,30.55-2.46,18.98-3.36,19.26-48.59,14.95-17.55-1.67-16.12-.38-16.99-15.45-1.94-33.69-10.23-46.59-22.74-35.4q-3.27,2.92-3.46,24.14c-.11,12.11-.61,21.64-1.16,22.19-2.59,2.59-3.15-.87-3.15-19.6,0-23.01-1.38-27.89-8.05-28.45-6.66-.56-7.34,1.32-8.09,22.15-1.07,29.93,1.08,27.64-26.11,27.93-22.4.24-19.54.89-31.35-7.1-12.29-8.31-23.11,4.45-15.19,17.9,7.7,13.07,13.98,15.33,43.78,15.75,27.6.39,26-.29,26,11.13,0,41.59-1.29,51.04-7,51.14-8.74.15-42.85-2.12-45.99-3.06-12.96-3.88-25.54,5.21-20.55,14.86,2.13,4.11,5.67,5.7,14.22,6.39,17.2,1.38,24.47,11.24,19.33,26.2-4.04,11.73-6.31,13.18-21.73,13.84-11.11.48-15.08,8.05-7.95,15.18,9.87,9.87,44.72.35,44.68-12.2,0-.45.86-2.62,1.92-4.82,5.72-11.9,6.69-18.17,4.69-30.29-.92-5.58,12.53-8.13,15.77-2.99,2.82,4.48-2.58,24.32-10.11,37.17-2.35,4.02-1.58,9.17,1.81,12.02,6.67,5.61,14.78,1.89,19.95-9.15,1.74-3.72,3.56-7.52,4.03-8.45.48-.93,1.31-4.42,1.85-7.76,2.13-13.21,5.72-8.42,8.04,10.71,1.12,9.26,1.89,11.17,5.68,14.16,8.71,6.85,17.88-2.74,15.35-16.03-.57-2.96-1.3-11.46-1.63-18.89-.7-15.66-.85-15.35,9.16-18.79,25.54-8.77,33.07-12.29,44.25-20.71,13.86-10.44,26.93-33.41,31.7-55.75.41-1.91,2.66-4.27,7.32-7.69,13.26-9.73,15.98-20.64,7.35-29.44ZM114.5,151.84c-1.74,1.74-3.79-45.02-2.16-49.27.81-2.11,3.32-1.99,3.89.18.57,2.2-1.05,48.41-1.72,49.09ZM196,110.16c0,15.17-20.18,37.19-41.5,45.28-3.85,1.46-8.9,3.53-11.23,4.58-6.82,3.11-7.28,2.45-7.2-10.38.14-22.31,2.27-44.69,4.41-46.25,1.1-.8,3.22-1.2,4.97-.94,1.68.26,12.72,1.2,24.55,2.1,27.4,2.07,26,1.77,26,5.61Z"/>
</svg>