<?xml version="1.0" encoding="UTF-8"?>
<svg id="Layer_1" data-name="Layer 1" xmlns="http://www.w3.org/2000/svg" viewBox="0 0 256 256">
  <path d="M54.3,102.67c15.4.65,15.78.6,41.48-4.74,5.1-1.06,10.52-1.93,12.03-1.93s5.22-.67,8.22-1.5c3.01-.83,7.94-1.98,10.97-2.56,3.03-.58,7.3-1.7,9.5-2.48,35.81-12.74,57.49.15,59.06,35.12.98,21.87,5.11,19.42-32.7,19.42-33.25,0-34.69.17-38.09,4.37-9.07,11.19.76,15.57,35.23,15.69,37.11.13,35.11-.62,36.12,13.7,2.04,28.95,24.87,58.7,39.2,51.07,4.95-2.64,6.58-11.06,2.82-14.59-21.45-20.12-21.24-19.44-22.13-70.75-.85-48.59-1.66-52.23-14.41-64.45-4.56-4.37-4.53-6.11.15-8.58,6.03-3.18,20.86-18.05,23.72-23.78,9.82-19.7-5.88-38.8-22.73-27.64-8.67,5.74-11.68,15.83-6.84,22.95,1.68,2.48,3.07,4.98,3.08,5.58.06,3.59-20.16,15.49-27.98,16.47-19.06,2.4-37.3,5.12-39.24,5.85-4.92,1.86-31.39,7.7-46.26,10.19-3.3.55-8.22,1.66-10.93,2.46-11.91,3.5-39.77,1.94-45.45-2.55-8.12-6.42-13.12-5.3-13.11,2.95.01,13.22,10.36,18.55,38.29,19.72Z"/>
</svg>