<?xml version="1.0" encoding="UTF-8"?>
<svg id="Layer_1" data-name="Layer 1" xmlns="http://www.w3.org/2000/svg" viewBox="0 0 256 256">
  <path d="M31.7,83.99c-6.23,0-10.02,2.05-12.15,6.55-4.36,9.19,5.95,18.01,17.99,15.4,2.73-.59,18.46-1.91,34.96-2.93s31.8-2.15,34-2.5c7.25-1.17,7.56-.34,6.16,16.79-.8,9.83-1.64,15.07-2.49,15.59-6.23,3.85-50.61,4.72-62.57,1.22-22.79-6.65-33.98.83-21.49,14.38,11.92,12.93,42.09,18.49,71.36,13.17,8.13-1.48,12.43-.95,12.64,1.56.06.7.03,10.83-.05,22.51-.27,37.65,3.09,48.27,15.3,48.27,11.52,0,12.42-2.97,11.85-39.39q-.55-35.17,4.56-36.56c3.33-.93,40.28-4.29,49.24-4.47,4.08-.09,7.41,5.19,8.47,13.43.55,4.27,1.65,9.03,6.37,27.5,1.12,4.4,2.33,10.48,2.67,13.5,2.35,20.69,9.65,30.7,20.85,28.59,9.28-1.74,10.36-9.23,3.13-21.59-.8-1.38-1.47-3.44-1.48-4.59-.02-2.56-3.6-20.06-5.51-26.91-6.74-24.22-6.93-29.49-1.06-29.5,6.72-.01,12.63-8.43,10.62-15.14-2.24-7.47-9.4-11.35-26.73-14.46-1.18-.21-4.42-3.27-7.19-6.8-11.98-15.25-25.96-23.67-55.08-33.16-8.47-2.76-8.56-2.99-10.08-25.59-1.85-27.52-5.26-36.5-13.11-34.53-5.57,1.4-6.35,4.97-6.71,30.86-.27,19.12-.6,23.78-1.72,24.21-11.22,4.3-40.63,1.37-39.83-3.97,1.3-8.66.98-16.71-.82-21.07-10.26-24.81-12.24-26.86-28.79-29.89-7.48-1.37-11.49-1.56-15.75-.74-15.53,2.99-11.41,18.52,5.2,19.61,12.64.83,14.04,1.97,18.98,15.45,5.02,13.67-4.92,25.21-21.73,25.22ZM137.34,105.25c1-1.59.93-1.6,6.48.66,2.58,1.05,7.39,2.96,10.69,4.24,11.45,4.44,24.5,12.94,24.5,15.95,0,1.32-2.45,1.79-14.75,2.81-8.11.67-17.29,1.47-20.4,1.78-4.92.48-5.72.31-6.19-1.31-.9-3.09-1.17-22.77-.33-24.11Z"/>
</svg>