<?xml version="1.0" encoding="UTF-8"?>
<svg id="Layer_1" data-name="Layer 1" xmlns="http://www.w3.org/2000/svg" viewBox="0 0 256 256">
  <defs>
    <style>
      .cls-1 {
        fill: #231f20;
      }
    </style>
  </defs>
  <path class="cls-1" d="M51.25,157.32c-28.83,1.11-39.23,6.34-39.25,19.73,0,8.25,4.99,9.37,13.11,2.95,6.15-4.86,31.43-5.95,48.09-2.07,4.56,1.06,11.89,2.69,16.29,3.62,12.3,2.61,11.5,1.44,11.52,16.73.02,14.98,1.49,22.85,5.35,28.7,10.64,16.08,33.2,5.47,24.17-11.36-2.8-5.22-4.03-21.52-1.79-23.76.67-.67,4.73-.49,12.34.57,33.1,4.6,50.1-.56,63.04-19.16,6.7-9.63,7.11-12.58,7.88-56.77.83-47.79,1.73-51.52,15.45-64.5,8.42-7.96,8.54-8.14,8.51-12.44-.06-7.84-8.17-12.26-15.23-8.31-15.53,8.68-27.1,29.32-28.63,51.08-1.01,14.33-.17,14.06-41.61,13.48q-22-.31-22.55-28.81c-.45-23.41-.84-29.04-2.15-31.5-3.32-6.25-8.34-8.54-13.02-5.96-3.58,1.97-4.44,3.76-5.26,10.96-.38,3.3-1.29,10.95-2.04,17-.75,6.05-1.67,17.3-2.04,25s-.8,15.12-.93,16.5c-.14,1.38-.3,3.06-.37,3.75-.09.91-2.83,1.25-9.96,1.25-23.86,0-40.81,27.01-28.42,45.3,5.07,7.49,5.31,7.34-12.5,8.02ZM129.1,117.37c2.52-3.04,61.73-1.87,62.51,1.24,3.67,14.64-2.47,42.75-10.89,49.77-6.85,5.72-38.28,6.9-48.73,1.82-3.67-1.78-6.24-48.79-2.9-52.83ZM85.5,118.84c3.82-2.34,5.66-2.31,10.47.14,12.2,6.22-.8,31.36-13.96,27.02-12.43-4.1-10.57-18.55,3.49-27.16Z"/>
</svg>