<?xml version="1.0" encoding="UTF-8"?>
<svg id="Layer_1" data-name="Layer 1" xmlns="http://www.w3.org/2000/svg" viewBox="0 0 256 256">
  <defs>
    <style>
      .cls-1 {
        fill: #231f20;
      }
    </style>
  </defs>
  <path class="cls-1" d="M230.3,211.94c-22.31-.24-30.63-35.27-23.15-97.44,1.47-12.25.64-21.52-2.68-29.82-3.44-8.6-3.24-8.81,9.76-9.81,17.66-1.36,24.25-4.18,27.47-11.73,4.29-10.07-7.45-18.72-16.59-12.22-5.04,3.59-16.81,4.76-32.84,3.27-7.02-.65-22.29-1.48-33.94-1.84-25.36-.78-22.69.65-25.14-13.51-2.95-17.1-7.19-22.19-13.76-16.53-3.11,2.68-4.27,7.97-4.37,19.87-.09,10.97-18.78,14.02-68.79,11.22-22.2-1.24-39.79,6.7-37.84,17.08,1.09,5.83,6.46,7.14,13.85,3.38,4.01-2.04,4.92-2.1,20.21-1.29,8.81.47,27.94.74,42.51.6,16.24-.16,27.07.13,27.97.73,2.64,1.77,3.72,33.01,3.51,101.1-.23,72.56-.44,71,9.9,71,9.61,0,11.08-6.06,11.19-46,.05-18.42.17-34.06.26-34.75.28-1.99,15.68-1.56,25.35.71,4.58,1.08,10.67,2.25,13.54,2.62,7.85,1.01,7.47.07,12.24,30.42,3.79,24.12,38.15,44.06,52.02,30.19,7.76-7.75,1.97-17.11-10.66-17.25ZM186.51,116.59c-.82,5.45-1.5,14.25-1.5,19.54,0,13.28-.77,13.65-19.01,9.42-3.6-.84-11.29-1.52-17.25-1.53-7.87-.02-10.78-.36-10.85-1.27-.05-.69-.02-7.1.07-14.25.09-7.15-.3-16.83-.88-21.5-1.8-14.58-1.85-31.89-.09-33.02.82-.53,2.11-.73,2.86-.46.75.28,7.05.97,14,1.55,15.93,1.32,25.27,3.91,28.01,7.74,5.96,8.38,7.16,17.05,4.64,33.77Z"/>
</svg>