<?xml version="1.0" encoding="UTF-8"?>
<svg id="Layer_1" data-name="Layer 1" xmlns="http://www.w3.org/2000/svg" viewBox="0 0 256 256">
  <path d="M227.07,50.42c-8.47-16.63-39.45-28.08-57.07-21.09-1.92.76-4.63,1.85-6.02,2.42-8.04,3.27-14.72,15.39-16.04,29.12-.5,5.15-1.36,11-1.92,13s-1.01,12.32-1.01,22.95c0,26.21,4.02,23.38-32.83,23.05-28.01-.25-31.68-.08-42.18,1.91-6.33,1.2-13.14,2.42-15.14,2.73-7.71,1.16-19.79,15.99-18.36,22.52,1.57,7.15,7.85,6.75,15.66-1.02q6.04-6,12.83-6c3.73,0,10.55-.72,15.15-1.59,6.96-1.33,9.53-1.4,15.36-.42,3.85.65,16.23,1.48,27.5,1.84q20.5.67,21.16,18.67c.77,20.89,3.53,52.56,4.9,56.17,5.64,14.83,21.53,20.61,27.91,10.14,2.99-4.91,2.56-6.49-3.38-12.44q-5.41-5.41-6.01-15.14c-.33-5.35-1.03-14.01-1.57-19.23-3.76-36.69-4.01-36,13.12-36,47.52,0,76.07-44.88,52.78-82.96-1.53-2.5-3.71-6.38-4.86-8.62ZM178.89,122c-13.96,0-17.72-14.96-11.96-47.5.58-3.3,1.06-8.16,1.07-10.8,0-6.66,3.77-12.95,9.01-15.05,4.8-1.92,25.27,2.78,28.63,6.58,2.5,2.82,8.54,13.14,11.41,19.49,10.55,23.36-8.75,47.28-38.15,47.28Z"/>
</svg>