<?xml version="1.0" encoding="UTF-8"?>
<svg id="Layer_1" data-name="Layer 1" xmlns="http://www.w3.org/2000/svg" viewBox="0 0 256 256">
  <path d="M192.36,105.99c28.97-.04,49.28-12.76,47.37-29.68-1.49-13.2-15.72-15.73-25.37-4.5-7.09,8.25-30.36,10.97-30.36,3.55,0-4.38-21.76-19.35-28.12-19.35-8.66,0-14.14-5.89-15.5-16.66-1.74-13.77-12.43-20.73-20.61-13.42q-3.27,2.92-3.46,24.14c-.11,12.11-.61,21.64-1.16,22.19-2.59,2.59-3.15-.87-3.15-19.6,0-23.01-1.38-27.89-8.05-28.45-6.66-.56-7.34,1.32-8.09,22.15-1.07,29.93,1.08,27.64-26.11,27.93-22.4.24-19.54.89-31.35-7.1-12.29-8.31-23.11,4.45-15.19,17.9,7.72,13.09,13.96,15.33,43.98,15.75,29.73.41,26.3-6.12,24.93,47.43-1.41,54.91-1.92,58.15-11.86,75.13-2.35,4.02-1.58,9.17,1.81,12.02,6.67,5.61,14.78,1.89,19.95-9.15,1.74-3.72,3.56-7.52,4.03-8.45.48-.93,1.31-4.42,1.85-7.76,2.13-13.21,5.72-8.42,8.04,10.71,1.12,9.26,1.89,11.17,5.68,14.16,8.51,6.69,17.87-2.72,15.45-15.53-3.7-19.56-2.41-27.24,4.36-25.97,37.69,7.07,65.44-53.28,34.55-75.13-8.99-6.36-1.11-12.28,16.37-12.3ZM115.86,127.93c-.85,24.49-2.1,31.06-3.2,16.87-.85-10.91-.84-42.28,0-43.13,3.72-3.72,4.12-.46,3.19,26.26ZM170.06,151.76c-8.19,24.93-35.47,30.04-34.51,6.46.86-21.13,1.34-28.24,1.96-29.24,1.02-1.66,9.75-1.09,15.75,1.02,3.13,1.1,6.29,2,7.03,2,7.12,0,12.61,11.11,9.77,19.76Z"/>
</svg>