<?xml version="1.0" encoding="UTF-8"?>
<svg id="Layer_1" data-name="Layer 1" xmlns="http://www.w3.org/2000/svg" viewBox="0 0 256 256">
  <defs>
    <style>
      .cls-1 {
        fill: #231f20;
      }
    </style>
  </defs>
  <path class="cls-1" d="M69.16,197.67c32.6-6.77,45.15-.43,33.29,16.83-9.93,14.44,6.49,22.61,19.06,9.49,2.98-3.11,3-3.19,2.8-13.84-.2-10.92.73-15.13,2.68-12.16.54.83,1.01,3.3,1.04,5.5.12,8.86,9.11,22.34,16.21,24.3,13.25,3.66,21.42-10.7,13.22-23.23-7.3-11.16-3.88-13.01,24.81-13.4,33.64-.46,33.13-.76,34.72,20.15,1.1,14.38,2.77,19.07,7.85,22.02,16.81,9.78,18.21-37.6,1.62-54.69-7.03-7.24-6.56-7.16-39.62-7.16-16.32,0-29.91-.25-30.22-.55-.3-.3-.71-31.8-.91-70-.39-76.11-.14-73-6.33-77.86-4.27-3.36-8.01-2.73-12.84,2.16-5.76,5.83-7.22,13.42-7.99,41.75-1.31,47.74-3.12,48.5-4.61,1.96-1.31-40.95-2.14-44.65-9.82-43.76-4.63.54-4.98,2.9-5.6,38.22-.63,35.89-.51,35.03-4.62,34.21-10.59-2.12-27.66,8.71-33.67,21.37-9.69,20.4,1.5,40.03,28.17,49.42,13.55,4.77,10.32,7.13-10.74,7.86-8.89.31-17.74,1.09-19.66,1.74-12.39,4.17-32.69.73-36.31-6.15-7.45-14.14-22.41-3.88-15.75,10.8,6.22,13.69,28.84,20.07,53.22,15.01ZM94.23,144.08c-11.08-7.36-9.39-20.09,3.32-25.05,10.08-3.94,10.67-3.12,10.5,14.59-.17,18.04-1.22,18.83-13.83,10.46Z"/>
</svg>