<?xml version="1.0" encoding="UTF-8"?>
<svg id="Layer_1" data-name="Layer 1" xmlns="http://www.w3.org/2000/svg" viewBox="0 0 256 256">
  <defs>
    <style>
      .cls-1 {
        fill: #231f20;
      }
    </style>
  </defs>
  <path class="cls-1" d="M193.04,82.98c19.9-10.15,36.75-43.71,29.1-57.97-4.4-8.21-15.67-12.32-23.71-8.66-11.85,5.4-14.18,20.9-4.53,30.09,3.91,3.71,3.92,3.65-1.16,10.18-8.07,10.38-17.07,14.14-36.75,15.36-16.39,1.01-15.56,1.66-16.28-12.72-1.03-20.56-5.27-31.25-12.39-31.25s-7.52,1.11-7.22,28q.3,27.03-6.7,27c-4.93,0-6.4-1.65-6.43-7.18-.07-19-11.35-40.03-23.73-44.24-18.16-6.19-27.15,9.9-10.28,18.42,17.93,9.05,18.42,34.16.7,35.32-5.22.34-14.37,1.16-20.33,1.83q-10.84,1.2-20.84-2.29c-23.36-8.16-22.15,6.11,1.44,16.97,5.31,2.44,6.03,2.51,29.5,2.59q24.06.09,24.93,5.93c1.22,8.12-.1,9.44-7.53,7.54-7.83-2-33.72-1.8-40.84.33-3.02.9-7.6,1.92-10.18,2.27-10.43,1.4-15.34,9.36-9.26,15,3.84,3.56,8.05,3.99,20.83,2.15,17.8-2.56,39.13-1.33,47.59,2.74,2.9,1.4,5.4,19.65,5.16,37.64-.07,5.23.31,15.77.84,23.44.66,9.45.63,17.06-.08,23.64-2.43,22.31,14.11,26.51,18.54,4.71,2.13-10.47,2.1-54.33-.04-71.1-2.24-17.48-2.09-18.12,4.3-18.49,8.9-.52,9.49,3.82,10.69,77.62.33,20.03,1.33,22.9,8.64,24.67,9.33,2.26,12.37-6.16,11.55-31.99-2.32-73.35-2.46-71.18,4.51-68.97,1.15.37,7.93.98,15.07,1.37,13.38.73,15.45,1.48,14.3,5.19-4.52,14.54,1.99,66.17,9.93,78.74,10.69,16.93,47.7,18.46,47.58,1.97-.06-7.94-3.31-9.76-16.18-9.02-11.43.65-14.18-1.14-17.52-11.4-4.87-14.96-6.18-60.8-1.86-65.12.32-.32,6.18-.48,13.03-.36,15.27.27,19.57-1.93,19.57-10,0-7.22-4.33-9.45-19.99-10.29-12.51-.67-13.01-1.08-13.01-10.57,0-8.08-2.04-12.35-9.59-20.07-6.47-6.62-6.44-6.4-1.36-8.99ZM109.24,112.01c-1.19-6.21-.4-8.64,3.01-9.3,8.41-1.62,9.89-.55,10.9,7.88,1.6,13.27-11.39,14.6-13.91,1.42ZM159.5,121.88c-14.77-1.27-22.68-11.73-15.45-20.44,1.5-1.81,3.22-1.8,18.56.09,18.63,2.3,21.61,4.2,21.75,13.91.13,8.72.5,8.62-24.85,6.43Z"/>
  <path class="cls-1" d="M232.98,72.38c-2.67-.43-4.15-.04-6.35,1.69-10.33,8.12-5.86,26.15,6.48,26.15,15.64,0,15.52-25.31-.13-27.85Z"/>
</svg>