<?xml version="1.0" encoding="UTF-8"?>
<svg id="Layer_1" data-name="Layer 1" xmlns="http://www.w3.org/2000/svg" viewBox="0 0 256 256">
  <path d="M99.6,135c4.66,0,12.4-8.68,12.4-13.9,0-8.02-9.61-12.48-15.09-7.01-7.48,7.48-5.75,20.91,2.69,20.91Z"/>
  <path d="M133.4,116.36c2.79,1.96,1.45,5.74-2.86,8.06-19.62,10.56-32.73,56.84-16.1,56.84,4.75,0,9.56-6.27,9.56-12.45,0-12.35,9.4-26.65,21.72-33.04,14.02-7.27,16.85-8.94,19.53-11.5,6.31-6.05,1.05-15.25-8.72-15.27-12.12-.02-24.42-10.81-33.31-29.24-5.24-10.85-7.02-12.55-10.01-9.55-6.92,6.92,5.83,36.06,20.2,46.16Z"/>
</svg>