<?xml version="1.0" encoding="UTF-8"?>
<svg id="Layer_1" data-name="Layer 1" xmlns="http://www.w3.org/2000/svg" viewBox="0 0 256 256">
  <path d="M208.5,17.42c-14.75.34-29.72.15-36.5-.48-15.18-1.4-51.34-1.98-61.84-.99-4.59.43-13.14,1.51-19,2.4-40.66,6.17-46.59,6.58-52.66,3.64-16.59-8.01-27.16,12.68-11.87,23.23,4.06,2.81,13.67,5.76,18.83,5.78,4.12.02,4.91.7,7.4,6.36,6.22,14.17-3.66,26.6-21.16,26.62-6.23,0-10.02,2.05-12.15,6.55-4.36,9.18,5.95,18.01,17.99,15.41,12.89-2.79,52.78-4.27,54.6-2.03,5.83,7.2,3.12,57.8-3.91,73.01-6.15,13.29-5.19,26.62,2.83,39.65,7.63,12.39,20.64,2.36,14.85-11.45-2.85-6.81-3.24-16.43-.81-20.17,5.5-8.48,6.26-14.33,6.48-49.8.21-32.95.51-35.83,3.59-34.65,1.31.5,1.53,8.17,1.69,60.18.1,32.78.46,60.78.81,62.21,2.82,11.76,12.4,17.32,20.85,12.09,5.87-3.63,5.85-3.47,5.29-56.33-.64-60.51-.23-70.03,3.04-70.49,6.89-.97,28.64,11.72,35.61,20.78,7.93,10.31,17.55,32.97,17.54,41.32,0,1.23.86,5.39,1.91,9.24,4.14,15.2,6.01,23.24,6.61,28.5,2.35,20.69,9.65,30.7,20.85,28.59,9.28-1.74,10.36-9.23,3.13-21.59-.8-1.38-1.47-3.44-1.48-4.59-.02-2.55-3.59-20.03-5.5-26.91-3.13-11.26-5.51-21.36-5.51-23.34,0-9.99-14.87-39.55-25.19-50.06-7.39-7.52-32.8-22.01-38.81-22.12-8.41-.16-11.49-5.2-12.19-19.98-.38-7.98-.9-16.19-1.16-18.26-.89-7.13,1.19-8.22,12.91-6.81,51.38,6.2,88.45.82,88.43-12.83-.02-11.26-5.93-13.37-35.5-12.68ZM81.29,81q-7.55,0-6.67-5.25c1.35-8.08.91-17.82-.96-21.44-2.25-4.35-1.29-6.11,3.68-6.75,2.29-.29,5.29-.7,6.66-.91q7.99-1.21,8,17.44c0,18.11.76,16.91-10.71,16.91ZM111.38,78.81c-2.19-2.19-4.28-33.62-2.32-34.86,5.53-3.5,6.74-.58,7.54,18.23.75,17.69-.42,21.42-5.21,16.63Z"/>
</svg>