<?xml version="1.0" encoding="UTF-8"?>
<svg id="Layer_1" data-name="Layer 1" xmlns="http://www.w3.org/2000/svg" viewBox="0 0 256 256">
  <path d="M229.5,208.44c-11.75-6.94-16.07-31.83-13.43-77.31,1.43-24.57-.82-37.53-7.48-43.05-2.12-1.76-2.03-6.37.16-8.35,5.64-5.11,12.34-27.98,10.74-36.61-1.09-5.87-6.56-11.11-11.6-11.11-2.49,0-7.89,6.4-7.89,9.35-.02,25.1-10.34,33.79-41.81,35.2-20.96.94-19.28,2.65-19.05-19.44.24-23.09-2.69-29.77-12.71-28.92-7.19.61-7.91,2.93-7.56,24.4.32,20.06.02,21.42-4.83,21.42-4.47,0-5.7-2.52-6.38-13-1.39-21.55-14.54-37.67-26.43-32.38-4.8,2.13-3.62,12.55,1.8,15.9,3.97,2.45,7.13,21.04,3.91,23.02-.58.36-4.74-.03-9.25-.88-20.52-3.83-44.81-3.08-51.77,1.61-11.19,7.54-14.05,28.06-3.91,28.06,3.43,0,3.82-.35,9.39-8.38,3.29-4.74,19.34-5.28,42.91-1.44,13.56,2.21,13.23,1.84,14.03,15.66.36,6.23,1.1,14.04,1.65,17.34.55,3.3,1.25,28.05,1.56,55,.62,53.82.54,52.59,3.64,55.47,4.57,4.26,12.52,1.34,15.44-5.66,2.39-5.73,1.41-94.78-1.24-111.82-2.56-16.52-1.79-19.27,4.9-17.43,5.68,1.57,5.69,1.66,5.73,40.61.06,74.08,3.06,103.32,10.57,103.32s8.85-5.1,9.22-41.81c.28-27.64.54-32.39,1.83-32.89.83-.32,9.01.17,18.18,1.08,9.17.91,20.27,1.65,24.67,1.65,10.93,0,10.74-.23,11.6,13.14,2.1,32.51,25.82,59.75,40.32,46.31,5.69-5.27,3.05-12.16-6.92-18.05ZM195.24,139.5c-.85,8.09,1.51,7.67-34.24,6.09-23.36-1.03-20.97,1.79-20.99-24.72-.02-23.87.06-24.17,6.05-23.31,1.89.27,6.36.09,9.94-.41,37.76-5.24,43.6,1.06,39.24,42.34Z"/>
</svg>