<?xml version="1.0" encoding="UTF-8"?>
<svg id="Layer_1" data-name="Layer 1" xmlns="http://www.w3.org/2000/svg" viewBox="0 0 256 256">
  <defs>
    <style>
      .cls-1 {
        fill: #231f20;
      }
    </style>
  </defs>
  <path class="cls-1" d="M223.78,44.22c12.87.73,16.12-1.08,16.18-9.02.13-17.12-38.85-14.58-48.22,3.15-7.76,14.66-13.62,63.61-9.28,77.56,1.15,3.71-.93,4.46-14.3,5.19-7.14.39-13.92,1.01-15.07,1.37-7.01,2.23-6.87,4.44-4.5-69.47.81-25.29-2.29-33.74-11.56-31.49-7.34,1.78-8.3,4.58-8.66,25.17-1.27,74.16-1.7,77.33-10.42,77.33-6.57,0-6.64-.27-4.63-17.92,5.89-51.65.6-88.27-12.31-85.1-5.17,1.27-7.18,6.37-6.3,15.98.86,9.35.86,8.44-.07,38.55-1.04,33.59-2.58,46.66-5.65,48.13-8.47,4.08-29.8,5.31-47.6,2.75-12.78-1.84-16.99-1.4-20.83,2.15-6.08,5.64-1.17,13.6,9.26,15,2.57.35,7.15,1.36,10.18,2.25,7.19,2.11,33.11,2.34,40.84.35,7.44-1.91,8.75-.59,7.53,7.54q-.88,5.84-24.88,5.89c-23.53.05-24.11.1-29.5,2.59-16.32,7.54-23.32,17.94-13.5,20.07,1.1.24,6.5-1.14,12-3.06q10-3.49,20.84-2.29c5.96.66,15.11,1.48,20.33,1.83,17.73,1.17,17.23,26.27-.7,35.32-16.86,8.51-7.88,24.6,10.28,18.42,12.38-4.22,23.65-25.24,23.73-44.24.02-5.53,1.5-7.18,6.43-7.18q7,0,6.7,27c-.3,26.89-.01,28,7.22,28s11.39-10.59,12.53-34.73c.86-18.38-.63-16.83,17.64-18.28,24.19-1.91,30.42-3.95,38.65-12.64,5.84-6.17,7.85-10.87,7.85-18.4,0-9.5.5-9.9,13.01-10.57,15.67-.84,19.99-3.07,19.99-10.29,0-8.07-4.3-10.27-19.57-10-6.85.12-12.71-.04-13.03-.36-4.31-4.31-3.01-50.39,1.83-65.12,3.37-10.26,6.12-12.04,17.55-11.39ZM123.44,151.6c-1.19,10.27-2.03,11.15-9.49,9.89-5.66-.96-7.3-10.72-2.73-16.24,4.2-5.08,13.02-.5,12.23,6.35ZM173.6,160.91c-26.92,5.24-31.08,4.22-30.08-7.36.92-10.56.25-10.12,17.24-11.48,8.1-.65,15.86-1.29,17.23-1.42,11.97-1.12,7.84,17.87-4.4,20.25Z"/>
</svg>