<?xml version="1.0" encoding="UTF-8"?>
<svg id="Layer_1" data-name="Layer 1" xmlns="http://www.w3.org/2000/svg" viewBox="0 0 256 256">
  <path d="M164,134.54c0,3.71-6.22,14.38-11.14,19.1-26.42,25.32-61.7,13.7-69.92-23.04-1.54-6.89-1.08-7.42,4.28-5.01,12.49,5.62,35.02-1.94,41.55-13.94,4.6-8.46,7.6-20.25,6.66-26.15-2.49-15.65-23.07-25.47-37.57-17.93-7.93,4.12-17.88,15.76-23.49,27.47-5.65,11.77-5.75,12.18-6.15,25.05-.43,13.54-.18,14.64,6.54,28.91,19.58,41.57,73.92,43.23,97.96,3,4.6-7.69,6.29-19,3.29-22-3.86-3.86-12-.78-12,4.54ZM105.5,79.67c13.01-3.4,19.95,10.18,12.06,23.63-2.38,4.06-7.4,8.7-9.41,8.7-.51,0-2.89.89-5.29,1.98-7.42,3.37-17.88.77-18.66-4.63-.83-5.73,15.23-28.09,21.3-29.68Z"/>
</svg>