<?xml version="1.0" encoding="UTF-8"?>
<svg id="Layer_1" data-name="Layer 1" xmlns="http://www.w3.org/2000/svg" viewBox="0 0 256 256">
  <path d="M52.15,198.25c-5.43,2.92-14,8.6-17.65,11.71-2.91,2.47-9.39,6.04-10.99,6.04-4.15,0-6.04,7.3-2.68,10.35,3.65,3.3,11.51,1.07,23.46-6.66,7.54-4.88,11.17-6.95,20.71-11.78,4.68-2.37,11.06-5.97,14.19-8.02,10.28-6.71,11.56-6.27,9.71,3.35-1.04,5.4-3.87,12.02-8.64,20.15-2.35,4.02-1.58,9.17,1.81,12.02,6.67,5.61,14.78,1.89,19.95-9.15,1.74-3.72,3.56-7.52,4.03-8.44.48-.93,1.31-4.42,1.85-7.76,2.13-13.21,5.72-8.42,8.04,10.71,1.12,9.26,1.89,11.17,5.68,14.15,8.55,6.73,18-2.84,15.34-15.52-3.98-18.89-2.17-55.74,2.89-59.02,6.13-3.98,21.49-16.82,33.15-27.69,14.74-13.75,12.72-13.25,21.05-5.21,16.18,15.62,28.36,3.31,13.4-13.53-6.24-7.03-6.15-7.26,3.78-9.58,7.96-1.86,16.97-6.73,22.32-12.08,15.21-15.21.61-36.57-16.22-23.73-4.41,3.36-5.25,2.59-4.64-4.31,1.54-17.42-4.2-29.85-17.8-38.59-4.8-3.08-17.4-2.73-23.17.65-12.32,7.22-15.41,18.52-12.14,44.44.74,5.89,1.22,5.58-8.07,5.25q-8.2-.29-9.01-14.67c-1.94-33.71-10.22-46.6-22.74-35.42q-3.27,2.92-3.46,24.14c-.11,12.11-.61,21.64-1.16,22.19-2.59,2.59-3.15-.87-3.15-19.6,0-23.01-1.38-27.89-8.05-28.45-6.66-.56-7.34,1.32-8.09,22.15-1.07,29.97,1.07,27.69-26.15,27.95-22.34.22-19.5.86-31.31-7.12-12.29-8.31-23.11,4.45-15.19,17.9,7.7,13.07,13.98,15.33,43.78,15.75,15.42.22,23.96.72,24.85,1.46,1.89,1.57.63,66.13-1.35,69.28-2.08,3.31-26.65,20.4-38.34,26.68ZM179.1,45.6c4.19-5.33,11.55-2.12,13.81,6.02,2.16,7.78.66,23.83-2.47,26.42-8.3,6.89-18.76-23.02-11.34-32.44ZM140.22,103.78c1.3-1.3,2.77-1.75,4.59-1.4,1.48.28,7.41.79,13.19,1.14,11.94.71,14,1.12,14,2.82,0,2.51-33.32,32.67-34.64,31.35-1.97-1.98.52-31.57,2.86-33.91ZM112.67,101.67c3.69-3.69,4.11-.4,3.23,25.22-.79,22.89-2.07,29.8-3.24,17.42-.85-8.98-.84-41.78.01-42.63Z"/>
</svg>