<?xml version="1.0" encoding="UTF-8"?>
<svg id="Layer_1" data-name="Layer 1" xmlns="http://www.w3.org/2000/svg" viewBox="0 0 256 256">
  <path d="M108.36,39.46c13.72-2.81,17.93-7.26,12.25-12.95-3.02-3.02-14.44-3.47-23.11-.91-2.75.81-6.62,1.84-8.6,2.27-12.1,2.66-35.18,16.16-45.4,26.55-25.23,25.66-33.57,87.47-16.89,125.21.76,1.73,1.39,3.5,1.39,3.93,0,15.21,25.54,43.73,50.04,55.88,43.13,21.38,85.63,12.36,123-26.11,25.55-26.31,41.88-62,19.74-43.15-5.79,4.93-25.51,22.54-27.78,24.81-24.6,24.6-51.3,37-79.66,37-22.18,0-65.34-29.89-65.34-45.24,0-.57-.84-2.89-1.88-5.15-8.35-18.28-10.12-26.61-10.12-47.55,0-55.12,22.34-84.33,72.36-94.59Z"/>
</svg>