<?xml version="1.0" encoding="UTF-8"?>
<svg id="Layer_1" data-name="Layer 1" xmlns="http://www.w3.org/2000/svg" viewBox="0 0 256 256">
  <defs>
    <style>
      .cls-1 {
        fill: #231f20;
      }
    </style>
  </defs>
  <path class="cls-1" d="M208.5,17.42c-14.75.34-29.72.15-36.5-.48-15.18-1.4-51.34-1.98-61.84-.99-4.59.43-13.14,1.51-19,2.4-42.99,6.53-49.04,6.95-54.16,3.8-5.25-3.23-9.52-2.84-13.6,1.24-7.69,7.69-2.01,21.62,10.27,25.19,7.03,2.04,7.38,3.3,2.49,9.12-22.54,26.86-29.18,86.57-13.56,121.94.77,1.73,1.39,3.5,1.39,3.93,0,14.05,26.2,44.39,47,54.42,2.48,1.19,5.64,2.78,7.04,3.52,47.96,25.42,119.15-6.13,145.21-64.37,9.05-20.23,7.21-19.31-32.75,16.35-26.1,23.3-36.85,30.89-42.88,30.31-3.68-.36-4.5-23.7-3.85-109.8.19-25.58-.06-51.23-.57-57-1.19-13.58-.3-15.52,6.65-14.66,55.52,6.94,94.17,1.91,94.15-12.24-.02-11.25-5.93-13.37-35.5-12.68ZM37.77,90.5c8.65-22.55,25.28-38.22,45.73-43.09,2.75-.65,5.28-1.24,5.63-1.3,2.08-.37,2.67,5.08,3.29,30.39.38,15.4,1.09,30.25,1.58,33,.49,2.75.92,11.19.95,18.75.07,15.82-.6,16.73-7.69,10.39-11.55-10.33-21.51-13.91-39.75-14.3-7.7-.16-14.34-.31-14.75-.32-2.27-.08,1.28-23.78,5.02-33.53ZM87.39,225.88c-2.26-1.03-4.42-1.88-4.8-1.88-8.76,0-38.55-28.85-38.6-37.38,0-.62-.71-2.47-1.57-4.12-7.08-13.57-12.4-37.61-8.96-40.47,9.03-7.5,42.05,7.05,48,21.15,1,2.37,2.97,6.7,4.37,9.61,2.53,5.26,2.54,5.32.68,8.46-5.72,9.69.17,35.55,9.01,39.58,9.06,4.13,14.96-4.79,10.39-15.7-2.85-6.81-3.24-16.43-.81-20.17,7.84-12.1,8.86-45.46,3.73-122.28-1.02-15.3-.99-17.96.24-18.73,7.05-4.46,9.55,17.66,7.89,69.56-.67,20.73.55,108.69,1.57,113.36,1.7,7.8-12.91,7.34-31.14-.98Z"/>
</svg>