<?xml version="1.0" encoding="UTF-8"?>
<svg id="Layer_1" data-name="Layer 1" xmlns="http://www.w3.org/2000/svg" viewBox="0 0 256 256">
  <defs>
    <style>
      .cls-1 {
        fill: #231f20;
      }
    </style>
  </defs>
  <path class="cls-1" d="M102.55,214.36c-10.03,14.56,6.28,22.87,18.94,9.65,3.08-3.22,3.36-8.24,3.5-63.33,0-.46.56-.65,1.25-.42.95.32,1.25,5.9,1.26,23.33,0,25.4.78,29.11,7.83,37.42,13.59,16.02,32.42,3.5,22.72-15.11-2.11-4.06-2.13-4.58-2.38-89.23-.28-93.63.06-88.57-6.29-93.57-4.27-3.36-8.01-2.73-12.84,2.16-5.76,5.83-7.22,13.42-7.99,41.75-1.31,47.74-3.12,48.5-4.61,1.96-1.31-40.95-2.14-44.65-9.82-43.76-4.55.53-4.91,2.93-5.66,38.8-.7,33.14-1.03,36-4.22,36-23.25,0-26.21,46.54-3.67,57.82,6.99,3.5,6.81,2.66,6.14,28.32q-.6,23.06-4.16,28.22ZM101.44,140.58c-3.19-2.33-2.79-20.07.51-22.74,4.05-3.28,4.54-2.05,4.61,11.5.06,13.61-.42,14.68-5.12,11.24Z"/>
</svg>