<?xml version="1.0" encoding="UTF-8"?>
<svg id="Layer_1" data-name="Layer 1" xmlns="http://www.w3.org/2000/svg" viewBox="0 0 256 256">
  <path d="M223,126.57c-5.98-1.55-7.62-2.46-10.16-5.62-4.99-6.21-7.91-6.04-16.34.96-9.77,8.1-12.69,7.49-26.8-5.62-5.61-5.22-13.91-12.43-18.43-16.03-9.26-7.37-9.51-7.85-9.72-18.26-.58-29.66-4.97-55.73-9.66-57.37-9.29-3.26-11.34,1.74-11.61,28.32-.26,26.24-.51,27.15-5.83,21.41q-2.45-2.65-2.45-25.34c0-20.38-.18-22.85-1.75-24.2-2.71-2.33-4.75-2.74-7.3-1.47-3.87,1.93-5.98,6.86-7.01,16.35-2.39,22.15-2.02,21.77-14.08,14.07-4.6-2.94-12.19-7.28-16.86-9.66-9.56-4.85-13.2-6.92-20.71-11.79-15.41-9.98-25.29-10.81-25.29-2.14,0,2.53,2.7,5.83,4.77,5.83,1.38,0,8.03,3.75,10.73,6.04,3.68,3.13,12.24,8.8,17.66,11.7,12.28,6.55,39,25.34,39.87,28.04,1.37,4.25-.86,51.49-2.5,53.12-2.71,2.7-27.7,2.18-37.93-.79-22.77-6.61-33.98.85-21.54,14.35,8.94,9.7,23.84,14.64,45.24,15.01,21.89.38,20.99,23.92-1.79,47.17-12.21,12.46-12.55,21.06-.96,23.97,10.19,2.56,35.45-30.63,35.45-46.58,0-2.58,1.27-9.88,3.8-21.85,1.84-8.73,2.69-2.12,2.43,19.05-.46,38.26,2.8,48.77,15.12,48.77,11.52,0,12.42-2.97,11.85-39.39-.62-39.97-2.06-36.97,18.4-38.26,11.95-.75,12.51-.33,8.56,6.37-11.69,19.83-13.54,44.45-4.22,56.21,9.76,12.32,25.54,13.09,37.9,1.85,13.33-12.12,14.86-42.9,3.22-64.67-.51-.95-.56-2.32-.11-3.04.82-1.32,1.47-1.3,20.05.48,20.68,1.98,18.93-21.56-2-26.98ZM117.01,114.54c-.52,7.13-.96,13.99-.98,15.24-.03,2.68-2.84,4.13-4.11,2.11-1-1.59-1.21-25.45-.27-31.15.71-4.29,2.59-4.86,4.81-1.46,1.27,1.94,1.35,4.29.55,15.25ZM147.59,130.81c-5.87.37-6.55-.41-6.57-7.56q-.02-5.83,3.79-3.84c8.91,4.66,10.44,10.91,2.79,11.4ZM193.05,199.86c-3.25,11.97-14.45,12.16-16.68.29-1.07-5.73,5.3-26.48,9.39-30.57,5.04-5.04,10.61,18.08,7.29,30.29Z"/>
</svg>