<?xml version="1.0" encoding="UTF-8"?>
<svg id="Layer_1" data-name="Layer 1" xmlns="http://www.w3.org/2000/svg" viewBox="0 0 256 256">
  <defs>
    <style>
      .cls-1 {
        fill: #231f20;
      }
    </style>
  </defs>
  <path class="cls-1" d="M31.52,177.23c12.47-12.1,30.98-17.55,40.98-12.06,1.65.9,5.51,2.85,8.58,4.32,11.78,5.64,11.42,4.85,11.42,25.17s-.27,22.39-4.98,24.63c-12.07,5.75-8.94,20.71,4.33,20.71,14.22,0,21.03-12.98,21.11-40.19.03-11.43.48-12.49,5.03-11.95,4.88.59,5.25,1.84,5.66,19.31.58,24.29,2.54,29.27,12.04,30.52,8.69,1.15,11.71-5.02,8.42-17.2-4.3-15.96-1.35-25.05,8.37-25.75,18.9-1.35,31.51-14.45,35.53-36.91.52-2.94,1.63-7.78,2.45-10.76.86-3.13,1.93-14.12,2.53-26,2.28-45.33,18.96-80.08,38.44-80.08,10.97,0,17.17-9.54,10.98-16.89-4.25-5.05-12.4-6.05-33.14-4.04-4.51.44-11.93,1.47-16.5,2.29-4.56.82-13.25,1.77-19.3,2.12-6.05.34-15.27,1.04-20.5,1.56s-15.57,1.37-23,1.91c-7.43.54-16.51,1.67-20.18,2.53-18.57,4.31-67.13,2.44-72.74-2.81-8.17-7.63-13.53-5.2-12.87,5.84.95,15.84,8.4,19,44.79,19,32.58,0,31.46-.27,30.59,7.38-.35,3.09-1.07,16.87-1.59,30.62-2.54,66.13-1.85,63.91-17.14,55.9-26.37-13.82-84.3,15.47-68.27,34.52,4.8,5.7,10.36,4.62,18.93-3.7ZM151.03,84c.67-6.24.85-15.67.46-23.25-.79-14.99-2.11-13.53,13.88-15.26,22.27-2.41,32.45-1.21,25.62,3.02-1.67,1.03-7.08,13.46-11.97,27.49-.67,1.92-2.03,6.81-3.01,10.84-2.22,9.1-11.38,14.14-23.51,12.95-3.4-.33-3.27,1.02-1.47-15.79ZM144.36,167.08c.31-1.97,1.06-12.58,1.67-23.58,1.41-25.52.85-24.22,10.53-24.34,4.24-.05,7.95-.33,8.25-.63,7.1-7.1,9.87,6.69,5.1,25.4-1.04,4.09-1.9,8.37-1.9,9.5,0,3.23-3.93,12.81-6.33,15.44-7.01,7.69-18.6,6.48-17.31-1.8ZM116.81,64.25c-1.33-13.53-1.22-13.94,4.35-15.25,5.45-1.29,9.52-1.1,10.85.52,1.62,1.95.56,31.35-1.56,43.08-.8,4.45-2.33,22.63-3.39,40.38-1.98,33.16-2.27,34.71-6.24,33.65-7.61-2.04-7.85-4.98-3.77-46.92,1.32-13.58,1.2-40.83-.24-55.46Z"/>
</svg>