<?xml version="1.0" encoding="UTF-8"?>
<svg id="Layer_1" data-name="Layer 1" xmlns="http://www.w3.org/2000/svg" viewBox="0 0 256 256">
  <defs>
    <style>
      .cls-1 {
        fill: #231f20;
      }
    </style>
  </defs>
  <path class="cls-1" d="M210.32,71.84c-6.78,7.89-16.27,8.73-55.32,4.92-16.97-1.66-15.62-.39-16.49-15.44-1.66-28.82-5.64-38.62-15.48-38.15-1.94.09-8.93.44-15.53.79-7.36.38-14.13,1.32-17.5,2.44-24.76,8.2-38.91,16.19-51.5,29.08-6.57,6.73-8.7,8.3-11.91,8.82-8.09,1.3-12.06,8.7-9.04,16.86,2.62,7.07,2.73,8.47,1.07,13.53-7.25,22.03-5.28,64,3.99,84.97.77,1.73,1.39,3.5,1.39,3.93,0,18.2,32.01,49.99,61.5,61.08,49.74,18.71,113.06-12.33,137.75-67.52,9.06-20.25,7.24-19.34-32.88,16.49-25.98,23.21-31.82,27.26-46.68,32.42-7.55,2.62-10.08,2.09-10.33-2.16-.08-1.31-.7-7.34-1.38-13.39-1.41-12.42-.66-59.88,1.39-88.85,1.37-19.35,1.62-19.84,9.49-19.07,63.55,6.22,85.55,1.88,92.18-18.2,5.75-17.43-12.54-26.71-24.72-12.54ZM100.5,40.03c5.51-1.52,10.32-1.2,10.87.72,1.26,4.35,1.12,31.33-.18,32.13-1.51.93-60.88,2.44-62.27,1.58-7.95-4.91,25.49-27.23,51.57-34.42ZM110.42,211c4.36,23.06-1.19,26.43-23.99,14.54-1.61-.84-3.29-1.53-3.72-1.53-8.93-.07-38.66-28.79-38.71-37.39,0-.62-.71-2.47-1.57-4.12-1.93-3.7-4.68-11.42-7.94-22.27-3.91-13.03-3.29-52.26.94-59.11.49-.79,75.61-.43,76.41.37.93.93.23,25.95-1.37,49-1.87,26.92-1.89,50.76-.04,60.5Z"/>
</svg>