<?xml version="1.0" encoding="UTF-8"?>
<svg id="Layer_1" data-name="Layer 1" xmlns="http://www.w3.org/2000/svg" viewBox="0 0 256 256">
  <defs>
    <style>
      .cls-1 {
        fill: #231f20;
      }
    </style>
  </defs>
  <path class="cls-1" d="M18.84,204.4c8.54,5.39,12.42,5.82,55.88,6.18,48.26.39,43.82-1.04,44.53,14.42.58,12.62,1.6,15.79,5.78,18.03,6.67,3.57,9.85-2.72,13.55-26.77.28-1.79.59-3.31.7-3.38.11-.07,12.35-.72,27.2-1.45,14.85-.72,31.72-1.62,37.5-1.99,12.21-.78,20.68.48,25.29,3.77,8.96,6.38,20.63-2.41,16.4-12.35-3.21-7.55-9.81-10.36-27.47-11.73-12.88-.99-12.98-1.1-9.65-9.73,3.28-8.5,3.46-14.96,1.46-51.99-3.03-55.93,3.15-75.12,24.27-75.35,9.52-.1,13.7-3.33,13.7-10.57,0-19.23-44.17-8.67-52.08,12.46-2.16,5.76-2.66,8.17-5.5,26.55-1.98,12.83-2.76,14.03-9.71,14.92-2.86.37-8.95,1.55-13.54,2.62-9.67,2.27-25.07,2.7-25.35.71-.1-.69-.22-16.33-.26-34.75-.12-43.48-3.26-51.77-16.86-44.4-4.4,2.39-4.41,2.5-4.21,69.4.19,68.08-.89,99.33-3.52,101.1-.9.6-11.73.89-27.97.73-14.57-.14-33.71.13-42.51.6-15.29.82-16.2.76-20.21-1.29-13.59-6.93-20.38,6.09-7.44,14.26ZM141.09,157c.58-4.67.97-14.35.88-21.5-.09-7.15-.12-13.5-.07-14.11.06-.73,4.87-1.31,13.85-1.67,7.91-.32,15.66-1.19,18.25-2.04,12.44-4.09,15-2.35,15.01,10.27,0,5.25.68,14.01,1.5,19.46,4.69,31.08-1.57,38.93-33.17,41.57-6.69.56-12.77,1.24-13.5,1.51-4.46,1.64-5.51-11.09-2.74-33.49Z"/>
</svg>