<?xml version="1.0" encoding="UTF-8"?>
<svg id="Layer_1" data-name="Layer 1" xmlns="http://www.w3.org/2000/svg" viewBox="0 0 256 256">
  <defs>
    <style>
      .cls-1 {
        fill: #231f20;
      }
    </style>
  </defs>
  <path class="cls-1" d="M189.5,194.41c-26.08,23.27-29.5,25.16-29.5,16.27,0-1.07-.92-3.42-2.03-5.23-2-3.23-2.04-4.8-2.29-88.62-.28-93.81.05-88.75-6.29-93.74-4.27-3.36-8.01-2.73-12.84,2.16-5.76,5.83-7.22,13.42-7.99,41.75-1.32,47.94-3.13,48.51-4.63,1.45-1.48-46.56-4.03-50.22-29.95-42.91-3.01.85-7.27,2-9.47,2.55-20.46,5.15-46.99,24.24-55.51,39.94-17.04,31.39-19.88,81.08-6.38,111.62.77,1.73,1.39,3.5,1.39,3.93,0,18.2,32.01,49.99,61.5,61.08,43.77,16.46,97.2-4.25,126.94-49.21,2.17-3.28,4.68-6.86,5.57-7.96,2.46-3.02,8.99-18.33,8.99-21.08,0-5.36-.73-4.81-37.5,27.99ZM101.61,228.71c3.3,2.41.41,2.58-6.32.37-3.71-1.22-7.21-2.58-7.77-3.02-.56-.45-2.15-1.15-3.52-1.57-14.31-4.33-39.96-28.6-40.01-37.87,0-.62-.71-2.47-1.57-4.12-5.62-10.78-11.91-34.68-9.7-36.89.4-.4,1.64-.43,2.75-.07,1.11.36,4.5,1.1,7.52,1.64,10.9,1.96,24.61,5.67,30.3,8.19,21.65,9.58,38.58,44.61,28.71,59.39-3.55,5.31-3.73,11.52-.4,13.95ZM101.44,140.58c-3.19-2.33-2.79-20.07.51-22.74,4.05-3.28,4.54-2.05,4.61,11.5.06,13.61-.42,14.68-5.12,11.24ZM108.27,70.02c-.64,23.6-1.01,28.39-2.27,29.01-.82.41-3.87,1.78-6.77,3.04-9.11,3.96-14.23,13.67-14.23,26.98,0,9.11-.85,10.34-5.89,8.52-11.59-4.19-32.04-6.25-44.11-4.44-5.06.76-2.72-29.51,3.45-44.62,9.7-23.75,30.05-39.65,62.05-48.47,8.82-2.43,8.66-3.04,7.77,29.98ZM125.94,190.33c-.63-.64-1.4-22.68-1.01-29.08.09-1.53,1.71-1.64,2.62-.18.94,1.53-.63,30.25-1.6,29.26ZM135.05,227.82c-4.4.43-4.82-.19-5.63-8.07-.69-6.75.61-9.46,2.15-4.5.39,1.24,2.24,3.97,4.13,6.07,4.03,4.49,3.87,6.06-.65,6.5Z"/>
</svg>