<?xml version="1.0" encoding="UTF-8"?>
<svg id="Layer_1" data-name="Layer 1" xmlns="http://www.w3.org/2000/svg" viewBox="0 0 256 256">
  <path d="M22.58,179.15c.78,1.46,1.42,3.23,1.42,3.94,0,14.54,25.81,44.69,47,54.91,2.48,1.19,5.64,2.78,7.04,3.52,47.96,25.42,119.15-6.13,145.21-64.37,9.06-20.25,7.24-19.34-32.88,16.49-37.83,33.78-47.59,38.23-48.72,22.21-3.98-56.09-2.88-58.57,26.85-60.32,5.5-.32,16.45-1.3,24.34-2.17,8.65-.95,16.98-1.32,21-.92,3.66.36,8.91.88,11.66,1.15,13.41,1.32,18.99-12.88,8.57-21.8-6.97-5.97-18.2-7.85-34.6-5.79-4.39.55-16.3,1.68-26.47,2.51-10.17.83-21.26,1.79-24.64,2.13-8.17.82-7.73,3.79-7.06-48.14.28-21.81-4.29-54.38-8.05-57.25-2.71-2.08-6.91-1.5-9.07,1.25-2.36,3-4.47,3.17-6.89.58-2.83-3.04-12.91-6.13-14.57-4.47-.62.62-11.29,3.83-17.72,5.33-1.93.45-5.75,1.8-8.5,3.01-30.44,13.35-44.73,26.81-53.66,50.55-11.39,30.31-11.52,76.62-.26,97.65ZM76.51,207.75c-9.05,9.96-32.43-5.23-32.52-21.13,0-.62-.71-2.47-1.57-4.12-2.65-5.07-9.42-25.56-9.42-28.49,0-1.59,1.23-1.24,7.41,2.11,9.34,5.06,18.18,6.93,34.4,7.28,20.96.46,21.8,22.23,1.7,44.34ZM114.24,37.43c1.05-1.33,2.78-2.43,3.84-2.43,2.55,0,2.85,42.38.46,64-.82,7.42-1.84,18-2.26,23.49-.76,9.84-2.79,13.81-4.62,9.04-1.73-4.52.66-91.66,2.59-94.11ZM108.02,187.75c0-1.79.67-5.95,1.46-9.25.8-3.3,1.47-7.21,1.48-8.69.02-1.48.48-3.87,1.03-5.31,2.39-6.28,3.02-1,2.48,20.76-.56,22.61.3,33.81,3.13,40.62,2.81,6.77-7.22,8.51-21.09,3.66-8.67-3.03-8.64-2.95-2.77-10.68,8.56-11.26,14.23-23.64,14.27-31.12ZM89,43.94c6.17-1.91,6.62-.92,5.1,11.34-.63,5.07-1.57,24.71-2.1,43.65-.81,29.04-1.21,34.69-2.53,36-2.6,2.59-27.75,2.1-37.48-.73-4.12-1.2-9.75-2.25-12.5-2.34-6.93-.22-7.5-.92-7.5-9.27,0-37.61,21.9-67.82,57-78.66Z"/>
</svg>