<?xml version="1.0" encoding="UTF-8"?>
<svg id="Layer_1" data-name="Layer 1" xmlns="http://www.w3.org/2000/svg" viewBox="0 0 256 256">
  <path d="M98.57,93.91c15.38-4.83,14.65-6.46,15.62,35.06,2.41,103.62,2.1,97.05,4.84,102,4.05,7.31,10.03,8.98,14.86,4.15,1.73-1.73,1.81-3.79,1.41-34.22-.53-40.03-2.81-36.9,24.7-33.85,4.68.52,13.25.95,19.05.95,13.22,0,12.95-.25,12.95,12.73,0,27.49,26.78,58.62,39.89,46.37,5.43-5.08,3.54-12.78-4.58-18.62-4.81-3.46-9.9-10-13.07-16.8-2.79-6-2.93-55.8-.21-73.87,5.53-36.65-26.9-60.29-71.04-51.8-12.9,2.48-12.96,2.42-12.98-12.23-.01-9.28.22-10.84,1.77-11.67,2.82-1.51,40.33-2.39,54.31-1.28,22.71,1.82,42.2-2.52,44.8-9.95,3.06-8.79-5.99-15.12-17.6-12.3-9.67,2.35-112.02,2.3-124.48-.06-11.9-2.26-45.83-1.99-55.45.44-25.96,6.54-28.93,25.67-3.05,19.63,7.83-1.83,43.35-2.23,50.19-.57,2.2.53,8.85,1.27,14.77,1.63,14.68.9,14.16.3,14.56,16.76.38,15.59,1.51,13.88-11.33,17.06-28.8,7.13-26.86,6.85-47.5,6.95-21.71.11-27.97-1.58-31.56-8.52-2.85-5.52-10.44-4.21-10.44,1.81,0,22.18,48.45,33.11,89.57,20.21ZM146,86.61c6.32-.86,12.62-1.76,14-2,20.74-3.63,35.59,11.87,32.96,34.39-.48,4.12-.9,11.83-.92,17.13-.06,12.74.49,12.36-16.82,11.35-7.55-.44-19.51-.89-26.58-.99-15.85-.23-14.31,2.87-14.88-29.84-.55-31.72-2.03-28.09,12.23-30.03Z"/>
</svg>