<?xml version="1.0" encoding="UTF-8"?>
<svg id="Layer_1" data-name="Layer 1" xmlns="http://www.w3.org/2000/svg" viewBox="0 0 256 256">
  <defs>
    <style>
      .cls-1 {
        fill: #231f20;
      }
    </style>
  </defs>
  <path class="cls-1" d="M235.4,108.04c-3.59-3.16-4.25-3.36-10.9-3.48-4.86-.08-5.78-4.12-3.1-13.57,2.88-10.16,4.62-17.42,7.68-32,2.02-9.64,3.82-15.67,5.38-18,7.49-11.2-1.49-22.12-14.01-17.04-5.08,2.06-10.43,14.22-11.9,27.04-.57,5.02-2.44,13.18-6.07,26.5-.75,2.75-1.63,6.8-1.96,9-3.06,20.35-.98,19.63-44.52,15.4-16.61-1.61-15.28,1.59-14.89-35.74.41-38.38-1.19-43.05-13.92-40.66-10.45,1.96-12.63,9.42-12.66,43.51-.03,31.03-1.07,33.76-4.95,13-.87-4.68-1.58-9.75-1.58-11.27.02-11.24-17.29-38.27-28.01-43.74-14.23-7.26-21.45,7.65-9.21,19.01,15.49,14.37,27.72,48.81,17.41,49.04-28.7.61-37.14,1.79-46.18,6.45-27.37,14.08-20.2,31,9.51,22.46,27.76-7.98,39.02-3.86,40.01,14.61.97,18.01-7.07,20.27-49.08,13.81-14.66-2.26-22.15.44-23.95,8.64-1.53,6.97,3.92,11.39,15.16,12.29,17.2,1.38,24.49,11.25,19.34,26.2-4.04,11.73-6.31,13.18-21.73,13.84-11.11.48-15.08,8.05-7.95,15.18,9.87,9.87,44.72.35,44.68-12.2,0-.45.86-2.62,1.92-4.82,5.71-11.89,6.69-18.18,4.69-30.25q-.87-5.25,7.72-5.25c10.37,0,10.66.32,10.67,11.68,0,4.3.46,10.52,1.02,13.82.56,3.3,1.42,10.19,1.93,15.31,1.26,12.88,6.16,19.31,12.26,16.09,3.71-1.95,3.76-2.33,3.77-27.97.02-26.55.36-28.45,5.07-27.79q2.44.34,2.94,23.84c.58,27.15,1.38,30.23,8.05,30.79,6.86.58,10.2-7.84,11.46-28.86,1.75-29.31,1.42-28.75,21.33-35.55,15.87-5.42,30.36-14.98,38.9-25.68,7.17-8.98,6.11-8.33,14.59-8.98,20.84-1.6,32.19-14.91,21.06-24.68ZM114.5,157c-3.43,0-5.49-27.61-2.3-30.8s3.52-1.92,4.68,14.3c.94,13.19.46,16.5-2.38,16.5ZM178.11,133.8c-2.19,4.09-24.59,15.4-33.36,16.84-3.94.65-6.1-18.81-2.5-22.53.88-.91,2.89-1.11,6.75-.7,3.02.33,10.56.89,16.75,1.25,11.99.69,14.23,1.63,12.35,5.15Z"/>
</svg>