<?xml version="1.0" encoding="UTF-8"?>
<svg id="Layer_1" data-name="Layer 1" xmlns="http://www.w3.org/2000/svg" viewBox="0 0 256 256">
  <path d="M55.72,52c-33.31.59-36.6,1.59-36.68,11.11-.07,7.45,6.05,11.24,20.77,12.89,4.78.54,12.07,1.44,16.2,2.02,5.32.74,10.64.72,18.29-.07,14.46-1.49,13.71-2.41,13.71,16.68,0,20.78,1.93,19.32-27.64,20.93-12.59.68-15.02-.07-24.61-7.65-13.46-10.64-19.33,3.38-6.23,14.91,9.68,8.52,20.87,11.19,46.91,11.19,11.17,0,10.3-3.56,11.31,46,.89,43.4.92,43.66,5.56,48.75,2.94,3.23,8.58,3.07,11.78-.33q2.42-2.58,2.42-49.21t2.72-48.15c4.62-2.6,5.17-.9,4.91,15.17-1,62.03,2.27,84.08,12.69,85.47,12.11,1.62,13.47-4.59,12.58-57.38-.74-43.68-.51-46.51,3.81-47.88,3.92-1.25,4.29.71,4.33,22.87.03,16.31.41,22.58,1.65,27.2.89,3.3,1.92,8.25,2.29,11,6.45,48.18,71.52,54.88,71.52,7.38,0-1.7.72-5.85,1.6-9.23,6.56-25.12,3.09-44.44-10.95-60.94-8.63-10.14-17.52-14.78-32.1-16.75-11.32-1.53-11.07-1.09-10.92-19.59.17-20.27,2.5-21.46,39.51-20.07,22.19.83,28.36-1.83,28.36-12.23,0-11.42-15.47-16.59-43.5-14.55-21.89,1.59-20.42,2.06-21.04-6.66-1.39-19.56-18.26-17.98-20.75,1.94-1.46,11.71-9.32,11.37-10.25-.45-1.89-23.88-25.95-22.34-25.95,1.66,0,7.71-1.35,10.01-5.87,10.01-3.99,0-5.12-1.74-5.17-7.95-.07-8.79-7.94-20.05-14.01-20.05-.98,0-2.38-.21-3.11-.46-.73-.25-2.8.18-4.59.96-6.38,2.78-6.65,9.34-.69,17.14,2.96,3.87,3.51,5.31,3.01,7.79-1.21,6.07-1,6.03-31.85,6.57ZM170.2,128.66c.86-1.64,1.76-1.76,8.13-1.13,21.65,2.15,34.53,22.67,29.17,46.47-.93,4.12-2.23,10.67-2.89,14.54-3.86,22.7-24.03,25.84-29.91,4.65-5.97-21.51-8.45-57.02-4.51-64.53ZM144.25,73.25c1.27-1.6,5.4-1.62,6.38-.04,1.12,1.81.37,30.09-.84,31.54-1.4,1.69-5.27,1.58-6.74-.19-1.44-1.74-.39-29.32,1.2-31.31ZM110.8,74.68c.94-.25,1.84-.5,2.02-.56,4.29-1.58,6.6,28,2.63,33.66-1.96,2.8-7.38,3.14-7.56.47-1.02-15.17.52-32.94,2.92-33.57Z"/>
</svg>