<?xml version="1.0" encoding="UTF-8"?>
<svg id="Layer_1" data-name="Layer 1" xmlns="http://www.w3.org/2000/svg" viewBox="0 0 256 256">
  <path d="M233.93,183.61c7.72-12.49-8.12-29.36-20.43-21.75-11.22,6.93-10.64,19.97,1.17,26.58,7.94,4.44,14.56,2.78,19.26-4.82Z"/>
  <path d="M235.92,19.98c-3.87-1.11-14.59-1.07-26.62.09-4.51.44-11.93,1.47-16.5,2.29-4.56.82-13.25,1.77-19.3,2.12-6.05.34-15.27,1.04-20.5,1.56s-15.57,1.37-23,1.91c-7.43.54-16.51,1.67-20.18,2.53-18.57,4.31-67.13,2.44-72.74-2.81-8.17-7.63-13.53-5.2-12.87,5.84.95,15.84,8.4,19,44.79,19,32.58,0,31.46-.27,30.59,7.38-.35,3.09-1.07,16.87-1.59,30.62-2.54,66.13-1.85,63.91-17.14,55.9-26.37-13.82-84.3,15.47-68.27,34.52,4.8,5.7,10.36,4.62,18.93-3.7,12.72-12.34,29.52-17.2,40.98-11.85,21.52,10.04,20,7.82,20,29.28s-.27,22.39-4.98,24.63c-12.07,5.75-8.94,20.71,4.33,20.71,14.22,0,21.03-12.98,21.11-40.19.03-11.43.48-12.49,5.03-11.95,4.88.59,5.25,1.84,5.66,19.31.58,24.29,2.54,29.27,12.04,30.52,8.69,1.15,11.71-5.02,8.42-17.2-1.68-6.22-1.45-22.99.33-24.47,2.26-1.87,21.96,3.36,24.59,6.52.66.79,1.57,1.44,2.03,1.44,1.97,0,12.92,8.34,12.92,9.84,0,.58-1,2.74-2.21,4.8-10.43,17.68,15.38,33.96,27.31,17.23,9.07-12.72,1.17-30.4-19.99-44.7-10.71-7.23-11.25-8.09-8.37-13.12,3.11-5.43,6.16-13.89,7.29-20.21.52-2.94,1.63-7.78,2.45-10.76.84-3.06,1.97-14.33,2.58-25.89,1.48-27.83,3.75-37.83,13.12-57.84,5.34-11.41,17.72-22.35,25.27-22.35,14.88,0,18.49-17,4.47-21.02ZM130.45,92.6c-.8,4.45-2.33,22.63-3.39,40.38-1.98,33.16-2.27,34.71-6.24,33.65-7.61-2.04-7.85-4.98-3.77-46.92,1.32-13.58,1.2-40.83-.24-55.46-1.33-13.53-1.22-13.94,4.35-15.25,5.45-1.29,9.52-1.1,10.85.52,1.62,1.95.56,31.35-1.56,43.08ZM169.9,143.94c-1.04,4.09-1.9,8.37-1.9,9.5,0,3.23-3.93,12.81-6.33,15.44-7.01,7.69-18.6,6.48-17.31-1.8.31-1.97,1.06-12.58,1.67-23.58,1.41-25.51.85-24.22,10.53-24.34,4.24-.05,7.95-.33,8.25-.63,7.1-7.1,9.87,6.69,5.1,25.4ZM190.99,48.51c-1.67,1.03-7.08,13.46-11.97,27.49-.67,1.92-2.03,6.8-3.01,10.84-2.33,9.56-7.19,12.33-22.01,12.58-5.16.09-4.82,1.85-2.97-15.42.67-6.24.85-15.67.46-23.25-.79-14.99-2.11-13.53,13.88-15.26,22.27-2.41,32.45-1.21,25.62,3.02Z"/>
</svg>