<?xml version="1.0" encoding="UTF-8"?>
<svg id="Layer_1" data-name="Layer 1" xmlns="http://www.w3.org/2000/svg" viewBox="0 0 256 256">
  <defs>
    <style>
      .cls-1 {
        fill: #231f20;
      }
    </style>
  </defs>
  <path class="cls-1" d="M223.7,173.27c-5.45-2.94-83.3-2.33-96.7.76-2.47.57-15.08,1.44-28,1.93-12.92.49-25.08,1.42-27,2.06-12.41,4.16-32.69.72-36.31-6.15-3.72-7.07-10.17-8.71-14.79-3.77-15.89,17,20.17,37.19,52.6,29.44,4.83-1.15,13.36-1.83,27.5-2.18,11.28-.28,24.55-1.14,29.5-1.92,9.74-1.53,77.13-3.26,81.77-2.1,5.62,1.41,7.66,6.09,8.72,19.97,1.44,18.81,6.34,26.28,14.66,22.31,14.19-6.77,5.45-50.97-11.94-60.36Z"/>
</svg>