<?xml version="1.0" encoding="UTF-8"?>
<svg id="Layer_1" data-name="Layer 1" xmlns="http://www.w3.org/2000/svg" viewBox="0 0 256 256">
  <path d="M225.14,188c-5.47,0-5.81-2.13-1.77-11.1,7.78-17.26,5.23-17.07-15.57,1.15-12.45,10.91-11.17,10.55-30.58,8.56-8.67-.89-19.71-1.61-24.55-1.61-10.25,0-12.37-.85-13.14-5.26-1.45-8.36-3.02-59.43-3.02-98.24,0-53.38.38-48.85-4.51-53.75-3.79-3.79-4.24-3.97-8.25-3.3-2.33.39-4.91.66-5.74.61-15-.97-19.97-.87-24.5.51-2.75.84-6.62,1.88-8.6,2.32-3.7.81-8.53,2.9-19.94,8.6-31.32,15.66-45.25,37.74-49.54,78.52-2.11,20.05-.65,45.73,3.01,52.88,4.02,7.85,4.09,13.75.22,17.41-7.77,7.32-3.68,15.85,8.87,18.49,3.98.84,5.58,1.82,7.94,4.88,7.68,9.95,23.33,23.1,34.04,28.62,25.59,13.17,39.22,15.69,62.84,11.62,24.73-4.26,39.03-11.19,56.81-27.54,6.25-5.75,6.02-5.68,23.75-7.37,17.47-1.67,22.61-4.89,22.61-14.15,0-6-5.11-11.84-10.36-11.84ZM34.44,103.98c7.39-34.8,28.88-54.98,68.56-64.41,7.75-1.84,7.95-1.82,8.91.69.48,1.27.43,13.88-.12,28.75-.54,14.57-.7,35.39-.37,46.27.7,23.12,1.05,22.47-9.04,17.32-18.41-9.39-50.82-14.69-63.54-10.38-7.89,2.67-8.4.56-4.41-18.24ZM107.11,232c-13.41,0-55.48-23.34-49.69-27.56,1.86-1.36,6.76-1.17,26.08,1.05,6.6.76,15.37,1.68,19.5,2.06,9.86.89,10,1.04,10,11.01,0,11.43-.88,13.44-5.89,13.44ZM108.15,181.61c-.91-.25-5.47-.75-10.15-1.09-4.68-.35-15.16-1.3-23.3-2.11-11.58-1.16-16.55-1.24-22.79-.39-10.09,1.38-11.02,1.05-13.19-4.75-6.42-17.14-8.85-33.97-5.19-36.01,1.7-.95,3.08-.87,23.49,1.36,25.99,2.85,53.12,16.25,55.34,27.35,1.89,9.42-.09,16.79-4.2,15.64ZM141.25,226.25c-1.63-.61-1.69-12.41-.07-14.03,1.95-1.95,24.82-.43,24.82,1.64,0,2.51-21.88,13.46-24.75,12.39Z"/>
</svg>