<?xml version="1.0" encoding="UTF-8"?>
<svg id="Layer_1" data-name="Layer 1" xmlns="http://www.w3.org/2000/svg" viewBox="0 0 256 256">
  <defs>
    <style>
      .cls-1 {
        fill: #231f20;
      }
    </style>
  </defs>
  <path class="cls-1" d="M226.96,128.36c17.44-3.49,15.62-27.61-1.96-25.91-42.62,4.13-57.48-.19-56.5-16.45,2.62-43.65,4.31-49.95,13.44-50.03,9.35-.08,13.19-11.32,5.95-17.41-3.49-2.94-10.69-3.44-17-1.18-9.77,3.49-18.84,16.48-18.9,27.05,0,1.14-.65,4.19-1.44,6.78-.98,3.24-1.49,10.59-1.63,23.5-.24,23.03-1.35,26.72-6.48,21.59-1.55-1.55-1.66-4.52-1.24-33.52.55-38.02-.26-40.78-11.84-40.78-12.32,0-15.58,10.52-15.12,48.77.26,21.17-.59,27.78-2.43,19.05-2.53-11.97-3.8-19.27-3.8-21.85,0-15.94-25.26-49.13-35.45-46.58-11.59,2.91-11.24,11.51.96,23.97,23.04,23.51,23.68,46.7,1.3,47.12-20.67.39-35.96,5.53-44.71,15.02-12.48,13.54-1.32,21.01,21.5,14.39,10.14-2.94,35.22-3.49,37.89-.83,1.33,1.33,1.72,7.02,2.56,37,.57,20.4,1.62,39.76,2.47,45.62.81,5.6,1.48,11.68,1.49,13.5.02,11.94,7.86,19.8,14.17,14.19q2.11-1.87,1.53-53.92c-.32-28.63-.2-52.65.26-53.4,2.24-3.62,3.84-.15,4.44,9.62.33,5.4,1.11,13.87,1.73,18.82.62,4.95,1.41,23.18,1.75,40.5.74,37.76,2.03,41.87,12.01,38.37,4.77-1.67,9.74-32.18,9.35-57.37-.7-45.29-.45-49,3.36-49,3.43,0,3.3-1.29,3.74,37.5.57,51.21,2.55,56.5,24.16,64.54,15.91,5.92,23.54,3.98,41.68-10.63,18.62-15,25.68-53.91,13.8-76.08-4.85-9.05-5.03-11.17-1.02-11.97ZM204.68,197.75c-14.83,14.01-29.42,14.55-34.13,1.25-2.53-7.14-3.73-66.88-1.4-69.69,4.97-5.98,38.85,2.72,38.85,9.98,0,.49.87,2,1.94,3.36,7.44,9.46,3.92,46.42-5.26,55.09Z"/>
</svg>