<?xml version="1.0" encoding="UTF-8"?>
<svg id="Layer_1" data-name="Layer 1" xmlns="http://www.w3.org/2000/svg" viewBox="0 0 256 256">
  <path d="M74.29,178.06c-7.65-.79-12.98-.81-18.29-.07-4.12.57-11.41,1.48-16.2,2.02-14.73,1.65-20.84,5.44-20.77,12.89.08,9.53,3.37,10.52,36.68,11.11,30.85.55,30.64.5,31.85,6.57.5,2.49-.06,3.92-3.01,7.79-5.99,7.85-5.7,14.42.76,17.12,9.71,4.06,21.54-6.62,21.65-19.54.05-6.21,1.18-7.95,5.17-7.95,4.52,0,5.87,2.3,5.87,10.01,0,24,24.06,25.54,25.95,1.66.94-11.82,8.79-12.17,10.25-.45,2.52,20.17,20.73,21.13,20.78,1.1.02-7.87-.13-7.81,14.76-6.24,31.25,3.28,49.76-1.98,49.76-14.13,0-10.41-6.36-13.15-28.5-12.26-36.77,1.47-39.21.23-39.38-20.04-.15-18.58-.36-18.21,10.85-19.64,9.23-1.17,17.03-3.88,22.99-7.98,11.23-7.73,20.46-23.45,23-39.2,1.32-8.22.33-18.85-2.93-31.38-.84-3.23-1.53-7.12-1.53-8.64,0-47.24-65.11-40.24-71.52,7.69-.37,2.75-1.39,7.7-2.27,11-1.22,4.56-1.62,11.04-1.66,27-.07,24.48-.92,27.21-6.62,21.25q-2.15-2.25-1.53-45.75c.8-55.34-1.34-62.94-16.02-57.01-7.2,2.91-7.98,8.56-8.88,64.5-.59,37.13-.73,38.03-5.28,35.46q-2.72-1.53-2.72-48.15t-2.42-49.21c-4.68-4.99-11.21-3.08-15.14,4.42-1.38,2.63-2.73,35.07-2.87,68.82-.09,21.84.24,21.18-10.68,21.18-26.22,0-37.11,2.6-46.87,11.19-13.09,11.53-7.23,25.55,6.23,14.91,9.59-7.58,12.02-8.33,24.61-7.65,29.57,1.61,27.64.15,27.64,20.93,0,19.09.75,18.17-13.71,16.68ZM180.7,52.25c9-9.01,21.1-1.32,23.91,15.21.66,3.87,1.96,10.42,2.89,14.54,5.29,23.5-7.48,44.22-28.62,46.44-9.34.98-9.47.78-10.32-16.13-1.19-23.52,4.69-52.6,12.14-60.06ZM143.07,151.41c1.64-1.97,5.67-1.76,6.8.36,5.09,9.52-.07,37.99-5.62,30.98-1.56-1.97-2.6-29.63-1.18-31.34ZM107.88,147.75c.18-2.66,5.6-2.32,7.56.47,2.51,3.58,2.27,31.32-.28,32.69-2.39,1.28-5.97.32-6.57-1.77-.42-1.47-1-27.06-.71-31.39Z"/>
</svg>