<?xml version="1.0" encoding="UTF-8"?>
<svg id="Layer_1" data-name="Layer 1" xmlns="http://www.w3.org/2000/svg" viewBox="0 0 256 256">
  <path d="M23.77,36c1.38,0,8.03,3.75,10.73,6.04,3.78,3.22,12.31,8.84,18.11,11.93,14.01,7.48,59.42,40.05,60.78,43.61,1.02,2.67-1.61,33.49-2.97,34.86-4.17,4.17-50.08,5.4-62.82,1.68-23.37-6.82-34.67,1.48-20.56,15.1,13.22,12.76,41.2,17.7,70.43,12.43,8.13-1.46,12.42-.93,12.65,1.58.07.7.05,10.85-.04,22.56-.29,37.63,3.06,48.22,15.28,48.22,11.52,0,12.42-2.97,11.85-39.39-.62-40.14-2.37-36.74,19.82-38.52,15.49-1.25,15.71-1.12,11.13,6.66-11.68,19.8-13.52,44.43-4.21,56.19,9.8,12.37,25.49,13.14,37.9,1.85,12.14-11.04,14.66-32.48,6.51-55.49-1.91-5.39-3.55-10.47-3.66-11.29-.21-1.63,3.97-1.77,15.81-.52,19.26,2.03,20.14-21.15,1-26.27-4.42-1.18-5.8-2.27-10.32-8.13-2.61-3.38-7.08-3.19-11.7.5-13.21,10.57-15.51,10.27-30.6-4.01-4.61-4.36-12.65-11.29-17.88-15.4-5.22-4.11-10.17-8.1-11-8.86-1.53-1.41-1.71-2.99-3.99-33.42-1.99-26.65-5.46-35.52-13.14-33.59-5.44,1.37-6.35,5.2-6.72,28.44-.38,23.86-.45,24.06-7.2,18.29-1.9-1.63-3.79-2.98-4.18-3-.4-.02-3.32-1.77-6.5-3.89-12.44-8.29-23.19-14.77-32.28-19.46-10.77-5.56-14.31-7.58-21.71-12.37-12.11-7.84-20.36-10.11-23.63-6.49-3.05,3.37-.96,10.17,3.12,10.17ZM185.76,169.58c5.04-5.04,10.61,18.08,7.29,30.29-3.25,11.97-14.45,12.16-16.68.29-1.08-5.73,5.3-26.48,9.39-30.57ZM145.4,119.55c9.76,7.95,9.7,10.05-.29,11.1-7.68.8-8.07.36-8.09-8.9-.02-8.27.71-8.46,8.38-2.2Z"/>
</svg>