<?xml version="1.0" encoding="UTF-8"?>
<svg id="Layer_1" data-name="Layer 1" xmlns="http://www.w3.org/2000/svg" viewBox="0 0 256 256">
  <defs>
    <style>
      .cls-1 {
        fill: #231f20;
      }
    </style>
  </defs>
  <path class="cls-1" d="M230,111.2c0-17.99-3.41-26.64-11.9-30.16-4.91-2.04-50.95-1.01-54.08,1.21-2.58,1.83-18.29,2.58-20.59.98-1.14-.79-3.44-16.25-3.44-23.13,0-7.32,4.13-6.59,10.59,1.89,12.2,16,25.62,1.94,14.36-15.06-3.04-4.6-13.32-10.91-17.77-10.92-3.6,0-11.1-4.86-11.8-7.63-1.23-4.89-7.51-5.84-11.88-1.79-3.35,3.1-8.43,2.69-12.5-1.02-2.93-2.66-4.92-3.46-7-2.8-.82.26-2.62,1.49-4,2.72-1.38,1.23-4.07,2.54-6,2.9-4.79.89-19.61,8.24-24.5,12.13-2.2,1.75-5.07,3.53-6.38,3.94-3.19,1.01-16.39,14.14-18.63,18.53-.98,1.92-3.51,5.47-5.62,7.87-24.97,28.46-19.36,38.51,21.74,38.94,34.78.36,31.9-1.02,30.67,14.67-.72,9.24-.97,10.07-3.28,11.31-3.91,2.09-27.54.96-36.5-1.74-22.22-6.71-33.76,1.05-21.44,14.41,9,9.76,23.99,14.72,45.16,14.94,17.18.18,16.33-.7,14.23,14.73-2.98,21.89-20.47,44.91-28.2,37.12-2.93-2.95-9.25-10.9-9.25-11.63,0-.38-1.8-3.07-4-5.99-2.2-2.91-4-5.62-4-6.01s-2.38-3.95-5.29-7.91c-2.91-3.96-6.29-8.83-7.51-10.83-4.41-7.23-12.11-7.46-15.58-.47-2.53,5.11-1.12,9.82,5.75,19.1,2.85,3.85,8.32,11.91,12.15,17.92,11.59,18.14,22.61,28.43,32.7,30.52,2.35.49,6.98,2.04,10.28,3.45,5.87,2.51,6.51,2.56,29.5,2.57,33.33.01,40.31-2.06,66.6-19.71,6.35-4.26,13.06-8.57,14.92-9.56,3.91-2.09,17.6-14.33,22.59-20.18,1.87-2.2,4.39-5.1,5.61-6.45,1.22-1.35,2.64-3.6,3.16-5.01,7.88-21.27,11.84-29.78,15.33-32.94,6.69-6.06,7.16-13.64,1.18-19.22-4.8-4.48-5.38-6.81-5.38-21.7ZM70.71,91.77c-23.22.3-22.46.59-18.64-6.9,2.76-5.42,17.24-20.38,22.9-23.68,2.49-1.45,6.47-4.11,8.85-5.91,9.02-6.84,9.89-5.63,9.4,12.97-.69,25.74,1.74,23.2-22.52,23.52ZM102.59,228c-15.98,0-16.1-.11-9.58-8.21,8.54-10.59,14.97-24.32,15-32.05,0-1.79.67-5.95,1.46-9.25.8-3.3,1.47-7.21,1.48-8.69.02-1.48.5-3.9,1.06-5.39,2.03-5.34,2.47-.84,2.48,25.41,0,19.03.39,27.91,1.32,31.02,2.12,7.07,1.99,7.15-13.24,7.15ZM111.91,131.9c-1.01-1.59-1.24-20.88-.29-23.37,1.1-2.86,4.82-1.45,5.22,1.97,1.31,11.4-2.04,25.96-4.93,21.4ZM114.8,87.83c-2.23-.32-4.26-32.6-2.36-37.54.68-1.77,4.09-1.61,5.98.29,1.3,1.3,1.57,4.43,1.57,18.38,0,18.08-.41,19.56-5.2,18.88ZM205.6,167.5c-.87,1.65-1.59,3.62-1.59,4.37-.02,4.75-18.24,24.18-28.11,29.98-2.97,1.75-8.77,5.56-12.9,8.47-22,15.52-21.86,15.67-21.93-23.83-.05-31.77-2.93-28.62,28.43-31.06,11-.85,22.7-1.92,26-2.36,16.97-2.3,18.08-.71,10.1,14.42ZM172.77,128.53c-10.05.82-21.03,1.77-24.41,2.11-7.42.75-7.15,1.27-7.52-14.27-.35-14.61-.59-14.34,13.04-14.44,7.7-.06,12-.58,15.63-1.92,22.01-8.12,42.5-2.36,42.5,11.95s2.62,13.16-39.23,16.58Z"/>
</svg>