<?xml version="1.0" encoding="UTF-8"?>
<svg id="Layer_1" data-name="Layer 1" xmlns="http://www.w3.org/2000/svg" viewBox="0 0 256 256">
  <path d="M14.36,227.74c2.93,5.66,11.52,6.55,25.82,2.68,12.67-3.43,77.55-5.32,96.82-2.81,7.43.96,18.23,1.86,24,1.98,5.77.13,13.65.71,17.5,1.29,22.5,3.42,51.65-.75,52.3-7.47.77-7.93-8.25-11.39-29.8-11.39-9.6,0-18.48-.58-23.34-1.5-4.31-.82-11.97-1.5-17.03-1.5-28.09,0-32.64-3.4-32.64-24.39,0-11.62,2.68-13.62,18.3-13.6,11.82.01,16.67,2.98,18.2,11.16,3.14,16.75,21.68,15.86,20.14-.97-1.99-21.71-21.14-34.17-46.27-30.11-9.8,1.58-10.37,1.07-10.37-9.08,0-9.39-1.22-8.32,18.25-16.1,26.57-10.62,34.19-19.75,33.59-40.25-.54-18.06-4.76-21.92-21.73-19.82-28.35,3.5-27.16,4.01-25.04-10.71,2.81-19.54,1.24-29.5-5.08-32.12-7.53-3.12-11.98,3.57-11.99,18.01,0,23.8-6.76,39.2-8.32,18.97-1.69-21.88-20.74-43.11-32.33-36.04-6.44,3.93-5.53,10.86,2.56,19.65,10.43,11.33,13.85,27.77,6.17,29.72-12.34,3.13-27.23-4.37-32.7-16.46-3.17-7.01-13.37-5.28-13.37,2.28,0,15.49,22.14,30.89,44.4,30.89,10.81,0,7.97,36.57-3.48,44.93-18.58,13.56-19.27,37.75-1.17,41.37,5.6,1.12,6.29,3.5,4.93,17.11-1.44,14.4.74,13.09-24.18,14.47-12.03.66-20.61,1.61-23.38,2.59-2.4.85-6.14,1.54-8.31,1.54-9.65,0-16.26,8.36-12.45,15.74ZM129.53,98.42c.88-10.58,2.1-12.3,9.49-13.37,9.63-1.4,20.59-1.21,21.91.38,3.47,4.18-7.38,18.44-14.15,18.61-.71.02-3.53,1.14-6.28,2.49-10.17,5-11.95,3.68-10.97-8.1ZM110,90c.61,0,1,4.31,1,10.94,0,6.22-.43,11.21-1,11.56-.65.4-1-3.49-1-10.94,0-7.04.39-11.56,1-11.56ZM100.86,197.26c.7-3.17,1.64-8.74,2.08-12.39.44-3.65,1.11-7.14,1.49-7.75.77-1.25,3.49-1.52,3.71-.36.08.41.32,5.48.54,11.25.22,5.77.49,11.83.61,13.45.18,2.55-.24,3.08-3.1,3.91-5.41,1.57-6.96-.78-5.33-8.1Z"/>
</svg>