<?xml version="1.0" encoding="UTF-8"?>
<svg id="Layer_1" data-name="Layer 1" xmlns="http://www.w3.org/2000/svg" viewBox="0 0 256 256">
  <path d="M208.5,17.42c-14.75.34-29.72.15-36.5-.48-15.92-1.47-51.56-1.97-62.94-.89-5.19.49-13.07,1.54-17.5,2.33-4.43.79-10.98,1.72-14.56,2.07s-10.34,1.28-15.04,2.08c-13.47,2.28-20.81,2.17-24.96-.38-5.25-3.23-9.52-2.85-13.6,1.24-7.69,7.69-2.01,21.62,10.27,25.19,7.03,2.04,7.38,3.3,2.49,9.12-22.54,26.86-29.18,86.57-13.56,121.94.77,1.73,1.39,3.5,1.39,3.93,0,18.2,32.01,49.99,61.5,61.08,43.72,16.44,97.23-4.3,126.94-49.21,2.17-3.28,4.68-6.86,5.57-7.96,2.46-3.02,8.99-18.33,8.99-21.08,0-5.33-1.04-4.56-36.5,27.09-28.48,25.42-40.47,33.43-45.05,30.08-1.5-1.09-1.64-8.07-1.65-79.64,0-43.14-.35-82.72-.76-87.94-.98-12.48.03-14.5,6.81-13.66,55.52,6.94,94.17,1.91,94.15-12.24-.02-11.25-5.93-13.37-35.5-12.68ZM34.04,105.5c6.27-31.33,23.9-52.04,49.46-58.09,2.75-.65,5.25-1.24,5.55-1.3,4.39-.9,4.49,38.67.12,47.69-11.02,22.74-26.82,34.46-46.67,34.62-11.72.09-12.59-2.27-8.46-22.92ZM86.43,225.54c-1.61-.84-3.29-1.53-3.73-1.53-8.85-.07-38.7-28.82-38.7-37.28,0-.56-.84-2.86-1.88-5.12-10.9-23.86-12.49-36.65-4.28-34.39,13,3.59,34.36-3.66,49.37-16.75,9-7.85,8.81-8.11,7.66,10.53-1.23,19.82-2.57,27.1-6.59,35.8-6.21,13.43-5.28,26.69,2.77,39.77,7.63,12.39,20.64,2.36,14.85-11.45-2.85-6.81-3.24-16.43-.81-20.17,5.68-8.77,6.28-13.81,6.49-54.46.12-22.97.59-39.01,1.21-40.56.78-1.97.56-3.81-.96-8-2.75-7.55-4.85-36.68-2.74-38.01,7.02-4.44,9.6,18.74,7.88,70.74-.66,20,.56,107.59,1.56,112.19,1.65,7.56-16.5,6.81-32.1-1.32Z"/>
</svg>