<?xml version="1.0" encoding="UTF-8"?>
<svg id="Layer_1" data-name="Layer 1" xmlns="http://www.w3.org/2000/svg" viewBox="0 0 256 256">
  <path d="M189.5,194.41c-26.08,23.27-29.5,25.16-29.5,16.27,0-1.07-.91-3.42-2.03-5.23-1.99-3.23-2.04-4.82-2.29-88.62-.28-93.82.06-88.75-6.29-93.74-4.27-3.36-8.01-2.73-12.84,2.16-5.76,5.83-7.22,13.42-7.99,41.75-1.32,47.94-3.13,48.51-4.63,1.45-1.48-46.56-4.06-50.25-29.95-42.9-3.01.85-7.09,1.91-9.07,2.34-3.26.71-5.52,1.64-16.9,6.93-32.56,15.14-48.21,38.75-52.47,79.18-2.96,28.07-.84,47.74,7.08,65.65.77,1.73,1.39,3.5,1.39,3.93,0,18.2,32.01,49.99,61.5,61.08,43.75,16.45,97.21-4.27,126.94-49.21,2.17-3.28,4.68-6.86,5.57-7.96,2.46-3.02,8.99-18.33,8.99-21.08,0-5.36-.73-4.81-37.5,27.99ZM108.27,70.02c-.64,23.6-1.01,28.39-2.27,29.01-.82.41-3.87,1.78-6.77,3.04-20.18,8.78-19.3,45.43,1.33,55.75,6.98,3.49,6.8,2.67,6.17,28.28q-.57,23.02-4.29,28.42c-4.07,5.91-4.38,11.59-.79,14.22,4.41,3.22-7.13,1.12-14.41-2.62-.96-.49-4.67-2.34-8.25-4.11-16.31-8.07-34.96-26.9-35.01-35.35,0-.63-.71-2.5-1.57-4.15-7.25-13.9-10.42-28.74-10.42-48.79,0-53.58,19.43-80.15,68.5-93.68,8.82-2.43,8.66-3.04,7.77,29.98ZM101.44,140.58c-3.19-2.33-2.79-20.07.51-22.74,4.05-3.28,4.54-2.05,4.61,11.5.06,13.61-.42,14.68-5.12,11.24ZM134.42,228.27c-2.16.45-6.96,1.5-10.68,2.34-8.23,1.86-16.19-.21-8.37-2.17,9.18-2.3,9.46-4.29,9.62-67.77,0-.46.56-.65,1.25-.42.95.32,1.25,5.9,1.26,23.33,0,25.62.74,29,8.2,37.87,4.01,4.76,3.82,5.77-1.29,6.82Z"/>
</svg>