<?xml version="1.0" encoding="UTF-8"?>
<svg id="Layer_1" data-name="Layer 1" xmlns="http://www.w3.org/2000/svg" viewBox="0 0 256 256">
  <path d="M101,180.9c-40.56-3.88-41.55-3.94-49-2.91-4.13.57-11.41,1.47-16.19,2.01-14.73,1.65-20.84,5.44-20.77,12.89.08,9.53,3.28,10.49,37.47,11.27,15.95.36,31.93,1.11,35.5,1.67s10.23,1.32,14.79,1.7c10.45.87,11.21,1.58,11.21,10.48,0,24,24.06,25.54,25.95,1.66.91-11.55,6.54-12.24,8.68-1.06,3.07,16.06,12.89,23.66,22.3,17.23,5.6-3.83,5.95-6.88,1.59-13.95-5.83-9.45-5-9.88,14.7-7.69,20.08,2.23,40.3-.7,45.79-6.65,5.88-6.37.78-19.33-7.73-19.65-1.52-.06-13.14-.17-25.81-.25-27.02-.17-28.46-.57-28.46-7.86,0-2.29-.52-9.3-1.16-15.57-1.4-13.81-1.99-13.18,12.16-13.21,47.47-.1,64.69-35.91,43.78-91.01-13.64-35.94-59.32-46.27-73.69-16.66-6.3,12.99-7.29,23.93-5.65,62.79.96,22.88.81,23.43-5.75,20.94-4.99-1.9-5.03-2.39-4.32-47.03.84-53.16-1.42-60.94-15.99-55.06-7.35,2.97-7.89,6.78-9.01,63.39q-.69,34.88-8.78,34.25c-4.76-.37-14.27-.02-23.09.85-8.25.82-17.63,1.49-20.84,1.5-16.85.06-34.66,10.52-34.66,20.36,0,6.18,6.36,9.55,9.92,5.26,2.77-3.33,16.33-6.59,27.69-6.64,5.99-.03,15.84-.44,21.89-.91,27.93-2.19,29.5-1.09,29.5,20.62,0,19.26.57,18.45-12,17.25ZM174.49,47.89c8.92-3.85,25.61,4.93,30.88,16.26,18.54,39.83,8.61,65.83-25.29,66.23-12.76.15-11.75,2.4-12.91-28.88-1.37-36.77.53-50.68,7.32-53.61ZM138.46,149.06c.92-1.49,7.07-1.32,8.35.22,2.06,2.48,3.35,31.88,1.49,33.93-1.96,2.17-4.17,2.27-6.96.32-2.14-1.5-4.66-31.61-2.89-34.48Z"/>
</svg>