<?xml version="1.0" encoding="UTF-8"?>
<svg id="Layer_1" data-name="Layer 1" xmlns="http://www.w3.org/2000/svg" viewBox="0 0 256 256">
  <defs>
    <style>
      .cls-1 {
        fill: #231f20;
      }
    </style>
  </defs>
  <path class="cls-1" d="M29.12,180c6.15-4.86,31.43-5.95,48.09-2.07,13.51,3.14,22.97,5.04,28.29,5.69,4.59.56,10.54,2.02,24.11,5.92,21.25,6.12,51.76,5.59,62.55-1.08,20.55-12.71,23.04-20.13,23.49-69.96.45-49.85,1.48-53.44,20.22-70.83,11.46-10.64-.99-23.32-14.26-14.53-13.57,8.99-24.09,29.26-25.49,49.1-1.01,14.33.99,13.57-36.12,13.7-34.46.12-44.29,4.5-35.23,15.69,3.4,4.2,4.84,4.37,38.14,4.37,37.81,0,33.81-2.71,32.4,21.96-1.8,31.59-8.59,37.07-43.1,34.81-6.44-.42-13.52-1.42-15.72-2.21s-6.47-1.92-9.5-2.5c-3.02-.58-7.96-1.73-10.97-2.56-3.01-.83-6.71-1.5-8.22-1.5s-6.93-.87-12.03-1.93c-25.7-5.35-26.08-5.39-41.48-4.74-27.93,1.17-38.28,6.5-38.29,19.72,0,8.25,4.99,9.37,13.11,2.95Z"/>
</svg>