<?xml version="1.0" encoding="UTF-8"?>
<svg id="Layer_1" data-name="Layer 1" xmlns="http://www.w3.org/2000/svg" viewBox="0 0 256 256">
  <defs>
    <style>
      .cls-1 {
        fill: #231f20;
      }
    </style>
  </defs>
  <path class="cls-1" d="M227.46,74.86c-8.24,5.03-9.6,14.66-3.05,21.61,4.67,4.95,10.95,5.06,16.16.28,11-10.11-.62-29.5-13.11-21.89Z"/>
  <path class="cls-1" d="M137.9,229.26c1.56-3.02,3.05-21.45,3.74-46.26.68-24.16,0-22.87,9.94-18.98,10.69,4.18,23.54,5.73,34.94,4.2,12.64-1.69,11.68-2.89,13.39,16.78,2.45,28.3,13.83,47,28.59,47,12.27,0,15.34-11.88,4.92-19.05-11.14-7.67-13.4-16.99-14.05-57.95-.5-31.67-1.04-36.57-5.66-51.44-2.56-8.24-8.06-15.68-13.73-18.57-5.3-2.71-5.03-4.35,1.38-8.46,8.54-5.47,14.59-12.17,20.13-22.32,3.22-5.9,3.19-5.87,11.57-9.52,11.2-4.87,9.56-20.7-2.14-20.7-2.46,0-3.72-1.11-8.09-7.12-6.8-9.35-11.55-11.38-20.53-8.77-5.09,1.47-7.64,5.95-7.09,12.48.59,7.08.06,7.41-10.22,6.34-4.68-.49-17.95-1.36-29.5-1.95-11.55-.59-24.6-1.71-29-2.5-38.68-6.95-96.67-3.47-101.23,6.07-4.91,10.3,1.69,13.4,24.7,11.62,38.71-3,41.8-1.5,42.14,20.4.28,17.99.53,17.43-7.77,17.43-3.6,0-13.02.51-20.93,1.14-16.92,1.34-21.33.34-27.62-6.25-6.34-6.65-11.79-3.79-11.79,6.2,0,14.73,11.65,19.91,44.77,19.91,27.53,0,37.26,30.4,25.34,79.14-1.16,4.75-2.11,9.76-2.11,11.12s-.64,4.31-1.43,6.53c-.78,2.22-1.75,6.22-2.14,8.88-.39,2.66-2.06,7.53-3.7,10.83-1.64,3.3-4.05,8.13-5.36,10.75-3.06,6.11-2.99,8.12.36,10.76,8.75,6.88,24.51-9.88,28.22-30.01.46-2.48,1.57-7.65,2.47-11.5.91-3.85,2.32-9.92,3.14-13.5,1.16-5.04,1.54-15.13,1.71-45q.22-38.5,2.72-38.5c2.7,0,3.81,103.27,1.29,119.42-2.71,17.36,11.16,25.81,18.62,11.35ZM142.55,46.59c1.34-1.34,2.74-1.63,5.86-1.2,2.25.31,14.44,1.08,27.09,1.7,12.65.62,23.38,1.48,23.84,1.92,4.04,3.76-17.77,18.19-29.5,19.51-8.19.92-20.11,3.68-22.32,5.16-1.68,1.13-5.44,1.86-5.57,1.08-1.29-8.06-.9-26.67.59-28.16ZM141.32,120.39c.35-11.29.9-20.94,1.22-21.46,2.12-3.43,40.91-.31,46.22,3.71,6.41,4.86,12.45,33.74,8.4,40.13-3.26,5.14-24.16,6.9-38.09,3.19-4.09-1.09-9.32-1.98-11.63-1.98-6.76,0-6.84-.3-6.12-23.61ZM113.93,75.44c-2.25-2.04-2.93-27.7-.83-31.62.9-1.68,1.74-1.94,4.68-1.47,5.67.92,6.6,2.46,5.34,8.78-.59,2.95-1.14,8.97-1.22,13.37-.21,11.08-3.23,15.22-7.96,10.94Z"/>
</svg>