<?xml version="1.0" encoding="UTF-8"?>
<svg id="Layer_1" data-name="Layer 1" xmlns="http://www.w3.org/2000/svg" viewBox="0 0 256 256">
  <defs>
    <style>
      .cls-1 {
        fill: #231f20;
      }
    </style>
  </defs>
  <path class="cls-1" d="M167.68,140.15c-3.21,1.69-3.65,2.77-3.67,8.98-.04,14.7-12.77,30.56-24.91,31.04-5.13.2-5.61-.28-4.22-4.27,9.96-28.57-36.36-66.84-52.51-43.39-1.03,1.5-2.83,3.68-3.99,4.85-1.16,1.17-2.43,3.14-2.82,4.38-.98,3.13-2.57,2.82-2.56-.5.08-22.45,16.23-48.25,31.24-49.93,8.45-.94,10.84-4.31,6.29-8.86-3.65-3.65-12.12-3.47-19.47.41-11.6,6.14-27.08,27.27-27.08,36.98,0,1.05-.74,3.65-1.65,5.78-9.1,21.35,4.79,54.64,28.15,67.46,8.75,4.8,45.14,5.19,54.24.58,1.52-.77,4.34-1.69,6.26-2.06,9.01-1.69,25-20.77,25-29.83,0-.84.67-3.15,1.5-5.12,4.29-10.27-1.89-20.67-9.82-16.5ZM109.49,181c-17.37,0-28.99-29.4-15.71-39.75,5.93-4.62,24.93,9.5,28.12,20.9,2.27,8.11-4.8,18.85-12.41,18.85Z"/>
</svg>