<?xml version="1.0" encoding="UTF-8"?>
<svg id="Layer_1" data-name="Layer 1" xmlns="http://www.w3.org/2000/svg" viewBox="0 0 256 256">
  <defs>
    <style>
      .cls-1 {
        fill: #231f20;
      }
    </style>
  </defs>
  <path class="cls-1" d="M113.5,157.5c13.81,6.21,17.41,8.09,25.31,13.27,16.95,11.09,21.15,8.63,21.26-12.47.04-7.59.48-16.27.98-19.29,4.84-29.29,2.87-39.81-6.75-35.98-4.34,1.73-5.39,5.05-6.4,20.16-2.12,31.89-2.13,31.97-3.69,32.56-.82.31-2.22.07-3.11-.55-1.68-1.17-12.39-6.48-17.61-8.73-1.65-.71-9.15-4.26-16.66-7.88-15.05-7.25-20.04-8.23-23.36-4.56-4.75,5.24,3.07,11.35,30.03,23.47Z"/>
</svg>