<?xml version="1.0" encoding="UTF-8"?>
<svg id="Layer_1" data-name="Layer 1" xmlns="http://www.w3.org/2000/svg" viewBox="0 0 256 256">
  <defs>
    <style>
      .cls-1 {
        fill: #231f20;
      }
    </style>
  </defs>
  <path class="cls-1" d="M245.7,86.79c-1.26-9.38-10.3-15.01-18.3-11.41-7.85,3.54-10.09,14.48-4.31,21.06,8.7,9.91,24.34,3.23,22.62-9.65Z"/>
  <path class="cls-1" d="M194.25,75.95c37.35-24.03,45.3-58.54,13.78-59.79-8.47-.34-8.71-.28-13.08,3.01-10.28,7.76-11.74,21.79-3.02,29.08,3.6,3.01,2.27,4.23-17.93,16.57-32.1,19.61-34,19.82-34,3.81,0-24.14-2.66-38.24-7.65-40.51-11.15-5.08-16.71,4.25-13.95,23.44,3.56,24.72,2.2,35.45-4.48,35.45-5.64,0-6.13-1.3-7.11-18.79-1.59-28.33-3.61-36.14-10.61-41.03-10.84-7.56-22.31,2.43-13.71,11.94q3.5,3.87,3.54,15.62c.02,6.46.44,15.12.91,19.25,1.18,10.14,2.96,9.52-26.99,9.34q-26.2-.16-29.88-3.75c-7.93-7.75-15.09.26-10.64,11.91,3.28,8.58,8.19,10.29,31.55,10.95,38.36,1.09,36.31.3,37.14,14.26.35,5.93,1.17,19.26,1.82,29.62,1.53,24.29,1.33,24.49-19.15,20.1-28.67-6.16-55.44,2.36-52.3,16.64,1.37,6.24,5.66,7.14,16.29,3.43,8.64-3.02,9.49-3.03,28.02-.46,8.07,1.12,16.62,2.28,19,2.57,8.07,1,8.26,1.59,7.52,23.64-.82,24.46,2.2,31.84,12.01,29.38,6.25-1.57,6.95-3.2,7.84-18.24,1.86-31.57,1.69-30.85,7.03-31.19,9.57-.62,10.57,2.18,8.88,24.87-1.48,19.95.81,26.33,9.46,26.33s9.76-4.42,11.06-33.64c.81-18.21,0-17.32,14.65-16.01,6.18.55,14.19.79,17.78.53,8.21-.6,8.32-.46,9.77,12.23,1.97,17.29,6.78,27.06,15.4,31.27,21.09,10.3,33.44,9.43,33.19-2.34-.12-5.71-3.57-9.14-11.79-11.7-11.87-3.69-12.36-4.08-14.64-11.59-1.42-4.67-1.98-8.88-1.78-13.25.33-7.05-.77-6.73,19.63-5.68,6.64.34,11.17-3.65,11.17-9.84,0-7.06-6.9-10.8-22.5-12.18-9.1-.81-9.98-5.62-7.5-41.47,1.92-27.76-3.85-41.95-18.56-45.65-5.97-1.5-5.73-2,3.81-8.14ZM122.57,170.94c-7.08,5.87-11.54-.68-11.56-16.98,0-6.9-.69-17.92-1.51-24.5-1.95-15.64-1.93-20.12.08-21.25,2.43-1.36,8.87-1.33,10.73.05,3.2,2.39,5.28,60.17,2.26,62.68ZM187.79,141.75c-1.23,34.23,1.29,30.78-22.42,30.63-23.57-.15-21,3.93-21.82-34.46-.77-35.74-1.24-33.56,7.47-34.21,38.66-2.9,38.25-3.32,36.76,38.05Z"/>
</svg>