<?xml version="1.0" encoding="UTF-8"?>
<svg id="Layer_1" data-name="Layer 1" xmlns="http://www.w3.org/2000/svg" viewBox="0 0 256 256">
  <path d="M139.73,170.5c3.8.89,40.85,4.45,44.81,4.3,5.03-.19,6.06,1.5,6.93,11.46,1.85,21.23,13.2,39.14,29.38,46.38,20.53,9.18,30.2-8.04,10.18-18.12-13.05-6.57-18.44-16.39-19.52-35.52-.32-5.77-1.01-15-1.51-20.5-2.5-27.14-2.96-25.15,6.12-26.99,18.05-3.66,26.03-10.43,22.43-19.05-2.6-6.23-7.33-7.38-16.55-4.01-11.26,4.11-13.3,3.98-14.34-.96-3.87-18.3-12.95-28.57-27.44-31.06-2.04-.35-6.34-1.29-9.55-2.09-3.21-.8-12.83-1.85-21.38-2.33-18.04-1.02-17.33-.6-18.36-10.71-.44-4.29-1.1-10.31-1.48-13.36-.56-4.58-.31-6.28,1.44-9.71,5.62-11.02-2.34-19.59-13.61-14.66-8.34,3.65-10.88,16-7.36,35.73,2.25,12.61,2.37,12.58-47.41,9.44-24.98-1.58-27.68-2.26-35.29-8.89-8.93-7.79-15.24,2.71-8.11,13.48,5.31,8.02,14.38,11.92,31.89,13.73,5.22.54,15.8,1.64,23.5,2.46,7.7.81,18.75,1.47,24.55,1.47,13.01,0,12.95-.05,12.95,11.07s-9.67,13.78-31,8c-3.07-.83-11.65-1.89-30.91-3.81-17.48-1.74-40.09,7.79-40.09,16.9,0,6.49,8.34,10,15.22,6.4,7.73-4.03,29.67-4.01,49.02.04,6.12,1.28,26.21,3.34,33.01,3.38,6.98.04,6.77-1.7,6.5,54.44-.27,55.36-.26,55.44,5.93,56.37,7.46,1.12,15.19-24.35,14.05-46.3-1.06-20.41.68-28.25,6-27ZM132.91,111.88c-1.02-1.61-1.23-18.23-.24-19.21,2.93-2.93,42.87,2.12,48.24,6.1,6.09,4.5,7.73,14.92,2.59,16.46-6.93,2.08-48.92-.69-50.59-3.34ZM136.03,135.98c1.22-.76,47.95-.27,50.59.52,1.48.45,2.38,12.45,1.12,14.9-1.44,2.8-48.76.98-51.73-1.99-1.55-1.55-1.54-12.47.02-13.43Z"/>
</svg>