<?xml version="1.0" encoding="UTF-8"?>
<svg id="Layer_1" data-name="Layer 1" xmlns="http://www.w3.org/2000/svg" viewBox="0 0 256 256">
  <path d="M231.07,214.77q-2.93-3.27-16.5-3.07c-15.5.22-15.45.26-9.26-7.08,2.37-2.81,5.84-7.36,7.72-10.11,1.88-2.75,4.13-5.9,5.01-7,2.46-3.08,8.96-18.37,8.96-21.08,0-5.35-.77-4.77-37.4,27.89-20.15,17.97-21.4,18.79-28.85,18.84-4.74.04-19.72-5.91-19.77-7.86-.01-.44-.44-3.72-.94-7.3-5.05-35.48-6.41-108.43-2.63-140.77,3.1-26.52-3.14-40.05-14.41-31.23-3.2,2.5-5.24,2.5-7.5,0-2.25-2.49-14.18-2.7-22-.39-2.75.81-6.62,1.84-8.6,2.27-12.1,2.66-35.18,16.16-45.4,26.55-25.23,25.66-33.57,87.47-16.89,125.21.77,1.73,1.39,3.5,1.39,3.93,0,.83,1.88,5.11,7.7,17.54,4.11,8.77,3.96,9.43-2.2,10.13-15.64,1.76-19.92,20.62-5.62,24.72,1.78.51,10.93.66,20.54.33,17.36-.6,27.83.97,33.24,4.96,15.97,11.78,53.22,11.88,83.33.22,2.32-.9,10.05-1.52,23-1.84,37.43-.93,58.54-12.08,47.07-24.86ZM85.4,209c-1.57,1.57-16.78,2.25-21.56.96-6.69-1.8-19.82-17.23-19.85-23.34,0-.62-.71-2.47-1.57-4.12-6.42-12.31-12.64-38.95-9.76-41.83,4.61-4.61,29.22,3.74,36.95,12.54,9.68,11.02,20.9,50.68,15.79,55.79ZM117.92,42.96c-.4,2.5-1.02,9.72-1.39,16.04-.37,6.33-1.32,16.66-2.1,22.96-1.59,12.8-1.99,109.36-.49,118.53.93,5.67.58,7.17-1.98,8.54-2.99,1.6-4.95-1.34-4.95-7.44,0-9.51-5.07-30.28-10.15-41.59-11.89-26.46-24.15-35.33-49.35-35.72-7.7-.12-14.34-.23-14.75-.25-3.72-.17,3.53-32.7,10.11-45.33,8.78-16.86,34.82-33.57,61.14-39.22,3.58-.77,7.85-1.83,9.5-2.35s3.3-.99,3.67-1.04c1.21-.16,1.48,2.27.75,6.87Z"/>
</svg>