<?xml version="1.0" encoding="UTF-8"?>
<svg id="Layer_1" data-name="Layer 1" xmlns="http://www.w3.org/2000/svg" viewBox="0 0 256 256">
  <defs>
    <style>
      .cls-1 {
        fill: #231f20;
      }
    </style>
  </defs>
  <path class="cls-1" d="M164.58,136.94c12.4,10.89,28.61-1.89,17.26-13.6-4.12-4.25-4.46-6.84-5.42-41.7-.73-26.44-.78-26.91-3.16-29.74-5.37-6.38-11.79-8.92-16.32-6.44-4.67,2.56-5.36,5.97-2.44,12.13,2.28,4.82,2.49,6.2,1.96,13.15-2.21,28.96,1.67,60.53,8.12,66.2Z"/>
  <path class="cls-1" d="M229.76,187.84c-1.25-.09-3.53-.24-5.07-.35-5.15-.36-5.32-1.74-1.36-10.54,8.19-18.18,5.37-17.48-19.82,4.85-7.06,6.26-7.76,6.4-23.18,4.69-7.44-.83-17.94-1.5-23.32-1.5-15.77,0-16.51-4.67-16.51-103.5,0-53.27.36-48.88-4.38-53.62-4.49-4.49-7.25-4.88-13.2-1.84q-4,2.04-6.59,0c-3.75-2.95-20.1-2.98-25.59-.04-2.05,1.1-4.42,2-5.27,2s-4.33,1.15-7.75,2.55c-30.17,12.37-45.85,26.93-54.88,50.95-11.13,29.61-11.51,76.6-.77,96.74,1.41,2.65,1.11,4.97-1.07,8.26-4.67,7.05-1,14.58,8.22,16.85,1.72.42,4.71,3.17,8.13,7.46,21.81,27.33,61.95,44.45,90.94,38.78,3.96-.77,9.12-1.68,11.47-2.01,15.03-2.13,33.84-11.92,48.24-25.11,7.33-6.72,8.88-7.46,15.47-7.47,25.28-.04,36.03-4.55,36.03-15.14,0-5.56-4.96-11.68-9.74-12.01ZM34.44,103.98c6.18-29.08,16.16-41.73,43.53-55.18,4.14-2.04,7.97-3.58,8.51-3.42,1.55.44,1.36,131.52-.19,132.8-.82.68-4.64.64-11.69-.12-9.78-1.05-24.25-.28-29.02,1.55-10.56,4.05-17.73-44.6-11.14-75.63ZM84.01,218.99c-4.22,4.51-7.89,3.25-21.74-7.49-6.18-4.79-6.98-6.29-4-7.43,2.31-.88,17.59-.34,23.73.84,6.68,1.29,7.64,8.05,2.01,14.08ZM109.86,38.91c7.01-5.68,7.22-4.51,5.93,32.78-.82,23.77-.81,37.74.07,55.31,2.42,48.71,1.79,56.03-4.71,54.33-4.69-1.23-5.94-138.65-1.29-142.42ZM117.76,230.75c-4.46,5.52-15.95.49-12.83-5.61,1.33-2.6,2.07-5.97,2.07-9.4,0-2.94.54-5.88,1.2-6.54,1.43-1.43,5.7-1.55,7.79-.23,1.85,1.17,3.37,19.81,1.78,21.78ZM147.69,224.25c-3.53.27-5.44-8.44-2.6-11.86,1.36-1.63,18.55-.96,20.41.8,1.79,1.69-12.67,10.67-17.81,11.06Z"/>
</svg>