<?xml version="1.0" encoding="UTF-8"?>
<svg id="Layer_1" data-name="Layer 1" xmlns="http://www.w3.org/2000/svg" viewBox="0 0 256 256">
  <defs>
    <style>
      .cls-1 {
        fill: #231f20;
      }
    </style>
  </defs>
  <path class="cls-1" d="M210.97,71.13c-4.67,4.81-4.79,4.87-11.03,4.87-4.77,0-6.81.46-8.38,1.88-2.26,2.05-1.45,2.08-36.32-1.16-17.13-1.59-16-.58-16.41-14.72-.44-15.04,6.07-16.71,15.75-4.02,12.21,16.01,25.63,1.95,14.37-15.05-3.03-4.57-13.31-10.91-17.71-10.92-1.24,0-3.93-.9-5.98-2-2.05-1.1-5.41-2-7.45-2-2.32,0-5.11-.94-7.4-2.5-3.96-2.69-3.1-2.63-23.91-1.56-12.02.62-23.46,4.98-33,12.59-2.2,1.75-5.07,3.53-6.38,3.94-3.21,1.01-16.41,14.17-18.59,18.53-4.44,8.87-9.93,11.85-14.29,7.75-3.8-3.57-10.31-3.14-14.41.96-5.67,5.66-4.32,13.78,3.91,23.65,2.07,2.48,4.66,6,5.76,7.83,3.45,5.72,31.65,10.87,33.25,6.07,1.33-3.99,2.08-4.12,25.44-4.42,28-.36,26.04-4.72,22.27,49.66-1.95,28.12-1.89,50.35.16,61.57,2.23,12.17,2.41,11.93-9.32,11.93-9.98,0-10.24-.06-25.8-6.27-6.6-2.63-19.45-14.52-19.49-18.03,0-.44-1.81-3.18-4.01-6.09-2.2-2.91-4-5.62-4-6.01s-2.38-3.95-5.29-7.91c-2.91-3.96-6.29-8.83-7.51-10.83-4.41-7.23-12.11-7.46-15.58-.47-2.54,5.12-1.11,9.84,5.78,19.1,2.86,3.85,8.33,11.92,12.15,17.93,11.49,18.08,22.56,28.42,32.67,30.51,2.35.49,6.98,2.04,10.28,3.45,5.87,2.51,6.51,2.56,29.5,2.57,33.33.01,40.31-2.06,66.6-19.71,6.35-4.26,13.07-8.57,14.94-9.57,4.37-2.34,17.42-14.17,24.31-22.05,5.58-6.38,5.93-7.02,11.18-20.13,1.76-4.4,3.93-9.8,4.82-12,1.33-3.28,1.76-10.39,2.39-39.5.43-19.52.88-38.06,1.01-41.19.59-13.99-13.47-17.86-24.29-6.69ZM88.29,74.06c-26.08.64-30.07-.18-24.04-4.97.69-.55,3.82-3.24,6.96-5.99,3.14-2.75,7.19-5.76,9-6.69,1.81-.93,4.56-2.75,6.12-4.04,2.42-2.02,13.97-8,18.68-9.67,5.49-1.95,7,.56,7.01,11.63,0,5.05.25,10.75.54,12.68q.97,6.44-24.26,7.06ZM216,126.14c0,23.63-.36,25.74-6.43,37.38-.85,1.64-1.56,3.6-1.56,4.35-.02,4.76-18.16,24.1-28.05,29.91-3,1.76-8.6,5.46-12.45,8.21-14.96,10.69-30.38,17.56-33.17,14.77-5.12-5.12-3.22-113.45,2.06-117.3,1.16-.85,3.51-1.17,6.47-.88,38.99,3.82,53.98,4.26,64.08,1.88,9.63-2.27,9.06-3.65,9.06,21.69Z"/>
</svg>