<?xml version="1.0" encoding="UTF-8"?>
<svg id="Layer_1" data-name="Layer 1" xmlns="http://www.w3.org/2000/svg" viewBox="0 0 256 256">
  <defs>
    <style>
      .cls-1 {
        fill: #231f20;
      }
    </style>
  </defs>
  <path class="cls-1" d="M225.36,212.21c-8.91-.57-9.2-.89-5.25-5.84,16.16-20.27,14.44-59.59-3.42-78.16-8.58-8.92-26.49-18.17-35.26-18.2-6.8-.02-6.87-.26-7.6-26.68-.4-14.23-.23-29.58.4-38.1,1.35-18.1-1.53-23.96-10.66-21.67-9.21,2.31-10.8,10-10.48,50.65q.28,35.99-4.61,36.04c-5.07,0-5.03.42-4.64-41.82.27-29.69.06-40.2-.87-42.44-2.62-6.32-11.47-8.83-17.71-5.03-7.52,4.58-7.72,5.83-8.35,50.03-.31,21.73-.64,39.61-.75,39.75-2.49,3.21-3.94-.43-4.57-11.5-.68-11.89-3.31-23.27-6.52-28.21-2.43-3.74-2.05-13.36.81-20.17,5.79-13.81-7.22-23.84-14.85-11.45-8.04,13.06-8.98,26.35-2.8,39.71,3.22,6.97,4.7,13.21,6.15,26.02,1.5,13.18-38.67,10.64-55.01-3.48-11.85-10.24-20.76-3.52-12.53,9.45,8.72,13.76,23.63,20.15,48.63,20.84,21.82.61,19.88-2.42,17.68,27.53-.65,8.8-1.18,23.26-1.18,32.13,0,21.03,3.34,19.46-31.5,14.82-19.17-2.55-29.37-.77-35.47,6.17-11.58,13.19-2.1,28.66,12.79,20.88,4.42-2.31,5.31-2.43,11.73-1.59,3.83.5,12.58,1.63,19.45,2.51,6.88.88,16.56,2.27,21.51,3.08,22.82,3.75,50.98,4.27,81.49,1.53,6.63-.6,22.09-.79,36.5-.46,24.09.56,25.12.51,28.26-1.49,13.63-8.66,6.73-23.71-11.39-24.88ZM116.16,202.9c-1.07,13.68-7.72,14.98-7.59,1.48.09-10.25,3.55-70.75,4.09-71.62.84-1.35,3.12-.8,3.78.91.82,2.13.6,58.13-.27,69.23ZM156.14,212.7c-11.54,2.97-13.98.66-12.99-12.29.37-4.9.72-22.44.77-38.99.05-16.55.39-30.38.75-30.75,1.14-1.14,8.87-.73,10.13.53.77.77,1.22,4.97,1.27,11.75.04,5.8.85,23.15,1.81,38.55,1.92,30.98,1.97,30.24-1.74,31.2ZM186.75,204.67c-6.95,2.06-7.15,1.68-7.84-14.96-.32-7.81-1.2-23.96-1.94-35.88-1.11-17.87-1.12-21.95-.04-23.25,1.61-1.95,1.63-1.95,7.49.05,35.52,12.1,37.14,63.7,2.33,74.04Z"/>
</svg>