<?xml version="1.0" encoding="UTF-8"?>
<svg id="Layer_1" data-name="Layer 1" xmlns="http://www.w3.org/2000/svg" viewBox="0 0 256 256">
  <path d="M214.32,71.84c-6.78,7.89-16.27,8.73-55.32,4.92-16.98-1.66-15.62-.39-16.49-15.44-1.9-32.96-8.22-43.69-21.66-36.74-2.32,1.2-3.69,1.33-5.7.56-5.48-2.11-12.46-2.14-19.65-.08-3.85,1.1-8.62,2.37-10.6,2.81-12.78,2.86-35.27,16.23-46.51,27.66-4.46,4.53-8.99,8.52-10.07,8.87-5.53,1.76-7.6,5.94-7.8,15.81-.11,5.44-.87,11.37-1.84,14.29-7.31,22.17-5.38,64.09,3.92,85.15.77,1.73,1.39,3.5,1.39,3.93,0,1.06,3.19,8.15,8.28,18.42,8.72,17.6,27.75,32.41,56.22,43.76,39.47,15.74,95.21-6.88,123.94-50.31,2.17-3.28,4.68-6.86,5.57-7.96,2.46-3.02,8.99-18.33,8.99-21.08,0-5.34-.92-4.65-37.31,27.77-25.78,22.98-44.05,34.81-50.11,32.48-4.18-1.6-5.52-52.75-2.59-99.1,1.61-25.48,1.73-25.8,9.73-25.01,63.56,6.27,85.7,1.91,92.33-18.18,5.75-17.43-12.54-26.71-24.72-12.54ZM92.17,147.75c-1.93,77.92-6.4,85.8-33.96,59.8-6.04-5.7-14.2-17.71-14.21-20.94,0-.62-.71-2.47-1.57-4.12-1.93-3.7-4.68-11.42-7.94-22.27-4.28-14.26-3.3-51.24,1.61-60.41.79-1.48,1.66-1.84,3.24-1.35,6.38,1.98,12.02,2.43,30.79,2.47,26.29.06,23.35-6.18,22.04,46.8ZM95.32,53.5c-.39,21.37,1.02,20.13-23.92,21.06-20.06.75-23.4.26-23.4-3.48,0-4.8,27.31-22.9,41-27.17,6.16-1.92,6.52-1.38,6.32,9.58ZM112.61,39.58c2.19-5.71,3.25-.71,3.47,16.41.19,14.78-.42,18.16-2.99,16.57-1.16-.72-1.59-30.08-.48-32.97ZM115.86,127.93c-.85,24.49-2.1,31.06-3.2,16.87-.85-10.91-.84-42.28,0-43.13,3.72-3.72,4.12-.46,3.19,26.26ZM108.31,231.98c-7.77.02-8.59-5.52-2.16-14.52.41-.57,1.19-3.83,1.74-7.26s1.28-6.67,1.62-7.22c2.03-3.28,4.88,4.78,6.52,18.42,1.27,10.52,1.24,10.55-7.71,10.57Z"/>
</svg>