<?xml version="1.0" encoding="UTF-8"?>
<svg id="Layer_1" data-name="Layer 1" xmlns="http://www.w3.org/2000/svg" viewBox="0 0 256 256">
  <defs>
    <style>
      .cls-1 {
        fill: #231f20;
      }
    </style>
  </defs>
  <path class="cls-1" d="M73.05,100.99c7.26,0,8.77,6.17,5.89,24.01-1.92,11.86-11.94,15.91-19.5,7.88-8.4-8.94-19.85-6.33-19.69,4.48.17,11.12,9.15,18.65,22.23,18.65,11.19,0,12.04,2.14,8.43,21.14-3.35,17.61-.68,28.86,6.84,28.86,5.25,0,10.72-7.93,10.74-15.57,0-1.14.65-4.29,1.45-7,.79-2.71,1.89-9.06,2.44-14.09,1.84-16.88,4.88-20.23,24.12-26.62,14.72-4.89,17-4.41,17,3.58,0,34.91,18.83,56.83,39.9,46.45,36.49-17.97,31.08-71.9-7.75-77.33-11.93-1.67-11.51-1.1-10.11-13.54,1.81-16.12,4.49-17.46,14.96-7.48,7.27,6.93,12.52,7.73,17.91,2.7,8.99-8.4-3.38-26.04-20.49-29.2-10.12-1.87-8.87,1.71-11.04-31.65-1-15.35-6.89-20.46-12.98-11.26-2.43,3.67-2.7,5.17-3.43,18.75-.89,16.46-1.76,23.02-3.17,23.89-1.86,1.15-25.63,6.29-29.38,6.35-1.26.02-3.42-4.28-3.4-6.78.21-24.64-24.84-47.45-44.43-40.46-32.65,11.66-21.31,74.21,13.46,74.25ZM153.71,136.14c2.49-1.39,12.38-.23,15.29,1.79,12.37,8.62,7.11,37.06-6.85,37.06-4.58,0-12.53-36.57-8.44-38.86ZM100.07,117.69c.2-16.97,1.96-20.11,12.55-22.3,3.78-.78,9.58-2.06,12.88-2.83,7.67-1.79,7.87-1.8,9.3-.37,1.68,1.68,1.5,5.42-.72,14.7-2.42,10.13-1.87,9.45-9.29,11.49-3.46.95-9.98,2.87-14.49,4.27-9.9,3.07-10.33,2.87-10.24-4.96ZM63.89,50.12c6.52-6.98,12.66-1.48,18.04,16.15,3.4,11.15,2.61,13.73-4.2,13.73-11.98,0-21.85-21.31-13.84-29.88Z"/>
</svg>