<?xml version="1.0" encoding="UTF-8"?>
<svg id="Layer_1" data-name="Layer 1" xmlns="http://www.w3.org/2000/svg" viewBox="0 0 256 256">
  <path d="M233.83,216c-.99-1.38-2.96-8.12-4.36-15-1.41-6.88-3.19-14.75-3.95-17.5-3.11-11.19-5.52-21.36-5.52-23.34,0-3.24-4.39-15.92-8.55-24.72-10.13-21.4-21.18-32.44-42.2-42.15-7.12-3.29-9.74-4.29-24.75-9.43-9.82-3.36-9.58-2.38-6.87-27.73,2.36-22.12-.57-32.13-9.41-32.13-7.19,0-9.52,6.39-11.29,30.99-1.98,27.46.6,24.75-24.48,25.66q-18.74.68-17.85-4.73c1.34-8.17,1.02-17.21-.78-21.54-10.3-24.87-12.25-26.9-28.81-29.93-7.48-1.37-11.49-1.56-15.75-.74-15.53,2.99-11.41,18.52,5.2,19.61,12.64.83,14.04,1.97,18.98,15.45,5.02,13.67-4.92,25.21-21.73,25.22-6.23,0-10.02,2.05-12.15,6.55-4.37,9.21,6.09,18.01,18.25,15.35,2.59-.57,18.2-1.85,34.7-2.86,16.5-1.01,31.62-2.14,33.6-2.51,7.14-1.35,6.9-3.08,6.98,48.81.04,25.4.41,48.52.82,51.38,1.39,9.74,3.73,9.26-46.39,9.59-47.41.31-50.67,1.15-52.13,13.42-1.49,12.6-.61,12.79,57.64,12.46,43.8-.25,51.12-.07,59.71,1.46,14.9,2.64,67.24,2.65,75.79.01,4.65-1.44,7.69-1.72,13.5-1.24,14.66,1.2,20.35-8.61,11.83-20.41ZM207.82,207.01c-.42,5.89-2.26,6.28-29.82,6.4-25.75.11-36.1-2.95-37.41-11.06-3.38-20.96-7.23-91.62-5.27-96.73.82-2.14,3.68-2.05,8.91.3,2.35,1.06,6.75,2.88,9.78,4.05,18.95,7.34,28.28,15.62,36.94,32.79,4.06,8.06,9.06,23.24,9.06,27.5,0,1.23.86,5.39,1.91,9.24,5.5,20.17,6.21,23.45,5.91,27.51Z"/>
</svg>