<?xml version="1.0" encoding="UTF-8"?>
<svg id="Layer_1" data-name="Layer 1" xmlns="http://www.w3.org/2000/svg" viewBox="0 0 256 256">
  <path d="M136.93,24.75c-5.73,5.38-6.92,10.62-7.93,35.13-.47,11.21-1.26,20.79-1.76,21.29-2.34,2.34-3.11-2.69-3.78-24.68-.71-23.2-1.03-25.16-4.75-29.24-6.69-7.35-9.1-2.44-9.76,19.92-.62,21.2-1.34,23.59-6.01,20.06-5.6-4.24-28.12-17.99-36.93-22.54-10.79-5.58-14.33-7.6-21.71-12.38-15.41-9.98-25.29-10.81-25.29-2.14,0,2.53,2.7,5.83,4.77,5.83,1.38,0,8.03,3.75,10.73,6.04,3.78,3.22,12.31,8.84,18.11,11.93,3.2,1.71,10.11,6.01,15.35,9.57,32.48,22.02,40.46,28.53,39.87,32.49-.36,2.41-.49,2.51-8.6,6.04-20.18,8.78-19.3,45.43,1.33,55.75,6.99,3.5,6.81,2.66,6.14,28.32q-.6,23.06-4.16,28.22c-10.03,14.56,6.28,22.86,18.94,9.65,3.08-3.22,3.36-8.24,3.5-63.33,0-.46.56-.65,1.25-.42.95.32,1.25,5.9,1.26,23.33,0,22.08.1,23.12,2.43,28.42,7.56,17.12,22.88,22.02,29.64,9.48,2.24-4.17,2.41-4.19,5.5-.89,10.01,10.72,25.1,10.79,36.77.19,14.17-12.88,14.88-41.68,1.68-67.74-3.45-6.8-3.29-7.56,2.89-14.04,16.35-17.14,4.52-30.78-12.46-14.39-8.19,7.9-5.81,8.63-22.85-7.02-17.18-15.78-15.95-11.81-15.59-50.6.41-43.93-4.61-55.35-18.58-42.25ZM101.44,140.58c-3.19-2.33-2.79-20.07.51-22.74,4.05-3.28,4.54-2.05,4.61,11.5.06,13.61-.42,14.68-5.12,11.24ZM185.75,169.58c5.04-5.04,10.61,18.08,7.29,30.29-3.25,11.97-14.45,12.16-16.68.29-1.07-5.73,5.3-26.48,9.39-30.57ZM156.6,133.83c1.13-1.82,3.49-.57,10.05,5.33,9.79,8.81,9.9,9.12,5.62,16.34-6.67,11.26-11.34,21.54-12.4,27.26-1.33,7.18-1.95,8.2-3.14,5.15-.96-2.45-1.07-52.56-.12-54.09Z"/>
</svg>