<?xml version="1.0" encoding="UTF-8"?>
<svg id="Layer_1" data-name="Layer 1" xmlns="http://www.w3.org/2000/svg" viewBox="0 0 256 256">
  <path d="M229.5,20.17c-.55.08-2.57.31-4.5.5s-7.55,1.02-12.5,1.83c-31.73,5.25-36.59,5.5-109.43,5.5q-68.79,0-75.41-3c-16.14-7.32-24.5,4.61-10.49,14.97,10.4,7.69,8.97,7.48,54.83,8.03,22.82.27,42.06.86,42.75,1.31,2.14,1.38,1.84,5.22-4.32,54.69-.86,6.88-1.81,23.08-2.13,36-.69,28.29-.39,27.44-9.16,26.68-60.35-5.22-73.06-4.51-80.6,4.45-6.73,8-.98,16.15,7.68,10.87,3.92-2.39,8.52-2.52,15.27-.45,2.94.9,12.43,1.94,23,2.5,9.9.53,20.25,1.39,23,1.89s7.33.95,10.19.98c7.89.09,10.31,1.34,10.31,5.32,0,4.54,4.7,32.82,6.04,36.35,3.49,9.17,6.85,12.39,12.94,12.39,7.27,0,11.84-10.52,7.36-16.92-1.65-2.35-6.27-25.62-6.32-31.81-.03-3.92.22-3.99,15.97-4.6,6.32-.25,14.43-1.14,18-1.98,3.57-.84,10.32-2.27,15-3.18,15.46-3,17.21-3.47,20.87-5.65,17.97-10.72,21.42-22.02,21.81-71.55.31-39.83.88-44.47,6.36-52.31.97-1.38,2.28-4.44,2.91-6.81,1-3.71,1.76-4.56,5.49-6.16,11.92-5.11,7.77-21.82-4.94-19.86ZM198.86,132.12c-1.76,24.47-3.91,26.32-38.36,32.92-3.3.63-7.8,1.54-10,2.01-6.34,1.36-21.25,1.16-22.19-.31-1.04-1.61-.36-47.92.72-49.25,1.39-1.71,32.24-1.76,41.4-.06,4.44.82,12.35,1.79,17.57,2.14,11.76.81,11.71.74,10.86,12.54ZM203.45,52.54c-2.95,8.15-4.89,24.57-4.1,34.79.99,12.82-.16,13.34-22.07,10.05-8.26-1.24-14.05-1.46-24.78-.93-7.7.38-15.57.78-17.5.87-4,.2-3.88,1.66-2.47-30.61.89-20.3-2.26-18.32,30.16-19.06,14.75-.34,28.84-1.02,31.31-1.51,11.7-2.32,12.43-1.83,9.45,6.4Z"/>
</svg>