<?xml version="1.0" encoding="UTF-8"?>
<svg id="Layer_1" data-name="Layer 1" xmlns="http://www.w3.org/2000/svg" viewBox="0 0 256 256">
  <path d="M74.29,178.06c-7.65-.79-12.98-.81-18.29-.07-4.12.57-11.41,1.48-16.2,2.02-14.73,1.65-20.84,5.44-20.77,12.89.08,9.53,3.37,10.52,36.68,11.11,30.85.55,30.64.5,31.85,6.57.5,2.49-.06,3.92-3.01,7.79-5.99,7.85-5.7,14.42.76,17.12,9.4,3.93,21.53-6.61,21.65-18.8.06-6.38,1.39-8.68,5.01-8.68,4.69,0,6.04,2.23,6.04,10.01,0,10.65,2.97,16.06,9.85,17.96,8.59,2.37,16.15-5.62,16.15-17.09,0-8.85,1.11-8.99,40.91-5.18,27.44,2.63,46.01.43,52.09-6.16,5.67-6.14.81-19.32-7.24-19.64-1.25-.05-12.93-.16-25.96-.25-28.25-.19-27.94-.06-19.79-8.67,19.74-20.87,19.73-46.72-.03-60.7-4.84-3.42-4.88-4.07-.52-8.69,10.09-10.7,12.4-31.45,4.46-40.06-3.67-3.99-20.65-13.54-24.05-13.54-4.04,0-11.04-3.43-13.95-6.83-1.72-2.02-4.66-5.43-6.53-7.58-2.22-2.55-3.4-4.94-3.4-6.87,0-6.65-9.15-12.35-15.63-9.74-8.28,3.34-10.63,40.32-7.97,125.64,1,32.01.95,32.32-5.18,30.72-3.56-.93-3.6-1.88-3.81-77.67q-.2-73.81-2.49-76.25c-4.54-4.84-11.15-2.82-14.99,4.56-1.99,3.84-3.21,52.77-2.53,102.13.69,50.3,2.12,45.5-13.12,43.93ZM178.15,140.61c7.56,14.17-22.47,41.94-33.46,30.94-2.92-2.92-4.43-41.82-1.69-43.59,2.01-1.3,11.17-.24,18.25,2.12,3.17,1.05,6.21,1.92,6.76,1.92,2.43,0,8.12,4.84,10.13,8.61ZM140.75,70.25c.77-2.05,20.59,4.41,28.14,9.18,11.99,7.57-2.11,25.57-20.03,25.57-8.24,0-13.19-21.22-8.11-34.75Z"/>
</svg>