<?xml version="1.0" encoding="UTF-8"?>
<svg id="Layer_1" data-name="Layer 1" xmlns="http://www.w3.org/2000/svg" viewBox="0 0 256 256">
  <defs>
    <style>
      .cls-1 {
        fill: #231f20;
      }
    </style>
  </defs>
  <path class="cls-1" d="M229.76,187.84c-1.25-.09-3.53-.24-5.07-.35-5.15-.36-5.32-1.74-1.36-10.54,8.19-18.18,5.37-17.48-19.82,4.85-7.06,6.26-7.76,6.4-23.18,4.69-7.44-.83-17.94-1.5-23.32-1.5-15.81,0-16.51-4.41-16.51-103,0-53.84.36-49.37-4.38-54.12-4.49-4.49-7.25-4.88-13.2-1.84q-4,2.04-6.59,0c-3.75-2.95-20.1-2.98-25.59-.04-2.05,1.1-4.66,2-5.8,2-3.34,0-22.23,9.03-32.48,15.54C18.41,65.13,1.57,139.78,22.07,178.24c1.41,2.65,1.11,4.97-1.07,8.26-4.67,7.05-1,14.58,8.22,16.85,1.72.42,4.71,3.17,8.13,7.46,8.3,10.4,21.4,21.07,32.81,26.72,2.94,1.46,6.49,3.25,7.88,3.99,32.65,17.28,79.07,9.24,109.96-19.06,7.33-6.72,8.88-7.46,15.47-7.47,25.28-.04,36.03-4.55,36.03-15.14,0-5.56-4.96-11.68-9.74-12.01ZM34.03,105.5c5.99-29.77,16.36-43.15,43.93-56.7,4.14-2.04,7.98-3.57,8.53-3.42,1.05.3,1.15,8.36.74,60.12-.27,33.55.55,31.26-9.44,26.5-5.77-2.75-10.33-4.27-21.29-7.12-2.2-.57-8.5-.89-14-.71-11.91.39-12.18-.21-8.47-18.67ZM42.42,179.21c-4.8-2.69-13.04-35.26-9.75-38.55,4.75-4.75,38.33,7.68,46.49,17.2,11.19,13.08,10.58,21.64-1.47,20.44-10.45-1.04-22.77-.73-28.82.72-3.08.74-5.33.8-6.44.18ZM84.01,218.99c-4.22,4.51-7.89,3.25-21.74-7.49-6.18-4.79-6.98-6.29-4-7.43,2.31-.88,17.59-.34,23.73.84,6.68,1.29,7.64,8.05,2.01,14.08ZM109.86,38.91c6.99-5.66,7.24-4.36,5.95,31.8-.83,23.39-.8,37.76.14,59.79,2.01,47.26,1.08,55.73-5.34,48.63-4.58-5.06-5.29-136.55-.76-140.22ZM117.76,230.75c-4.46,5.52-15.95.49-12.83-5.61,1.21-2.36,2.07-5.98,2.07-8.66,0-2.53.47-5.48,1.03-6.54,1.11-2.08,5.38-2.59,7.95-.96,1.85,1.17,3.37,19.81,1.78,21.78ZM147.69,224.25c-3.53.27-5.44-8.44-2.6-11.86,1.36-1.63,18.55-.96,20.41.8,1.79,1.69-12.67,10.67-17.81,11.06Z"/>
</svg>