<?xml version="1.0" encoding="UTF-8"?>
<svg id="Layer_1" data-name="Layer 1" xmlns="http://www.w3.org/2000/svg" viewBox="0 0 256 256">
  <defs>
    <style>
      .cls-1 {
        fill: #231f20;
      }
    </style>
  </defs>
  <path class="cls-1" d="M214.32,71.84c-6.78,7.89-16.27,8.73-55.32,4.92-16.98-1.66-15.62-.39-16.49-15.44-1.9-32.96-8.22-43.69-21.66-36.74-2.32,1.2-3.69,1.33-5.7.56-5.48-2.11-12.46-2.14-19.65-.08-3.85,1.1-8.62,2.37-10.6,2.81-12.78,2.86-35.27,16.23-46.51,27.66-4.46,4.53-8.99,8.52-10.07,8.87-5.53,1.76-7.6,5.94-7.8,15.81-.11,5.44-.87,11.37-1.84,14.29-7.31,22.17-5.38,64.09,3.92,85.15.77,1.73,1.39,3.5,1.39,3.93,0,18.2,32.01,49.99,61.5,61.08,49.76,18.71,113.04-12.31,137.75-67.52,9.08-20.3,7.38-19.43-33.56,17.04-25.78,22.98-44.05,34.81-50.11,32.48-4.18-1.6-5.52-52.87-2.6-99.1,1.61-25.48,1.73-25.8,9.73-25.01,63.56,6.27,85.7,1.91,92.33-18.18,5.75-17.43-12.54-26.71-24.72-12.54ZM112.61,39.58c2.19-5.71,3.25-.71,3.47,16.41.19,14.78-.42,18.16-2.99,16.57-1.16-.72-1.59-30.08-.48-32.97ZM115.86,127.31c-.89,24.64-2.12,31.4-3.2,17.54-.85-10.95-.85-42.33,0-43.18,3.71-3.71,4.13-.39,3.19,25.64ZM81.62,220.23c-6.96,4.57-37.56-22.78-37.63-33.62,0-.62-.71-2.47-1.57-4.12-5.75-11.02-12.07-35.52-9.76-37.83,5.23-5.23,31.37,4.47,41.99,15.58,15.06,15.75,19.26,51.92,6.96,59.99ZM92.77,124.07c-.57,23.52-.8,24.08-7.26,17.71-9.56-9.42-31.99-17.35-46.96-16.58-7.71.39-8.95-9.68-2.96-24.06,1.18-2.83,1.76-3.26,3.66-2.67,6.51,2.01,12.05,2.46,30.88,2.5,25.68.06,23.27-2.41,22.64,23.11ZM95.29,58.75c-1.21,14.4-29.11,23.91-45.09,15.36-7.19-3.85,18.85-24.1,38.8-30.17,7.24-2.2,7.64-1.26,6.29,14.82ZM108.31,231.98c-7.77.02-8.59-5.52-2.16-14.52.41-.57,1.19-3.83,1.74-7.26s1.32-6.74,1.71-7.37c1.94-3.14,4.74,4.98,6.41,18.57,1.29,10.52,1.27,10.55-7.69,10.57Z"/>
</svg>