<?xml version="1.0" encoding="UTF-8"?>
<svg id="Layer_1" data-name="Layer 1" xmlns="http://www.w3.org/2000/svg" viewBox="0 0 256 256">
  <path d="M217.19,129.97c-15.19,4.7-36.92,1.86-32.75-4.28,13.01-19.17,6.58-35.85-14.58-37.81-5.01-.46-11.85-1.34-15.19-1.94-3.34-.61-9.02-.97-12.62-.8-9.74.45-9.1,2.51-9.02-28.8.09-32.38-1.62-37.51-10.35-31.08-3.92,2.89-5.82,13.95-6.39,37.25-.66,26.62-.01,25.03-10.5,25.82-4.56.34-10.51,1.31-13.21,2.15-14.03,4.35-27.08-3.74-29.01-17.98-1.89-14.01-7.56-15.44-9.69-2.44-4.47,27.26,16.16,40.69,52.7,34.31,4.93-.86,6.41,1.43,6.39,9.95-.02,10.57,1.58,9.9-24.12,10.07-18.41.13-23.52.48-28.87,2-12.35,3.51-26.73,2.85-32.08-1.47-6.35-5.13-6.63-5.22-8.89-2.96-2.59,2.59-2.6,6.9-.03,11.82,5.92,11.36,19.68,15.77,36.49,11.68,6.72-1.63,33.73-3.13,37.84-2.1,4.13,1.04,3.17,3.15-2.77,6.05-14.18,6.94-22.61,22.34-19.21,35.12,4.34,16.28,17.42,25.22,32.84,22.43,8.02-1.45,8.8-.54,8.8,10.26,0,16.06,8,23.23,15.9,14.24q3.1-3.54,3.12-18.25c.02-17.58-.49-16.59,9.59-18.64,13.55-2.76,19.4-.57,19.4,7.25,0,11.34,15.47,13.38,19.05,2.52,6.12-18.55-9.92-33.35-33.45-30.86-15.35,1.63-14.07,2.53-14.39-10.14-.42-16.61,1.15-17.27,32.78-13.85,44.92,4.86,74-.38,74-13.33,0-8.41-7.65-10.58-21.81-6.2ZM111.25,183.21c-6.67,5.79-16.3,5.36-19.13-.85-2.91-6.38.27-11.29,11.2-17.33,9-4.97,16.03,11.15,7.93,18.18ZM166.52,115.41c-8.23,8.23-31.67,13.92-34.62,8.41-1.19-2.22-.76-16.62.55-18.76,1.08-1.75,17.26-1.2,27.54.94,5.22,1.09,9.61,1.98,9.75,1.99,1.51.08-.5,4.7-3.23,7.42Z"/>
</svg>