<?xml version="1.0" encoding="UTF-8"?>
<svg id="Layer_1" data-name="Layer 1" xmlns="http://www.w3.org/2000/svg" viewBox="0 0 256 256">
  <defs>
    <style>
      .cls-1 {
        fill: #231f20;
      }
    </style>
  </defs>
  <path class="cls-1" d="M84.89,88c4.15,5.23,11.53,14.16,16.41,19.86,10.16,11.87,10.1,11.5,3.44,21.35-6,8.9-6.45,9.65-9.31,15.78-2.47,5.29-5.52,14.29-8.85,26.09-15.14,53.6,56.84,83.55,97.18,40.43,18.16-19.41,18.64-24.72,3.47-38.28-4.14-3.7-11.12-11.23-15.52-16.73-4.4-5.5-14.29-16.36-21.98-24.14-8.12-8.21-13.7-14.61-13.3-15.25.38-.61,3.58-4.95,7.12-9.64,8.45-11.2,16.45-29.09,16.45-36.77,0-1.08.53-3.73,1.17-5.88,6.83-22.78-28.69-47.09-58.17-39.83-15.28,3.77-29.48,9.12-35.22,13.28-3.4,2.47-4.48,2.74-8.35,2.16-12.55-1.88-9.87,6.7,8.61,27.56,5.12,5.77,12.7,14.77,16.84,20ZM156.39,167.5c4.33,5.5,10.78,12.77,14.33,16.15,7.54,7.19,7.59,6.73-1.84,16.81-10.95,11.71-28.27,17.78-38.5,13.49-19.02-7.97-25.72-13.37-26.97-21.75-.94-6.3.2-20.54,1.92-23.91.79-1.54,1.76-4.38,2.17-6.3,1.34-6.34,11.56-25.18,14.72-27.14,2.77-1.71,20.36,15.09,34.17,32.64ZM109.52,43.06c24.44-3.79,39.22,9.04,32.48,28.2-1.1,3.13-2,6.37-2,7.19,0,3.81-12.16,22.49-15.96,24.53-2.22,1.19-1.88,1.51-16.04-15.44-6.87-8.23-16.44-19-21.26-23.95-4.82-4.95-8.64-9.39-8.48-9.86.59-1.77,22.84-9.36,31.26-10.67Z"/>
</svg>