<?xml version="1.0" encoding="UTF-8"?>
<svg id="Layer_1" data-name="Layer 1" xmlns="http://www.w3.org/2000/svg" viewBox="0 0 256 256">
  <defs>
    <style>
      .cls-1 {
        fill: #231f20;
      }
    </style>
  </defs>
  <path class="cls-1" d="M189.5,194.41c-26.08,23.27-29.5,25.16-29.5,16.27,0-1.07-.93-3.45-2.07-5.28-2.74-4.43-3.34-125.97-.65-132.39.8-1.92,1.78-5.97,2.16-8.99,3.16-24.98,44.64-21.82,44.54,3.4-.02,5.94-1.88,9.27-12.86,23.09-18.47,23.24-24.29,55.85-6.94,38.89,40.85-39.95,50.31-70.11,28.3-90.23-12.63-11.55-35.31-15.77-49.03-9.13-5.73,2.78-7.09,2.51-9.9-1.94-5.16-8.17-10.36-9.21-16.63-3.34-5.93,5.56-7.55,13.67-8.34,41.75-1.36,48.44-3.16,49.19-4.66,1.95-1.48-46.56-4.06-50.25-29.95-42.9-3.01.85-7.09,1.91-9.07,2.34-12.07,2.64-35.18,16.15-45.4,26.55-25.23,25.66-33.57,87.47-16.89,125.21.77,1.73,1.39,3.5,1.39,3.93,0,18.2,32.01,49.99,61.5,61.08,43.75,16.45,97.21-4.27,126.94-49.21,2.17-3.28,4.68-6.86,5.57-7.96,2.46-3.02,8.99-18.33,8.99-21.08,0-5.36-.73-4.81-37.5,27.99ZM108.27,70.02c-.64,23.6-1.01,28.39-2.27,29.01-.82.41-3.87,1.78-6.77,3.04-20.18,8.78-19.3,45.43,1.33,55.75,6.98,3.49,6.8,2.67,6.17,28.28q-.57,23.02-4.29,28.42c-4.07,5.91-4.38,11.59-.79,14.22,4.41,3.22-7.13,1.12-14.41-2.62-.96-.49-4.67-2.34-8.25-4.11-16.2-8.02-35-26.94-35-35.24,0-.57-.84-2.89-1.88-5.15-8.35-18.28-10.12-26.61-10.12-47.55,0-53.96,19.3-80.46,68.5-94.03,8.82-2.43,8.66-3.04,7.77,29.98ZM101.44,140.58c-3.19-2.33-2.79-20.07.51-22.74,4.05-3.28,4.54-2.05,4.61,11.5.06,13.61-.42,14.68-5.12,11.24ZM131.25,228.94c-3.71.63-8.24,1.62-10.06,2.2-4.42,1.41-8.86.37-7.16-1.68.67-.8,1.74-1.46,2.39-1.46,7.68,0,8.42-5.78,8.57-67.33,0-.46.56-.65,1.25-.42.95.32,1.25,5.9,1.26,23.33,0,25.64.67,28.7,8.27,38.12,4.22,5.23,3.86,5.81-4.52,7.23Z"/>
</svg>