<?xml version="1.0" encoding="UTF-8"?>
<svg id="Layer_1" data-name="Layer 1" xmlns="http://www.w3.org/2000/svg" viewBox="0 0 256 256">
  <path d="M135.96,19.48c-3.66-1.89-5.96-1.87-8.75.09-6.94,4.86-6.46-.89-9.04,107.5-.99,41.55-.24,39.85-15.6,35.03-41.19-12.92-89.57-2.01-89.57,20.21,0,6.01,7.59,7.32,10.44,1.81,5.86-11.33,43.11-12.33,76.33-2.05,3.45,1.07,7.3,1.94,8.56,1.94,5.36,0,5.87,1.45,5.5,15.88-.4,16.13.09,15.58-14.56,16.47-5.92.36-12.57,1.1-14.77,1.63-6.84,1.66-42.36,1.26-50.19-.57-19.6-4.57-24.76,6.44-7.48,15.96,10.11,5.57,46.35,7.83,65.98,4.1,12.46-2.36,114.8-2.42,124.48-.06,11.61,2.82,20.67-3.51,17.6-12.3-2.59-7.43-22.09-11.77-44.79-9.95-13.97,1.12-51.48.24-54.31-1.28-5.47-2.93-1.63-26.82,4.08-25.38,47.75,11.99,84.04-11.37,78.17-50.31-2.72-18.07-2.58-67.88.21-73.87,3.1-6.66,8.35-13.49,12.6-16.41,8.33-5.72,10.46-13.96,4.93-19.11-12.65-11.81-38.77,17.66-39.61,44.7-.47,15.15.16,14.49-14.04,14.53-6.4.02-14.84.45-18.78.96-26.17,3.4-24.58,5.62-24.07-33.49.46-35.64.61-33.99-3.32-36.02ZM151.19,109.75c6.22.1,13.33-.2,15.81-.66,27.65-5.14,31.37-.53,30.15,37.41-.48,14.82-13.85,26.41-29,25.13-10.68-.9-29.53-3.69-30.25-4.48-9.12-9.96,1.91-57.59,13.29-57.41Z"/>
</svg>