<?xml version="1.0" encoding="UTF-8"?>
<svg id="Layer_1" data-name="Layer 1" xmlns="http://www.w3.org/2000/svg" viewBox="0 0 256 256">
  <path d="M224.84,31.36c-16.1,7.2-27.46,25.05-29.37,46.14-.93,10.3-1.59,11.5-6.26,11.5-5.28,0-35.7,2.9-41.97,4.01-9.47,1.67-9.61,1.35-9.46-21.51.23-34.01-8.44-59.28-17.06-49.75-3.23,3.56-3.42,7.13-3.05,55.98.44,58.56,1.99,52.73-14.32,53.73-5.97.37-14.68,1.34-19.35,2.16-24.67,4.34-43.02,4.86-52.46,1.5-10.98-3.91-17.54-1.71-17.54,5.89,0,8.93,22.81,18.44,40.09,16.72,19.25-1.92,27.84-2.98,30.91-3.81,21.33-5.78,31-3.29,31,8s.06,11.08-12.95,11.07c-5.8,0-16.85.66-24.55,1.47-7.7.81-18.28,1.92-23.5,2.46-17.51,1.81-26.58,5.71-31.89,13.73-7.14,10.77-.82,21.27,8.11,13.48,7.6-6.63,10.31-7.31,35.29-8.89,49.78-3.14,49.66-3.16,47.41,9.44-2.53,14.17-1.95,25.37,1.59,30.39,9.5,13.47,26.77,5.17,19.38-9.31-1.75-3.43-2-5.13-1.44-9.71.38-3.06,1.04-9.07,1.48-13.36,1.03-10.11.31-9.69,18.36-10.71,8.55-.48,18.17-1.53,21.38-2.33,3.21-.8,7.59-1.75,9.72-2.12,14.41-2.48,23.4-12.7,27.28-31.03,1.05-4.94,3.08-5.07,14.34-.96,9.22,3.37,13.95,2.22,16.55-4.01,3.57-8.55-4.41-15.32-22.43-19.03-9.08-1.87-8.62.17-6.13-27.01.5-5.5,1.18-14.73,1.5-20.5,1.05-18.98,6.5-28.94,19.4-35.44,20.14-10.15,10.61-27.43-10.04-18.2ZM180.67,167.43c-36.68,7.29-44.08,6.63-44.47-3.93-.51-13.76-.94-13.4,17.25-14.48,15.77-.94,31.42-1,34.55-.13,6.64,1.85.68,16.95-7.32,18.54ZM192.07,121c-.64,7.26-51.87,12.37-53.26,5.31-2.16-10.95.31-13.05,16.69-14.19,35.92-2.5,37.55-2.11,36.57,8.88Z"/>
</svg>