<?xml version="1.0" encoding="UTF-8"?>
<svg id="Layer_1" data-name="Layer 1" xmlns="http://www.w3.org/2000/svg" viewBox="0 0 256 256">
  <defs>
    <style>
      .cls-1 {
        fill: #231f20;
      }
    </style>
  </defs>
  <path class="cls-1" d="M25.22,129.57c7.73-4.03,29.67-4.01,49.02.04,6.12,1.28,26.21,3.34,33.01,3.38,6.98.04,6.77-1.7,6.5,54.44-.24,49.86-.22,50.46,1.85,53.25,8.69,11.68,19.3-14.38,18.13-44.54-.8-20.82.62-26.89,6-25.63,3.8.89,40.85,4.45,44.81,4.3,5.03-.19,6.06,1.5,6.93,11.46,1.85,21.23,13.2,39.14,29.38,46.38,20.53,9.18,30.2-8.04,10.18-18.12-13.05-6.57-18.44-16.39-19.52-35.52-.32-5.77-1.01-15-1.51-20.5-2.5-27.13-2.96-25.14,6.12-27.01,18.02-3.71,26-10.48,22.43-19.03-2.76-6.61-7.13-7.4-18.8-3.4-11.03,3.78-11.28,3.71-12.68-3.69-2.23-11.77-9.08-22.16-16.79-25.46-5.41-2.32-5.6-1.68,3.18-10.4,15.36-15.26,19.51-33.63,9.78-43.35-6.39-6.39-14.43-8.77-20.84-6.18-10.96,4.43-14.19,19.86-5.78,27.59,8.13,7.47.31,12.96-25.63,17.99-4.68.91-10.47,2.31-12.87,3.13-5.68,1.92-6.4,1.14-7.3-7.96-.39-3.97-1.02-9.94-1.39-13.26-.57-5.13-.36-6.55,1.44-9.5,8.33-13.66-10.06-22.25-19.38-9.04-3.54,5.01-4.12,16.21-1.59,30.39,2.25,12.61,2.37,12.58-47.41,9.44-24.98-1.58-27.68-2.26-35.29-8.89-8.93-7.79-15.24,2.71-8.11,13.48,5.31,8.02,14.38,11.92,31.89,13.73,5.22.54,15.8,1.64,23.5,2.46,7.7.81,18.75,1.47,24.55,1.47,13.01,0,12.95-.05,12.95,11.07s-9.67,13.78-31,8c-3.07-.83-11.65-1.89-30.91-3.81-17.48-1.74-40.09,7.79-40.09,16.9,0,6.49,8.34,10,15.22,6.4ZM187.75,151.4c-1.44,2.8-48.76.98-51.73-1.99-1.55-1.55-1.54-12.47.02-13.43,1.22-.76,47.95-.27,50.59.52,1.48.45,2.38,12.45,1.12,14.9ZM132.67,92.67c2.93-2.93,42.87,2.12,48.24,6.1,18.15,13.42,1.31,19.95-40.22,15.58-7.65-.8-13.38-16.31-8.02-21.67Z"/>
  <path class="cls-1" d="M232.5,62.25c-3.98-3.43-10.86-3.15-14.35.59-11.38,12.21,2.16,30.18,14.76,19.58,5.14-4.32,4.91-15.58-.42-20.17Z"/>
</svg>