<?xml version="1.0" encoding="UTF-8"?>
<svg id="Layer_1" data-name="Layer 1" xmlns="http://www.w3.org/2000/svg" viewBox="0 0 256 256">
  <path d="M24,183.58c0,14.05,26.2,44.39,47,54.42,2.48,1.19,5.64,2.78,7.04,3.52,47.95,25.42,119.16-6.15,145.21-64.37,9.06-20.26,7.23-19.34-32.96,16.54-25.59,22.85-37.79,31.31-45.11,31.31-3.58,0-4.18-5.83-4.18-41,0-28.56-1.95-26.14,22.52-27.97,7.69-.58,20.68-1.77,28.86-2.65,8.94-.96,17.52-1.34,21.5-.94,3.64.36,8.87.88,11.62,1.15,13.41,1.32,18.99-12.88,8.57-21.8-6.97-5.97-18.2-7.85-34.6-5.79-4.39.55-16.3,1.68-26.47,2.51-10.17.83-21.26,1.79-24.64,2.13-8.17.82-7.73,3.79-7.06-48.14.28-21.81-4.29-54.38-8.05-57.25-2.71-2.08-6.91-1.5-9.07,1.25-2.35,2.99-4.27,3.16-6.6.59-2.63-2.91-13.24-6.1-14.86-4.48-.67.67-12.03,4.04-17.82,5.29-3.26.7-5.51,1.62-16.9,6.92-32.56,15.14-48.21,38.75-52.47,79.18-2.96,28.07-.84,47.74,7.08,65.65.77,1.73,1.39,3.5,1.39,3.93ZM114.24,37.43c1.05-1.33,2.78-2.43,3.84-2.43,2.55,0,2.85,42.38.46,64-.82,7.42-1.84,18-2.26,23.49-.76,9.84-2.79,13.81-4.62,9.04-1.73-4.52.66-91.66,2.59-94.11ZM108.02,187.75c0-1.79.67-5.95,1.46-9.25.8-3.3,1.47-7.21,1.48-8.69.02-1.48.5-3.9,1.06-5.39,2.04-5.35,2.47-.83,2.5,25.91.02,25.24.18,27.59,2.18,33.15,3.35,9.33-4.29,11.62-20.18,6.06-8.67-3.03-8.64-2.95-2.77-10.68,8.56-11.26,14.23-23.64,14.27-31.12ZM40.15,155.98c6.58,3.57,21.76,8.19,27.35,8.33,2.2.05,7.94-.08,12.76-.29,15.64-.69,13.11,26.36-4.13,44.09-9.08,9.34-32.05-6.02-32.14-21.49,0-.62-.71-2.47-1.57-4.12-2.65-5.07-9.42-25.56-9.42-28.49,0-1.58,1.23-1.24,7.15,1.97Z"/>
</svg>