<?xml version="1.0" encoding="UTF-8"?>
<svg id="Layer_1" data-name="Layer 1" xmlns="http://www.w3.org/2000/svg" viewBox="0 0 256 256">
  <defs>
    <style>
      .cls-1 {
        fill: #231f20;
      }
    </style>
  </defs>
  <path class="cls-1" d="M79.27,124.27c-7.08,7.08.43,11.36,21.59,12.33,19.44.89,18.39-.71,19.12,28.86.58,23.25,1.19,24.96,8.32,23.17,5.4-1.36,8.61-19.37,6.45-36.26-1.68-13.12-2.44-11.79,7.25-12.54,24.9-1.94,33.91-8.65,33.96-25.28.08-25.09-17.72-44.21-35.96-38.62-12.53,3.84-22.18,19.4-23.68,38.16-.87,10.96-2.31,11.47-24.6,8.71q-9.78-1.21-12.45,1.46ZM140.54,93.1c9-7.9,21.46,5.05,21.46,22.3,0,7.07-21.02,13.1-28.52,8.18-5.59-3.67-1.03-23.38,7.05-30.48Z"/>
</svg>