<?xml version="1.0" encoding="UTF-8"?>
<svg id="Layer_1" data-name="Layer 1" xmlns="http://www.w3.org/2000/svg" viewBox="0 0 256 256">
  <path d="M69.72,197.56c17.11-3.32,17.9-1.37,4.85,12.01-10.3,10.55-11.08,11.87-10.13,16.98,1.15,6.14,7.71,9.56,13.57,7.07,7.9-3.35,24.64-24.52,27.23-34.44,1.87-7.14,8.76-4.49,8.76,3.37,0,20.57,5.34,31.45,15.44,31.45s12.81-5.43,11.94-24.75c-.86-19.12-4.42-17.2,33.34-17.95,41.93-.83,40.63-1.44,42.27,20.02,1.1,14.38,2.77,19.07,7.85,22.02,16.81,9.78,18.21-37.6,1.62-54.69-7.16-7.37-5.77-7.15-46.45-7.18-43.56-.02-39,.59-38.99-5.23.03-8.15,1.33-8.74,22.49-10.28,7.7-.56,20.73-1.73,28.96-2.6,8.83-.94,17.64-1.31,21.5-.93,3.6.36,8.79.87,11.54,1.14,13.41,1.32,18.99-12.88,8.57-21.8-6.97-5.96-18.18-7.84-34.6-5.8-4.39.55-16.07,1.66-25.97,2.48s-20.99,1.78-24.64,2.14c-8.8.87-8.12,5.21-7.59-48.12.26-26.51-4.54-56.18-9.38-57.87-9.98-3.5-11.27.61-12.01,38.37-.34,17.33-1.13,35.55-1.75,40.5-.62,4.95-1.4,13.42-1.73,18.82-.6,9.77-2.2,13.24-4.45,9.62-.46-.74-.57-24.66-.24-53.14.68-58.76.63-59.06-8.5-55.68-2.95,1.09-6.05,6.39-6.64,11.35-.26,2.22-1.18,9.66-2.03,16.53-.86,6.88-1.99,28.22-2.53,47.44-.82,29.52-1.21,35.18-2.54,36.5-2.67,2.66-27.76,2.11-37.89-.83-22.77-6.61-33.98.85-21.54,14.35,9,9.76,23.99,14.72,45.16,14.94,15.57.16,16.32.48,15.31,6.46-.9,5.34-1.64,5.77-11.05,6.52-4.41.35-9.59,1.13-11.5,1.73-12.78,4.02-32.69.61-36.29-6.23-7.45-14.14-22.41-3.88-15.75,10.8,6.32,13.92,27.95,19.9,53.78,14.89ZM112,164.5c1.3-3.42,3-2.3,3,1.97s-.87,6.52-2.61,6.52-1.87-4.62-.4-8.5Z"/>
</svg>