<?xml version="1.0" encoding="UTF-8"?>
<svg id="Layer_1" data-name="Layer 1" xmlns="http://www.w3.org/2000/svg" viewBox="0 0 256 256">
  <defs>
    <style>
      .cls-1 {
        fill: #231f20;
      }
    </style>
  </defs>
  <path class="cls-1" d="M22.61,179.65c.77,1.73,1.39,3.5,1.39,3.93,0,18.2,32.01,49.99,61.5,61.08,43.74,16.45,97.21-4.27,126.94-49.21,2.17-3.28,4.67-6.86,5.57-7.96,2.46-3.02,8.99-18.33,8.99-21.08,0-5.34-.69-4.83-37,27.51-33.43,29.77-57.37,42.22-56.82,29.53.05-1.08-.48-6.9-1.18-12.95-1.43-12.41-.7-59.65,1.37-88.85,1.37-19.35,1.62-19.84,9.49-19.07,18.48,1.81,38.68,3.42,42.82,3.42,14.31,0,9.9,23.81-4.83,26.1-13.11,2.04-15.79,16.44-3.74,20.05,18.18,5.45,35.47-11.91,37.52-37.65.97-12.24.85-12,8.26-16.92,18.73-12.46,16.51-35.65-3.15-32.96-4.94.68-5.91-.57-7.24-9.32-1.75-11.46-16.09-22.63-28.92-22.52-15.74.14-30.85,15.79-32.25,33.42-.67,8.41-1.45,9.79-5.5,9.79-6.12,0-6.5-.75-7.3-14.67-1.66-28.84-5.64-38.63-15.48-38.17-1.94.09-8.93.44-15.53.79-7.36.38-14.13,1.32-17.5,2.44-24.76,8.2-38.91,16.19-51.5,29.08-6.57,6.73-8.7,8.3-11.91,8.82-8.09,1.3-12.06,8.7-9.04,16.86,2.62,7.07,2.73,8.47,1.07,13.53-7.25,22.03-5.28,64,3.99,84.97ZM181.45,53.03c7.05-2.61,16.71,15.29,13.2,24.45-.9,2.35-24.16,1.91-25.67-.48-3.23-5.11,5.18-21.27,12.47-23.97ZM100.5,40.03c5.51-1.52,10.32-1.2,10.87.72,1.26,4.35,1.12,31.33-.18,32.13-1.51.93-60.88,2.44-62.27,1.58-7.95-4.91,25.49-27.23,51.57-34.42ZM35.42,101.13c.49-.79,75.61-.43,76.41.37.92.92.22,25.92-1.37,48.5-1.86,26.55-1.88,51.3-.05,61,4.36,23.06-1.19,26.43-23.99,14.54-1.61-.84-3.29-1.53-3.72-1.53-8.93-.07-38.66-28.79-38.71-37.39,0-.62-.71-2.47-1.57-4.12-1.93-3.7-4.68-11.42-7.94-22.27-3.91-13.03-3.29-52.26.94-59.11Z"/>
</svg>