<?xml version="1.0" encoding="UTF-8"?>
<svg id="Layer_1" data-name="Layer 1" xmlns="http://www.w3.org/2000/svg" viewBox="0 0 256 256">
  <defs>
    <style>
      .cls-1 {
        fill: #231f20;
      }
    </style>
  </defs>
  <path class="cls-1" d="M230.23,54.98c9.54-5.91,11.8-12.27,6.19-17.46-14.5-13.44-38.21,13.8-40.32,46.31-.87,13.49-.53,13.14-12.72,13.16-5.02,0-15.5.72-23.3,1.58-22.03,2.43-19.49,6.43-20.07-31.56-.44-28.28-.72-32.91-2.23-35.66-3.72-6.81-7.7-8.18-11.62-4.01-2.36,2.51-2.11.13-5.14,49.66-.52,8.52-.96,31.62-.98,51.32-.03,38.95-.05,39.04-5.73,40.61-6.71,1.85-7.5-1.01-4.83-17.43,2.05-12.59,3.4-105.32,1.62-110.73-2.52-7.63-11.05-11.25-15.89-6.75-3.1,2.89-3.02,1.65-3.64,55.47-.31,26.95-1.02,51.7-1.56,55-.55,3.3-1.29,11.03-1.64,17.18-.81,14.02-.2,13.26-12.5,15.5-22.56,4.12-41.14,3.65-44.44-1.11-5.58-8.05-5.97-8.4-9.4-8.4-11.58,0-6.64,22.62,6.49,29.68,4.56,2.46,33.4,2.75,46.5.47,12.8-2.23,12.46-2.39,12.79,5.89.29,7.08-1.78,13.93-4.77,15.78-6.19,3.82-6.49,14.61-.45,16.12,12.6,3.16,23.75-11.45,25.11-32.94.68-10.74,1.64-12.67,6.26-12.67,4.94,0,5.24,1.29,4.91,21.42-.35,21.47.37,23.79,7.56,24.4,10,.85,12.92-5.81,12.7-28.92-.22-22.09-1.89-20.39,19.07-19.45,31.26,1.4,51.61,16.34,32.9,24.16-10.32,4.31-13.79,13.37-8.11,21.21,15.27,21.08,42.82-2.31,34.33-29.15-1.98-6.26-1.35-6.79,8.37-7.12,24.22-.81,24.67-20.54.47-20.54-13.6,0-17.08-2.36-12.71-8.61,3.04-4.34,3.8-14.3,2.63-34.51-2.7-46.52,1.59-70.12,14.16-77.9ZM169.5,167.42c-8.25-.39-17.7-.76-21-.83-8.99-.2-8.5,1.13-8.5-23.06,0-26.72-.98-24.5,10.86-24.64,5.3-.06,14.14-.45,19.64-.85,22.89-1.69,23.91-1.42,24.74,6.47,4.09,38.78.86,44.17-25.74,42.92Z"/>
  <path class="cls-1" d="M244.07,110.27c-3.95-2.66-5.47-2.76-9.74-.65-8.69,4.29-10.08,17.88-2.23,21.93,13.24,6.85,24.37-12.93,11.98-21.28Z"/>
</svg>