<?xml version="1.0" encoding="UTF-8"?>
<svg id="Layer_1" data-name="Layer 1" xmlns="http://www.w3.org/2000/svg" viewBox="0 0 256 256">
  <defs>
    <style>
      .cls-1 {
        fill: #231f20;
      }
    </style>
  </defs>
  <path class="cls-1" d="M86.59,129.51c19.52-3.74,30.08-1.9,27.27,4.76-5.33,12.63.62,37.4,11.14,46.37,8.37,7.14,9.61,7.65,18.54,7.61,41.46-.19,39.51-69.18-2.04-72.02-9.53-.65-9.1.22-9.81-19.51-.9-24.99-3.57-32.72-11.3-32.72-.82,0-2.62,1.23-4.02,2.74-2.08,2.24-2.42,3.37-1.91,6.25,6.4,36.34,4.58,41.39-15.46,42.81-17.05,1.21-25,4.11-25,9.13,0,5.27,3.1,6.41,12.59,4.59ZM131.28,129.02c3.01-1.21,2.37-1.28,10.31,1.07,15.62,4.63,21.4,16.68,16.03,33.41-4.64,14.42-18.24,15.09-27.35,1.33-4.71-7.12-3.96-33.81,1.01-35.81Z"/>
</svg>