<?xml version="1.0" encoding="UTF-8"?>
<svg id="Layer_1" data-name="Layer 1" xmlns="http://www.w3.org/2000/svg" viewBox="0 0 256 256">
  <defs>
    <style>
      .cls-1 {
        fill: #231f20;
      }
    </style>
  </defs>
  <path class="cls-1" d="M30.47,150c4.32,10.51,4.77,11.23,10.59,17.14,7.66,7.77,26.85,16.83,35.72,16.87,1.49,0,5.19.69,8.22,1.52s10.11,1.79,15.75,2.14c13.04.8,13.28,1.23,15.73,28.25.8,8.85,2.84,14.4,6.27,17.1,7.18,5.65,16.29-1.84,14.89-12.24-4.38-32.34-4.54-31.93,12.55-32.47,17.54-.56,31.07-3.74,48.32-11.37,15.76-6.97,29.64-25.97,33.91-46.44,3.42-16.41,3.89-20.32,3.96-33.5.18-31.58-33.81-62.07-65.62-58.87-.69.07-5.13.69-9.86,1.38-22.52,3.29-35.73,14.65-46.35,39.86-4.17,9.9-6.91,54.5-4.52,73.63,2.3,18.44,3.31,17.43-15.59,15.53-26.53-2.67-44.32-10.57-46.73-20.75-.3-1.26-2.15-6.21-4.12-11.02-12.41-30.25,15.22-68.52,49.65-68.76,2.26-.02,3.42-4.52,1.7-6.59-9.67-11.66-44.51.58-58.17,20.43-11.3,16.41-16.35,43.84-10.62,57.68.9,2.19,2.85,6.9,4.32,10.47ZM162.5,59.89c27.51-5.33,54.13,13.98,53.89,39.11-.45,47.2-19.05,66.68-66.84,69.99-18.76,1.3-17.28,2.74-18.73-18.17-4.11-59.1,5.19-85.8,31.68-90.93Z"/>
</svg>