<?xml version="1.0" encoding="UTF-8"?>
<svg id="Layer_1" data-name="Layer 1" xmlns="http://www.w3.org/2000/svg" viewBox="0 0 256 256">
  <defs>
    <style>
      .cls-1 {
        fill: #231f20;
      }
    </style>
  </defs>
  <path class="cls-1" d="M175,83.08c0-3.72-9.09-4.06-11.93-.45-2.44,3.11-2.6,5.44-.63,9.26,4.67,9.03,3.17,20.2-3.64,27.11-15.2,15.44-25.6,18.28-39.82,10.87-4.96-2.59-9.67-1.38-12.35,3.16-2.29,3.87,0,8.53,5.47,11.13,10.04,4.77,8.13,19.64-3.26,25.41-6.2,3.14-7.15,3.08-16.28-1.08-14.32-6.53-21.53-1.92-11.21,7.17,20.21,17.79,50.64,6.61,50.64-18.62,0-7.89.88-9.05,6.88-9.05,10.9,0,32.63-17.15,38.8-30.62,3.29-7.19,3.01-22.09-.55-29.08-1.17-2.31-2.14-4.66-2.14-5.22Z"/>
</svg>