<?xml version="1.0" encoding="UTF-8"?>
<svg id="Layer_1" data-name="Layer 1" xmlns="http://www.w3.org/2000/svg" viewBox="0 0 256 256">
  <defs>
    <style>
      .cls-1 {
        fill: #231f20;
      }
    </style>
  </defs>
  <path class="cls-1" d="M234.43,114c-.54-23.17-.94-25.19-6.15-31.64-5.14-6.37-6-6.53-33.39-6.17-21.29.28-24.7.54-26.86,2.07-2.68,1.9-26.11,2.62-28.83.89-3.13-1.98-4.56-30.14-1.53-30.14,5.85,0,12.67,3.57,16.7,8.75,12.54,16.09,26,2.41,14.59-14.82-3.03-4.57-13.31-10.91-17.71-10.92-1.24,0-3.93-.9-5.98-2-2.09-1.12-5.64-2-8.09-2-2.84,0-5.24-.69-6.9-2-5.75-4.52-32-2.82-43.48,2.82-5.34,2.62-11.42,6.15-13.51,7.83-2.1,1.68-4.88,3.4-6.18,3.81-3.18,1.01-16.38,14.15-18.61,18.53-.98,1.92-3.51,5.47-5.62,7.87-5.8,6.61-15.24,26.18-14.42,29.9,1.88,8.56,2.66,8.71,45.19,8.89,21.18.09,38.75.4,39.05.7,1.09,1.09-.91,24.72-2.2,26.01-4.23,4.23-50.02,5.51-62.89,1.75-22.74-6.64-33.98.83-21.54,14.33,12.01,13.03,41.81,18.54,71.41,13.2,7.53-1.36,12.44-.94,12.59,1.08.03.43.22,12.92.43,27.77.21,14.85.52,28.35.69,30,.44,4.14-15.68,5.04-25.07,1.4-12.91-5-15.72-6.25-17.8-7.87-2.76-2.16-12.29-13.26-12.31-14.32,0-.44-1.81-3.18-4.01-6.09-2.2-2.91-4-5.62-4-6.01s-2.38-3.95-5.29-7.91c-2.91-3.96-6.29-8.83-7.51-10.83-4.41-7.23-12.11-7.46-15.58-.47-2.52,5.08-1.15,9.61,5.74,19.03,2.84,3.89,8.31,11.98,12.15,17.99,11.6,18.15,22.62,28.43,32.7,30.52,2.35.49,6.98,2.04,10.28,3.45,5.87,2.51,6.51,2.56,29.5,2.57,33.33.01,40.31-2.06,66.6-19.71,6.35-4.26,13.06-8.57,14.92-9.56,3.91-2.09,17.6-14.33,22.59-20.18,1.87-2.2,4.39-5.1,5.61-6.45,1.22-1.35,2.71-3.83,3.32-5.51.61-1.68,2.47-6.43,4.14-10.55,7.39-18.25,9.03-24.03,8.38-29.39-.34-2.81-.85-14.78-1.13-26.61ZM115.78,64.47q-.28,18.97-4.66,19.72c-2.41.41-5.43,1.44-6.71,2.28-3.51,2.3-50.41,2.29-50.41-.01,0-5.33,16.04-24.1,24.97-29.24,2.49-1.43,5.8-3.64,7.35-4.91,2.43-1.99,14.09-7.99,18.68-9.62,9.64-3.42,11.11-.46,10.78,21.78ZM210.52,161.5c-1.35,2.75-2.47,5.62-2.49,6.37-.11,4.81-18.27,24.18-28.13,30-2.97,1.75-8.55,5.42-12.4,8.16-29.26,20.77-30.35,20.08-30.44-19.19-.08-32.26-3.18-28.84,28.44-31.36,11-.88,22.7-1.96,26-2.4,20.46-2.75,23.8-1.27,19.02,8.43ZM210.5,124.74c-2.75.13-9.28.71-14.5,1.29-5.22.58-17.6,1.71-27.5,2.52-9.9.81-20.79,1.75-24.2,2.1-7.4.75-6.98,1.62-7.62-15.94-.6-16.59-1.21-16.04,18.47-16.78,10.54-.4,16.59-1.08,19.34-2.18,5.89-2.35,37.63-2.46,39.96-.14,4.68,4.68,1.39,28.88-3.96,29.14Z"/>
</svg>