<?xml version="1.0" encoding="UTF-8"?>
<svg id="Layer_1" data-name="Layer 1" xmlns="http://www.w3.org/2000/svg" viewBox="0 0 256 256">
  <defs>
    <style>
      .cls-1 {
        fill: #231f20;
      }
    </style>
  </defs>
  <path class="cls-1" d="M204,17.44c-15.51.36-29.81.17-36.5-.49-14.75-1.45-50.85-1.99-61.95-.94-4.92.47-13.25,1.54-18.5,2.39-37.09,5.98-49.08,6.81-54.05,3.76-10.79-6.63-21.11,4.39-15.39,16.44,2.52,5.31,7.4,8.92,14.76,10.91,7.72,2.09,8.04,2.95,3.22,8.83-22.05,26.92-28.41,86.39-12.98,121.32.77,1.73,1.39,3.5,1.39,3.93,0,1.06,3.19,8.15,8.28,18.42,8.72,17.6,27.76,32.41,56.22,43.76,39.5,15.75,95.19-6.85,123.94-50.31,2.17-3.28,4.67-6.86,5.57-7.96,2.46-3.02,8.99-18.33,8.99-21.08,0-5.33-1.11-4.51-36.71,27.27-30.87,27.56-47.94,37.73-49.72,29.64-1.12-5.12-.95-125.59.18-128.33,1.08-2.6,3.24.42,3.24,4.54,0,5.74,11.76,15.72,20.71,17.56,22.72,4.69,40.64-16.21,32.63-38.07-8.82-24.09-49.82-24.83-53.85-.97-1.63,9.66-2.98,4.27-4.27-17.06-1.09-18.02-.55-19.55,6.63-18.66,55.52,6.94,94.17,1.91,94.15-12.24-.02-11.31-5.87-13.36-36-12.67ZM86.43,225.54c-1.61-.84-3.29-1.53-3.72-1.53-8.93-.07-38.66-28.79-38.71-37.39,0-.62-.71-2.47-1.57-4.12-10.4-19.93-13.65-51.87-7.98-78.52,5.88-27.68,15.55-40.73,39.41-53.2,4.34-2.27,16.47-5.65,24.15-6.74,16.18-2.28,14.47-12.67,14.65,89.36.13,75.93.35,87.67,1.7,91.55,3.2,9.17-10.9,9.46-27.92.58ZM160.17,77.75c1.19-2.3,4.72-2.19,7.83.25,1.37,1.08,2.95,1.97,3.5,1.98,4.77.13,10.34,10.66,7.73,14.64-9.4,14.39-27.12-1.29-19.07-16.87Z"/>
</svg>