<?xml version="1.0" encoding="UTF-8"?>
<svg id="Layer_1" data-name="Layer 1" xmlns="http://www.w3.org/2000/svg" viewBox="0 0 256 256">
  <defs>
    <style>
      .cls-1 {
        fill: #231f20;
      }
    </style>
  </defs>
  <path class="cls-1" d="M19.45,174.91c2.13,4.11,5.67,5.7,14.22,6.39,25.71,2.06,30.47,27.18,5.59,29.47-15.82,1.46-21.3,6.38-19.99,17.97,1.28,11.36,14.51,14.96,34.73,9.46,10.58-2.88,67.54-3.26,82.77-.56,36.36,6.45,88.96.78,98.56-10.63,10.12-12.02-1.13-17.51-29.76-14.5-38,3.98-59.43.07-61.17-11.17-2.81-18.12-1.75-19.95,14.6-25.32,16.97-5.57,33.07-16.14,41.49-27.24,8.62-11.37,19.51-35.35,19.51-42.97,0-1.17.67-4.42,1.49-7.22,2.56-8.73,4.44-16.58,7.59-31.59,2.02-9.64,3.82-15.67,5.38-18,6.76-10.11,1.61-19.06-10.21-17.73-8.09.91-13.81,11.14-15.78,28.23-.54,4.65-2.71,14.04-6.01,26-.76,2.75-1.67,7.02-2.02,9.5-4.2,29.34-20.41,50.68-45.94,60.47-3.85,1.48-8.28,3.17-9.84,3.77-6.23,2.38-8.02-57.57-3.07-102.54,2.88-26.17-4.27-40.75-14.81-30.2-3.17,3.17-4.49,9.64-5.81,28.46-.56,8-1.79,20.17-2.74,27.04-1.42,10.27-1.67,18.47-1.41,46,.27,28.55.09,33.8-1.18,35.5-3.65,4.87-3.84,1.84-3.99-63.66-.16-70.1-.06-69.15-7.34-71.92-6.47-2.46-15.09,2.13-15.44,8.22-.07,1.29-.19,29.67-.25,63.06-.1,54.23-.29,60.88-1.72,62.31-1.81,1.82-39.93.61-46.89-1.48-12.96-3.89-25.54,5.21-20.55,14.86ZM110.58,187.24c3.49-5.32,5.89-2.05,7.18,9.76,1.19,10.9-1.11,14.61-7.74,12.51-3.22-1.02-2.82-17.11.55-22.27ZM79.69,184c8.07,0,8.31.4,8.31,13.64,0,12.22-.12,12.49-5.84,12.94-6.16.49-7.13-.69-6.88-8.35.12-3.7-.17-9.32-.65-12.48q-.86-5.75,5.05-5.75Z"/>
</svg>