<?xml version="1.0" encoding="UTF-8"?>
<svg id="Layer_1" data-name="Layer 1" xmlns="http://www.w3.org/2000/svg" viewBox="0 0 256 256">
  <defs>
    <style>
      .cls-1 {
        fill: #231f20;
      }
    </style>
  </defs>
  <path class="cls-1" d="M26.61,179.65c.76,1.73,1.39,3.5,1.39,3.93,0,1.06,3.19,8.15,8.28,18.42,14.93,30.11,63.16,54.02,96.01,47.59,3.96-.77,9.12-1.68,11.47-2.01,29.09-4.12,68.82-37.64,83.49-70.43,8.56-19.13,5.41-17.99-24.24,8.79-23.7,21.39-28.74,25.66-36.65,30.99-7.14,4.81-21.61,11.06-25.69,11.09-1.19,0-6.4.91-11.57,2-16.19,3.42-22.74,2.7-37.71-4.14-2.26-1.03-4.42-1.88-4.8-1.88-8.76,0-38.55-28.85-38.6-37.38,0-.62-.71-2.47-1.57-4.12-16.74-32.09-13.66-86.31,6.42-112.91,8.6-11.39,35.6-26.04,55.52-30.12,13.72-2.81,17.93-7.26,12.25-12.95-3.02-3.02-14.42-3.47-23.11-.92-2.75.81-6.58,1.88-8.52,2.38-21.43,5.58-47.36,24.12-56,40.04-17.04,31.39-19.88,81.08-6.38,111.62Z"/>
  <path class="cls-1" d="M127.3,184.53c12.67,2.38,19.2-8.26,10.54-17.19-4.12-4.25-4.46-6.84-5.42-41.7-.73-26.44-.78-26.91-3.16-29.74-5.37-6.38-11.79-8.92-16.32-6.44-4.67,2.56-5.36,5.97-2.44,12.13,2.28,4.82,2.49,6.21,1.96,13.15-2.98,39.29,3.03,67.58,14.84,69.79Z"/>
</svg>