<?xml version="1.0" encoding="UTF-8"?>
<svg id="Layer_1" data-name="Layer 1" xmlns="http://www.w3.org/2000/svg" viewBox="0 0 256 256">
  <path d="M128.98,24.99c-2.75-1.47-6.63-1.2-8.42.59-3.83,3.83-4.04,5.49-4.69,37.42-.36,17.32-1.11,34.65-1.68,38.5s-1.35,12.09-1.74,18.31c-.44,6.97-1.2,11.8-1.99,12.59-4.17,4.17-50.09,5.41-62.86,1.7-22.74-6.61-33.98.85-21.57,14.31,12.06,13.08,41.92,18.62,71.43,13.24,8.13-1.48,12.43-.95,12.64,1.56.06.7.03,10.83-.05,22.51-.27,37.65,3.09,48.27,15.3,48.27,11.58,0,12.4-2.81,11.84-40.47-.5-34.05-.44-34.53,4.73-34.53,6.64,0,6.51-.7,6.54,35.81q.03,33.01,3.04,37.3c8.04,11.45,25.4,12.95,30.73,2.65,3.28-6.31-1.43-13.76-8.7-13.76-5.06,0-5.13-.43-4.97-32.63.17-35.14-.77-31.92,9.64-32.67,4.56-.33,11.43-1.33,15.28-2.24,6.84-1.6,10.45-1.59,27.5.08,14.65,1.44,19.5-11.67,8.25-22.26q-5.54-5.22-3.88-9.59c4.7-12.32,6.26-30.32,3.57-41.42-18.13-75.01-83.94-54.88-83.94,25.69,0,23.9-.21,25.04-4.63,25.04-3.54,0-3.79-3.97-3.09-49,.34-22.12-4.43-54.94-8.3-57.01ZM177.87,58.87c15.91-10.09,34.42,15.13,31.17,42.48-2.77,23.27-7.32,26.65-35.87,26.65-14.55,0-10.51-59.48,4.71-69.13Z"/>
</svg>