<?xml version="1.0" encoding="UTF-8"?>
<svg id="Layer_1" data-name="Layer 1" xmlns="http://www.w3.org/2000/svg" viewBox="0 0 256 256">
  <defs>
    <style>
      .cls-1 {
        fill: #231f20;
      }
    </style>
  </defs>
  <path class="cls-1" d="M80.57,229.73c2.67,10.81,17.74,7.97,24.38-4.6,3.7-7,3.65-193.8-.05-197.74-3.01-3.21-8.74-3.28-11.6-.14-1.13,1.24-2.63,3.38-3.35,4.75-2.14,4.13-3.18,53.68-2.51,120.77q.6,61.27-3.6,67.23c-3.9,5.53-4.14,6.23-3.27,9.73Z"/>
  <path class="cls-1" d="M136.12,27.88c-4-3.99-7.12-4.76-11.74-2.9-4.83,1.95-6.69,6.58-7.6,18.93-2.31,31.36-.37,177.52,2.44,184.12,5.89,13.83,24.08,9.37,24.1-5.91,0-2.55-.63-25.11-1.4-50.13-.78-25.02-1.41-65.3-1.41-89.5,0-54.4.36-49.87-4.38-54.62Z"/>
</svg>