<?xml version="1.0" encoding="UTF-8"?>
<svg id="Layer_1" data-name="Layer 1" xmlns="http://www.w3.org/2000/svg" viewBox="0 0 256 256">
  <defs>
    <style>
      .cls-1 {
        fill: #231f20;
      }
    </style>
  </defs>
  <path class="cls-1" d="M83.52,205.19c.54.33,6.83,1.14,13.98,1.8,16.03,1.49,16.5,1.8,16.5,11.1,0,10.56,2.99,15.98,9.85,17.88,7.69,2.12,16.15-5.61,16.15-14.76,0-8.23,13.45-10.62,42.31-7.52,25.39,2.74,44.66.4,50.69-6.14,5.88-6.37.78-19.31-7.73-19.66-1.52-.06-12.76-.17-24.96-.25-27.05-.17-24.76,1.4-24.78-16.92-.02-15.14.2-14.19-6.38-27.56-2.58-5.23-9.65-13.46-13.63-15.86-1.88-1.13-1.6-1.58,4.63-7.5,6.87-6.52,9.7-10.67,11.86-17.38.7-2.16,1.77-4.55,2.38-5.32,10.87-13.62-5.13-43.06-24.59-45.24q-12.13-1.36-13.31-13.33c-1.07-10.94-8.04-16.8-16.1-13.54-8.3,3.35-10.63,40.18-7.97,125.64,1.07,34.19,2.06,31.56-11.41,30.27-40.56-3.88-41.55-3.94-49-2.91-4.13.57-11.41,1.47-16.19,2.01-14.73,1.65-20.84,5.44-20.77,12.89.08,9.59,3.21,10.51,37.98,11.16,16.23.3,29.96.82,30.5,1.15ZM154.54,180.93c-2.24,4.32-8.87,5.63-13.2,2.59-2.17-1.52-4.73-36.45-2.89-39.43,7.23-11.69,22.78,23.9,16.1,36.83ZM139.39,67.96c1.16-.48,3.01-.68,4.11-.43,1.1.25,3.2.45,4.67.46,15.6.08,13.62,29.8-2.73,41.05-8.7,5.99-8.93,5.55-9.06-17.54-.13-21.84-.07-22.26,3.01-23.54Z"/>
</svg>