<?xml version="1.0" encoding="UTF-8"?>
<svg id="Layer_1" data-name="Layer 1" xmlns="http://www.w3.org/2000/svg" viewBox="0 0 256 256">
  <defs>
    <style>
      .cls-1 {
        fill: #231f20;
      }
    </style>
  </defs>
  <path class="cls-1" d="M209.5,34.61c-28.44-13.21-56.9,2.83-60.8,34.26-1.45,11.7-5.28,7.9-6.08-6.04-2.02-35.17-10.14-48.27-22.85-36.92q-3.27,2.92-3.46,24.14c-.11,12.11-.61,21.64-1.16,22.19-2.59,2.59-3.15-.87-3.15-19.6,0-23.01-1.38-27.89-8.05-28.45-6.63-.56-7.33,1.35-8.08,21.77-1.11,30.44,1.07,28.07-26.15,28.34-22.34.22-19.5.86-31.31-7.12-12.29-8.31-23.11,4.45-15.19,17.9,7.7,13.07,13.98,15.33,43.78,15.75,27.82.4,26-.46,26,12.17s.46,11.66-14.5,12.5c-23.87,1.33-32.49,4.5-48.15,17.69-13.44,11.32-14.07,20.75-1.13,16.87,4.16-1.25,5.15-1.77,14.28-7.58,28.94-18.42,48.03-12.47,47.85,14.9-.22,32.14-1.81,40.19-11.08,56.02-2.35,4.02-1.58,9.17,1.81,12.02,6.67,5.61,14.78,1.89,19.95-9.15,1.74-3.72,3.56-7.52,4.03-8.45.48-.93,1.31-4.42,1.85-7.76,2.13-13.21,5.72-8.42,8.04,10.71,1.12,9.26,1.89,11.17,5.68,14.16,8.55,6.73,18-2.84,15.34-15.52-4.02-19.08-1.93-71.76,2.86-72.22,7.53-.72,7.78.02,8.51,24.49.85,28.43,2.02,32.89,12.91,49.33,9.46,14.27,15.92,18.63,23.14,15.61,7.76-3.24,8.1-9.55.98-17.86-13.71-16-16.4-24.42-16.68-52.25q-.18-18,18.82-18.77c41.27-1.67,56-18.3,56-63.23,0-25.72-8.35-37.97-34-49.89ZM114,123.5c-1.51,0-2.84-17.88-1.57-21.18.81-2.12,3.31-1.52,3.87.93,1.07,4.67-.7,20.25-2.3,20.25ZM142.18,126.54c-4.84-1.06-6.52-17.81-2.3-22.89,4.61-5.55,8.12-.66,8.12,11.3,0,11-.85,12.68-5.82,11.59ZM180.5,52.35c7.57-3.52,19.17-.68,32,7.85,16.29,10.82-7.65,22.49-37.31,18.18-10.26-1.49-6.37-20.6,5.31-26.03ZM220.42,106.66c-.41,21.73-51.59,32.45-52.21,10.93-.37-12.89-1.8-12.09,21.59-12.09,15.99,0,20.45-.31,23.7-1.64,5.94-2.44,7.01-2,6.92,2.8Z"/>
</svg>