<?xml version="1.0" encoding="UTF-8"?>
<svg id="Layer_1" data-name="Layer 1" xmlns="http://www.w3.org/2000/svg" viewBox="0 0 256 256">
  <defs>
    <style>
      .cls-1 {
        fill: #231f20;
      }
    </style>
  </defs>
  <path class="cls-1" d="M214.32,71.84c-6.78,7.89-16.27,8.73-55.32,4.92-16.98-1.66-15.62-.39-16.49-15.44-1.94-33.7-10.23-46.59-22.74-35.4q-3.27,2.92-3.43,24.08c-.16,21.96-.25,22.64-2.8,21.66-1.31-.51-1.54-3.37-1.54-19.41,0-22.56-1.41-27.48-8.05-28.04-6.4-.54-7.41,1.76-7.72,17.65-.42,21.16-.2,20.93-12.63,12.94-4.46-2.86-12.38-7.41-17.6-10.11-10.77-5.56-14.31-7.58-21.71-12.37-15.41-9.98-25.29-10.81-25.29-2.14,0,2.53,2.7,5.83,4.77,5.83,1.38,0,8.03,3.75,10.73,6.04,3.69,3.14,12.25,8.8,17.69,11.71,9.05,4.83,24.81,15.39,25.84,17.31,2.13,3.98,1.54,4.14-13.78,3.79-15.99-.37-14.35.12-25.84-7.66-12.29-8.31-23.11,4.45-15.19,17.9,7.72,13.09,13.96,15.33,43.98,15.75,29.73.41,26.3-6.12,24.93,47.43-1.41,54.91-1.92,58.15-11.86,75.13-2.35,4.02-1.58,9.17,1.81,12.02,6.67,5.61,14.78,1.89,19.95-9.15,1.74-3.72,3.56-7.52,4.03-8.45.48-.93,1.31-4.42,1.85-7.76,2.13-13.21,5.72-8.42,8.04,10.71,1.12,9.26,1.89,11.17,5.68,14.16,8.54,6.72,17.97-2.81,15.36-15.52-2.35-11.45-1.85-93.37.62-101.65,1.03-3.46,4.33-1.59,15.04,8.5,5.98,5.64,13.16,12.28,15.94,14.75,7.93,7.04,7.95,7.18,2.23,17-21.69,37.28-15.46,70.33,13.24,70.21,8.73-.04,10.44-.75,17.78-7.43,14.2-12.91,14.91-41.62,1.68-67.74-3.45-6.8-3.29-7.56,2.89-14.04,16.35-17.14,4.52-30.78-12.46-14.39-8.15,7.87-5.91,8.49-21.86-6.07-15.37-14.03-15.84-15.09-6.33-14.19,43.39,4.12,67.5-2.45,73.29-19.99,5.75-17.43-12.54-26.7-24.72-12.54ZM115.86,127.93c-.85,24.49-2.1,31.06-3.2,16.87-.85-10.91-.84-42.28,0-43.13,3.72-3.72,4.12-.46,3.19,26.26ZM185.75,169.58c5.04-5.04,10.61,18.08,7.29,30.29-3.25,11.97-14.45,12.16-16.68.29-1.07-5.73,5.3-26.48,9.39-30.57Z"/>
</svg>