<?xml version="1.0" encoding="UTF-8"?>
<svg id="Layer_1" data-name="Layer 1" xmlns="http://www.w3.org/2000/svg" viewBox="0 0 256 256">
  <defs>
    <style>
      .cls-1 {
        fill: #231f20;
      }
    </style>
  </defs>
  <path class="cls-1" d="M225.14,188c-5.47,0-5.81-2.13-1.77-11.1,7.04-15.63,4.76-16.47-9.94-3.65-19.05,16.61-15.73,15.36-35.67,13.41-9.49-.93-21.14-1.68-25.89-1.68-13.07.02-12.63.78-13.33-22.99-.32-10.73-1.07-25.22-1.67-32.2-1.41-16.39.38-24.07,3.18-13.65,6.34,23.53,39.51,34.27,60.74,19.66,13.17-9.06,19.48-36.8,10.26-45.06-8.03-7.19-16.02-.25-16.03,13.92-.02,15.69-14.61,24.17-28.47,16.56-17.03-9.35-14.79-35.08,4.4-50.65,8.84-7.17,13.06-14.71,13.06-23.33,0-12.67-9.59-12.35-15.39.51-1.4,3.1-3.61,5.36-8.51,8.68-6.61,4.48-12.78,11.4-15.2,17.06-.71,1.65-1.83,3.67-2.49,4.5-.67.83-1.72,3.41-2.35,5.75-1.12,4.22-2.45,5.4-3.36,3-.26-.69-.23-10.25.06-21.25.92-34.06-1.89-42.91-13.02-41.05-2.33.39-4.91.66-5.74.61-15-.97-19.97-.87-24.5.51-2.75.84-6.62,1.88-8.6,2.32-3.26.72-5.52,1.64-16.9,6.94-32.86,15.28-48.21,38.69-52.58,80.19-2.11,20.05-.65,45.73,3.01,52.87,4.02,7.85,4.09,13.75.22,17.41-7.77,7.32-3.68,15.85,8.87,18.49,3.98.84,5.58,1.82,7.94,4.88,22.06,28.57,63.21,46.71,92.83,40.92,3.96-.77,9.13-1.68,11.47-2.01,15.52-2.2,32.81-11.34,49.32-26.07,6.66-5.94,6.34-5.84,23.81-7.51,17.47-1.67,22.61-4.89,22.61-14.15,0-6-5.11-11.84-10.36-11.84ZM32,133.71c0-54.34,21.08-82.29,71-94.15,7.74-1.84,7.95-1.82,8.9.68.47,1.24.4,15.67-.16,32.25-.73,21.56-.69,37.17.14,55.5,2.52,55.7,2.82,54.21-10.88,52.9-4.68-.45-15.93-1.52-25-2.39-13.06-1.25-18.14-1.35-24.35-.48-14.19,1.99-19.65-10.31-19.65-44.32ZM108.53,232c-14.68,0-57.32-23.02-51.08-27.58,1.85-1.35,4.27-1.25,26.05,1.11,7.15.78,16.21,1.7,20.13,2.06,9.89.9,9.72.69,10.52,12.59.83,12.3,1.05,11.83-5.62,11.83ZM141.25,226.25c-1.63-.61-1.69-12.41-.07-14.03,1.95-1.95,24.82-.43,24.82,1.64,0,2.51-21.88,13.46-24.75,12.39Z"/>
</svg>