<?xml version="1.0" encoding="UTF-8"?>
<svg id="Layer_1" data-name="Layer 1" xmlns="http://www.w3.org/2000/svg" viewBox="0 0 256 256">
  <path d="M14.02,89.14c-.06,10.63,12.88,12.91,17.54,3.09,3.15-6.64,15.43-9.5,30.56-7.11,3.51.55,10.53,1.54,15.6,2.19,11.45,1.47,13.01,2.77,14.91,12.35,1.95,9.9,2.88,44.97,1.44,54.83-.64,4.4-1.44,20.04-1.78,34.76-.75,33.07,3.3,29.86-31.8,25.19-19.17-2.55-29.37-.78-35.47,6.17-11.58,13.19-2.1,28.66,12.79,20.88,4.42-2.31,5.29-2.43,11.73-1.58,3.83.51,13.93,1.85,22.45,2.97s20,2.75,25.5,3.6c15.3,2.38,45.66,3.07,61.08,1.4,8.9-.97,22.55-1.32,43.92-1.15,34.65.28,35.12.19,39.5-6.99,10.21-16.75-16.25-23.96-72.5-19.75-9.9.74-19.56,1.38-21.46,1.42-5.07.11-5.78-2.04-4.8-14.56.45-5.7.63-33.15.4-60.99-.5-61.34-6.03-53.37,37.07-53.37,39.89,0,38.59.2,45.74-7.16,16.59-17.08,15.19-64.47-1.62-54.69-5.08,2.96-6.75,7.64-7.85,22.02-1.63,21.4-.49,20.84-41.14,20.05-35.91-.7-31.84,1.79-31.89-19.54-.04-19.19-.43-20.88-5.53-24.24-3.76-2.48-9.06-2.47-13.14.02-5.87,3.58-7.62,8.73-8.24,24.24-.63,15.56-.86,16.04-7.66,15.61-6.02-.38-6.63-2.27-3.33-10.24,4.45-10.75-1.54-19.5-10.54-15.4-3.39,1.54-6.01,5.95-9.53,16.04-3.42,9.8-3.74,9.94-16.68,7.22-29.55-6.2-55.18,4.32-55.29,22.71ZM108.39,209.19c3.61-56.27,4.48-92.11,2.64-109.61-.52-4.91-.71-9.29-.42-9.75s1.37-.83,2.42-.83c3.79,0,4.31,3.34,3.75,23.97-.29,10.74-.25,27.41.1,37.03.93,25.94-.43,67.99-2.26,69.82-4.64,4.64-6.95.7-6.22-10.63Z"/>
</svg>