<?xml version="1.0" encoding="UTF-8"?>
<svg id="Layer_1" data-name="Layer 1" xmlns="http://www.w3.org/2000/svg" viewBox="0 0 256 256">
  <path d="M208.24,212.3c-8.35,1.07-8.95-.45-3-7.53,14.33-17.05,26.12-40.77,20.26-40.77-1.63,0-6.87,4.43-35.9,30.31-23.79,21.22-24.38,21.46-37.24,15.29-8.29-3.97-7.29-1.15-10.47-29.6-3.08-27.59-3.36-96.53-.49-123,2.17-20.02,1.29-26.74-4.04-30.93-4.98-3.92-11.56-1.52-12.93,4.71-.33,1.5-.99,3.98-1.47,5.51-.48,1.53-1.36,9.63-1.94,18-.58,8.37-1.74,20.84-2.57,27.71-.83,6.88-1.69,14.3-1.93,16.5-.64,6.12,1.05,103.79,1.83,105.53,1.07,2.38-1.49,4.96-5.59,5.62-5.54.9-5.9-1.07-3.57-19.65,1.64-13.14,3.46-109.57,2.83-150.17-.01-.92,1.55-2.64,3.47-3.83,11.36-7.02-4.07-15.16-21-11.07-1.65.4-3.9,1.19-5,1.76-1.1.57-3.56,1.33-5.48,1.69-5.34,1.02-21.5,8.78-31.57,15.16-25.1,15.92-38.45,48.33-38.46,93.4,0,13.75,3.51,31.18,8.61,42.71.77,1.73,1.39,3.5,1.39,3.93,0,.86,2.27,6.01,7.56,17.18,4.16,8.78,4.24,10.03.69,10.75-11.42,2.31-16.97,13.83-10.16,21.08,3.48,3.7,7.64,4.31,25.32,3.68,17.11-.61,20.29-.06,30.63,5.27,15.46,7.98,35.42,11.11,50.46,7.93,3.85-.82,8.23-1.48,9.73-1.48s8.03-1.76,14.5-3.91q11.77-3.91,33.27-4.42c33.07-.78,52-7.6,52-18.74,0-8.52-9.37-11.25-29.76-8.64ZM79.11,208.86c-2.81,4.44-18.4,1.52-24.29-4.57-3.57-3.69-10.81-15.42-10.81-17.53,0-.57-.84-2.89-1.88-5.15-4.13-9.05-9.92-26.72-9.33-28.49,1.08-3.24,16.72.06,24.52,5.17,1.44.94,2.93,1.71,3.3,1.71,1.29,0,9.4,7.14,12.05,10.63,4,5.25,8.9,34.34,6.44,38.23ZM79.41,149c-12.58-9.4-23.67-13.64-38.91-14.86-9.4-.75-10.93-7.7-6.42-29.14,6.22-29.6,16.48-42.74,43.89-56.2,9.84-4.84,9.41-5.28,10.32,10.78,3.65,64.14.44,96.39-8.88,89.42Z"/>
</svg>