<?xml version="1.0" encoding="UTF-8"?>
<svg id="Layer_1" data-name="Layer 1" xmlns="http://www.w3.org/2000/svg" viewBox="0 0 256 256">
  <path d="M24,183.58c0,14.05,26.2,44.39,47,54.42,2.48,1.19,5.64,2.78,7.04,3.52,42.17,22.35,102.91,1.54,134.4-46.06,2.17-3.28,4.68-6.86,5.57-7.96,2.46-3.02,8.99-18.33,8.99-21.08,0-5.33-1.08-4.53-36.63,27.22-25.53,22.8-37.87,31.37-45.2,31.37-3.59,0-4.19-5.9-4.16-40.9.02-28.58-1.82-26.26,22.31-28.05,7.79-.58,20.87-1.77,29.05-2.65,8.94-.97,17.52-1.34,21.5-.95,3.64.36,8.87.88,11.62,1.15,13.43,1.32,18.99-12.88,8.54-21.82-7.65-6.54-16.32-7.63-41.16-5.16-14.12,1.41-15.29-1.81-16.43-45.11q-.72-27-5.41-31.59c-10.01-9.79-22.56-4.82-16.97,6.71,1.97,4.06,2.15,6.33,2.48,30.63.19,14.43.65,29.67,1,33.85.75,8.8.9,8.65-9.17,9.59-8.18.76-7.75,3.73-7.08-48.19.28-21.81-4.29-54.38-8.05-57.25-2.71-2.08-6.91-1.5-9.07,1.25-2.35,2.99-4.27,3.16-6.6.59-2.63-2.91-13.24-6.1-14.86-4.48-.67.67-12.03,4.04-17.82,5.29-12,2.59-35.17,16.13-45.4,26.54-25.23,25.66-33.57,87.47-16.89,125.21.77,1.73,1.39,3.5,1.39,3.93ZM76.51,207.75c-9.05,9.96-32.43-5.23-32.52-21.13,0-.62-.71-2.47-1.57-4.12-2.65-5.07-9.42-25.56-9.42-28.49,0-1.59,1.23-1.24,7.41,2.11,9.34,5.06,18.18,6.93,34.4,7.28,20.96.46,21.8,22.23,1.7,44.34ZM114.24,37.43c1.05-1.33,2.78-2.43,3.84-2.43,2.55,0,2.85,42.38.46,64-.82,7.42-1.84,18-2.26,23.49-.76,9.84-2.79,13.81-4.62,9.04-1.73-4.52.66-91.66,2.59-94.11ZM108.02,187.75c0-1.79.67-5.95,1.46-9.25.8-3.3,1.47-7.21,1.48-8.69.02-1.48.5-3.9,1.06-5.39,2.04-5.35,2.47-.82,2.49,25.91.02,25.25.18,27.59,2.18,33.15,3.35,9.33-4.29,11.62-20.18,6.06-8.67-3.03-8.64-2.95-2.77-10.68,8.56-11.26,14.23-23.64,14.27-31.12ZM34.44,103.98c6.57-30.94,24.78-50.98,54.56-60.04,6.18-1.88,6.62-.9,5.1,11.35-.63,5.07-1.57,24.71-2.1,43.65-.81,29.04-1.21,34.69-2.53,36-2.6,2.59-27.75,2.1-37.48-.73-4.12-1.2-9.75-2.25-12.5-2.34-8.6-.27-9.68-6.17-5.06-27.9Z"/>
</svg>