<?xml version="1.0" encoding="UTF-8"?>
<svg id="Layer_1" data-name="Layer 1" xmlns="http://www.w3.org/2000/svg" viewBox="0 0 256 256">
  <defs>
    <style>
      .cls-1 {
        fill: #231f20;
      }
    </style>
  </defs>
  <path class="cls-1" d="M224.41,61.84c-9.44,5.91-9.91,15.87-1.07,22.61,8.73,6.66,18.76-.95,17.38-13.19-.97-8.6-9.63-13.61-16.31-9.42Z"/>
  <path class="cls-1" d="M98.57,93.91c15.38-4.83,14.65-6.46,15.63,35.06,2.5,105.89,2.08,97.04,4.83,102,4.05,7.31,10.03,8.98,14.86,4.15,1.73-1.73,1.81-3.79,1.41-34.22-.53-40.03-2.81-36.9,24.7-33.85,4.68.52,13.25.95,19.05.95,13.22,0,12.95-.25,12.95,12.73,0,27.49,26.78,58.62,39.89,46.37,5.43-5.08,3.54-12.78-4.58-18.62-4.81-3.46-9.9-10-13.07-16.8-2.79-6-2.93-55.8-.21-73.87,2.28-15.12-2.75-28.57-15.42-41.25q-6.94-6.94-3.54-9.5c8.23-6.19,13.07-11.6,16.07-17.97,3.55-7.52,5.5-10.09,7.68-10.09,3.7,0,10.41-4.35,11.79-7.64,3.04-7.27-4.79-15.12-13.68-13.72-2.86.45-4.16.06-6.61-2.01-5.34-4.49-12.42-5.86-18.25-3.53-1.33.53-3.81,2.56-5.5,4.5-3.54,4.07-79.49,5.58-97.92,1.95-19.14-3.77-55.7-1.5-65.83,4.08-17.28,9.53-12.12,20.54,7.48,15.96,7.83-1.83,43.35-2.23,50.19-.57,2.2.53,8.85,1.27,14.77,1.63,14.68.9,14.16.3,14.56,16.76.38,15.59,1.51,13.88-11.33,17.06-28.8,7.13-26.86,6.85-47.5,6.95-21.71.11-27.97-1.58-31.56-8.52-2.85-5.52-10.44-4.21-10.44,1.81,0,22.22,48.38,33.13,89.57,20.21ZM192.96,119c-.48,4.13-.9,11.83-.92,17.13-.06,12.74.49,12.36-16.82,11.35-7.55-.44-19.51-.89-26.58-.99-15.85-.23-14.31,2.87-14.88-29.84-.55-31.72-2.03-28.09,12.23-30.03,6.32-.86,12.62-1.76,14-2,20.74-3.63,35.59,11.87,32.96,34.39ZM142,40.93c49.16-2.96,58.54.31,38.9,13.56-2.42,1.63-6.2,4.38-8.4,6.11-3.72,2.92-4.73,3.18-14.5,3.8-5.78.36-13.42,1.27-16.98,2.01-10.54,2.19-10.98,1.69-11-12.6-.02-12.7-.55-12.13,11.98-12.88Z"/>
</svg>