<?xml version="1.0" encoding="UTF-8"?>
<svg id="Layer_1" data-name="Layer 1" xmlns="http://www.w3.org/2000/svg" viewBox="0 0 256 256">
  <defs>
    <style>
      .cls-1 {
        fill: #231f20;
      }
    </style>
  </defs>
  <path class="cls-1" d="M162,174.96c29.89-10.52,51.31-35.47,57.48-66.96,1.24-6.31,3.19-14.24,6.03-24.5,1.6-5.78,4.16-17.6,5.5-25.41.51-2.97,2.08-7.07,3.48-9.09,4.23-6.1,6.42-19.74,3.86-24.11-4.64-7.94-5.75-8.19-33.87-7.5-14.98.37-29.61.19-36.5-.44-15.56-1.43-51.47-1.98-62.32-.94-4.85.46-13.17,1.53-18.5,2.37-5.33.84-12.38,1.8-15.68,2.14-3.3.33-9.89,1.26-14.63,2.06-13.35,2.25-19.73,2.14-23.87-.41-12.38-7.62-22.82,7.72-13.35,19.6,6.46,8.1,16.55,10.38,35.16,7.96,6.98-.91,15.4-1.93,18.7-2.27s9.82-1.22,14.5-1.97c26.58-4.25,24.13-7.52,24.67,32.76.91,67.34-.45,86.27-6.17,86.18-2.75-.04-15.57-.62-28.5-1.29-20.5-1.06-29.91-1.91-42.57-3.84-10.72-1.63-20.14,7.57-15.98,15.62,2.13,4.11,5.67,5.7,14.22,6.39,17.19,1.38,24.47,11.24,19.33,26.2-4.04,11.73-6.31,13.18-21.73,13.84-11.11.48-15.08,8.05-7.95,15.18,9.87,9.87,44.72.35,44.68-12.2,0-.45.86-2.62,1.92-4.82,5.73-11.93,6.69-18.15,4.67-30.41q-.89-5.41,17.43-4.78c22.36.77,20.36-1.27,21.01,21.49.69,24.23,3.99,31.19,14.82,31.2,10.47.01,12.15-4.16,12.15-30.21s-2.15-23.33,22-31.83ZM139.61,111.75c.32-24.33.15-48.07-.39-54.25-.79-9.12-.7-11.41.52-13.37,1.33-2.15,1.94-2.32,6.61-1.77,16.73,1.96,31.16,2.73,46.33,2.47,20.15-.34,18.85-1,16.88,8.53-.86,4.16-1.56,8.49-1.56,9.63,0,1.85-1.15,6.51-5.55,22.52-.76,2.75-1.66,7.02-2.02,9.5-4.2,29.34-20.48,50.77-45.94,60.45-3.85,1.46-7.78,3.09-8.74,3.61-6.57,3.58-6.79,1.85-6.15-47.3Z"/>
</svg>