<?xml version="1.0" encoding="UTF-8"?>
<svg id="Layer_1" data-name="Layer 1" xmlns="http://www.w3.org/2000/svg" viewBox="0 0 256 256">
  <defs>
    <style>
      .cls-1 {
        fill: #231f20;
      }
    </style>
  </defs>
  <path class="cls-1" d="M229.76,187.84c-1.25-.09-3.53-.24-5.07-.35-5.15-.36-5.32-1.74-1.36-10.54,8.19-18.18,5.37-17.48-19.82,4.85-7.14,6.33-7.93,6.5-23.14,4.73-7.3-.85-17.75-1.54-23.22-1.54-15.14,0-14.79,1.25-16.37-59.27-.08-3.15,1.22-4.96,2-2.77,6.37,18,39.76,25.4,57.99,12.85,13.17-9.06,19.48-36.8,10.26-45.06-8.03-7.19-16.02-.25-16.03,13.92-.02,15.44-14.07,23.9-27.98,16.85-17.61-8.93-15.6-35.1,3.92-50.93,11.52-9.34,17.04-24.6,11.06-30.58-4.28-4.29-8.6-1.85-13.29,7.5-1.8,3.59-3.87,5.85-7.33,8-4.95,3.08-13.38,11.13-13.38,12.79,0,.51-1.08,2.21-2.4,3.78-1.32,1.57-2.61,3.44-2.86,4.14-1.45,4.07-2.18-2.35-1.89-16.65.64-31.38-4.24-40.51-17.93-33.53q-4,2.04-6.59,0c-3.75-2.95-20.1-2.98-25.59-.04-2.05,1.1-4.66,2-5.8,2-3.34,0-22.23,9.03-32.48,15.54C18.41,65.13,1.57,139.78,22.07,178.24c1.41,2.65,1.11,4.97-1.07,8.26-4.67,7.05-1,14.58,8.22,16.85,1.72.42,4.71,3.17,8.13,7.46,37.83,47.42,105.86,52.68,150.65,11.66,7.33-6.72,8.88-7.46,15.47-7.47,25.28-.04,36.03-4.55,36.03-15.14,0-5.56-4.96-11.68-9.74-12.01ZM34.41,103.98c6.05-28.78,16.19-41.71,43.09-54.94,4.4-2.16,8.44-3.81,8.98-3.66,1.55.44,1.36,131.51-.19,132.8-.82.68-4.64.64-11.69-.12-9.78-1.05-24.25-.28-29.02,1.55-10.55,4.05-17.71-44.48-11.16-75.63ZM84.01,218.99c-4.22,4.51-7.89,3.25-21.74-7.49-6.18-4.79-6.98-6.29-4-7.43,2.31-.88,17.59-.34,23.73.84,6.68,1.29,7.64,8.05,2.01,14.08ZM109.86,38.91c7.01-5.68,7.22-4.51,5.93,32.78-.82,23.77-.81,37.74.07,55.31,2.42,48.71,1.79,56.03-4.71,54.33-4.69-1.23-5.94-138.65-1.29-142.42ZM117.76,230.75c-4.46,5.52-15.95.49-12.83-5.61,1.33-2.6,2.07-5.97,2.07-9.4,0-2.94.54-5.88,1.2-6.54,1.43-1.43,5.7-1.55,7.79-.23,1.85,1.17,3.37,19.81,1.78,21.78ZM147.69,224.25c-3.53.27-5.44-8.44-2.6-11.86,1.36-1.63,18.55-.96,20.41.8,1.79,1.69-12.67,10.67-17.81,11.06Z"/>
</svg>