<?xml version="1.0" encoding="UTF-8"?>
<svg id="Layer_1" data-name="Layer 1" xmlns="http://www.w3.org/2000/svg" viewBox="0 0 256 256">
  <defs>
    <style>
      .cls-1 {
        fill: #231f20;
      }
    </style>
  </defs>
  <path class="cls-1" d="M210.32,71.84c-6.78,7.89-16.27,8.73-55.32,4.92-16.97-1.66-15.62-.39-16.49-15.44-1.66-28.82-5.63-38.61-15.48-38.16-1.94.09-9.15.47-16.03.84-8.05.44-13.88,1.27-16.37,2.34-2.13.91-4.74,1.66-5.81,1.66-3.21,0-22.21,9.12-32.36,15.52-3.28,2.07-9.56,7.45-13.96,11.95-6.57,6.73-8.7,8.3-11.91,8.82-8.09,1.3-12.06,8.7-9.04,16.86,2.62,7.07,2.73,8.47,1.07,13.53-5.4,16.39-5.49,62.83-.15,73.29.71,1.39,1.62,4.1,2.03,6.03s1.07,3.95,1.49,4.5,1.32,2.8,2.01,5c1.37,4.37,1.58,4.83,8.07,17.98,8.51,17.25,29.42,34.16,53.43,43.18,43.74,16.45,97.21-4.27,126.94-49.21,2.17-3.28,4.67-6.86,5.57-7.96,2.46-3.02,8.99-18.33,8.99-21.08,0-5.33-1.11-4.51-36.71,27.27-26.04,23.25-31.74,27.21-46.6,32.36-7.55,2.62-10.07,2.09-10.34-2.16-.08-1.31-.7-7.57-1.37-13.89-1.39-13.03-.67-58.65,1.38-87.86,1.4-19.91,1.61-20.34,9.5-19.57,63.55,6.22,85.55,1.88,92.18-18.2,5.75-17.43-12.54-26.71-24.72-12.54ZM101.98,230.51c-1.01.62-12.55-2.94-14.48-4.48-.55-.44-2.12-1.13-3.5-1.55-14.22-4.3-40-28.64-40-37.76,0-.56-.84-2.86-1.88-5.12-9.78-21.41-9.79-24.88-.09-27,27.93-6.1,57.9,14.96,57.98,40.74.01,3.38.67,10.65,1.47,16.15,1.72,11.9,1.89,18.15.49,19.01ZM109.43,157.9c-.67.67-3.24-.95-11.78-7.4-3.64-2.75-9.21-6.28-12.38-7.85-3.17-1.57-6.96-3.47-8.41-4.24-7.81-4.12-22.71-5.31-35.1-2.8-10.55,2.14-14.77-20.82-6.34-34.48.48-.78,75.65-.4,76.44.39,1.3,1.3-1.01,54.96-2.42,56.38ZM111.2,72.88c-1.51.93-60.88,2.44-62.27,1.58-7.95-4.91,25.49-27.23,51.57-34.42,5.51-1.52,10.32-1.2,10.87.72,1.26,4.35,1.12,31.33-.18,32.13Z"/>
</svg>