<?xml version="1.0" encoding="UTF-8"?>
<svg id="Layer_1" data-name="Layer 1" xmlns="http://www.w3.org/2000/svg" viewBox="0 0 256 256">
  <defs>
    <style>
      .cls-1 {
        fill: #231f20;
      }
    </style>
  </defs>
  <path class="cls-1" d="M89.5,176.16c-9.9.37-19.57,1.21-21.5,1.86-12.36,4.18-32.69.74-36.31-6.15-7.45-14.14-22.41-3.88-15.75,10.8,6.24,13.75,28.83,20.07,53.43,14.96,25.11-5.22,40.64-3.37,40.64,4.83,0,20.66,5.33,31.54,15.44,31.54s12.81-5.43,11.94-24.75c-.86-19.06-4.71-17.11,35.28-17.9,44.28-.88,42.68-1.6,44.33,19.98,1.1,14.38,2.77,19.07,7.85,22.02,16.84,9.8,18.24-37.57,1.62-54.69-7.2-7.42-5.41-7.16-49.45-7.16q-39.5,0-39.82-3.91c-.76-9.33.6-10.04,22.32-11.59,7.7-.55,20.69-1.72,28.88-2.61,8.96-.97,17.51-1.35,21.5-.95,3.64.36,8.87.88,11.62,1.15,13.41,1.32,18.99-12.88,8.57-21.8-6.97-5.97-18.2-7.85-34.6-5.79-4.39.55-16.3,1.68-26.47,2.51-10.17.83-21.26,1.79-24.64,2.13-8.17.82-7.73,3.79-7.06-48.14.28-21.81-4.3-54.38-8.05-57.25-2.26-1.73-6.79-1.56-8.69.33-3.83,3.83-4.04,5.49-4.69,37.42-.36,17.33-1.11,34.65-1.68,38.5s-1.35,12.09-1.74,18.31c-.43,6.9-1.21,11.81-1.98,12.58-4.22,4.22-50.04,5.48-62.87,1.73-22.74-6.64-33.98.83-21.54,14.33,12.01,13.03,41.81,18.54,71.41,13.2,11.69-2.11,14.5-.3,13.03,8.39-.92,5.41-.73,5.36-20.99,6.12Z"/>
</svg>