<?xml version="1.0" encoding="UTF-8"?>
<svg id="Layer_1" data-name="Layer 1" xmlns="http://www.w3.org/2000/svg" viewBox="0 0 256 256">
  <path d="M204,17.44c-15.51.36-29.81.17-36.5-.49-15.04-1.47-50.93-1.99-62.44-.9-5.19.49-13.07,1.54-17.5,2.33s-10.98,1.72-14.56,2.07c-3.57.35-10.34,1.28-15.04,2.08-13.47,2.28-20.81,2.17-24.96-.38-10.79-6.64-21.11,4.38-15.39,16.43,2.52,5.31,7.4,8.92,14.76,10.91,7.72,2.09,8.04,2.95,3.22,8.83-22.05,26.92-28.41,86.39-12.98,121.32.77,1.73,1.39,3.5,1.39,3.93,0,18.2,32.01,49.99,61.5,61.08,49.76,18.71,113.04-12.31,137.75-67.52,9.06-20.26,7.23-19.34-32.96,16.54-25.46,22.73-35.72,29.85-45.94,31.89-4.67.93-4.62,1.86-4.58-83.07.02-42.36-.31-81.29-.73-86.51-.99-12.48.02-14.5,6.81-13.66,55.52,6.94,94.17,1.91,94.15-12.24-.02-11.31-5.87-13.36-36-12.67ZM87.39,225.87c-2.26-1.03-4.42-1.87-4.8-1.87-8.76,0-38.55-28.85-38.6-37.38,0-.62-.71-2.47-1.57-4.12-8.58-16.44-12.33-37.42-6.92-38.7,33.08-7.79,62.12,13.01,66.03,47.31.9,7.91,2.03,17.54,2.51,21.39,2.61,21.08,1.78,21.75-16.65,13.37ZM101.57,144.16c-18.08-17.56-34.87-22.39-66.07-18.99-6.66.73-2.92-24.42,6.64-44.67,8.93-18.92,30.27-32.85,55.86-36.46,15.91-2.25,14.49-7.44,14.56,53.36.08,63.55,1.23,58.63-10.99,46.76Z"/>
</svg>