<?xml version="1.0" encoding="UTF-8"?>
<svg id="Layer_1" data-name="Layer 1" xmlns="http://www.w3.org/2000/svg" viewBox="0 0 256 256">
  <path d="M165.5,49.61c28.43-1.01,46.91-2.49,51.58-4.14,2.29-.81,5.94-1.47,8.11-1.47,9.31,0,15.83-7.71,12.76-15.11-2.41-5.82-9.19-7.14-21.95-4.27-12.71,2.86-17.03,3.23-51.56,4.4-32.13,1.09-36.06,1.04-48.94-.62-7.7-1-18.57-1.91-24.15-2.04-5.58-.13-13.51-.7-17.62-1.27-23.6-3.28-51.88.76-52.54,7.51-.77,7.93,8.25,11.39,29.8,11.39,9.6,0,18.48.58,23.34,1.5,4.31.82,11.97,1.5,17.03,1.5,28.09,0,32.64,3.4,32.64,24.39,0,11.48-.86,12.35-13.05,13.29-15.14,1.17-21.97-1.95-23.45-10.67-2.85-16.86-21.69-16.13-20.14.79,1.99,21.71,21.14,34.17,46.27,30.11,9.8-1.58,10.37-1.07,10.37,9.08,0,9.37,1,8.49-18.5,16.22-26.19,10.37-33.94,19.7-33.34,40.14.54,18.06,4.77,21.92,21.73,19.82,28.35-3.5,27.16-4.01,25.04,10.71-2.81,19.54-1.24,29.5,5.08,32.12,7.52,3.12,11.97-3.56,12-18.01.05-25.97,2.16-29.41,18.96-30.99,6.86-.64,12.77-1.35,13.12-1.57.36-.22,4.64.09,9.53.69,13.01,1.59,18.07,5.11,23.01,16.04,3.17,7.01,13.37,5.28,13.37-2.28,0-20.59-28.43-34.2-62.08-29.72-11.99,1.6-11.95,1.64-11.26-12,.9-17.92.59-17.37,13.64-23.8,18.22-8.97,24.48-13.44,29.23-20.87,12.68-19.82-3.46-36.6-29.88-31.08-6.99,1.46-9.65,1.25-9.67-.79-.08-7.82-.9-20.84-1.49-23.37-1.04-4.51.37-4.86,23-5.66ZM122.48,157.42c-1.07,12.79-3.83,14.5-23.61,14.56-13.75.04-9.69-13.81,5.72-19.51,2.7-1,5.45-2.23,6.12-2.74.67-.51,3.15-1.51,5.5-2.22,6.43-1.95,7.15-.81,6.26,9.92ZM151.5,100.14c16.94-3.12,17.44,1.16,1.14,9.75-7.5,3.95-9.64,3.67-9.64-1.25s2.59-7.41,8.5-8.5Z"/>
</svg>