<?xml version="1.0" encoding="UTF-8"?>
<svg id="Layer_1" data-name="Layer 1" xmlns="http://www.w3.org/2000/svg" viewBox="0 0 256 256">
  <path d="M69.5,197.59c13.03-2.73,40.57-3.36,42.63-.97,1.98,2.29,2.96,8.26,1.74,10.59-1.36,2.6-4.38,2.8-46.37,3.09-47.42.33-50.68,1.17-52.13,13.41-1.49,12.61-.6,12.81,57.66,12.47,43.79-.25,51.13-.07,59.7,1.45,18.26,3.24,67.19,2.64,79.27-.98,6.49-1.95,10.74-2.68,13.44-2.32,20.6,2.74,15.71-49.36-5.73-61.08-2.9-1.58-6.95-1.75-42.66-1.75q-39.45,0-40.37-4c-1.9-8.29-1.36-91.35.72-110.5,2.93-27-3.9-41.23-14.62-30.5-3.14,3.13-4.44,9.41-5.81,27.9-.57,7.76-1.7,19.78-2.5,26.72-1.04,8.97-1.46,23.99-1.48,52-.02,47.63,2.7,42.24-21.7,43.04-10.97.36-21.35,1.18-23.29,1.85-12.27,4.21-32.68.77-36.31-6.12-7.45-14.14-22.41-3.88-15.75,10.8,6.26,13.79,28.88,20.09,53.56,14.92ZM151.5,191.95c52.96-2.66,63.1-1.11,64.86,9.91,1.4,8.79.69,9.2-19.7,11.22-32.71,3.24-54.66-1.18-56.18-11.33-1.38-9.22-1.44-9.17,11.02-9.79Z"/>
</svg>