<?xml version="1.0" encoding="UTF-8"?>
<svg id="Layer_1" data-name="Layer 1" xmlns="http://www.w3.org/2000/svg" viewBox="0 0 256 256">
  <path d="M201.85,212.45c-33.12,3.41-44.19,1.09-29.85-6.27,3.58-1.83,9.01-4.63,12.09-6.2,10.93-5.61,31.91-23.46,31.91-27.14,0-.55,2.14-5.31,4.75-10.57,4.97-10.01,7.91-59.23,4.11-68.69-1.83-4.56-7.53-11.19-10.75-12.52-4.97-2.06-50.92-1-54.23,1.24-10.9,7.4-23.37,1.37-23.16-11.21.29-17.13,2.5-19,10.24-8.65,8.34,11.16,21.67,6,18.04-6.97-2.63-9.4-13.8-19.43-21.66-19.45-1.26,0-3.15-1.31-4.5-3.1-7.54-10.04-11.12-11.22-17.33-5.76-3.16,2.77-3.87,3.01-6.08,2-10.99-5.01-36.77.87-49.91,11.37-2.2,1.76-5.07,3.54-6.38,3.95-3.19,1.01-16.39,14.14-18.63,18.53-.98,1.92-3.51,5.47-5.62,7.87-11.59,13.21-16.67,30.08-10.76,35.74,4.04,3.87,69.26,5.14,79.89,1.55,9.12-3.08,8.43-6.8,9.03,49.05.62,57.23,2.35,51.21-14.86,51.61-28.57.67-37.27-3.51-57.26-27.52-16.58-19.91-17-20.31-21.39-20.31-10.63,0-12.09,8.13-3.18,17.78,6.58,7.14,24.67,29.28,24.67,30.2,0,1.33-2.86,2.02-8.42,2.02-16.09,0-23.93,17.19-11.09,24.3,1.42.78,16.79,1.04,52.01.89,40.65-.18,51.68.05,59,1.28,36.23,6.05,89.71.4,98.84-10.45,10.07-11.97-1.11-17.49-29.49-14.56ZM114.41,82.5c-.99,4.64-2.21,5.5-7.82,5.5-3.19,0-6.66.76-9.09,2-5.33,2.71-51.5,3.13-51.5.46,0-5.33,16.04-24.1,24.97-29.24,2.49-1.43,5.8-3.64,7.35-4.91,2.43-1.99,14.09-7.99,18.67-9.62,4.2-1.49,17.29,2.12,18.95,5.22.91,1.71-.24,24.42-1.55,30.59ZM144.86,202.33c-4.5,1.11-4.18,2.38-7.83-30.83-5.86-53.3-3.1-69.48,11.84-69.58,8.68-.06,12.9-.54,16.63-1.92,6.94-2.56,38.47-2.89,40.93-.43,3.28,3.28,2.22,47.74-1.3,54.46-9.07,17.31-9.68,18.12-19.44,25.68-6.17,4.78-36.41,21.53-40.83,22.63Z"/>
</svg>