<?xml version="1.0" encoding="UTF-8"?>
<svg id="Layer_1" data-name="Layer 1" xmlns="http://www.w3.org/2000/svg" viewBox="0 0 256 256">
  <path d="M146.71,102.56c63.56,6.27,85.7,1.91,92.33-18.18,5.75-17.43-12.54-26.71-24.72-12.54-6.78,7.89-16.27,8.73-55.32,4.92-16.98-1.66-15.62-.39-16.49-15.44-1.94-33.69-10.23-46.58-22.74-35.4q-3.27,2.92-3.46,24.14c-.11,12.11-.61,21.64-1.16,22.19-2.59,2.59-3.15-.87-3.15-19.6,0-23.01-1.38-27.89-8.05-28.45-6.63-.56-7.33,1.35-8.08,21.77-1.11,30.41,1.09,28.02-26.11,28.32-22.4.24-19.54.89-31.35-7.1-12.29-8.31-23.11,4.45-15.19,17.9,7.71,13.08,13.95,15.32,43.99,15.75,29.72.43,26.29-6.1,24.92,47.42-1.41,54.91-1.92,58.15-11.86,75.13-2.35,4.02-1.58,9.17,1.81,12.02,6.67,5.61,14.78,1.89,19.95-9.15,1.74-3.72,3.56-7.52,4.03-8.44.48-.93,1.31-4.42,1.85-7.76,2.13-13.21,5.72-8.42,8.04,10.71,1.12,9.26,1.89,11.17,5.68,14.15,9.03,7.1,18.02-2.76,15.11-16.56-1.69-8-1.54-62.47.24-90.79,1.61-25.48,1.73-25.8,9.73-25.01ZM115.86,127.93c-.85,24.49-2.1,31.06-3.2,16.87-.85-10.91-.84-42.28,0-43.13,3.72-3.72,4.12-.46,3.19,26.26Z"/>
</svg>