<?xml version="1.0" encoding="UTF-8"?>
<svg id="Layer_1" data-name="Layer 1" xmlns="http://www.w3.org/2000/svg" viewBox="0 0 256 256">
  <path d="M228.58,184c13.4,0,19.79-8.83,12.02-16.6-3.26-3.26-3.71-3.4-10.88-3.4-10.41,0-10.17.51-9.35-19.82,2.26-55.75-7.03-67.4-54.09-67.76-28.61-.22-25.87.97-26.71-11.59-.38-5.68-1.34-14.8-2.14-20.26-.79-5.46-1.44-11.44-1.44-13.3,0-9.32-8.09-14.96-15.17-10.56-5.55,3.44-5.96,8.59-2.76,34.56,3.32,27.02,7.02,23.67-30.56,27.67-21.95,2.33-53.25,3.97-56.86,2.97-10.38-2.87-15.54,8.82-6.52,14.79,7.28,4.82,59.08,5.33,79.88.79,18.26-3.98,19.65-1.85,18.87,29.01-.17,6.6-.18,16.38-.03,21.75.36,12.71.5,12.63-17.97,10.28-50.62-6.44-80.85,0-84.95,18.11-2.83,12.48,5.88,16.14,15.08,6.34,6.52-6.94,30.54-8.95,60.5-5.07,4.95.64,12.6,1.49,17,1.88q8,.72,8,24.8c0,26.31.22,27.41,5.62,27.41,6.98,0,12.38-13.32,13.7-33.84,1.2-18.53-1.86-16.8,30.84-17.5,30.57-.65,28.72-1.11,29.85,7.33,3.56,26.73,32.83,52.48,40.04,35.22,2.14-5.13.5-9.12-6.22-15.11-15-13.37-18.02-28.11-5.75-28.11ZM148.17,96.95c23.64-3.83,46.12.37,48.73,9.11,1.9,6.32.86,6.94-11.77,6.94-5.85,0-13.1.41-16.13.9-13.85,2.25-24.76,2.44-25.32.46-3.06-10.74-1.6-16.42,4.49-17.41ZM172.44,164.58c-31.96.89-29.44,2.14-29.44-14.64,0-15.52-1.16-14.47,16.5-14.85,6.6-.14,12.22-.49,12.5-.77.77-.8,25.33.15,26.75,1.03.89.55,1.25,4.31,1.25,13.03,0,16.82,2.47,15.37-27.56,16.21Z"/>
</svg>