<?xml version="1.0" encoding="UTF-8"?>
<svg id="Layer_1" data-name="Layer 1" xmlns="http://www.w3.org/2000/svg" viewBox="0 0 256 256">
  <path d="M231.86,31.94c-12.18-5.05-20.62,5.47-23.73,29.56-2.42,18.8-6.16,19.87-53.14,15.26-16.98-1.66-15.62-.4-16.49-15.45-1.97-34.15-10.73-47.3-23.19-34.83q-3.48,3.48-3.19,24.56c.35,25.49,4.53,22.49-32.42,23.29-32.91.71-35.16.47-41.33-4.45-18.49-14.73-31.11,5.8-13.71,22.3,8.2,7.78,11.26,8.29,50.68,8.48,41.79.21,37.16-1.5,36.88,13.63-.93,49.81-1.36,51.12-16.25,49.71-5.76-.55-19.92-1.43-31.47-1.95-11.55-.53-22.57-1.43-24.49-2.01-12.96-3.89-25.54,5.21-20.55,14.86,2.13,4.11,5.67,5.7,14.22,6.39,17.19,1.38,24.47,11.24,19.33,26.2-4.04,11.73-6.31,13.18-21.73,13.84-11.11.48-15.08,8.05-7.95,15.18,9.87,9.87,44.72.35,44.68-12.2,0-.45.86-2.62,1.92-4.82,5.73-11.93,6.69-18.16,4.67-30.4q-.89-5.4,15.43-4.88c19.36.62,18.98.39,18.98,11.57,0,4.08.66,11.3,1.46,16.06.81,4.75,1.74,10.87,2.09,13.58,1.24,9.79,11.01,15.09,16.92,9.18,3.55-3.55,4.73-9.13,3.43-16.16-4.26-23.03-1.85-32.68,9.09-36.45,22.57-7.78,26.73-9.39,33.31-12.89,21.99-11.71,44.69-43.81,44.69-63.22,0-3.23,1.84-6,8.03-12.09,8.54-8.41,10.32-17.3,4.98-24.8-3.44-4.83-2.28-17.87,1.82-20.4,4.73-2.93,2.71-14.31-2.96-16.66ZM191.57,122.14c-8.81,17.64-18.08,26.01-36.82,33.26-3.71,1.43-9.72,3.76-13.35,5.18-3.63,1.41-7.23,2.33-8,2.03-3.13-1.2-.33-56.72,2.99-59.15,1.16-.85,3.51-1.17,6.47-.88,19.93,1.95,38.92,3.43,44.27,3.44,10.91.03,11.47,2.06,4.45,16.12Z"/>
</svg>