<?xml version="1.0" encoding="UTF-8"?>
<svg id="Layer_1" data-name="Layer 1" xmlns="http://www.w3.org/2000/svg" viewBox="0 0 256 256">
  <defs>
    <style>
      .cls-1 {
        fill: #231f20;
      }
    </style>
  </defs>
  <path class="cls-1" d="M223.78,219.78c-11.43.65-14.18-1.14-17.52-11.4-4.87-14.96-6.18-60.8-1.86-65.12.32-.32,6.18-.48,13.03-.36,15.27.27,19.57-1.93,19.57-10,0-7.22-4.33-9.45-19.99-10.29-12.51-.67-13.01-1.08-13.01-10.57,0-7.53-2-12.23-7.85-18.4-8.24-8.7-14.46-10.73-38.65-12.64-18.27-1.44-16.78.1-17.64-18.28-1.34-28.55-8.68-41.9-17.93-32.65-2.01,2-2.07,2.93-1.81,25.92q.3,27.03-6.7,27c-5.03,0-6.41-1.64-6.43-7.68,0-2.1-.68-6.29-1.49-9.32s-1.48-6.49-1.49-7.71c-.04-8.08-12.28-23.83-20.75-26.72-18.16-6.19-27.15,9.9-10.28,18.42,17.93,9.05,18.42,34.16.7,35.32-5.22.34-14.37,1.16-20.33,1.83q-10.84,1.2-20.84-2.29c-23.35-8.16-22.37,5.64,1.19,16.79,5.66,2.68,5.79,2.69,29.75,2.78q24.06.09,24.94,5.93c1.22,8.12-.1,9.44-7.53,7.54-7.86-2.01-33.74-1.83-40.84.29-3.02.9-7.6,1.93-10.18,2.29-10.45,1.45-15.34,9.39-9.26,15.02,3.84,3.56,8.05,3.99,20.83,2.15,17.8-2.56,39.13-1.33,47.6,2.75,2.93,1.41,5.23,18.32,5.1,37.51-.04,5.71.35,16.28.87,23.5.61,8.56.58,16.66-.08,23.29-2.24,22.47,13.84,27.27,18.5,5.52,2.24-10.45,2.25-54.48.01-71.31-2.34-17.63-2.15-18.37,4.59-18.37,8.63,0,9.15,3.83,10.39,76.83.35,20.58,1.31,23.39,8.65,25.17,9.33,2.26,12.37-6.16,11.55-31.99-2.28-72.09-2.32-71.26,3.62-68.98.82.31,7.66.91,15.21,1.33,14.13.78,16.21,1.5,15.05,5.21-4.51,14.53,2,66.22,9.92,78.77,10.69,16.93,47.7,18.46,47.58,1.97-.06-7.94-3.31-9.76-16.18-9.02ZM109.24,112.01c-1.19-6.21-.4-8.64,3.01-9.3,8.41-1.62,9.89-.55,10.9,7.88,1.6,13.27-11.39,14.6-13.91,1.42ZM159.5,121.88c-14.77-1.27-22.68-11.73-15.45-20.44,1.5-1.81,3.22-1.8,18.56.09,18.63,2.3,21.61,4.2,21.75,13.91.13,8.72.5,8.62-24.85,6.43Z"/>
</svg>