<?xml version="1.0" encoding="UTF-8"?>
<svg id="Layer_1" data-name="Layer 1" xmlns="http://www.w3.org/2000/svg" viewBox="0 0 256 256">
  <path d="M164.34,117.06c23.27,5.19,41.37-16.74,32.48-39.35-5.43-13.79-27.08-21.88-40.55-15.16-22.47,11.21-16.88,48.94,8.07,54.51ZM160.17,77.75c1.19-2.3,4.72-2.19,7.83.25,1.38,1.08,2.95,1.97,3.5,1.98,5.97.16,10.69,11.9,6.4,15.9-11.76,10.96-25.5-3.09-17.73-18.13Z"/>
  <path d="M225.14,188c-5.47,0-5.81-2.13-1.77-11.1,7.04-15.63,4.76-16.47-9.94-3.65-19.06,16.62-15.85,15.4-35.19,13.43-9.2-.94-20.85-1.7-25.87-1.69-15.03.02-15.86-5.42-15.86-103.49,0-53.38.38-48.85-4.51-53.75-3.79-3.79-4.24-3.97-8.25-3.3-2.33.39-4.91.66-5.74.61-15-.97-19.97-.87-24.5.51-2.75.84-6.62,1.88-8.6,2.32-3.7.81-8.53,2.9-19.94,8.6-31.32,15.66-45.25,37.74-49.54,78.52-2.11,20.05-.65,45.73,3.01,52.88,4.02,7.85,4.09,13.75.22,17.41-7.77,7.32-3.68,15.85,8.87,18.49,3.98.84,5.58,1.82,7.94,4.88,38.51,49.88,105.8,55.51,153.62,12.84,6.66-5.94,6.34-5.84,23.81-7.51,17.47-1.67,22.61-4.89,22.61-14.15,0-6-5.11-11.84-10.36-11.84ZM38.71,173.26c-12.66-33.81-8.21-79.38,10.14-103.67,8.2-10.87,34.21-25.28,54.15-30.02,7.74-1.84,7.95-1.82,8.9.68.47,1.25.4,15.12-.17,31.25-.74,20.96-.7,36.49.14,56,2.45,56.78,2.87,54.72-10.87,53.4-4.68-.45-15.93-1.52-25-2.39-13-1.24-18.15-1.35-24.28-.49-9.87,1.38-10.84,1.02-13.01-4.76ZM114.36,231.22c-1.5,2.42-22.19-1.59-26.86-5.2-.55-.43-2.12-1.11-3.5-1.52-10.13-3.04-29.53-17.82-26.43-20.15,1.7-1.27,7.08-1.03,25.93,1.15,6.6.76,15.42,1.69,19.61,2.05,4.19.36,8.23,1.04,8.98,1.51,1.35.83,3.36,20.41,2.27,22.17ZM141.25,226.25c-1.63-.61-1.69-12.41-.07-14.03,1.95-1.95,24.82-.43,24.82,1.64,0,2.51-21.88,13.46-24.75,12.39Z"/>
</svg>