<?xml version="1.0" encoding="UTF-8"?>
<svg id="Layer_1" data-name="Layer 1" xmlns="http://www.w3.org/2000/svg" viewBox="0 0 256 256">
  <path d="M224.07,212.32c-6.76-.8-6.89-1.3-2.31-8.6,14.94-23.84,19.27-49.35,10.81-63.73-14.38-24.44-21-30-37.97-31.93-14.97-1.7-13.92,1.73-13.47-44.14.4-40.81.39-40.92-6.49-43.37-11.57-4.12-13.65,4.76-13.65,58.41,0,27.75.57,26.24-10.89,29.08-11.47,2.84-10.59,6.25-10.24-39.82.33-43.47.3-43.71-5.41-47.25-4.06-2.51-9.07-2.51-13.17-.01-7.43,4.53-7.61,5.65-8.55,52.03-.46,22.82-1.22,41.88-1.69,42.35-3.32,3.33-26.58,5.43-35.05,3.16-3.03-.81-8.42-1.77-12-2.13-10.08-1.01-15.53-4.83-23.26-16.32-6.26-9.31-12.74-7.47-12.74,3.61,0,14.99,11.14,25.82,31,30.12q28.29,6.13,42.34,3.66c13.05-2.28,12.03-5.58,11.45,36.86-.62,44.91,3.59,40.23-31.78,35.32-45.27-6.3-53.12-5.7-61.35,4.62-9.9,12.43.41,26.45,14.17,19.26,4.41-2.31,5.31-2.43,11.73-1.59,3.82.5,12.58,1.63,19.45,2.51,6.88.88,16.56,2.27,21.51,3.08,22.81,3.74,52.06,4.29,80.99,1.52,6.55-.63,21.33-.81,36.5-.46,24.6.57,25.61.52,28.76-1.48,12.47-7.92,7.22-22.88-8.69-24.76ZM154.32,212.73c-13.6,1.47-15.48,1.06-15.37-3.31.03-1.05.33-18.79.66-39.42.67-40.92.38-39.24,7.16-40.94,2.6-.65,6.08-1.56,7.73-2.02,1.65-.46,3.25-.88,3.56-.94,3.33-.61,3.77,2.35,4.31,28.9.62,30.44,1.64,42.42,4.23,49.73,2.34,6.59,2.65,6.39-12.28,8ZM213.9,174.7c-1.05,2.31-1.9,4.79-1.9,5.53,0,5.84-15.45,24.05-20.02,23.6-7.02-.7-14.28-63.43-8.7-75.14.76-1.6,1.68-1.74,7.54-1.15,18.87,1.91,31.71,28.14,23.08,47.17Z"/>
</svg>