<?xml version="1.0" encoding="UTF-8"?>
<svg id="Layer_1" data-name="Layer 1" xmlns="http://www.w3.org/2000/svg" viewBox="0 0 256 256">
  <defs>
    <style>
      .cls-1 {
        fill: #231f20;
      }
    </style>
  </defs>
  <path class="cls-1" d="M217.72,187.02c-4.17-.03-5.72-2.25-5.72-8.19,0-3.7-5.02-18.96-8.48-25.79-3.45-6.8-3.29-7.56,2.89-14.04,16.35-17.14,4.52-30.78-12.47-14.39-8.18,7.89-5.82,8.6-22.62-6.77-7.6-6.96-18.39-16.26-23.96-20.66-12.32-9.74-11.25-6.58-10.61-31.19.9-34.39-1.81-43.2-12.85-41.72-8.94,1.2-10.62,5.34-11.51,28.51-.81,21.02-.28,20.3-10.2,13.86-17.85-11.57-29.45-18.6-37.2-22.54-9.57-4.87-13.22-6.95-20.71-11.8-12.11-7.84-20.36-10.11-23.63-6.49-3.05,3.37-.96,10.17,3.12,10.17,1.38,0,8.03,3.75,10.73,6.04,3.78,3.22,12.31,8.84,18.11,11.93,8.68,4.63,35.62,23.04,48.55,33.17,10.64,8.34,9.96,4.39,11.5,66.99.74,30.15,1.66,28.04-11.66,26.77-40.56-3.88-41.55-3.94-49-2.91-4.13.57-11.41,1.47-16.19,2.01-14.73,1.65-20.84,5.44-20.77,12.89.08,9.53,3.28,10.49,37.47,11.27,15.95.36,31.93,1.11,35.5,1.67s10.23,1.32,14.79,1.7c10.45.87,11.21,1.58,11.21,10.48,0,10.65,2.97,16.06,9.85,17.96,8.62,2.38,16.15-5.62,16.15-17.16,0-10.41,15.43-11.22,22.99-1.21,10.12,13.41,25.25,14.93,38.15,3.84,7.06-6.06,9.14-7.04,16.82-7.88,24.38-2.67,24.17-26.38-.23-26.54ZM170.84,158c-5.87,10.1-10.84,20.63-10.84,22.94,0,3.11-2.25,4.06-9.59,4.06-11.48,0-11.21.53-11.91-24-.32-11.27-1.06-25.79-1.65-32.25-.59-6.46-.81-12.43-.49-13.25,1.18-3.07,1.78-2.61,26.86,20.44,13.94,12.81,13.58,11.78,7.61,22.06ZM188.44,188c-9.97,0-10.87-5.17-3.09-17.76,2.62-4.24,5.22-1.42,7.15,7.78,1.76,8.39,1.12,9.98-4.06,9.98Z"/>
</svg>