<?xml version="1.0" encoding="UTF-8"?>
<svg id="Layer_1" data-name="Layer 1" xmlns="http://www.w3.org/2000/svg" viewBox="0 0 256 256">
  <defs>
    <style>
      .cls-1 {
        fill: #231f20;
      }
    </style>
  </defs>
  <path class="cls-1" d="M224.4,42.4c-.87,3.36-1.94,6.55-2.37,7.1-.44.55-1.12,2.57-1.52,4.5-.4,1.93-1.58,5.39-2.61,7.7-1.04,2.31-1.89,4.87-1.89,5.69s-.42,1.75-.93,2.07c-.51.31-1.47,2.25-2.12,4.31-12.31,38.47-33.55,63.89-63.25,75.71-11.1,4.42-10.2,10.82-10.2-72.29,0-45.04-.41-47.18-9.11-47.18-10.45,0-12.4,15.31-11.52,90.6.41,35.19.48,34.64-4.93,36.81-10.18,4.07-10.72,2.93-8.47-17.7,1.21-11.08,1.69-22.35,1.53-36.16-.13-11.03.11-29.98.53-42.12,1.18-34.51-5.83-48-18.07-34.79-3.08,3.33-2.88,1.84-3.01,21.85-.26,38.19-2.44,110.36-3.4,112.91q-1.03,2.7-33.37,2.52c-35.47-.19-36.17-.09-37.21,5.46-1.09,5.83,7.5,14.61,14.3,14.61,1.7,0,9.9,9.66,12.16,14.33,5.42,11.2.66,19.05-12.87,21.2-15.49,2.46-13.07,19.47,2.77,19.46,15.65,0,28.98-10.44,32.23-25.26,1.66-7.58,2.02-7.77,11.44-6,13.17,2.48,14.66,3.86,11,10.26-3.82,6.68.99,13.5,9.5,13.5s13-6.8,13-18.39c0-4.42,2.55-7.11,6.74-7.11,2.76,0,3.54,1.68,5.81,12.47,2.06,9.77,5.93,14.53,11.8,14.53,8.78,0,13.12-6.38,10.4-15.29q-4.36-14.33,18.31-15.71c37.61-2.34,41.24-2.39,46.49-.65,2.72.9,7.2,1.91,9.95,2.24,2.75.33,7.16,1.28,9.81,2.11,9.32,2.93,17.69-1.61,17.69-9.59,0-6.69-5.15-10.41-16-11.55-3.57-.37-9.63-1.62-13.46-2.77-6.67-2-8.18-2.05-35.5-1.27-42.53,1.22-38.48,1.36-38.87-1.35-.47-3.3,2.32-5.91,7.17-6.72,16.87-2.82,38.94-15.53,53.1-30.57,8.99-9.55,13.03-16.43,25.8-43.88,1.66-3.57,3.62-7.66,4.34-9.07,13.6-26.51,20.23-54.97,14.11-60.58-8.31-7.61-14.94-2.78-19.29,14.05ZM115.96,183.55c-2.01,2.42-10.46,1.61-10.46-1,0-1.23.92-2.21,2.5-2.65,6.24-1.74,10.72.32,7.96,3.65Z"/>
</svg>