<?xml version="1.0" encoding="UTF-8"?>
<svg id="Layer_1" data-name="Layer 1" xmlns="http://www.w3.org/2000/svg" viewBox="0 0 256 256">
  <path d="M162.92,144c-21.63,0-32.76.36-34.23,1.12-7.17,3.67-7.66,11.98-.97,16.47,2.53,1.7,5.7,1.93,34.04,2.44,36.45.66,33.36-.57,34.36,13.69,1.53,21.7,13.11,42.35,28.62,51.02,7.07,3.95,15.17-.47,15.23-8.31.03-4.29-.09-4.48-8.51-12.44-13.7-12.96-14.6-16.68-15.45-64.5-.79-44.18-1.2-47.17-7.89-56.77-12.91-18.55-30.94-23.92-64.13-19.1-5.22.76-11.52,2.01-14,2.77-8.4,2.6-28.97,7.08-44.5,9.69-3.3.55-8.22,1.66-10.93,2.46-11.91,3.5-39.77,1.94-45.45-2.55-8.12-6.42-13.12-5.3-13.11,2.95.01,13.22,10.36,18.55,38.29,19.72,15.4.65,15.78.6,41.48-4.74,5.1-1.06,10.52-1.93,12.03-1.93s5.22-.67,8.22-1.5c3.01-.83,7.94-1.98,10.97-2.56,3.03-.58,7.3-1.7,9.5-2.48,2.2-.78,9.4-1.81,16-2.28,33.92-2.42,41.02,3.36,42.82,34.86,1.41,24.67,5.41,21.96-32.4,21.96Z"/>
</svg>