<?xml version="1.0" encoding="UTF-8"?>
<svg id="Layer_1" data-name="Layer 1" xmlns="http://www.w3.org/2000/svg" viewBox="0 0 256 256">
  <defs>
    <style>
      .cls-1 {
        fill: #231f20;
      }
    </style>
  </defs>
  <path class="cls-1" d="M65,64.18c53.67-.23,49.48-1.11,48.54,10.16-1.12,13.41-25.54,15.32-25.54,2,0-8.37-14.53-11.01-18.49-3.36-6.89,13.33,9.81,29.93,31.93,31.72,16.56,1.34,16.98,13.42.56,16.19-32.25,5.44-44.37,16.61-44.2,40.71.19,25.49,11.3,32.77,45.2,29.6,13.88-1.3,13-2.58,13,18.89s1.73,24.91,9.7,24.91c8.52,0,10.3-4.4,10.3-25.47,0-26.84-1.92-25.32,32.44-25.74,28.75-.35,29.56-.06,29.56,10.53,0,9.72,6.44,13.29,10.25,5.67,12.23-24.49-10.96-36.31-66.17-33.71-5.4.25-5.67-.39-6.21-15.29-.43-11.81-1.09-10.93,10.13-13.52,49.27-11.39,50.07-56.98,1-56.98q-13.5,0-13.49-6.21c.01-8.95-.78-8.65,25.29-9.76,43.47-1.85,54.86-.83,62.88,5.64,4.97,4.01,12.88-2.26,9.96-7.9-6.65-12.86-34.33-20.81-57.14-16.41-4.01.77-11.4.93-22.33.49-18.76-.77-18.54-.66-19.73-10.35-1.24-10.16-6.71-16.6-11.34-13.36-2.56,1.79-4.09,7.24-4.1,14.55,0,7.75,3.55,7.27-53.91,7.37-57.38.1-56.09-.1-56.09,8.86,0,10.5,2.68,11,58,10.76ZM138.5,101.21c11.52-4.04,27.32.83,23.18,7.15-2.16,3.3-8.09,6.44-17.63,9.36-10.81,3.31-12.06,2.62-12.06-6.64,0-6.31,1.1-7.98,6.5-9.88ZM116.03,156.38c1.49,15.71,2.11,15.14-17.45,16.01-19.36.86-21.59-.25-21.59-10.86,0-12.87,5.28-16.78,29.5-21.88,1.1-.23,2.56-.47,3.25-.54,1.56-.15,5.25,3.46,5.25,5.13,0,.69.46,6.14,1.03,12.13Z"/>
</svg>