<?xml version="1.0" encoding="UTF-8"?>
<svg id="Layer_1" data-name="Layer 1" xmlns="http://www.w3.org/2000/svg" viewBox="0 0 256 256">
  <defs>
    <style>
      .cls-1 {
        fill: #231f20;
      }
    </style>
  </defs>
  <path class="cls-1" d="M176.43,134.61c3.77,1.45,36.39-36.11,43.79-50.41,15.94-30.81-12.49-62.59-50.28-56.19-21.44,3.63-36.69,28.68-26.93,44.22,6.22,9.91,13.77,6.52,16.12-7.23,4.41-25.79,44.95-23.61,44.86,2.41-.02,5.94-1.88,9.27-12.86,23.09-13.38,16.84-21.58,41.47-14.69,44.11Z"/>
  <path class="cls-1" d="M225.14,188c-5.47,0-5.81-2.13-1.77-11.1,7.04-15.63,4.76-16.47-9.94-3.65-19.06,16.62-15.85,15.4-35.19,13.43-9.2-.94-20.85-1.7-25.87-1.69-15.04.02-15.83-5.16-15.89-103.99-.03-53.27.38-48.38-4.49-53.25-3.79-3.79-4.24-3.97-8.25-3.3-2.33.39-4.91.66-5.74.61-15-.97-19.97-.87-24.5.51-2.75.84-6.62,1.88-8.6,2.32-3.7.81-8.53,2.9-19.94,8.6-31.32,15.66-45.25,37.74-49.54,78.52-2.11,20.05-.65,45.73,3.01,52.87,4.02,7.85,4.09,13.75.22,17.41-7.77,7.32-3.68,15.85,8.87,18.49,3.98.84,5.58,1.82,7.94,4.88,38.51,49.88,105.8,55.51,153.62,12.84,6.66-5.94,6.34-5.84,23.81-7.51,17.47-1.67,22.61-4.89,22.61-14.15,0-6-5.11-11.84-10.36-11.84ZM38.71,173.26c-12.66-33.81-8.21-79.38,10.14-103.67,8.2-10.87,34.21-25.28,54.15-30.02,7.74-1.84,7.95-1.82,8.9.68.47,1.25.4,15.12-.17,31.25-.74,20.96-.7,36.49.14,56,2.45,56.78,2.87,54.72-10.87,53.4-4.68-.45-15.93-1.52-25-2.39-13-1.24-18.15-1.35-24.28-.49-9.87,1.38-10.84,1.02-13.01-4.76ZM108.53,232c-14.64,0-57.32-23.02-51.11-27.56,1.87-1.37,6.83-1.16,26.08,1.06,6.6.76,15.42,1.69,19.61,2.05,10.45.91,10.24.66,11.04,12.63.83,12.3,1.05,11.83-5.62,11.83ZM141.25,226.25c-1.63-.61-1.69-12.41-.07-14.03,1.95-1.95,24.82-.43,24.82,1.64,0,2.51-21.88,13.46-24.75,12.39Z"/>
</svg>