<?xml version="1.0" encoding="UTF-8"?>
<svg id="Layer_1" data-name="Layer 1" xmlns="http://www.w3.org/2000/svg" viewBox="0 0 256 256">
  <defs>
    <style>
      .cls-1 {
        fill: #231f20;
      }
    </style>
  </defs>
  <path class="cls-1" d="M106.9,51.88c-2.26,1.83-2.32,2.29-2.37,19.75-.05,17.03-.16,18.06-2.45,21.87-2.57,4.29-8.84,10.4-10.74,10.46-2.02.07-10.34,10.14-10.34,12.51,0,8.1,9.12,9.99,17.41,3.61,13.18-10.15,26.39-10.49,35.12-.91,12.7,13.93,11.52,15.38-13.1,16.17-22.75.73-25.96,1.53-27.86,6.93-2.56,7.28,3.06,10.15,16.17,8.28,36.26-5.18,38.51-4.4,39.31,13.72.71,15.97,4.3,21.18,9.79,14.2,3.86-4.92,3.64-35.78-.32-43.43-.84-1.62-1.53-3.85-1.53-4.95,0-11.55-15.99-28.24-30.35-31.67q-7.85-1.87-7-6.9c4.5-26.66-1.74-47.75-11.75-39.65Z"/>
</svg>