<?xml version="1.0" encoding="UTF-8"?>
<svg id="Layer_1" data-name="Layer 1" xmlns="http://www.w3.org/2000/svg" viewBox="0 0 256 256">
  <defs>
    <style>
      .cls-1 {
        fill: #231f20;
      }
    </style>
  </defs>
  <path class="cls-1" d="M69.27,197.58c14.76-3.09,18.17-2.2,18.54,4.81.43,8.31,1.67,7.96-28.54,8.05-33.55.09-38.53,1.75-39.89,13.27-1.49,12.59-.63,12.77,57.67,12.46,43.72-.23,51.2-.05,59.72,1.46,16.28,2.89,67.14,2.63,77.3-.39,4.16-1.24,9.25-2.25,11.3-2.25,7.54,0,13.64-6.18,13.63-13.81-.01-17.62-5.1-34.87-12.54-42.54-7.17-7.38-5.69-7.16-47.12-7.16-20.44,0-37.49-.33-37.9-.73-2.95-2.93-2.86-87.18.13-114.02,2.92-26.21-4.23-40.82-14.79-30.25-3.17,3.17-4.49,9.64-5.81,28.46-.56,8-1.79,20.17-2.74,27.04-1.44,10.45-1.68,18.89-1.44,51.5.29,39.39.08,42.01-3.38,41.34-1.78-.34-1.85-3.01-1.88-69.35q-.03-68.99-2.41-72.82c-4.85-7.8-14.92-7.46-19.31.65-.87,1.6-1.19,20.25-1.24,70.87-.08,78.65,1.16,70.78-11.37,72.48-4.78.65-11.63,1.63-15.2,2.18-14.22,2.19-27.84-.69-29.98-6.32-4.02-10.57-18.06-8.77-18,2.31.11,18.37,25.72,28.9,55.25,22.73ZM153.5,191.94c48.14-3,61.13-.94,62.87,10,1.47,9.17,1.06,9.46-15.71,11.13-32.67,3.26-54.65-1.18-56.18-11.33-1.35-8.97-1.17-9.17,9.02-9.8ZM109.7,196.25c3.63-2.69,8.3-.3,8.3,4.24,0,1.29.24,2.96.52,3.71,1.3,3.38-6.05,7.16-9.49,4.88-2.11-1.4-1.61-11.15.67-12.83Z"/>
</svg>