<?xml version="1.0" encoding="UTF-8"?>
<svg id="Layer_1" data-name="Layer 1" xmlns="http://www.w3.org/2000/svg" viewBox="0 0 256 256">
  <defs>
    <style>
      .cls-1 {
        fill: #231f20;
      }
    </style>
  </defs>
  <path class="cls-1" d="M224.25,86.36c-5.1-6.37-5.97-6.53-33.37-6.17-21.29.28-24.7.54-26.86,2.07-2.11,1.49-4.85,1.75-18.54,1.75s-16.55.25-19.99,2c-2.96,1.51-5.9,2-12,2s-9.04.49-12,2c-5.33,2.71-51.5,3.13-51.5.46,0-5.33,16.04-24.1,24.97-29.24,2.49-1.43,5.8-3.64,7.35-4.91,9.61-7.86,21.82-11.26,30.08-8.38,3.25,1.13,7.72,2.06,9.95,2.06,9.27,0,23.51,5.98,28.03,11.78,12.52,16.06,25.96,2.35,14.57-14.85-3.02-4.57-13.31-10.91-17.71-10.92-1.24,0-3.93-.9-5.99-2-2.59-1.39-5.64-2-10-2s-7.41-.61-10-2c-7.96-4.27-26.86-2.88-38.47,2.82-5.34,2.62-11.42,6.15-13.51,7.83-2.1,1.68-4.87,3.4-6.18,3.81-3.18,1.01-16.38,14.15-18.61,18.53-.98,1.92-3.51,5.47-5.62,7.87-14.49,16.52-17.49,33.92-6.56,38.06,5.67,2.15,69.16,1.36,76.52-.95,3.49-1.09,8.89-1.99,12-2,3.11,0,8.51-.91,12-2,4.88-1.53,9.16-1.99,18.59-1.99s13.49-.42,18.07-2c35.91-12.35,56.42,17.56,40.06,58.44-1.34,3.35-3.14,7.44-3.99,9.08s-1.56,3.6-1.56,4.35c-.02,4.74-18.22,24.16-28.11,30-2.97,1.75-8.55,5.43-12.4,8.17-21.07,14.99-30.3,17.95-55.98,17.96-21.49,0-19.38.37-36.02-6.26-6.81-2.72-19.36-14.33-19.47-18.03-.01-.44-1.83-3.18-4.03-6.09-2.2-2.91-4-5.62-4-6.01s-2.38-3.95-5.29-7.91c-2.91-3.96-6.29-8.83-7.51-10.83-4.41-7.23-12.11-7.46-15.58-.47-2.53,5.11-1.12,9.82,5.75,19.1,2.85,3.85,8.32,11.91,12.15,17.92,11.59,18.14,22.61,28.43,32.7,30.52,2.35.49,6.98,2.04,10.28,3.45,5.87,2.51,6.51,2.56,29.5,2.57,33.33.01,40.32-2.06,66.6-19.71,6.35-4.26,13.06-8.57,14.92-9.56,3.91-2.09,17.6-14.33,22.59-20.18,1.87-2.2,4.39-5.1,5.61-6.45,1.22-1.35,2.63-3.6,3.15-5.01.52-1.4,2.39-6.15,4.17-10.55,7.28-18.02,6.98-15.91,6.98-48.61s-.01-32.37-5.75-39.53Z"/>
</svg>