<?xml version="1.0" encoding="UTF-8"?>
<svg id="Layer_1" data-name="Layer 1" xmlns="http://www.w3.org/2000/svg" viewBox="0 0 256 256">
  <defs>
    <style>
      .cls-1 {
        fill: #231f20;
      }
    </style>
  </defs>
  <path class="cls-1" d="M24.83,226.35c3.65,3.3,11.51,1.07,23.46-6.66,7.49-4.85,11.14-6.93,20.71-11.8,28.59-14.54,82.49-51.91,106.28-73.7,16.84-15.42,14.48-14.71,22.66-6.82,16.99,16.4,28.81,2.75,12.46-14.39-6.18-6.48-6.33-7.23-2.89-14.04,20.05-39.58,5.89-81.07-25.61-75.01-23.46,4.51-26.69,36.38-7.09,70.06,5.72,9.83,5.7,9.96-2.25,17-2.8,2.48-9.36,8.56-14.58,13.51-10.5,9.96-16.61,14.81-31.5,25-5.5,3.77-13.29,9.35-17.31,12.42-17.55,13.37-43.93,31.48-52.58,36.1-5.8,3.1-14.33,8.71-18.11,11.93-2.91,2.47-9.39,6.04-10.99,6.04-4.15,0-6.05,7.3-2.68,10.35ZM183.73,44.75c6.94-7.67,15.06,3.82,13.95,19.75-1.68,24-8.44,24.16-15.49.37-3.05-10.3-2.66-15.48,1.55-20.12Z"/>
</svg>