<?xml version="1.0" encoding="UTF-8"?>
<svg id="Layer_1" data-name="Layer 1" xmlns="http://www.w3.org/2000/svg" viewBox="0 0 256 256">
  <path d="M223.07,50.42c-18.38-36.1-75.35-28.58-79.13,10.44-.5,5.15-1.36,11-1.92,13s-1.01,12.43-1.01,23.19c0,22.94-.1,23.22-7.54,22.75q-4.97-.31-5.49-40.81c-.45-34.79-.75-40.92-2.15-43.5-3.39-6.26-8.38-8.54-13.05-5.96-3.58,1.97-4.44,3.76-5.26,10.97-.38,3.3-1.29,10.95-2.04,17-.75,6.05-1.67,17.3-2.04,25s-.8,15.12-.93,16.5c-.14,1.37-.3,3.06-.37,3.75-.09.91-2.83,1.25-9.99,1.25-11.6,0-13.15.76-24.72,12.14-6.73,6.62-7.38,7-13.24,7.83-17.2,2.43-30.61,28.03-14.69,28.03,1.87,0,4.36-1.72,8.66-6,7.81-7.76,9.8-7.87,13.36-.75,7.19,14.4,23.04,22.68,33.07,17.27,6.39-3.44,6.41-3.37,6.41,24.24s.87,33.38,5.54,40.47c10.53,15.99,33,4.95,23.88-11.73-3.06-5.6-4.19-70.66-1.29-74.16,6.1-7.35,10.36-.9,11.01,16.66.77,20.77,3.57,53.13,4.91,56.65,5.65,14.85,21.53,20.63,27.92,10.16,2.99-4.91,2.56-6.49-3.38-12.44q-5.41-5.41-6.01-15.14c-.33-5.35-1.03-14.01-1.57-19.23-3.76-36.69-4.01-36,13.12-36,47.58,0,75.97-44.7,52.73-83-1.5-2.48-3.66-6.33-4.8-8.58ZM94.66,141.5c-.53,1.7-6.84,5.5-9.05,5.45-6.88-.16-12.4-6.82-7.42-8.96,5.42-2.32,17.49.24,16.48,3.51ZM174.89,122c-13.96,0-17.72-14.96-11.96-47.5.58-3.3,1.06-8.16,1.07-10.8,0-6.66,3.76-12.92,9.01-15.05,4.84-1.96,25.21,2.73,28.63,6.59,2.48,2.79,8.51,13.08,11.42,19.49,10.62,23.34-8.71,47.28-38.17,47.28Z"/>
</svg>