<?xml version="1.0" encoding="UTF-8"?>
<svg id="Layer_1" data-name="Layer 1" xmlns="http://www.w3.org/2000/svg" viewBox="0 0 256 256">
  <path d="M208,17.44c-15.47.36-29.82.17-36.5-.48-14.68-1.44-49.72-1.99-61.29-.96-5.11.45-13.66,1.52-19,2.37-8.64,1.38-18.98,2.8-41.66,5.74-6.42.83-7.32.71-11.73-1.6-10.1-5.28-18.48-.51-17.6,10.03,1.12,13.52,14.67,20.32,35.05,17.58,40.58-5.46,36.29-8.31,37.03,24.63.33,14.71,1.13,30.35,1.77,34.75,2.95,20.09-.07,54.94-5.84,67.43-6.15,13.29-5.19,26.62,2.83,39.65,7.63,12.39,20.64,2.36,14.85-11.45-2.85-6.81-3.24-16.43-.81-20.17,8.01-12.36,8.8-44.21,3.24-131.15-.66-10.31,1.81-14.09,6.28-9.63,1.79,1.79,3.18,42.94,2.36,69.82-2.31,75.84.47,116.25,8.32,121.03,11.62,7.08,18.62-.3,18.68-19.68.04-14.32.27-14.86,5.81-13.75,37.48,7.5,65.61-57.14,33.2-76.28-3.81-2.25-3.74-3.24.59-7.95,19.2-20.92,8.98-45.92-22.06-53.93-7.69-1.99-9.57-3.27-14.47-9.91-7.34-9.94-5.41-12.29,8.71-10.58,51.2,6.18,88.28.78,88.26-12.85-.02-11.3-5.87-13.36-36-12.67ZM144.64,80.5c1.1-2.86,15.29,1.28,24.68,7.21,10.65,6.73-2.84,25.3-18.39,25.3-2.5,0-5.08-.54-5.74-1.2-1.28-1.28-1.77-28.16-.56-31.3ZM144.4,136.75c2.05-2.05,8.06-1.57,16.86,1.35,3.17,1.05,6.35,1.91,7.07,1.91,2.19,0,9.31,6.71,10.72,10.1,5.64,13.6-21.94,38.12-33.34,29.65-2.62-1.95-3.79-40.52-1.3-43Z"/>
</svg>