<?xml version="1.0" encoding="UTF-8"?>
<svg id="Layer_1" data-name="Layer 1" xmlns="http://www.w3.org/2000/svg" viewBox="0 0 256 256">
  <defs>
    <style>
      .cls-1 {
        fill: #231f20;
      }
    </style>
  </defs>
  <path class="cls-1" d="M165.5,49.61c28.43-1.01,46.91-2.49,51.58-4.14,2.29-.81,5.94-1.47,8.11-1.47,9.31,0,15.83-7.71,12.76-15.11-2.41-5.82-9.19-7.14-21.95-4.27-12.72,2.86-17.03,3.23-51.56,4.4-32.13,1.09-36.06,1.04-48.94-.62-7.7-1-18.57-1.91-24.15-2.04-5.58-.13-13.51-.7-17.62-1.27-23.6-3.28-51.88.76-52.54,7.51-.77,7.93,8.25,11.39,29.8,11.39,9.6,0,18.48.58,23.34,1.5,4.31.82,10.65,1.5,14.1,1.5,9.9,0,11.86,4.22,11.36,24.5-.39,16.01-9.45,17.75-12.3,2.37-3.11-16.78-21.68-15.92-20.14.93,1.38,15.13,11.52,27.12,24.42,28.89,13.07,1.79,12.15,26.81-1.22,33.28-24.31,11.77-26.15,55.47-2.27,53.8,3.98-.28,6.12,0,6.87.91,2.47,2.97-1.96,25.44-6.27,31.84-4.89,7.24-2.99,12.48,4.53,12.48,8,0,16.76-9.06,18.15-18.78.37-2.6,1.52-6.13,2.56-7.84,1.46-2.41,1.88-5.07,1.88-11.75,0-7.97.15-8.63,2-8.63,2.58,0,2.77,7.69.41,16.54-4.29,16.1,2.51,32.34,11.48,27.37,4.47-2.48,6.11-7.26,6.13-17.91.05-25.97,2.16-29.41,18.96-30.99,6.86-.64,12.77-1.35,13.12-1.57.36-.22,4.64.09,9.53.69,13.01,1.59,18.07,5.11,23.01,16.04,3.17,7.01,13.37,5.28,13.37-2.28,0-20.59-28.43-34.2-62.08-29.72-11.99,1.6-11.95,1.64-11.26-12,.92-18.14.29-17.14,15.59-24.73,43.97-21.79,42.01-60.35-2.59-51.02-6.99,1.46-9.64,1.25-9.67-.79-.14-8.44-.89-19.93-1.48-22.87-1.03-5.09-.06-5.34,23-6.16ZM97.51,164.75c-.87,6.98-1.02,7.25-4.01,7.25-3.83,0-4.1-7.18-.43-11.6,3.1-3.74,5.19-1.7,4.43,4.35ZM122.75,156.21c-.48,8.44-1.25,10.58-3.44,9.61-1.03-.45-.33-14.93.82-17.07,2.25-4.21,3.14-1.68,2.62,7.46ZM122,122.5c-1.55,0-2.79-13.01-1.55-16.24.3-.78,1.11-1.24,1.8-1.01,1.98.66,1.74,17.25-.25,17.25ZM121.01,81c-1.07-1.63-1.39-17.85-.41-20.42,1.85-4.81,3.37.12,3.36,10.92,0,8.54-1.16,12.24-2.96,9.5ZM151.5,100.14c16.94-3.12,17.44,1.16,1.14,9.75-7.5,3.95-9.64,3.67-9.64-1.25s2.59-7.41,8.5-8.5Z"/>
</svg>