<?xml version="1.0" encoding="UTF-8"?>
<svg id="Layer_1" data-name="Layer 1" xmlns="http://www.w3.org/2000/svg" viewBox="0 0 256 256">
  <path d="M178.23,120.01c-15.46-.02-14.79.96-13.3-19.58,3.54-48.84,2.64-43.4,8.01-48.43,10.69-10.01,2.42-23.19-10.93-17.41-12.71,5.51-15.93,17.88-17.7,68.09-.33,9.45-.88,17.61-1.2,18.11-1.41,2.19-54.71,4.03-72.15,2.49-12.78-1.13-14.31-1.67-18.69-6.66-4.46-5.07-7.59-6.85-10.71-6.06-13.15,3.3.89,25.31,17.56,27.54,4.06.54,10.76,1.69,14.89,2.55,8.11,1.7,23.29,1.94,50.5.82,21.75-.9,19.88-3.11,20.5,24.18.28,12.01.82,22.33,1.22,22.94s1.14,5.61,1.66,11.11c3.61,38.4,60.97,46.16,79.11,10.7.82-1.6,2.89-5.16,4.6-7.91,23.74-38.16-4.9-82.43-53.36-82.49ZM211.11,197.22c-11.07,18.08-40.13,21.16-42.48,4.5-5.25-37.27-4.49-60.49,2.02-61.75,9.85-1.91,24.69.49,31.67,5.11,19.63,13,22.46,29.79,8.79,52.13Z"/>
</svg>