<?xml version="1.0" encoding="UTF-8"?>
<svg id="Layer_1" data-name="Layer 1" xmlns="http://www.w3.org/2000/svg" viewBox="0 0 256 256">
  <defs>
    <style>
      .cls-1 {
        fill: #231f20;
      }
    </style>
  </defs>
  <path class="cls-1" d="M29.51,211.25c-15.64,1.76-19.92,20.62-5.62,24.72,1.78.51,10.93.66,20.54.33,17.36-.6,27.83.97,33.24,4.96,14.74,10.87,45.4,11.98,75.33,2.73,12.23-3.78,12.9-3.88,31.5-4.35,36.95-.94,57.96-12.16,46.57-24.86q-2.93-3.27-16.5-3.07c-15.5.22-15.46.25-9.26-7.08,14.19-16.8,26.04-40.61,20.2-40.61-1.57,0-11.73,8.57-38.49,32.5-17.68,15.81-18.94,16.6-26.28,16.66-4.74.04-19.72-5.91-19.77-7.86-.01-.44-.44-3.72-.94-7.3-5.04-35.41-6.37-106.58-2.64-141,2.92-26.9-3.09-39.84-14.4-31-3.2,2.5-5.24,2.5-7.5,0-2.25-2.49-14.18-2.7-22-.39-2.75.81-6.62,1.84-8.6,2.27-3.26.72-5.52,1.64-16.9,6.94-32.56,15.14-48.21,38.75-52.47,79.18-2.96,28.07-.84,47.74,7.08,65.65.77,1.73,1.39,3.5,1.39,3.93,0,.83,1.88,5.11,7.7,17.54,4.11,8.77,3.96,9.43-2.2,10.12ZM48.85,69.59c8.6-11.4,35.6-26.04,55.55-30.13,3.79-.78,7.13-1.65,7.42-1.94.69-.69,5.19-.68,5.19.02,0,.3-.95,2.4-2.11,4.67-1.36,2.67-2.4,7.35-2.95,13.21-2.91,31.54-12.67,48.01-34.95,59.03-3.03,1.5-6.33,3.16-7.34,3.7-8.06,4.3-21.27,5.62-26.95,2.68-2.32-1.2-5.42-2.09-6.89-1.99-8.11.56.77-33.02,13.03-49.25ZM37.46,136.1c12.17,10.69,55.31-1.25,70.46-19.5,4.69-5.65,5.04-2.83,5.14,40.9.05,20.9.43,40.38.84,43.3,1.25,8.8,1.76,8.6-24.07,9.34-25.48.73-28.31.31-34.19-5.11-3.86-3.56-11.64-15.84-11.65-18.41,0-.62-.71-2.47-1.57-4.12-11.05-21.17-14.65-54.91-4.96-46.4Z"/>
</svg>