<?xml version="1.0" encoding="UTF-8"?>
<svg id="Layer_1" data-name="Layer 1" xmlns="http://www.w3.org/2000/svg" viewBox="0 0 256 256">
  <defs>
    <style>
      .cls-1 {
        fill: #231f20;
      }
    </style>
  </defs>
  <path class="cls-1" d="M32.25,211.52c-11.42,2.31-16.97,13.83-10.16,21.08,3.48,3.7,7.64,4.31,25.32,3.68,17.11-.61,20.29-.06,30.63,5.27,14.45,7.45,33.54,10.82,47.46,8.38,3.3-.58,8.7-1.42,12-1.87,3.3-.45,10.73-2.41,16.5-4.36,10.44-3.52,10.61-3.54,32-4.04,33.48-.77,52-7.56,52-19.06,0-8.26-9.48-10.9-29.76-8.31-8.35,1.07-8.95-.45-3-7.53,14.33-17.05,26.12-40.77,20.26-40.77-1.63,0-6.87,4.43-35.9,30.31-23.79,21.22-24.38,21.46-37.24,15.29-8.29-3.97-7.29-1.15-10.47-29.6-3.08-27.59-3.36-96.53-.49-123,2.17-20.02,1.29-26.74-4.04-30.93-4.98-3.92-11.56-1.52-12.93,4.71-.33,1.5-.99,3.98-1.47,5.51-.48,1.53-1.36,9.63-1.94,18-.58,8.37-1.74,20.84-2.57,27.71-.83,6.88-1.69,14.3-1.93,16.5-.64,6.12,1.05,103.79,1.83,105.53,1.07,2.38-1.49,4.96-5.59,5.62-5.54.9-5.9-1.07-3.57-19.65,1.64-13.14,3.46-109.57,2.83-150.17-.01-.92,1.55-2.64,3.47-3.83,11.36-7.02-4.07-15.16-21-11.07-1.65.4-3.98,1.25-5.18,1.9-1.2.65-3.14,1.17-4.31,1.17-7.66,0-35.3,16.06-45.5,26.44-25.23,25.66-33.57,87.47-16.89,125.21.77,1.73,1.39,3.5,1.39,3.93,0,.86,2.27,6.01,7.56,17.18,4.16,8.78,4.24,10.03.69,10.75ZM34.44,103.98c6.18-29.08,16.16-41.73,43.53-55.18,10.02-4.92,9.41-5.88,10.42,16.05q.88,19.19-3.39,27.92c-2.35,4.8-5.43,11.2-6.86,14.23-8.43,17.95-22.09,24.8-39.52,19.83-7.77-2.22-8.13-4.23-4.18-22.85ZM36.72,142.33c12.94,6.55,36.01,2.88,45.74-7.28,3.03-3.17,5.46-3.94,5.65-1.79.54,6.19-.47,75.46-1.11,76.12-3.87,4.02-25.57,1-31.39-4.37-3.83-3.54-11.6-15.82-11.61-18.38,0-.62-.71-2.47-1.57-4.12-9.82-18.82-13.4-44.07-5.7-40.17Z"/>
</svg>