<?xml version="1.0" encoding="UTF-8"?>
<svg id="Layer_1" data-name="Layer 1" xmlns="http://www.w3.org/2000/svg" viewBox="0 0 256 256">
  <path d="M212.44,60q.06-15.5,8.22-16.11c15.26-1.14,23.17-10.1,17.34-19.65-4.43-7.27-5.43-7.47-34.01-6.81-15.51.36-29.81.17-36.5-.49-14.92-1.46-50.91-1.99-62.17-.92-5.04.48-13.15,1.54-18,2.35-4.86.81-11.75,1.76-15.33,2.12s-10.49,1.31-15.36,2.12c-13.48,2.25-19.48,2.14-23.64-.44-12.35-7.67-22.83,7.69-13.35,19.58,6.46,8.1,16.55,10.38,35.16,7.96,6.98-.91,15.4-1.93,18.7-2.27,3.3-.34,9.82-1.22,14.5-1.97,26-4.16,23.89-6.27,24.67,24.66,1.64,65.24-.2,85.45-8.4,92.2-11.72,9.64-41.83,30.45-51.66,35.69-5.8,3.1-14.33,8.71-18.11,11.93-2.91,2.47-9.39,6.04-10.99,6.04-4.15,0-6.05,7.3-2.69,10.35,3.65,3.3,11.51,1.07,23.46-6.66,7.38-4.78,10.93-6.8,21.71-12.38,8.98-4.65,28.73-16.74,39.32-24.08,7.37-5.11,7.48-4.83,7.86,20.09.41,26.87,3.36,33.67,14.67,33.68,11.36.01,12.15-2.75,12.15-42.2s-1.47-33.1,13.58-45.01c3.89-3.08,12.67-10.81,19.5-17.18,14.65-13.66,12.64-13.17,20.97-5.13,16.9,16.31,28.62,2.56,12.36-14.49-6.18-6.48-6.33-7.23-2.89-14.04,6.85-13.52,8.86-22.29,8.92-38.95ZM168.59,111c-2.79,2.48-9.71,8.89-15.39,14.25-9.76,9.23-13.09,11.36-13.29,8.5-.05-.69-.05-16.33-.02-34.75.04-18.42-.31-37.77-.77-43-.65-7.46-.54-9.98.54-11.75,1.53-2.51,3.13-2.68,11.72-1.27,7.44,1.22,7.05.63,6.78,10.3-.39,14.04,2.45,23.17,12.66,40.72,5.71,9.82,5.7,9.96-2.24,17ZM193.67,64.5c-1.29,18.47-5.28,23.29-10.66,12.87-7.45-14.42-8.76-29.3-2.79-31.7,9.08-3.65,14.49,3.92,13.44,18.83Z"/>
</svg>