<?xml version="1.0" encoding="UTF-8"?>
<svg id="Layer_1" data-name="Layer 1" xmlns="http://www.w3.org/2000/svg" viewBox="0 0 256 256">
  <defs>
    <style>
      .cls-1 {
        fill: #231f20;
      }
    </style>
  </defs>
  <path class="cls-1" d="M24.12,182.25c5.19-4.36,28.65-2.78,49.75,3.36,2.95.86,9.7,1.97,15,2.46,18.97,1.78,23.87,3.68,22.68,8.82-2.32,9.95-6.84,16.11-11.81,16.11s-7,7.4-2.92,11.31c9.92,9.5,26.84-1.81,32.62-21.81.95-3.3,1.92-6.6,2.15-7.32,1.41-4.49,3.95-.29,5.05,8.34,3.04,23.97,17.5,38.45,27.96,27.99,3.8-3.8,3.3-8.95-1.49-15.37-7.87-10.54-8.88-22.12-2.06-23.49,6.07-1.21,7.77-.76,10.48,2.79,1.48,1.95,3.89,3.71,5.55,4.08,9.39,2.06,16.62,10.86,11.84,14.4-10.69,7.9-7.79,24.33,4.7,26.67,15.1,2.83,26.24-9.66,22.88-25.66-2.37-11.25-6.15-15.81-20.23-24.4-6.89-4.2-7.43-5.13-3.79-6.51,2.74-1.04,9.86-8.02,11.79-11.54,11.14-20.37,10.74-18.27,10.76-57.43.03-48.36,2.88-58.71,19.13-69.46,14.11-9.33,4.73-24.7-10.67-17.47-16.06,7.55-29.06,34.68-29.46,61.48-.04,2.56-3.75,4.41-8.83,4.41-2.04,0-8.3.53-13.92,1.18-16.48,1.91-15.28,4.18-15.31-28.9-.03-35.29-1.61-41.27-10.89-41.27-8.41,0-9.09,2.72-9.1,36.65-.02,33.61-.19,34.76-4.72,31.54-3.03-2.16-4.26-19.49-4.26-59.95,0-14.32-7.78-20.92-15.82-13.41-4.28,4-4.56,6.86-3.75,38.15.81,31.61,1.79,28.38-9.79,32.54-38.29,13.76-33.4,64.43,7.04,72.93,4.29.9,6.15,3.14,4.21,5.08-1.62,1.62-25.67-.24-31.16-2.41-9.9-3.91-38.91-6.05-47.65-3.5-9.59,2.79-10.97,3.5-14.58,7.49-8.96,9.92-1.41,20.55,8.6,12.13ZM169,114.96c7.43-.3,15.38-.64,17.68-.75,9.7-.48,11.97,29.4,3.18,41.95-1.02,1.46-1.86,3.05-1.86,3.53,0,6.31-26.85,16.32-31.44,11.73-10.13-10.13-.03-55.96,12.44-56.46ZM94.16,140.67c-8.97-9.55-4.84-28.88,7.11-33.27,5.65-2.07,5.93-1.73,7.95,9.6,1.58,8.88,1.9,19.88.81,28.75-.25,2.01-13.06-2.09-15.87-5.08Z"/>
  <path class="cls-1" d="M223.1,175.54c-7.18,8.18,1.04,25.06,12.12,24.89,10.19-.15,15.36-11.23,9.71-20.8-5.05-8.57-16.09-10.63-21.83-4.09Z"/>
</svg>