<?xml version="1.0" encoding="UTF-8"?>
<svg id="Layer_1" data-name="Layer 1" xmlns="http://www.w3.org/2000/svg" viewBox="0 0 256 256">
  <defs>
    <style>
      .cls-1 {
        fill: #231f20;
      }
    </style>
  </defs>
  <path class="cls-1" d="M38.05,66.56c1.73,5.47,3.71,11.52,4.41,13.44,1.75,4.84,4.47,16.02,6.13,25.14.76,4.2,1.82,8.77,2.34,10.16.53,1.38,1.27,9.74,1.66,18.57,1.19,27.08,19.41,34.66,19.41,8.07,0-7.71,2.9-29.11,5.08-37.45,2.57-9.86,3.99-14.47,6.47-21,1.46-3.85,3.25-9.02,3.97-11.5,4.61-15.77,11.15-22.11,25.92-25.12,15.63-3.18,23.04,4.64,32.34,34.12,4.43,14.04,10.06,61.22,7.75,64.95-2.78,4.49-11.21,5.86-22.03,3.57-14.56-3.08-18.87-1.89-16.02,4.44,5.36,11.89,17.7,16.45,37.51,13.87,2.44-.32,2.52-.13,3.62,9.17.62,5.23,1.61,11.3,2.2,13.5.59,2.2,1.53,5.8,2.07,8,8.27,33.34,47.29,48.15,63.59,24.13,30.27-44.61.34-96.29-48.7-84.09-4.13,1.03-5.22-3.84-7.85-34.95-.51-6-1.64-13.42-2.52-16.5-3.7-13-7.7-25.15-8.42-25.6-.42-.26-1.05-1.59-1.39-2.95-5.45-21.73-27.97-34.97-47.65-28.03-2.31.82-5.11,1.48-6.23,1.48-11.05,0-24.37,15.85-31.59,37.6-5.66,17.05-8.77,20.59-10.29,11.71-.39-2.29-1.42-5.53-2.28-7.19-.86-1.67-1.56-3.71-1.56-4.55s-.85-3.45-1.89-5.8c-1.04-2.35-2.87-6.98-4.07-10.28-2.21-6.08-2.63-7.03-5.12-11.5-7.91-14.2-12.7-17.69-19.17-13.92-2.85,1.66-2.06,5.39,3.7,17.28,3,6.19,6.87,15.73,8.59,21.2ZM177.04,156.23c4.99-1.82,23.09-.83,26.73,1.47,12.95,8.18,16.23,13.55,16.23,26.59,0,24.52-16.75,39.64-31.81,28.72-11.98-8.68-20.73-53.28-11.15-56.79Z"/>
</svg>