<?xml version="1.0" encoding="UTF-8"?>
<svg id="Layer_1" data-name="Layer 1" xmlns="http://www.w3.org/2000/svg" viewBox="0 0 256 256">
  <defs>
    <style>
      .cls-1 {
        fill: #231f20;
      }
    </style>
  </defs>
  <path class="cls-1" d="M69.06,197.69c24.42-5.22,31.93-3.65,31.96,6.68.02,9.13,2.02,17.57,5.35,22.61,10.65,16.09,33.2,5.47,24.16-11.38-3.3-6.16-3.97-18.59-1.14-21.42,1.91-1.91,20.32-2.89,57.93-3.08,27.96-.14,28.12-.03,29.68,20.29,1.09,14.31,2.77,19,7.85,21.95,16.81,9.78,18.21-37.6,1.62-54.69-7.79-8.03-13.68-8.62-67.95-6.82-15.95.53-29.34.65-29.75.27-.41-.38-.86-30.6-1-67.15-.23-59.53-.42-66.77-1.9-69.45-3.45-6.28-8.4-8.54-13.08-5.96-3.58,1.97-4.44,3.76-5.26,10.96-.38,3.3-1.29,10.95-2.04,17-.75,6.05-1.67,17.3-2.04,25s-.8,15.12-.93,16.5c-.14,1.38-.3,3.06-.37,3.75-.09.91-2.83,1.25-9.96,1.25-22.2,0-39.55,24.52-30.07,42.52,7.05,13.39,22.92,21.15,32.81,16.03,4.97-2.57,6.1-1.57,6.1,5.38,0,7.62-.08,7.66-16.5,8.37-7.15.31-14.58,1.09-16.5,1.73-12.45,4.15-32.69.71-36.31-6.16-7.45-14.14-22.41-3.88-15.75,10.8,6.2,13.66,29.16,20.15,53.12,15.03ZM82.01,146c-12.43-4.1-10.57-18.55,3.49-27.16,3.84-2.35,5.66-2.31,10.59.2,12.16,6.21-.94,31.29-14.08,26.96Z"/>
</svg>