<?xml version="1.0" encoding="UTF-8"?>
<svg id="Layer_1" data-name="Layer 1" xmlns="http://www.w3.org/2000/svg" viewBox="0 0 256 256">
  <defs>
    <style>
      .cls-1 {
        fill: #231f20;
      }
    </style>
  </defs>
  <path class="cls-1" d="M91.39,74.75c-11.54,4.92-10.28,9.86,2.39,9.39,12.59-.47,20.63,6.11,16.7,13.67-3.65,7.03-10.36,16.71-13.99,20.2-9.74,9.35-3.49,24.56,6.4,15.6,5.14-4.65,33.28-4.07,40.99.85,12.86,8.21,16.55,23.82,8.37,35.42-9.79,13.88.95,22.21,11.59,8.99,17.75-22.03,3.52-53.66-27.84-61.9-1.92-.51-6.96-.93-11.19-.94-8.44-.03-10.04-1-7.12-4.35,16.17-18.52-3.78-46.53-26.3-36.93Z"/>
</svg>