<?xml version="1.0" encoding="UTF-8"?>
<svg id="Layer_1" data-name="Layer 1" xmlns="http://www.w3.org/2000/svg" viewBox="0 0 256 256">
  <path d="M163.5,156c7.7-.55,20.7-1.72,28.88-2.61,8.96-.97,17.51-1.35,21.5-.95,3.64.36,8.87.88,11.62,1.15,13.41,1.32,18.99-12.88,8.57-21.8-6.97-5.97-18.2-7.85-34.6-5.79-4.39.55-16.3,1.68-26.47,2.51-10.17.83-21.26,1.79-24.64,2.13-8.17.82-7.73,3.86-7.06-48.14.33-25.92-4.59-56.18-9.41-57.87-9.98-3.5-11.27.61-12.01,38.37-.34,17.33-1.13,35.55-1.75,40.5-.62,4.95-1.4,13.42-1.73,18.82-.6,9.77-2.2,13.24-4.45,9.62-.46-.74-.57-24.66-.24-53.14.57-49.09.5-51.89-1.22-53.79-2.36-2.6-7.62-2.64-9.94-.07-2.37,2.62-4.46,8.77-4.52,13.28-.02,2.04-.7,8.12-1.5,13.5-.84,5.65-1.88,24.99-2.47,45.72-.85,30.46-1.25,36.17-2.58,37.5-2.67,2.66-27.74,2.12-37.89-.83-22.75-6.6-33.98.85-21.57,14.32,9.04,9.81,23.46,14.65,44.78,15.04,22.39.41,21.74,23.66-1.3,47.17-12.15,12.4-12.55,21.06-1.09,23.94,10.33,2.59,35.58-30.44,35.58-46.55,0-2.58,1.27-9.88,3.8-21.85,1.84-8.73,2.69-2.12,2.43,19.05-.46,38.26,2.8,48.77,15.12,48.77,11.52,0,12.42-2.97,11.85-39.39-.63-40.47-2.74-36.82,22.3-38.6Z"/>
</svg>