<?xml version="1.0" encoding="UTF-8"?>
<svg id="Layer_1" data-name="Layer 1" xmlns="http://www.w3.org/2000/svg" viewBox="0 0 256 256">
  <defs>
    <style>
      .cls-1 {
        fill: #231f20;
      }
    </style>
  </defs>
  <path class="cls-1" d="M190.37,193.63c-25.75,23-31.17,26.81-45.43,31.95-9.69,3.49-11.25,3.13-12.1-2.83-.37-2.61-1.65-6.33-2.85-8.27q-2.18-3.52-2.33-89.75c-.18-97.77.59-89.33-8.77-96.73-5.79-4.57-15.06-5.45-25.39-2.39-2.75.81-6.62,1.84-8.6,2.27-3.26.72-5.52,1.64-16.9,6.94-32.56,15.14-48.21,38.75-52.47,79.18-2.96,28.07-.84,47.74,7.08,65.65.77,1.73,1.39,3.5,1.39,3.93,0,18.2,32.01,49.99,61.5,61.08,49.74,18.71,113.05-12.33,137.75-67.52,9.06-20.25,7.24-19.34-32.88,16.49ZM87.39,225.88c-2.26-1.03-4.42-1.88-4.8-1.88-8.76,0-38.55-28.85-38.6-37.38,0-.62-.71-2.47-1.57-4.12-7.25-13.9-10.42-28.74-10.42-48.79,0-47.56,26.49-89.1,57.23-89.74.7-.02,3.07-.88,5.27-1.92,11.99-5.68,13.52-3.54,11.05,15.44-.79,6.05-1.74,17.3-2.12,25s-.8,15.12-.93,16.5c-.14,1.38-.3,3.06-.37,3.75-.09.91-2.83,1.25-9.96,1.25-22.2,0-39.55,24.52-30.07,42.52,7.05,13.39,22.92,21.15,32.81,16.03q6.1-3.16,6.11,24.17c.02,26.64.95,34.03,4.96,39.46,5.64,7.62-1.48,7.51-18.58-.3ZM82.01,146c-12.43-4.1-10.57-18.55,3.49-27.16,3.84-2.35,5.66-2.32,10.59.2,12.16,6.21-.94,31.29-14.08,26.96Z"/>
  <path class="cls-1" d="M170.94,70.58c8.84-7.17,13.06-14.71,13.06-23.33,0-8.75-6.22-12.35-11.16-6.47-1.29,1.53-3.19,4.67-4.23,6.98-1.4,3.1-3.61,5.36-8.51,8.68-43.33,29.34-19.85,98.1,28.84,84.44,17.99-5.05,30.15-25.14,26.12-43.15-3.74-16.7-20.03-11.06-20.05,6.94-.02,15.44-14.07,23.9-27.98,16.85-17.61-8.92-15.59-35.11,3.92-50.93Z"/>
</svg>