<?xml version="1.0" encoding="UTF-8"?>
<svg id="Layer_1" data-name="Layer 1" xmlns="http://www.w3.org/2000/svg" viewBox="0 0 256 256">
  <path d="M115.5,36c11.36-7.02-4.07-15.16-21-11.07-1.65.4-3.98,1.25-5.18,1.9-1.2.65-3.14,1.17-4.31,1.17-1.9,0-5.65,1.5-17,6.81-32.65,15.27-48.21,38.75-52.47,79.19-2.96,28.07-.84,47.74,7.08,65.65.77,1.73,1.39,3.5,1.39,3.93,0,.86,2.27,6.01,7.56,17.18,4.16,8.78,4.24,10.03.69,10.75-11.42,2.31-16.97,13.83-10.16,21.08,3.48,3.7,7.69,4.33,24.9,3.69,16.87-.63,19.32-.2,32.51,5.73,24.83,11.16,44.86,11.56,75,1.48,9.81-3.28,10.41-3.35,31.5-3.84,33.06-.76,52-7.58,52-18.73,0-8.52-9.37-11.25-29.76-8.64-8.35,1.07-8.95-.45-3-7.53,14.29-17,26.12-40.77,20.29-40.77-1.65,0-7.41,4.85-35.46,29.85-24.41,21.76-24.82,21.93-37.71,15.75-8.29-3.97-7.29-1.15-10.47-29.6-3.08-27.59-3.36-96.53-.49-123,2.17-20.02,1.29-26.74-4.04-30.93-4.98-3.92-11.56-1.52-12.93,4.71-.33,1.5-.99,3.99-1.48,5.55-.49,1.55-1.38,9.88-1.97,18.5-.59,8.62-1.82,20.85-2.73,27.18-1.78,12.36-1.98,107.62-.25,118.5.93,5.83.05,8.02-3.56,8.92-7.16,1.8-7.66-.03-5.23-19.48,1.63-13.06,3.44-109.77,2.82-150.11-.01-.92,1.55-2.64,3.47-3.83ZM87.02,209.34c-1.33,1.39-16.09,1.78-21.88.58-7.85-1.63-21.11-16.24-21.15-23.31,0-.62-.71-2.47-1.57-4.12-10.4-19.93-13.65-51.87-7.98-78.52,6.18-29.08,16.16-41.73,43.53-55.18,9.77-4.8,9.41-5.13,10.29,9.28.95,15.56-.15,150.12-1.24,151.26Z"/>
  <path d="M171.3,140.53c12.68,2.38,19.2-8.26,10.54-17.19-4.12-4.25-4.46-6.84-5.42-41.7-.73-26.44-.78-26.91-3.16-29.74-5.37-6.38-11.79-8.92-16.32-6.44-4.67,2.56-5.36,5.97-2.44,12.13,2.28,4.82,2.49,6.21,1.96,13.15-2.98,39.29,3.04,67.58,14.84,69.79Z"/>
</svg>