<?xml version="1.0" encoding="UTF-8"?>
<svg id="Layer_1" data-name="Layer 1" xmlns="http://www.w3.org/2000/svg" viewBox="0 0 256 256">
  <path d="M194.35,190.08c-39.34,34.96-59.66,45.76-61.51,32.67-.37-2.61-1.66-6.35-2.87-8.31q-2.2-3.56-2.33-89.75c-.15-97.73.61-89.29-8.75-96.69-5.79-4.57-15.06-5.45-25.39-2.39-2.75.81-6.62,1.84-8.6,2.27-12.1,2.66-35.18,16.16-45.4,26.55-25.23,25.66-33.57,87.47-16.89,125.21.77,1.73,1.39,3.5,1.39,3.93,0,18.2,32.01,49.99,61.5,61.08,43.74,16.45,97.21-4.27,126.94-49.21,2.17-3.28,4.68-6.86,5.57-7.96,2.46-3.02,8.99-18.33,8.99-21.08,0-5.15-1.24-4.25-32.65,23.66ZM87.39,225.88c-2.26-1.03-4.42-1.88-4.8-1.88-8.76,0-38.55-28.85-38.6-37.38,0-.62-.71-2.47-1.57-4.12-7.25-13.9-10.42-28.74-10.42-48.79,0-47.62,26.46-89.08,57.27-89.74.68-.02,3.03-.88,5.23-1.92,11.99-5.67,13.52-3.55,11.06,15.44-.78,6.05-1.74,17.52-2.14,25.5-.39,7.98-.82,15.4-.95,16.5s-.28,2.56-.35,3.25c-.09.91-2.83,1.25-9.99,1.25-12.47,0-19.53,4.22-28.43,17-13.27,19.05,11.28,52.07,30.87,41.52,6.39-3.44,6.41-3.36,6.43,24.2.02,26.64.95,34.03,4.96,39.46,5.64,7.62-1.48,7.51-18.58-.3ZM82.01,146c-12.43-4.1-10.57-18.55,3.49-27.16,3.84-2.35,5.66-2.32,10.59.2,12.16,6.21-.94,31.29-14.08,26.96Z"/>
</svg>