<?xml version="1.0" encoding="UTF-8"?>
<svg id="Layer_1" data-name="Layer 1" xmlns="http://www.w3.org/2000/svg" viewBox="0 0 256 256">
  <path d="M24,183.58c0,1,2.98,7.67,8.24,18.42,6.34,12.97,22.9,28.35,38.76,36,2.48,1.19,5.64,2.78,7.04,3.52,47.96,25.42,119.15-6.13,145.21-64.37,9.06-20.25,7.24-19.34-32.88,16.49-25.53,22.8-37.87,31.37-45.2,31.37-3.59,0-4.19-5.9-4.16-40.9.02-28.58-1.82-26.26,22.31-28.05,7.79-.58,20.87-1.77,29.05-2.65,8.94-.97,17.52-1.34,21.5-.95,3.64.36,8.87.88,11.62,1.15,13.41,1.32,18.99-12.88,8.57-21.8-7.11-6.09-18.14-7.86-35.29-5.66-12.64,1.62-12.84,2.28,6.6-21.18,23.11-27.88,25.39-49.07,7.09-65.8-20.6-18.83-60.42-14.47-67.96,7.45-2.62,7.62-3.94,5.74-7.61-10.89-2.26-10.26-3.3-11.72-8.28-11.72-1.47,0-3.3,1.03-4.46,2.5-2.36,3-4.47,3.17-6.89.58-2.83-3.04-12.91-6.13-14.57-4.47-.67.67-12.03,4.04-17.82,5.29-12,2.59-35.17,16.13-45.4,26.54-25.23,25.66-33.57,87.47-16.89,125.21.77,1.73,1.39,3.5,1.39,3.93ZM141.56,74s1.93.9,4.2,2c7.98,3.85,11.83.33,13.69-12.5,1.21-8.32,5.71-13.73,13.03-15.63,11.15-2.91,24.69,1.79,29.13,10.12,5.16,9.68,3.45,14.97-10.48,32.52-9.06,11.4-14.66,22.11-15.58,29.78-.86,7.19-2.37,8.29-12.54,9.07-4.12.32-10.49.88-14.14,1.25-6.05.62-6.7.5-7.27-1.3-.59-1.87-.62-55.3-.03-55.3ZM76.51,207.75c-9.05,9.96-32.43-5.23-32.52-21.13,0-.62-.71-2.47-1.57-4.12-2.65-5.07-9.42-25.56-9.42-28.49,0-1.59,1.23-1.24,7.41,2.11,9.34,5.06,18.18,6.93,34.4,7.28,20.96.46,21.8,22.23,1.7,44.34ZM114.24,37.43c1.05-1.33,2.78-2.43,3.84-2.43,2.55,0,2.85,42.38.46,64-.82,7.42-1.84,18-2.26,23.49-.76,9.84-2.79,13.81-4.62,9.04-1.73-4.52.66-91.66,2.59-94.11ZM108.02,187.75c0-1.79.67-5.95,1.46-9.25.8-3.3,1.47-7.21,1.48-8.69.02-1.48.5-3.9,1.06-5.39,2.04-5.35,2.47-.82,2.49,25.91.02,25.25.18,27.59,2.18,33.15,3.35,9.33-4.29,11.62-20.18,6.06-8.67-3.03-8.64-2.95-2.77-10.68,8.56-11.26,14.23-23.64,14.27-31.12ZM34.44,103.98c6.57-30.94,24.78-50.98,54.56-60.04,6.18-1.88,6.62-.9,5.1,11.35-.63,5.07-1.57,24.71-2.1,43.65-.81,29.04-1.21,34.69-2.53,36-2.6,2.59-27.75,2.1-37.48-.73-4.12-1.2-9.75-2.25-12.5-2.34-8.6-.27-9.68-6.17-5.06-27.9Z"/>
</svg>