<?xml version="1.0" encoding="UTF-8"?>
<svg id="Layer_1" data-name="Layer 1" xmlns="http://www.w3.org/2000/svg" viewBox="0 0 256 256">
  <path d="M177.05,92.5c35.7,0,39.76-.17,42.66-1.75,21.44-11.72,26.33-63.84,5.73-61.08-2.68.36-6.8-.34-12.94-2.21-9.01-2.74-42.96-4.21-65-2.81-3.3.21-10.17,1.07-15.27,1.91-7.65,1.27-18.01,1.48-59.2,1.25-58.26-.33-59.16-.14-57.66,12.47,1.45,12.24,4.7,13.08,52.13,13.4,41.93.29,45.01.49,46.37,3.1,1.22,2.33.24,8.3-1.74,10.59-2.05,2.37-29.56,1.73-42.66-.99-24.71-5.13-47.28,1.17-53.54,14.94-6.66,14.67,8.31,24.93,15.75,10.8,3.65-6.94,24.02-10.38,36.31-6.13,1.95.67,12.23,1.49,23.29,1.86,24.4.8,21.68-4.6,21.7,43.04.01,28.02.44,43.03,1.47,52,.8,6.94,1.93,18.96,2.5,26.72,1.77,23.88,4.14,30.4,11.04,30.4,9.34,0,11.97-9.23,9.4-33-2.08-19.15-2.61-102.21-.72-110.5q.92-4,40.37-4ZM157.36,51.04c9.04-1.79,34.53-1.07,53.44,1.51,7.25.99,8.16,10.16,1.69,17.03-4.92,5.21-71.59,4.77-72.33-.48-1.34-9.49,4.4-15.52,17.2-18.05Z"/>
</svg>