<?xml version="1.0" encoding="UTF-8"?>
<svg id="Layer_1" data-name="Layer 1" xmlns="http://www.w3.org/2000/svg" viewBox="0 0 256 256">
  <path d="M27.52,203.79c3.98.84,5.58,1.82,7.94,4.88,38.47,49.83,107.12,55.5,153.69,12.7,6.25-5.75,6.02-5.68,23.75-7.37,17.47-1.67,22.61-4.89,22.61-14.15,0-6-5.11-11.84-10.36-11.84s-5.81-2.13-1.77-11.1c7.04-15.63,4.76-16.47-9.94-3.65-19.05,16.61-15.73,15.36-35.67,13.41-9.49-.93-21.14-1.68-25.89-1.68-14.45.02-15.36-6.11-15.36-103.49,0-53.38.38-48.85-4.51-53.75-3.79-3.79-4.24-3.97-8.25-3.3-2.33.39-4.91.66-5.74.61-15-.97-19.97-.87-24.5.51-2.75.84-6.62,1.88-8.6,2.32-3.7.81-8.53,2.9-19.94,8.6-31.32,15.66-45.25,37.74-49.54,78.52-2.11,20.05-.65,45.73,3.01,52.88,4.02,7.85,4.09,13.75.22,17.41-7.77,7.32-3.68,15.85,8.87,18.49ZM141.18,212.22c1.95-1.95,24.82-.43,24.82,1.64,0,2.51-21.88,13.46-24.75,12.39-1.63-.61-1.69-12.41-.07-14.03ZM114.36,231.22c-1.5,2.42-22.19-1.59-26.86-5.2-.55-.43-2.12-1.11-3.5-1.52-10.13-3.04-29.53-17.82-26.43-20.15,1.7-1.27,7.08-1.03,25.93,1.15,6.6.76,15.42,1.69,19.61,2.05,4.19.36,8.23,1.04,8.98,1.51,1.35.83,3.36,20.41,2.27,22.17ZM34.04,105.08c7.57-35.64,29.03-56.03,68.96-65.52,3.03-.72,5.78-1.36,6.13-1.44,2.21-.46,2.97,3.45,2.64,13.55-.75,22.84-8.63,41.4-23.56,55.48-8.78,8.29-15.78,11.73-29.21,14.4-22.92,4.54-28.62.78-24.96-16.47ZM32.2,146.08c.34-6.37-1.44-5.87,15.97-4.51,19.64,1.53,38.34-5.35,55.23-20.32,9-7.97,8.34-9.99,9.21,28.12.81,35.62,1.84,32.82-11.62,31.53-4.68-.45-15.93-1.52-25-2.39-13-1.24-18.15-1.35-24.28-.49-4.28.6-8.56.84-9.5.54-3.33-1.06-10.45-24.17-10.01-32.49Z"/>
</svg>