<?xml version="1.0" encoding="UTF-8"?>
<svg id="Layer_1" data-name="Layer 1" xmlns="http://www.w3.org/2000/svg" viewBox="0 0 256 256">
  <path d="M228.86,175.96c-8.28,4.5-7.82,18.59.78,24.44,5.07,3.45,8.47,3.32,12.81-.49,12.45-10.93.67-31.69-13.59-23.95Z"/>
  <path d="M216.5,92.79c15.6-1.38,22.5-5.12,22.5-12.18,0-6.19-4.53-10.18-11.17-9.84-20.4,1.06-19.3,1.38-19.63-5.68-.21-4.36.36-8.58,1.78-13.25,2.28-7.51,2.77-7.89,14.64-11.59,8.21-2.56,11.67-5.99,11.79-11.7.18-8.58-6.65-11.59-18.4-8.1-22.02,6.54-27.48,13.23-30.19,37.03-1.44,12.68-1.56,12.83-9.77,12.23-3.6-.26-11.6-.03-17.78.53-14.64,1.31-13.83,2.19-14.65-16.01-1.3-29.22-2.76-33.64-11.06-33.64s-10.94,6.38-9.46,26.33c1.68,22.69.69,25.49-8.88,24.87-5.33-.34-5.17.38-7.03-31.19-.89-15.03-1.59-16.67-7.84-18.24-9.81-2.46-12.83,4.93-12.01,29.38.74,22.04.55,22.63-7.52,23.64-2.38.3-11.5,1.53-20.26,2.73q-16.95,2.33-31.19-1.76c-7.23-2.08-10.69-.75-11.85,4.52-3.14,14.32,23.71,22.89,52.29,16.69,20.5-4.44,20.77-4.16,19.16,20.17-.68,10.31-1.52,23.6-1.86,29.54-.8,13.89.93,13.25-38.61,14.3-21.65.57-26.83,2.45-30.06,10.92-4.46,11.67,2.71,19.66,10.67,11.88q3.7-3.61,29.88-3.75c29.92-.16,28.14-.77,26.96,9.36-.48,4.13-.89,12.79-.91,19.25q-.04,11.75-3.54,15.62c-8.6,9.52,2.87,19.51,13.71,11.94,7-4.88,9.02-12.7,10.61-41.03.98-17.48,1.47-18.79,7.11-18.79,6.68,0,8.04,10.72,4.48,35.45-2.76,19.18,2.8,28.52,13.95,23.44,4.84-2.2,7.64-16.38,7.65-38.63,0-9.51.77-10.13,6.86-5.44,2,1.54,7.02,4.55,11.14,6.69,11.39,5.89,11.3,5.84,14.83,8.37,9.07,6.5,12.68,14.17,9,19.14-6.6,8.93.27,23.97,10.97,23.98,10.52.01,19.31-14.14,16.12-25.94-3.37-12.46-19.97-33.15-29.19-36.39-1.85-.65-3.37-3.35-2.43-4.3.3-.3,4.19-1.36,8.65-2.35,4.45-.99,8.88-2.39,9.82-3.11,12.1-9.13,14.94-18.57,13.2-43.9-2.44-35.61-1.57-40.4,7.52-41.21ZM120.27,155.77c-1.86,1.39-7.75,1.4-10.52.03-2.06-1.02-2.29-6.62-.69-16.8.56-3.58,1.34-14.87,1.73-25.1.51-13.43,1.09-19.06,2.08-20.25,1.37-1.65,6.51-2.21,9.55-1.05,3.24,1.24,1.22,60.65-2.15,63.16ZM163.68,160.63c-23.34-.66-20.94,3.46-20.11-34.55.76-34.91.52-33.82,7.76-34.38,36.14-2.8,35.23-3.57,36.49,31.2,1.47,40.52,2.77,38.49-24.15,37.73Z"/>
</svg>