<?xml version="1.0" encoding="UTF-8"?>
<svg id="Layer_1" data-name="Layer 1" xmlns="http://www.w3.org/2000/svg" viewBox="0 0 256 256">
  <defs>
    <style>
      .cls-1 {
        fill: #231f20;
      }
    </style>
  </defs>
  <path class="cls-1" d="M22.61,179.65c.77,1.73,1.39,3.5,1.39,3.93,0,18.2,32.01,49.99,61.5,61.08,43.75,16.45,97.21-4.27,126.94-49.21,2.17-3.28,4.68-6.86,5.57-7.96,2.46-3.02,8.99-18.33,8.99-21.08,0-5.07-3.97-2.29-27.91,19.52-30.95,28.2-44.97,38.51-51.48,37.87-6.6-.64-5.84-146.52.76-145.99,6.37.51,9.48-3.62,11.16-14.81,3.6-24,44.54-19.94,44.45,4.41-.02,5.94-1.88,9.27-12.86,23.09-18.47,23.24-24.29,55.85-6.94,38.89,33.6-32.86,46.04-59.18,37.04-78.36-2.65-5.64-1.89-6.6,5.78-7.29,16.73-1.52,22.67-16.63,9.76-24.82-3.14-2-4.16-2.05-28.76-1.48-15.51.36-29.81.17-36.5-.49-14.21-1.39-50.69-2-61.05-1.02-7.73.73-16.54,1.94-44.95,6.16-18.3,2.72-24.17,2.73-28.5.06-5.25-3.23-9.52-2.85-13.6,1.24-7.69,7.69-2.01,21.62,10.27,25.19,7.03,2.04,7.38,3.3,2.49,9.12-22.54,26.86-29.18,86.57-13.56,121.94ZM84.48,47.16c7.38-1.51,7.14-2.38,7.81,27.58.33,14.71,1.13,30.35,1.77,34.75,2.95,20.09-.07,54.94-5.84,67.43-6.15,13.29-5.19,26.62,2.83,39.65,7.63,12.39,20.64,2.36,14.85-11.45-2.85-6.81-3.24-16.43-.81-20.17,7.84-12.1,8.86-45.46,3.73-122.28-1.02-15.3-.99-17.96.24-18.73,7-4.43,9.5,17.71,7.9,70.06-.66,21.42.54,108.21,1.56,112.86,3.2,14.63-43.1-1.26-62.71-21.52-4.46-4.6-11.81-16.22-11.82-18.69,0-.63-.71-2.5-1.57-4.15-7.32-14.02-10.42-28.7-10.42-49.25,0-48.15,18.96-79.24,52.48-86.08Z"/>
</svg>