<?xml version="1.0" encoding="UTF-8"?>
<svg id="Layer_1" data-name="Layer 1" xmlns="http://www.w3.org/2000/svg" viewBox="0 0 256 256">
  <defs>
    <style>
      .cls-1 {
        fill: #231f20;
      }
    </style>
  </defs>
  <path class="cls-1" d="M69.36,197.63c23.34-4.85,25.65.6,10.91,25.76-2.35,4.02-1.58,9.17,1.81,12.02,6.67,5.61,14.78,1.89,19.95-9.15,1.74-3.72,3.56-7.52,4.03-8.44.48-.93,1.32-4.49,1.87-7.92,2.26-14.02,5.57-8.04,8.6,15.55,1.22,9.5,10.23,14.67,16.7,9.59,3.37-2.65,5.01-9.39,3.84-15.69-5.28-28.23-6.61-27.16,34.56-27.98,45.45-.9,43.7-1.68,45.35,19.96,1.1,14.38,2.77,19.07,7.85,22.02,16.84,9.8,18.24-37.57,1.62-54.69-7.21-7.43-5.3-7.16-50.45-7.16s-41.61,4.83-38.8-44.94c1.38-24.39,1.53-24.79,9.51-24,63.56,6.27,85.7,1.91,92.33-18.18,5.75-17.43-12.54-26.71-24.72-12.54-6.78,7.89-16.27,8.73-55.32,4.92-16.98-1.66-15.62-.39-16.49-15.44-1.94-33.69-10.23-46.58-22.74-35.4q-3.27,2.92-3.46,24.14c-.11,12.11-.61,21.64-1.16,22.19-2.59,2.59-3.15-.87-3.15-19.6,0-23.01-1.38-27.89-8.05-28.45-6.63-.56-7.33,1.35-8.08,21.77-1.11,30.41,1.09,28.02-26.11,28.32-22.4.24-19.54.89-31.35-7.1-12.29-8.31-23.11,4.45-15.19,17.9,7.71,13.08,13.95,15.32,43.99,15.75,29.53.43,26.21-4.61,25.16,38.19-.99,40.13.23,36.42-12.19,37.32-4.77.35-10.25,1.13-12.18,1.74-12.73,4.06-32.71.64-36.31-6.21-7.45-14.14-22.41-3.88-15.75,10.8,6.24,13.74,28.83,20.07,53.42,14.96ZM112.67,101.67c3.72-3.72,4.12-.46,3.19,26.26-.85,24.49-2.1,31.06-3.2,16.87-.85-10.91-.84-42.28,0-43.13Z"/>
</svg>