<?xml version="1.0" encoding="UTF-8"?>
<svg id="Layer_1" data-name="Layer 1" xmlns="http://www.w3.org/2000/svg" viewBox="0 0 256 256">
  <path d="M54.8,49.71c6.98-.91,15.4-1.93,18.7-2.27s9.82-1.22,14.5-1.97c27.8-4.45,24.47-16.2,24.63,86.98.13,88.01.21,90.27,3.53,96.83,4.83,9.54,19.06,10.14,22.68.95,1.25-3.17,1.42-158.56.19-174.24-.98-12.48.03-14.5,6.81-13.66,55.52,6.94,94.17,1.91,94.15-12.24-.02-11.25-5.93-13.37-35.5-12.68-14.75.34-29.71.15-36.5-.48-15.18-1.4-51.34-1.98-61.84-.99-4.58.43-13.14,1.51-19,2.41-9.71,1.48-23.01,3.31-41.62,5.73-6.43.84-7.32.72-11.73-1.59-10.1-5.28-18.48-.5-17.6,10.03,1.2,14.43,14.45,20.33,38.59,17.18Z"/>
</svg>