<?xml version="1.0" encoding="UTF-8"?>
<svg id="Layer_1" data-name="Layer 1" xmlns="http://www.w3.org/2000/svg" viewBox="0 0 256 256">
  <path d="M103.82,162.71c-18.73,15.25-21.84,16.63-34.31,15.24-6.45-.72-11.68-.71-17.15.02-4.33.58-11.78,1.49-16.56,2.03-25.86,2.9-29.97,22.2-5.07,23.8,4.02.26,7.58.91,7.91,1.45,1.02,1.65-11.79,10.76-15.12,10.76-3.98,0-5.92,7.43-2.7,10.35,3.66,3.31,11.65,1.03,23.46-6.7,7.76-5.08,19.58-11.57,22.32-12.26,1.33-.33,2.66-1,2.96-1.49.7-1.14,10.04-1.11,18.43.05,3.57.49,10.23,1.21,14.79,1.59,10.45.87,11.21,1.58,11.21,10.48,0,10.65,2.97,16.06,9.85,17.96,8.59,2.37,16.15-5.62,16.15-17.09,0-8.85,1.11-8.99,40.91-5.18,36.85,3.53,54.59-.94,54.59-13.77,0-10.46-6.24-13.1-28.96-12.28-10.43.38-19.61.05-29.92-1.06-8.18-.88-19-1.6-24.03-1.6-13.12,0-13.6-.45-13.58-12.81.02-11.45-.67-10.17,9.98-18.65,4.68-3.72,14.72-12.45,22.32-19.41,16.8-15.36,14.45-14.66,22.62-6.76,16.99,16.4,28.81,2.75,12.47-14.39-6.18-6.48-6.33-7.23-2.89-14.04,20.05-39.58,5.89-81.07-25.61-75.01-23.41,4.5-26.63,36.39-7.08,70.06,5.7,9.82,5.68,9.96-2.24,17-2.79,2.48-9.98,9.14-15.99,14.8-17.33,16.33-16.96,17.36-16.11-46.3.61-45.6.44-47.32-5.05-52.37-5.88-5.4-13.12-3.54-16.86,4.33-2.53,5.34-4.22,66.34-2.68,96.57,1.42,27.74,1.65,26.75-8.08,34.67ZM179.1,45.6c7.1-9.02,15.74,2.19,14.57,18.9-1.35,19.27-5.34,23.45-11.21,11.73-6.58-13.16-7.87-24.89-3.36-30.62Z"/>
</svg>