<?xml version="1.0" encoding="UTF-8"?>
<svg id="Layer_1" data-name="Layer 1" xmlns="http://www.w3.org/2000/svg" viewBox="0 0 256 256">
  <path d="M231.07,214.77q-2.93-3.27-16.5-3.07c-15.5.22-15.45.26-9.26-7.08,2.37-2.81,5.84-7.36,7.72-10.11s4.13-5.9,5.01-7c2.46-3.08,8.96-18.37,8.96-21.08,0-5.07-4-2.27-27.9,19.52-16.89,15.4-28.55,25.24-31.07,26.22-8.85,3.46-26.31-2.78-27.44-9.8-3.75-23.25-7.04-88.03-4.64-91.35,1.32-1.83,4.05,1.07,4.05,4.31,0,16.74,28.09,31.42,48.93,25.57,17.99-5.05,30.15-25.14,26.12-43.15-3.74-16.7-20.03-11.06-20.05,6.94-.02,15.69-14.61,24.17-28.47,16.56-17.05-9.36-14.81-35.06,4.41-50.65,8.84-7.17,13.06-14.71,13.06-23.33,0-12.67-9.59-12.35-15.39.51-1.4,3.1-3.61,5.36-8.51,8.68-9.21,6.23-17.07,17.61-20.73,30-3.19,10.79-4.18-5.36-1.81-29.43,2.66-27.02-3.33-39.78-14.56-31-3.2,2.5-5.24,2.5-7.5,0-2.25-2.49-14.18-2.7-22-.39-2.75.81-6.62,1.84-8.6,2.27-3.26.72-5.52,1.64-16.9,6.94-32.56,15.14-48.21,38.75-52.47,79.18-2.96,28.07-.84,47.74,7.08,65.65.77,1.73,1.39,3.5,1.39,3.93,0,.83,1.88,5.11,7.7,17.54,4.11,8.77,3.96,9.43-2.2,10.12-15.64,1.76-19.92,20.62-5.62,24.72,1.78.51,10.93.66,20.54.33,17.36-.6,27.83.97,33.24,4.96,15.97,11.78,53.22,11.88,83.33.22,2.32-.9,10.05-1.52,23-1.84,37.43-.93,58.54-12.08,47.07-24.86ZM117.92,42.96c-.4,2.5-1.02,9.72-1.39,16.04-.37,6.33-1.32,16.66-2.1,22.96-1.56,12.5-1.98,108.6-.53,118.84,1.25,8.8,1.76,8.6-24.07,9.36-25.48.75-28.26.33-34.18-5.13-3.86-3.56-11.64-15.84-11.65-18.41,0-.62-.71-2.47-1.57-4.12-10.4-19.93-13.65-51.87-7.98-78.52,7.45-35.09,30-56,69.56-64.5,3.58-.77,7.85-1.83,9.5-2.35s3.3-.99,3.67-1.04c1.21-.16,1.48,2.27.75,6.87Z"/>
</svg>