<?xml version="1.0" encoding="UTF-8"?>
<svg id="Layer_1" data-name="Layer 1" xmlns="http://www.w3.org/2000/svg" viewBox="0 0 256 256">
  <path d="M204,17.44c-15.51.36-29.81.17-36.5-.49-14.76-1.45-50.84-1.99-62-.94-4.95.47-13.05,1.53-18,2.36s-11.93,1.79-15.5,2.13c-3.57.34-10.27,1.26-14.88,2.06-11.17,1.92-15.09,1.82-21.86-.56-11.64-4.09-19.26-.35-19.26,9.45,0,11.35,8.67,18.03,25,19.25,9.51.71,9.84.92,12.11,7.36,5.17,14.68-4.11,25.91-21.41,25.93-15.46.02-18.41,16.62-3.81,21.47,4.37,1.45,5.56,1.47,11.74.15,3.78-.81,17.45-1.97,30.37-2.58s27.25-1.57,31.84-2.12c12.21-1.48,11.46-3.37,10.73,27.04-2.1,86.89,1.01,109.03,15.32,109.05,12.21.01,12.53-1.55,11.92-58.34-.49-46.29-.04-70.77,1.34-72.15,1.91-1.9,20.18,5.77,31.63,13.27,11.52,7.54,27.23,36.69,27.21,50.48,0,1.23.86,5.39,1.91,9.24,4.14,15.2,6.01,23.24,6.61,28.5,2.35,20.69,9.65,30.7,20.85,28.59,9.28-1.74,10.36-9.23,3.13-21.59-.8-1.38-1.47-3.44-1.48-4.59-.02-2.56-3.6-20.06-5.51-26.91-2.56-9.19-5.54-21.98-5.52-23.72.08-9.5-15.06-39.38-25.17-49.68-7.05-7.19-32.81-22.05-38.31-22.1-4.31-.04-15.04-5.92-15.69-8.59-4.72-19.36-2.19-37.97,5.04-37.06,55.52,6.94,94.17,1.91,94.15-12.24-.02-11.3-5.87-13.36-36-12.67ZM91.74,80.67q-18.04.65-17.15-4.76c1.44-8.73,1.03-17.22-1.05-21.83-2.9-6.42-3.15-6.32,24.96-10.12,13.66-1.85,13.11-2.56,14.01,18.14.86,19.85,3.26,17.7-20.77,18.57Z"/>
</svg>