<?xml version="1.0" encoding="UTF-8"?>
<svg id="Layer_1" data-name="Layer 1" xmlns="http://www.w3.org/2000/svg" viewBox="0 0 256 256">
  <path d="M187,191.81c-53.67.24-49.48,1.12-48.54-10.15,1.12-13.41,25.54-15.32,25.54-2,0,8.37,14.53,11.01,18.49,3.36,6.85-13.25-9.99-29.99-31.93-31.73-16.56-1.32-16.98-13.41-.56-16.18,32.1-5.42,44.35-16.66,44.25-40.61-.11-25.48-11.37-32.87-45.25-29.7-13.86,1.3-13,2.53-13-18.49,0-11.21-.41-18.21-1.15-19.59-3.52-6.58-10.19-7.59-15.45-2.33q-3.4,3.4-3.4,22.07c0,26.85,1.91,25.33-32.44,25.74-28.75.34-29.56.05-29.56-10.54,0-9.72-6.44-13.29-10.25-5.67-5.07,10.15-.37,23,10.74,29.4,6.77,3.9,28.42,5.58,55.43,4.31,5.4-.25,5.67.39,6.21,15.29.43,11.8,1.1,10.9-10.13,13.49-49.24,11.35-50.04,57.02-1,57.02q13.5,0,13.49,6.21c-.01,8.97.84,8.65-25.79,9.75-43.5,1.8-54.38.82-62.38-5.64-4.97-4.01-12.88,2.26-9.96,7.9,6.65,12.86,34.33,20.81,57.14,16.41,4.01-.77,11.4-.93,22.33-.49,18.76.77,18.54.66,19.73,10.35,2.43,19.82,15.44,18.5,15.44-1.57,0-7.34-3.19-6.92,53.9-7.01,57.36-.08,56.1.12,56.1-8.85,0-10.51-2.69-11.01-58-10.76ZM102.37,156c-19.61,0-16.54-10.54,5.13-17.62,10.95-3.58,12.5-2.76,12.5,6.54,0,8.51-4.09,11.08-17.63,11.08ZM135.61,91.84c-.14-7.3-.23-7.24,11.72-7.91,26.08-1.46,27.67-.85,27.67,10.54,0,12.97-6.1,17.36-30.69,22.05-6.31,1.21-8.33-4.53-8.71-24.68Z"/>
</svg>