<?xml version="1.0" encoding="UTF-8"?>
<svg id="Layer_1" data-name="Layer 1" xmlns="http://www.w3.org/2000/svg" viewBox="0 0 256 256">
  <path d="M218.19,187.47c-6.64,1.12-7.03-.79-2.37-11.67,6.31-14.73,6.18-13.72,6.18-45.9s-.01-32.37-5.75-39.54c-5.09-6.37-5.97-6.53-33.37-6.17-21.29.28-24.7.54-26.86,2.07-8.31,5.88-16.17,1.75-15.94-8.4.23-10.25,1.06-11.6,5.21-8.45,6.62,5.04,12.72,4.21,15.35-2.1,2.92-6.99-2.69-18.69-11.02-22.96-6.38-3.27-9.62-6.62-9.62-9.91,0-10.25-14.66-13.43-20.59-4.47-3.55,5.36-6.13,5.3-12.2-.3-5.13-4.73-6.68-5.5-9.71-4.89-1.1.23-3.57,1.89-5.5,3.69-1.93,1.81-4.85,3.59-6.5,3.96-4.68,1.06-19.57,8.56-24,12.1-2.2,1.75-5.07,3.53-6.38,3.94-3.19,1.01-16.39,14.14-18.63,18.53-.98,1.92-3.51,5.47-5.62,7.87-25.26,28.78-19.52,38.44,23.23,39.13,37.06.6,32.48-3.89,33.4,32.71.89,35.73,2.03,32.95-12.84,31.35-7.83-.84-12.72-.85-18.86-.02-28.77,3.88-29.17,3.86-32.36-.95-4.94-7.46-12.31-7.78-15.82-.69-2.54,5.12-1.11,9.84,5.78,19.1,2.86,3.85,8.33,11.92,12.15,17.93,11.52,18.14,25.15,30.57,33.51,30.57,1.4,0,2.98.44,3.51.98,3.81,3.81,12.49,5.02,35.83,5.01,32.88-.02,39.99-2.14,66.2-19.73,6.35-4.26,12.75-8.43,14.22-9.26,1.47-.83,4.3-2.52,6.29-3.75,3.14-1.95,4.99-2.24,14-2.25,29.88-.02,40.38-3.96,40.38-15.14,0-8.96-9.36-14.41-21.31-12.39ZM85.65,95.23c-2.54,1.61-43.65.89-43.65-.77,0-5.34,16.08-24.15,24.97-29.21,2.49-1.42,5.51-3.45,6.7-4.52s4.35-3,7-4.3c5.95-2.91,6.03-2.92,6.87-.28,1.11,3.51-.57,38.25-1.89,39.09ZM84.47,218.47c-2.22,2.91-3.91,6.39-4.22,8.69-.6,4.45-.53,4.44-8.03,1.91-11.26-3.8-14.98-5.92-20.53-11.69-6.44-6.7-8.21-9.58-7.32-11.91.9-2.36,38.67-1.86,41.07.54,3.3,3.3,2.99,7.27-.97,12.46ZM108.03,55.93c1.24-2.31,5.21-2.54,6.99-.4,1.69,2.04.76,32.82-1.06,35.01-1.61,1.94-5.6,1.87-6.36-.12-1.04-2.71-.67-32.43.43-34.48ZM115.32,180.83c-2.36,1.26-5.97.53-6.69-1.36-1.31-3.41-1.92-66.41-.66-67.93,1.44-1.73,2.88-1.92,4.92-.62,3.66,2.31,5.94,68.04,2.43,69.92ZM110.44,232c-8.72,0-9.32-.64-5.99-6.32,1.89-3.23,2.55-5.76,2.55-9.81,0-3,.54-6,1.2-6.66,4.74-4.74,9.78-.09,9.87,9.12.04,3.95.43,8.08.88,9.18,1.38,3.43-.63,4.5-8.51,4.5ZM145.34,219.58c-1.67-.64-1.76-5.76-.14-7.38,2.05-2.05,9.8-1.07,9.8,1.24,0,1.67-8.02,6.77-9.66,6.14ZM197.57,171.52c-.85,1.64-1.56,3.58-1.56,4.3-.04,7.6-7.91,11.71-19.67,10.27-4.86-.6-13.4-1.08-18.98-1.09-15.14,0-14.01,2.31-15.44-31.5-.66-15.4-1.39-31.74-1.63-36.31-.56-10.63-.13-11.17,9.08-11.27,4.27-.05,9.13-.82,12.13-1.92,4.1-1.51,8.09-1.86,22.18-1.92,23.56-.11,30.94,36.75,13.89,69.44Z"/>
</svg>