<?xml version="1.0" encoding="UTF-8"?>
<svg id="Layer_1" data-name="Layer 1" xmlns="http://www.w3.org/2000/svg" viewBox="0 0 256 256">
  <defs>
    <style>
      .cls-1 {
        fill: #231f20;
      }
    </style>
  </defs>
  <path class="cls-1" d="M171.3,140.53c12.67,2.38,19.2-8.26,10.54-17.19-4.12-4.25-4.46-6.84-5.42-41.7-.73-26.44-.78-26.91-3.16-29.74-5.37-6.38-11.79-8.92-16.32-6.44-4.67,2.56-5.36,5.97-2.44,12.13,2.28,4.82,2.49,6.21,1.96,13.15-2.98,39.29,3.03,67.58,14.84,69.79Z"/>
  <path class="cls-1" d="M22.61,179.65c.77,1.73,1.39,3.5,1.39,3.93,0,1.06,3.19,8.15,8.28,18.42,14.93,30.11,63.16,54.02,96.02,47.59,3.96-.77,9.12-1.68,11.47-2.01,29.09-4.12,68.82-37.64,83.49-70.43,9.08-20.3,7.37-19.43-33.56,17.04-34.4,30.65-55.08,41.04-56.85,28.57-.37-2.61-1.65-6.33-2.85-8.27q-2.18-3.52-2.33-89.75c-.18-97.77.59-89.33-8.77-96.73-5.79-4.57-15.06-5.45-25.39-2.39-2.75.81-6.62,1.84-8.6,2.27-3.26.72-5.52,1.64-16.9,6.94-32.56,15.14-48.21,38.75-52.47,79.18-2.96,28.07-.84,47.74,7.08,65.65ZM89.27,43.97c.68-.02,3.03-.88,5.23-1.92,11.99-5.67,13.52-3.55,11.06,15.44-.78,6.05-1.74,17.52-2.14,25.5-.39,7.98-.82,15.4-.95,16.5s-.28,2.56-.35,3.25c-.09.91-2.83,1.25-9.96,1.25-22.2,0-39.55,24.52-30.07,42.52,7.05,13.39,22.92,21.15,32.81,16.03,6.11-3.16,6.1-3.25,6.11,24.67.01,26.99.84,33.38,5.03,39.05,11.1,15.02-33.37-3.52-50.23-20.93-4.46-4.6-11.81-16.22-11.82-18.69,0-.63-.71-2.5-1.57-4.15-7.25-13.9-10.42-28.74-10.42-48.79,0-47.62,26.46-89.08,57.27-89.74ZM82.01,146c-12.43-4.1-10.57-18.55,3.49-27.16,3.84-2.35,5.66-2.32,10.59.2,12.16,6.21-.94,31.29-14.08,26.96Z"/>
</svg>