<?xml version="1.0" encoding="UTF-8"?>
<svg id="Layer_1" data-name="Layer 1" xmlns="http://www.w3.org/2000/svg" viewBox="0 0 256 256">
  <path d="M81.79,89.1c4.84-1.09,19.31-3.48,31.71-5.24,3.85-.55,9.25-1.62,12-2.4,22.1-6.2,35.39.8,28.51,15.01-3.58,7.4-7.12,9.75-36.51,24.26-7.87,3.89-16.61,7.27-18.76,7.27-12.15,0-37.27,10.82-43.56,18.77-24.94,31.49,16.26,61.26,59.71,43.14,17.11-7.14,37.1-5.4,37.1,3.22,0,14.22,14.9,18.3,20.6,5.65,12.24-27.14-16.21-42.5-57.1-30.82-30.81,8.79-40.87,8.82-44.48.1-2.93-7.07,4.11-13.21,18.98-16.57,17.82-4.02,27.59-7.35,39-13.29,4.67-2.43,13.27-6.87,19.11-9.86,27.57-14.13,37.2-44.26,20.04-62.67-6.19-6.64-28.06-8.59-47.15-4.2-4.12.95-11.63,2.34-16.68,3.09-5.05.75-13.76,2.28-19.36,3.41-17.34,3.48-20.41,2.68-26.95-6.95-5.81-8.56-11.29-10.54-15.82-5.72-14.14,15.05,14.48,39.47,39.6,33.8Z"/>
</svg>