<?xml version="1.0" encoding="UTF-8"?>
<svg id="Layer_1" data-name="Layer 1" xmlns="http://www.w3.org/2000/svg" viewBox="0 0 256 256">
  <path d="M35.81,76c4.78.54,12.07,1.44,16.19,2.01,7.45,1.03,8.44.97,49-2.91,12.57-1.2,12-2.02,12,17.25,0,21.76-1.15,22.56-29.5,20.56-6.05-.43-15.9-.8-21.89-.84-11.35-.07-24.92-3.33-27.69-6.66-3.56-4.29-9.92-.92-9.92,5.26,0,9.84,17.81,20.3,34.66,20.36,3.21.01,12.59.68,20.84,1.48,8.79.85,18.42,1.2,23.25.83q8.25-.63,8.25,15.27c0,67.14,2.25,81.68,12.81,83.1,12.05,1.62,13.38-4.28,12.57-55.75-.71-44.64-.66-45.13,4.32-47.02,6.56-2.49,6.71-1.95,5.75,20.94-1.64,38.86-.65,49.81,5.65,62.79,14.37,29.61,60.05,19.28,73.69-16.66,20.92-55.1,3.69-90.91-43.78-91.01-14.14-.03-13.56.61-12.16-13.21.64-6.27,1.16-13.28,1.16-15.57,0-7.31,1.38-7.69,28.96-7.87,12.95-.09,24.56-.2,25.81-.25,4.7-.19,9.73-6.37,9.73-11.94,0-13.42-16.77-17.32-58.23-13.55-9.23.84-9.84-.26-4.76-8.5,6.32-10.24-1.85-19.69-13.1-15.14-4.98,2.01-8.98,8.84-10.8,18.43-2.12,11.18-7.76,10.49-8.67-1.06-1.89-23.88-25.95-22.34-25.95,1.66,0,8.9-.76,9.61-11.21,10.48-4.56.38-11.21,1.15-14.79,1.7s-19.55,1.31-35.5,1.67c-34.19.78-37.38,1.74-37.47,11.27-.07,7.45,6.05,11.24,20.77,12.89ZM171.69,125.67c4.06-.68,18.92.24,25.14,1.55,18.24,3.86,22.35,34.96,8.54,64.63-7.36,15.82-29.25,22.69-35.08,11.01-5.95-11.92-4.78-76.16,1.4-77.19ZM141.17,72.75c6.89-5.89,8.96-1.28,7.73,17.26-1.13,17.05-1.58,18.23-6.82,17.79-4.44-.37-5.25-31.35-.91-35.05Z"/>
</svg>