<?xml version="1.0" encoding="UTF-8"?>
<svg id="Layer_1" data-name="Layer 1" xmlns="http://www.w3.org/2000/svg" viewBox="0 0 256 256">
  <path d="M214.6,71.58c-8.24,9.85-10.34,8.2-10.42-8.19-.12-26.1-5.66-33.83-25.1-35.09-18.31-1.19-24.49,5.66-27.64,30.62-1.88,14.85-2.1,15.74-4.06,16.5-3.2,1.23-4.11-1.2-4.77-12.67-1.97-34.34-8.16-45.19-21.76-38.15-2.32,1.2-3.69,1.33-5.7.56-5.48-2.11-12.46-2.14-19.65-.08-3.85,1.1-8.62,2.37-10.6,2.81-12.78,2.86-35.27,16.23-46.51,27.66-4.46,4.53-8.99,8.52-10.07,8.87-5.53,1.76-7.6,5.94-7.8,15.81-.11,5.44-.87,11.37-1.84,14.29-7.31,22.17-5.38,64.09,3.92,85.15.77,1.73,1.39,3.5,1.39,3.93,0,18.2,32.01,49.99,61.5,61.08,43.75,16.45,97.21-4.27,126.94-49.21,2.17-3.28,4.68-6.86,5.57-7.96,2.46-3.02,8.99-18.33,8.99-21.08,0-5.34-.92-4.65-37.31,27.77-25.78,22.98-44.05,34.81-50.11,32.48-5.4-2.07-5.34-113.71.07-122.42,3.38-5.44,9.35-1.39,9.35,6.35,0,24.07,8.41,34.14,27.77,33.26,14.5-.66,20.64-7.72,22.66-26.06,1.26-11.41,1.01-11.09,10.42-13.17,23.3-5.14,37.55-24.25,26.6-35.68-6.49-6.77-14.83-5.77-21.85,2.63ZM112.61,39.58c2.19-5.71,3.25-.71,3.47,16.41.19,14.78-.42,18.16-2.99,16.57-1.16-.72-1.59-30.08-.48-32.97ZM115.86,127.93c-.85,24.49-2.1,31.06-3.2,16.87-.85-10.91-.84-42.28,0-43.13,3.72-3.72,4.12-.46,3.19,26.26ZM92.12,148.25c-1.99,77.52-6.4,85.25-33.91,59.3-6.04-5.7-14.2-17.71-14.21-20.94,0-.62-.71-2.47-1.57-4.12-1.93-3.7-4.68-11.42-7.94-22.27-4.28-14.26-3.3-51.24,1.61-60.41.79-1.48,1.66-1.84,3.24-1.35,6.38,1.98,12.02,2.43,30.79,2.47,26.3.06,23.36-6.26,21.99,47.3ZM50.2,74.11c-7.19-3.85,18.55-23.88,38.8-30.19,5.21-1.62,6.47-.81,6.8,4.34,1.47,22.87-24.1,37.36-45.61,25.85ZM108.31,231.98c-7.77.02-8.59-5.52-2.16-14.52.41-.57,1.19-3.83,1.74-7.26s1.28-6.67,1.62-7.22c2.03-3.28,4.88,4.78,6.52,18.42,1.27,10.52,1.24,10.55-7.71,10.57ZM171.1,120.85c-1.46-4.19-1.4-13.15.1-14.65,2.77-2.77,7.29-1.1,8.33,3.07,2.42,9.63-5.38,20.34-8.43,11.58ZM183.97,77.07c-2.86,5.34-14.75.23-13.59-5.84.29-1.5.82-6.1,1.19-10.22.66-7.44,1.72-10.82,3.84-12.23,3.92-2.62,7.73.6,8.69,7.34,1.13,7.93,1.06,18.75-.12,20.96Z"/>
</svg>