<?xml version="1.0" encoding="UTF-8"?>
<svg id="Layer_1" data-name="Layer 1" xmlns="http://www.w3.org/2000/svg" viewBox="0 0 256 256">
  <path d="M59.97,83.34q-26.2-.16-29.88-3.75c-7.93-7.75-15.09.26-10.64,11.91,3.28,8.58,8.19,10.29,31.55,10.95,38.58,1.1,36.48.18,37.3,16.22.33,6.51,1.11,19.62,1.74,29.14,1.47,22.58,1.04,23-19.23,18.61-28.54-6.19-55.44,2.38-52.3,16.66,1.37,6.24,5.66,7.14,16.29,3.43,8.64-3.02,9.49-3.03,28.02-.46,8.07,1.12,16.62,2.28,19,2.57,8.07,1,8.26,1.59,7.52,23.64-.82,24.46,2.2,31.84,12.01,29.38,6.25-1.57,6.95-3.2,7.84-18.24,1.86-31.57,1.69-30.85,7.03-31.19,9.57-.62,10.57,2.18,8.88,24.87-1.48,19.95.81,26.33,9.46,26.33s9.76-4.42,11.06-33.64c.81-18.21,0-17.32,14.65-16.01,6.18.55,14.19.79,17.78.53,8.21-.6,8.32-.46,9.77,12.23,1.97,17.29,6.78,27.06,15.4,31.27,21.09,10.3,33.44,9.43,33.19-2.34-.12-5.71-3.57-9.14-11.79-11.7-11.87-3.69-12.36-4.08-14.64-11.59-1.42-4.67-1.98-8.88-1.78-13.25.33-7.05-.77-6.73,19.63-5.68,6.64.34,11.17-3.65,11.17-9.84,0-7.06-6.9-10.8-22.5-12.18-9.1-.81-9.98-5.62-7.5-41.47,2.85-41.17-10.86-52.87-54.86-46.82-13.73,1.89-13.58,2-13.87-10.53-.69-29.61-2.92-42-7.96-44.3-11.11-5.06-16.67,4.3-13.91,23.46,3.56,24.72,2.2,35.45-4.48,35.45-5.64,0-6.13-1.3-7.11-18.79-1.14-20.39-3.05-32.33-5.77-36.16-4.5-6.32-11.53-9.08-16.53-6.48-6.44,3.34-7.11,7.9-2.01,13.55q3.5,3.87,3.54,15.62c.02,6.46.44,15.12.91,19.25,1.18,10.14,2.96,9.52-26.99,9.34ZM151.03,103.75c39.44-2.7,38.29-3.88,36.79,37.36-1.27,34.98,1.28,31.43-22.45,31.28-23.57-.15-21,3.93-21.82-34.46-.77-35.75-1.24-33.58,7.47-34.18ZM109.59,108.21c2.43-1.36,8.87-1.33,10.72.05,3.24,2.42,5.32,60.14,2.26,62.68-7.08,5.87-11.54-.68-11.56-16.98,0-6.9-.69-17.92-1.51-24.5-1.95-15.64-1.93-20.12.08-21.25Z"/>
</svg>