<?xml version="1.0" encoding="UTF-8"?>
<svg id="Layer_1" data-name="Layer 1" xmlns="http://www.w3.org/2000/svg" viewBox="0 0 256 256">
  <defs>
    <style>
      .cls-1 {
        fill: #231f20;
      }
    </style>
  </defs>
  <path class="cls-1" d="M171.3,140.53c12.67,2.38,19.2-8.26,10.54-17.19-4.12-4.25-4.46-6.84-5.42-41.7-.73-26.44-.78-26.91-3.16-29.74-5.37-6.38-11.79-8.92-16.32-6.44-4.67,2.56-5.36,5.97-2.44,12.13,2.28,4.82,2.49,6.21,1.96,13.15-2.98,39.29,3.03,67.58,14.84,69.79Z"/>
  <path class="cls-1" d="M123,26c-3.2,2.5-5.24,2.5-7.5,0-2.25-2.49-14.18-2.7-22-.39-2.75.81-6.62,1.84-8.6,2.27-12.1,2.66-35.18,16.16-45.4,26.55-25.23,25.66-33.57,87.47-16.89,125.21.77,1.73,1.39,3.5,1.39,3.93,0,.83,1.88,5.11,7.7,17.54,4.11,8.77,3.96,9.43-2.2,10.12-15.64,1.76-19.92,20.62-5.62,24.72,1.78.51,10.93.66,20.54.33,17.36-.6,27.83.97,33.24,4.96,14.87,10.97,47.59,11.94,76.83,2.28,9.57-3.16,10.84-3.33,29.5-3.84,31.51-.87,50-7.93,50-19.08,0-7.23-4.2-9.14-19.58-8.92q-15.34.22-9.11-7.08c14.23-16.84,26.04-40.61,20.18-40.61-1.63,0-6.87,4.43-35.9,30.31-20.15,17.97-21.4,18.79-28.85,18.84-4.74.04-19.72-5.91-19.77-7.86-.01-.44-.44-3.72-.94-7.3-5.04-35.41-6.37-106.58-2.64-141,2.92-26.9-3.09-39.84-14.4-31ZM117.92,42.96c-.4,2.5-1.02,9.72-1.39,16.04-.37,6.33-1.32,16.66-2.1,22.96-1.56,12.5-1.98,108.6-.53,118.84,1.25,8.8,1.76,8.6-24.07,9.34-25.48.73-28.31.31-34.19-5.11-3.86-3.56-11.64-15.84-11.65-18.41,0-.62-.71-2.47-1.57-4.12-10.4-19.93-13.65-51.87-7.98-78.52,7.45-35.09,30-56,69.56-64.5,3.58-.77,7.85-1.83,9.5-2.35s3.3-.99,3.67-1.04c1.21-.16,1.48,2.27.75,6.87Z"/>
</svg>