<?xml version="1.0" encoding="UTF-8"?>
<svg id="Layer_1" data-name="Layer 1" xmlns="http://www.w3.org/2000/svg" viewBox="0 0 256 256">
  <defs>
    <style>
      .cls-1 {
        fill: #231f20;
      }
    </style>
  </defs>
  <path class="cls-1" d="M103.22,23.11c-2.95,1.09-6.05,6.39-6.64,11.35-.26,2.22-1.18,9.66-2.03,16.53-.86,6.88-1.99,28.22-2.53,47.44-.82,29.52-1.21,35.18-2.54,36.5-2.67,2.66-27.76,2.11-37.89-.83-22.75-6.6-33.98.85-21.57,14.32,9.04,9.81,23.46,14.65,44.78,15.04,22.39.41,21.74,23.66-1.3,47.18-12.15,12.4-12.55,21.06-1.09,23.94,10.33,2.59,35.58-30.44,35.58-46.55,0-2.58,1.27-9.88,3.8-21.85,1.84-8.73,2.69-2.12,2.43,19.05-.46,38.26,2.8,48.77,15.12,48.77,11.58,0,12.4-2.8,11.84-40.51-.43-29.28-.34-31.68,1.32-33.51,4.93-5.45,5.75-2.82,6.22,19.95.24,11.72.93,21.58,1.72,24.57.73,2.75,1.62,7.01,1.98,9.46,2.78,18.98,23.97,33.14,35.31,23.6,7.37-6.2,3.65-17.44-5.81-17.53-8.74-.08-10-3.99-12.57-38.86-2.02-27.52-3.92-24.76,18.76-27.32,16.34-1.84,20.65-1.88,36.87-.31,17.57,1.7,19.4-22.42,1.96-25.91-3.95-.79-3.8-2.45,1.07-12.14,11.68-23.24,4.81-60.88-13.85-75.91-17.91-14.42-25.9-16.55-40.91-10.88-22.53,8.51-24.35,13.24-24.93,64.79-.44,39.14-.29,37.75-4.08,37.32-3.43-.39-5.02-20.16-3.14-39.16.75-7.58.76-13.29.03-19-.57-4.49-1.3-12.89-1.61-18.68-1.18-21.9-5.28-31.52-12.65-29.67-5.82,1.46-6.32,4.24-7,38.69-.34,17.32-1.13,35.55-1.75,40.5-.62,4.95-1.4,13.42-1.73,18.82-.6,9.77-2.2,13.24-4.45,9.62-.46-.74-.57-24.66-.24-53.14.68-58.76.63-59.06-8.5-55.68ZM168.01,98.13c.01-39.6,1.39-46.07,10.49-49.35,8.5-3.06,18.14.62,27.2,10.37,8.38,9.03,11.22,45.32,4.24,54.19-1.07,1.36-1.94,2.87-1.94,3.36,0,5.39-11.07,10.12-25.63,10.95-15.69.9-14.37,3.61-14.36-29.53Z"/>
</svg>