<?xml version="1.0" encoding="UTF-8"?>
<svg id="Layer_1" data-name="Layer 1" xmlns="http://www.w3.org/2000/svg" viewBox="0 0 256 256">
  <path d="M103.27,128.24c32.24-15.18,32.73-14.82,32.73,24.35,0,7.64,2.03,10.74,7.01,10.74,5.98,0,8.26-4.14,7.62-13.83-1.65-25.13-2.86-41.27-3.24-43.27-1.13-5.9-7.59-7.78-15.88-4.61-2.2.84-5.8,1.95-8,2.48-2.2.53-5.35,1.55-7,2.29-7.82,3.47-13.15,5.9-14.75,6.72-.96.49-2.54,1.31-3.5,1.8-.96.5-4.45,2.04-7.75,3.43-7.81,3.29-9.86,6.37-6.88,10.38,3.36,4.51,9.38,4.37,19.65-.47Z"/>
</svg>