<?xml version="1.0" encoding="UTF-8"?>
<svg id="Layer_1" data-name="Layer 1" xmlns="http://www.w3.org/2000/svg" viewBox="0 0 256 256">
  <defs>
    <style>
      .cls-1 {
        fill: #231f20;
      }
    </style>
  </defs>
  <path class="cls-1" d="M144,105.93c2.47,1.04,6.97,2.86,10,4.03,19.01,7.4,28.29,15.64,36.94,32.8,4.06,8.06,9.06,23.24,9.06,27.5,0,1.23.86,5.39,1.91,9.24,4.14,15.2,6.01,23.24,6.61,28.5,2.35,20.69,9.65,30.7,20.85,28.59,9.28-1.74,10.36-9.23,3.13-21.59-.8-1.38-1.47-3.44-1.48-4.59-.02-2.55-3.59-20.03-5.5-26.91-3.13-11.26-5.51-21.36-5.51-23.34,0-9.82-14.93-39.67-25.08-50.13-7.16-7.38-23.96-17.02-38.32-22-12.17-4.22-20.37-6.82-24.09-7.64q-4-.89-4.63-21.45c-.65-21.33-1.24-24.3-5.52-28.07-3.01-2.65-6-3.1-9.27-1.41-4.89,2.53-5.3,4.3-8.2,35.54-1.53,16.46-.66,15.74-19.26,15.9q-11.88.1-11.01-5.15c1.32-8,.98-17.07-.8-21.38-10.3-24.87-12.25-26.9-28.81-29.93-7.48-1.37-11.49-1.56-15.75-.74-15.53,2.99-11.41,18.52,5.2,19.61,12.64.83,14.04,1.97,18.98,15.45,5.02,13.67-4.92,25.21-21.73,25.22-6.23,0-10.02,2.05-12.15,6.55-4.36,9.19,5.96,18.02,17.99,15.4,5.5-1.2,24.26-2.75,34.71-2.86,7.7-.09,9.54,2.43,3.9,5.35-13.02,6.73-20.24,26.32-14.05,38.09,7.05,13.39,22.92,21.15,32.81,16.04q6.1-3.16,6.11,24.17c.02,27.15.86,33.47,5.35,40.26,10.71,16.18,33.29,5.4,24.05-11.48-2.78-5.08-4.12-110.2-1.44-112.88,1.06-1.06,8.59.6,15.02,3.31ZM82.01,146c-12.43-4.1-10.57-18.55,3.49-27.16,3.84-2.35,5.66-2.31,10.59.2,12.16,6.21-.94,31.29-14.08,26.96Z"/>
</svg>