<?xml version="1.0" encoding="UTF-8"?>
<svg id="Layer_1" data-name="Layer 1" xmlns="http://www.w3.org/2000/svg" viewBox="0 0 256 256">
  <path d="M210.54,187.66c-10.43.38-19.61.05-29.92-1.06-8.18-.88-19.05-1.6-24.14-1.6-17.65,0-21.07-20.59-5.48-32.99,3.57-2.84,12.72-10.87,20.32-17.84,16.79-15.4,14.45-14.69,22.63-6.8,16.99,16.4,28.81,2.75,12.46-14.39-6.18-6.48-6.33-7.23-2.89-14.04,20.05-39.58,5.89-81.07-25.61-75.01-23.46,4.51-26.69,36.38-7.09,70.06,5.72,9.83,5.7,9.97-2.25,16.99-2.79,2.47-9.2,8.43-14.24,13.25-15.03,14.38-15.1,14.14-13.88-46.68.4-19.85.39-38.34-.01-41.08-2.01-13.53-16.27-16.82-21.86-5.04-2.45,5.16-4.26,67.86-2.76,95.73,1.25,23.18.92,26.17-3.14,29.21-5.27,3.94-5.19,4.91-5.2-63.35q0-62.87-2.42-65.45c-4.68-4.98-11.23-3.07-15.12,4.42-1.97,3.8-3.21,52.58-2.55,100.78.66,48.65,1.64,45.79-15.4,44.83-5.23-.29-12.65-.1-16.5.44-3.85.54-10.91,1.41-15.7,1.95-24.45,2.74-30.09,21.36-7.19,23.73,2.99.31,5.71,1,6.04,1.53,1.03,1.67-11.82,10.75-15.21,10.75-4.09,0-5.94,7.33-2.62,10.35,3.67,3.32,11.77,1,23.46-6.74,4.95-3.28,16.49-9.86,19.71-11.26.82-.35,3.48-1.52,5.91-2.6,12.94-5.72,22.41,2.43,14.65,12.61-5.99,7.85-5.7,14.42.76,17.12,9.71,4.06,21.54-6.62,21.65-19.53.05-6.21,1.18-7.95,5.17-7.95,4.52,0,5.87,2.3,5.87,10.01,0,10.65,2.97,16.06,9.85,17.96,8.59,2.37,16.15-5.62,16.15-17.09,0-8.85,1.11-8.99,40.91-5.18,36.85,3.53,54.59-.94,54.59-13.77,0-10.46-6.24-13.1-28.96-12.28ZM179.73,44.75c6.94-7.67,15.06,3.82,13.95,19.75-1.68,24-8.44,24.16-15.49.37-3.05-10.3-2.66-15.48,1.55-20.12Z"/>
</svg>