<?xml version="1.0" encoding="UTF-8"?>
<svg id="Layer_1" data-name="Layer 1" xmlns="http://www.w3.org/2000/svg" viewBox="0 0 256 256">
  <path d="M28.5,197.35c4.56,2.46,33.4,2.75,46.5.47,12.8-2.23,12.46-2.39,12.79,5.89.29,7.08-1.78,13.93-4.77,15.78-6.19,3.82-6.49,14.61-.45,16.12,12.6,3.16,23.75-11.45,25.11-32.94.68-10.74,1.64-12.67,6.26-12.67,4.94,0,5.24,1.29,4.91,21.42-.35,21.47.37,23.79,7.56,24.4,10,.85,12.92-5.81,12.7-28.92-.22-22.09-1.89-20.39,19.07-19.45,31.79,1.42,38.27,6.52,41.38,32.51,1.76,14.71,17.22,15.43,19.92.93,1.6-8.63-5.1-31.5-10.74-36.61-2.19-1.98-2.27-6.6-.16-8.35,6.65-5.52,8.9-18.48,7.48-43.05-2.64-45.43,1.85-70.96,13.62-77.58,9.72-5.46,12.39-12.53,6.73-17.78-14.5-13.44-38.21,13.8-40.32,46.31-.87,13.49-.53,13.14-12.72,13.16-5.02,0-15.5.72-23.3,1.58-22.03,2.43-19.49,6.43-20.07-31.56-.44-28.28-.72-32.91-2.23-35.66-3.72-6.81-7.7-8.18-11.62-4.01-2.36,2.51-2.11.13-5.14,49.66-.52,8.52-.96,31.62-.98,51.32-.03,38.95-.05,39.04-5.73,40.61-6.69,1.85-7.47-.91-4.9-17.43,2.66-17.09,3.64-106.06,1.24-111.81-2.93-7.01-10.87-9.92-15.44-5.66-3.1,2.89-3.02,1.65-3.64,55.47-.31,26.95-1.02,51.7-1.56,55-.55,3.3-1.29,11.03-1.64,17.18-.81,14.02-.2,13.25-12.5,15.5-22.56,4.12-41.14,3.65-44.44-1.11-5.58-8.05-5.97-8.4-9.4-8.4-11.58,0-6.64,22.62,6.49,29.68ZM150.86,118.88c5.3-.06,14.14-.45,19.64-.85,22.89-1.69,23.91-1.42,24.74,6.47,4.09,38.78.86,44.17-25.74,42.92-8.25-.39-17.7-.76-21-.83-8.99-.2-8.5,1.13-8.5-23.06,0-26.72-.98-24.5,10.86-24.64Z"/>
</svg>