<?xml version="1.0" encoding="UTF-8"?>
<svg id="Layer_1" data-name="Layer 1" xmlns="http://www.w3.org/2000/svg" viewBox="0 0 256 256">
  <path d="M232.3,25c-.44,0-2.25.89-4.02,1.97-4.59,2.8-6.22,7.69-7.3,21.88-1.04,13.69-3.11,18.39-8.71,19.79-4.63,1.16-72.03-.57-81.77-2.1-4.95-.78-18-1.65-29-1.93-13.04-.34-22.78-1.1-28-2.2-24.65-5.19-47.3,1.12-53.56,14.91-6.66,14.67,8.31,24.93,15.75,10.8,3.64-6.92,23.88-10.35,36.31-6.16,1.92.65,14.08,1.58,27,2.07,12.92.49,25.75,1.39,28.5,2.01,13.11,2.95,91.05,3.52,96.2.7,19.35-10.58,26.48-61.83,8.6-61.74Z"/>
</svg>