<?xml version="1.0" encoding="UTF-8"?>
<svg id="Layer_1" data-name="Layer 1" xmlns="http://www.w3.org/2000/svg" viewBox="0 0 256 256">
  <path d="M77.03,236.19c43.79-.25,51.13-.07,59.7,1.45,36.42,6.46,89,.8,98.6-10.62,9.99-11.87-1.55-17.66-29.04-14.6-35.16,3.92-33.55,5.34-34.57-30.54-.94-32.83-2.07-29.45,10.21-30.32,17.39-1.23,30.88-7.98,37.81-18.92,31.88-50.36-2.07-124.02-46.94-101.84-15.67,7.75-22.52,19.3-25.16,42.45-2.62,22.96-2.79,27.39-1.59,41.93,1.27,15.36.75,17.37-4.11,16.1-3.78-.99-4.01-44.28-.39-74.96,3.02-25.6-4.27-40.32-14.78-29.81-3.2,3.2-4.52,9.75-5.85,29-.57,8.25-1.76,20.18-2.66,26.5s-1.74,19.3-1.87,28.84c-.25,18.04-.37,18.77-2.78,17.84-1.26-.48-1.52-7.18-1.79-46.37-.38-54.16-.65-55.31-12.81-55.31-10.28,0-11.11,4.43-10.34,54.55.8,52.07,4.14,45.9-24.84,45.94-32.88.05-45.42,7.55-46,27.51-.35,12.18,11.72,17.67,13.74,6.26,2.52-14.22,18.84-20.42,40.43-15.36,2.48.58,6.55,1.06,9.05,1.08,2.5.01,5.09.56,5.75,1.22,1.69,1.69,1.72,60.36.03,61.4-.64.4-13.13.77-27.75.82-33.36.13-38.35,1.79-39.71,13.29-1.5,12.61-.6,12.81,57.66,12.47ZM167.05,85.51c1.51-23.43,3.11-27.9,12.35-34.66,26.76-19.58,46.19,47.02,21.28,72.96-5.97,6.22-26.21,11-31.44,7.42-2.33-1.59-3.48-25.7-2.19-45.72ZM141.2,152.2c7.15-7.15,12.13,15.5,10.62,48.3-.36,7.85-3.79,10.24-6.46,4.5-2.68-5.76-6.22-50.74-4.17-52.8ZM109.09,189.94c.99-8.49,1.83-19.8,1.86-25.13.03-5.33.49-10.84,1.03-12.25.54-1.41,1.42-2.56,1.96-2.56,2.45,0,3.06,4.84,3.12,24.68.03,11.45.43,23.07.89,25.82.97,5.83.11,8.02-3.51,8.93-7.14,1.79-7.63,0-5.35-19.49Z"/>
</svg>