<?xml version="1.0" encoding="UTF-8"?>
<svg id="Layer_1" data-name="Layer 1" xmlns="http://www.w3.org/2000/svg" viewBox="0 0 256 256">
  <path d="M67.5,210.3c-47.42.33-50.68,1.17-52.13,13.41-1.49,12.61-.6,12.81,57.66,12.47,43.79-.25,51.13-.07,59.7,1.45,27.35,4.85,74.71,2.25,90.5-4.97,16.22-7.42,14.1-20.48-3.51-21.63-8.06-.52-8.22-.58-7.93-3.03,2.41-20.82-.38-39.39-8.27-54.95-3.45-6.8-3.29-7.56,2.89-14.04,16.27-17.05,4.54-30.8-12.36-14.49-8.57,8.28-5.47,9.42-25.55-9.38-7.86-7.36-23.39-20.1-28.71-23.56-4.68-3.04-4.99-8.2-2.13-35.45,2.32-22.14-.62-32.13-9.44-32.13-7.26,0-9.53,6.36-11.4,32-1.4,19.21-1.51,19.36-9.88,13.77-15.38-10.26-32.12-20.53-40.93-25.08-10.79-5.58-14.33-7.6-21.71-12.38-12.11-7.84-20.36-10.11-23.63-6.49-3.05,3.37-.96,10.17,3.12,10.17,1.38,0,8.03,3.75,10.73,6.04,3.78,3.22,12.31,8.84,18.11,11.93,12.15,6.49,51.64,34.31,58.06,40.92q2.33,2.4,2.4,51.5c.04,27.01.41,51.45.82,54.31,1.39,9.73,3.76,9.24-46.39,9.6ZM185.76,169.58c5.04-5.04,10.61,18.08,7.29,30.29-3.25,11.97-14.45,12.16-16.68.29-1.08-5.73,5.3-26.48,9.39-30.57ZM136.05,113.97c1.96-1.21,3.3-.24,15.97,11.69,6.33,5.96,13.8,12.87,16.58,15.34,7.92,7.05,7.94,7.18,2.23,17-11.4,19.59-15.36,35.67-11.83,47.98,2.23,7.76-.25,8.6-10.67,3.6-6.67-3.2-7.16-3.65-7.74-7.25-3.91-24.28-7.12-86.77-4.53-88.37Z"/>
</svg>