<?xml version="1.0" encoding="UTF-8"?>
<svg id="Layer_1" data-name="Layer 1" xmlns="http://www.w3.org/2000/svg" viewBox="0 0 256 256">
  <path d="M130.95,158.47c-8.32-4.3-34.82-5.69-38.49-2.02-6.17,6.17-1.74,11.04,10.75,11.83,15.55.98,28.79,4.75,34.29,9.76,4.99,4.54,12.74,3.83,14.02-1.28,1.87-7.44-.03-91.62-2.12-94.44-2.73-3.67-7.26-4.25-9.95-1.26-1.81,2-1.92,3.44-1.6,19.55.3,15.17.15,17.39-1.2,17.39-1.64,0-9.14-1.95-16.64-4.33-6.91-2.19-22.43-3.15-26.11-1.63-8.65,3.58-3.72,13.95,6.62,13.95,26.56,0,38.68,7.16,38.28,22.6-.32,12.27-1.16,13.32-7.84,9.87Z"/>
</svg>