<?xml version="1.0" encoding="UTF-8"?>
<svg id="Layer_1" data-name="Layer 1" xmlns="http://www.w3.org/2000/svg" viewBox="0 0 256 256">
  <path d="M173.5,55.47c-9.19-2.34-17.28-10.2-17.44-16.97-.36-14.84-10.89-21.99-19.52-13.25-5.76,5.83-7.22,13.43-7.99,41.75-1.31,47.74-3.12,48.5-4.61,1.96-1.31-40.95-2.14-44.65-9.82-43.76-4.53.53-4.89,2.96-5.79,39.2-.7,28.55-1.07,34.01-2.34,34.64-.82.41-3.87,1.77-6.77,3.03-20.18,8.78-19.3,45.43,1.33,55.75,6.99,3.5,6.81,2.66,6.14,28.32q-.6,23.06-4.16,28.22c-10.03,14.56,6.28,22.86,18.94,9.65,3.08-3.22,3.36-8.24,3.5-63.33,0-.46.56-.65,1.25-.42.95.32,1.25,5.9,1.26,23.33,0,25.4.78,29.11,7.83,37.42,14.31,16.88,31.77,3.91,22.14-16.45-3.79-8.02-2.82-11.17,3.33-10.78,41.03,2.62,67.55-56.72,34.16-76.44-3.8-2.25-3.74-3.23.5-7.73,19.41-20.58,8.99-46.26-21.97-54.13ZM101.44,140.58c-3.19-2.33-2.79-20.07.51-22.74,4.05-3.28,4.54-2.05,4.61,11.5.06,13.61-.42,14.68-5.12,11.24ZM156.66,71.74c1.27-2.05,16.68,2.92,24.66,7.96,10.96,6.92-2.88,25.3-19.05,25.3-6.52,0-10.74-24.96-5.61-33.26ZM157.93,171.97c-1.95-1.04-3.1-37.77-1.33-42.38.88-2.28,9.6-2.06,16.65.42,3.13,1.1,6.16,2,6.73,2,2.45,0,8.14,4.82,10.16,8.61,7.4,13.87-18.25,38.84-32.22,31.36Z"/>
</svg>