<?xml version="1.0" encoding="UTF-8"?>
<svg id="Layer_1" data-name="Layer 1" xmlns="http://www.w3.org/2000/svg" viewBox="0 0 256 256">
  <defs>
    <style>
      .cls-1 {
        fill: #231f20;
      }
    </style>
  </defs>
  <path class="cls-1" d="M24,183.58c0,18.2,32.01,49.99,61.5,61.08,43.72,16.44,97.23-4.3,126.94-49.21,2.17-3.28,4.67-6.86,5.57-7.96,2.46-3.02,8.99-18.33,8.99-21.08,0-5.34-.69-4.83-37,27.51-26.19,23.33-43.15,34.35-50.65,32.9-1.78-.34-3.54-58.94-1.96-65.23.85-3.37,4.73-4.36,22.11-5.6,7.7-.55,20.69-1.72,28.88-2.61,8.96-.97,17.51-1.35,21.5-.95,3.64.36,8.87.88,11.62,1.15,13.41,1.32,18.99-12.88,8.57-21.8-6.97-5.97-18.2-7.85-34.6-5.79-4.39.55-16.3,1.68-26.47,2.51-10.17.83-21.26,1.79-24.64,2.13-8.17.82-7.73,3.79-7.06-48.14.53-40.61-6.58-64.29-17.07-56.94-2.01,1.41-2.43,1.41-4.45,0-2.88-2.02-15.38-1.98-22.28.06-2.75.81-6.62,1.84-8.6,2.27-12.1,2.66-35.18,16.16-45.4,26.55-25.23,25.66-33.57,87.47-16.89,125.21.77,1.73,1.39,3.5,1.39,3.93ZM110.12,163.23c.07.7.04,10.8-.06,22.44-.19,21.99,1.02,35.66,3.59,40.62,3.76,7.27-16.68,7.07-26.15-.26-.55-.43-2.13-1.12-3.5-1.53-14.31-4.33-39.95-28.6-40.01-37.87,0-.62-.72-2.47-1.6-4.12s-2.19-4.8-2.92-7-1.99-5.8-2.79-8c-.8-2.2-1.79-5.52-2.18-7.39-.84-3.92-1.87-3.95,13,.46,10.77,3.19,35.62,3.74,49.97,1.11,8.12-1.49,12.42-.97,12.65,1.55ZM42.87,78.7c6.61-12.8,35.59-34.5,46.36-34.73.7-.02,3.07-.88,5.27-1.92,8.18-3.87,10.44-1.89,4.82,4.24-3.65,3.98-16.08,19.61-24.82,31.21-2.2,2.92-10.83,13.61-19.19,23.76-8.35,10.15-16.37,20.21-17.82,22.35-9.92,14.61-5.25-24.32,5.38-44.91Z"/>
</svg>