<?xml version="1.0" encoding="UTF-8"?>
<svg id="Layer_1" data-name="Layer 1" xmlns="http://www.w3.org/2000/svg" viewBox="0 0 256 256">
  <defs>
    <style>
      .cls-1 {
        fill: #231f20;
      }
    </style>
  </defs>
  <path class="cls-1" d="M128.95,24.97c-2.66-1.42-6.19-1.19-8.72.59-2.01,1.41-2.43,1.41-4.45,0-2.88-2.02-15.38-1.98-22.28.06-2.75.81-6.62,1.84-8.6,2.27-12.1,2.66-35.18,16.16-45.4,26.55-25.23,25.66-33.57,87.47-16.89,125.21.77,1.73,1.39,3.5,1.39,3.93,0,18.2,32.01,49.99,61.5,61.08,49.74,18.71,113.06-12.33,137.75-67.52,9.08-20.3,7.45-19.47-33.25,16.78-26.23,23.36-43.15,34.35-50.68,32.9-1.79-.35-3.52-58.92-1.92-65.28.82-3.28,4.53-4.21,22.1-5.52,7.7-.57,20.69-1.76,28.88-2.64,8.94-.96,17.52-1.34,21.5-.94,3.64.36,8.87.88,11.62,1.15,13.43,1.32,18.99-12.88,8.54-21.82-7.11-6.08-25.34-8.57-37.79-5.15-5.27,1.45-3.23-1.91,13.14-21.66,19.38-23.38,23.45-38.2,15.17-55.21-17.51-35.98-78.89-27.17-79.83,11.46-.48,19.8,15.12,23.02,18.4,3.8,4.42-25.85,44.95-23.61,44.86,2.48-.02,5.85-1.92,9.25-12.86,23.02-9.01,11.34-14.67,22.12-15.57,29.68-.88,7.36-1.66,7.88-13.28,8.85-5.37.45-12.98,1.14-16.91,1.53-9.41.94-8.56,5.9-8.11-47.56.19-23.01-4.53-56.01-8.3-58.03ZM55.82,205.34c-4.37-4.51-11.82-16.22-11.82-18.58,0-.57-.84-2.89-1.88-5.15-4.81-10.53-8.65-22.95-7.61-24.62.36-.59,2.04-.34,4.29.64,13.36,5.8,39.16,7.57,58.66,4.04,8.13-1.47,12.43-.94,12.64,1.57.06.7.03,10.85-.05,22.55-.16,21.83,1.07,35.48,3.65,40.56,7.92,15.59-38.92-1.4-57.89-21ZM114.56,97.5c-.82,6.6-1.8,16.87-2.17,22.82-.41,6.5-1.18,11.32-1.93,12.08-4.14,4.14-50.04,5.47-62.53,1.82-4.16-1.22-8.91-2.21-10.55-2.21-11.54,0-3.79-42.21,11.46-62.41,8.47-11.21,35.65-26.06,54.92-30,3.44-.7,6.58-1.59,6.96-1.98,5.07-5.07,7.4,31.24,3.84,59.89Z"/>
</svg>