<?xml version="1.0" encoding="UTF-8"?>
<svg id="Layer_1" data-name="Layer 1" xmlns="http://www.w3.org/2000/svg" viewBox="0 0 256 256">
  <path d="M226.42,165.42c-8.58,3.74-10.27,16.58-3.1,23.58,9.71,9.49,24.96-5.83,17.69-17.76-3.73-6.12-9.04-8.24-14.59-5.82Z"/>
  <path d="M45.59,219.81c-22.58-1.76-29.2,1.41-24.32,11.63,4.53,9.49,62.81,13,101.23,6.09,4.4-.79,17.64-1.92,29.42-2.51s22.41-1.32,23.63-1.62c1.75-.44,3.1.49,6.5,4.53,8.02,9.51,21.31,9.04,26.47-.94,1.95-3.77,4.46-4.41,9.98-2.54,9.49,3.22,16.69.43,18.09-7.02,1.51-8.08-5.1-13.48-18.26-14.92-8.28-.91-9.1-1.71-10.26-10-1.17-8.35-4.69-16.07-9.53-20.91-4.29-4.29-4.6-2.96,2.34-10.29,5.78-6.1,11.13-16.91,11.13-22.46,0-1.12.64-4.36,1.42-7.19,1.02-3.7,1.57-13.87,1.95-36.15.71-41.7,2.87-50.75,13.96-58.38,10.51-7.23,7.51-19.12-4.82-19.12-14.76,0-26.14,18.7-28.59,47-1.71,19.66-.75,18.47-13.39,16.78-11.39-1.52-24.25.02-34.94,4.2-9.94,3.89-9.28,5.11-9.91-18.48-1.2-45.1-2.94-52.59-12.42-53.3-8.09-.61-11.82,6.07-9.98,17.89,2.52,16.14,1.41,119.42-1.29,119.42q-2.5,0-2.72-38.5c-.17-29.87-.56-39.96-1.71-45-.82-3.58-2.23-9.65-3.14-13.5-.91-3.85-1.96-8.8-2.35-11-3.54-20.27-19.51-37.46-28.35-30.51-3.35,2.64-3.42,4.65-.36,10.76,1.31,2.61,3.72,7.45,5.36,10.75,1.64,3.3,3.3,8.17,3.7,10.83.39,2.66,1.36,6.65,2.14,8.88.78,2.22,1.43,5.16,1.43,6.53s.93,6.34,2.07,11.05c11.82,48.91,2.21,79.21-25.14,79.21-33.6,0-44.93,5.1-44.93,20.23,0,9.61,6.24,12.79,11.72,5.97,5.17-6.44,10.84-7.73,27.86-6.34,7.69.63,16.98,1.14,20.64,1.14,8.43,0,8.16-.58,7.88,17.43-.34,21.89-3.51,23.41-42.51,20.38ZM143.87,115.93c2.55-.04,7.55-.89,11.13-1.9,22-6.2,38.96-1.43,38.98,10.96.07,30.81-6.56,37-39.61,37-18.22,0-16.28,2.55-17.05-22.39-.73-23.5-.71-23.57,6.55-23.67ZM139.76,184.17c3.12-2.39,25.18-1.14,28.7,1.62,1.54,1.21,3.37,2.21,4.05,2.21,5.86,0,14.05,8.31,15.42,15.66,1.6,8.59,2.49,8.28-28.43,9.87-6.05.31-12.84.81-15.09,1.11-7.49,1-11.5-25.23-4.65-30.47ZM109.66,184.83c4.6-5.09,8.34-.33,8.34,10.62,0,4.65.49,10.74,1.09,13.54,1.53,7.12-5.9,12.73-9.79,7.4-2.1-2.88-1.81-29.17.36-31.56Z"/>
</svg>