<?xml version="1.0" encoding="UTF-8"?>
<svg id="Layer_1" data-name="Layer 1" xmlns="http://www.w3.org/2000/svg" viewBox="0 0 256 256">
  <defs>
    <style>
      .cls-1 {
        fill: #231f20;
      }
    </style>
  </defs>
  <path class="cls-1" d="M44.8,229.56c12.27-2.72,75.26-4.09,91.7-2,7.7.98,18.5,1.89,24,2.02s13.43.71,17.62,1.29c23.72,3.31,52.03-.7,52.68-7.48.78-7.98-8.21-11.37-30.3-11.43-10.03-.02-18.43-.57-22.5-1.47-3.58-.79-11.01-1.45-16.53-1.47-28.98-.1-33.47-3.36-33.47-24.29,0-11.9.78-12.63,14.5-13.45,14.76-.88,20.31,1.86,22,10.87,3.14,16.75,21.68,15.86,20.14-.97-1.99-21.71-21.14-34.17-46.27-30.11-9.79,1.58-10.37,1.07-10.37-9.08,0-9.37-1-8.49,18.5-16.22,26.19-10.37,33.94-19.7,33.34-40.14-.54-18.06-4.77-21.92-21.73-19.82-28.43,3.51-27.11,4.1-25.01-11.18,2.59-18.81,1.33-28.33-4.14-31.16-3.65-1.89-4.98-1.86-7.85.15-3.72,2.6-5.11,7.39-5.14,17.59-.05,25.73-2.18,29.2-18.96,30.77-6.86.64-12.77,1.35-13.12,1.57-.36.22-4.64-.09-9.52-.69-13.01-1.59-18.07-5.11-23.01-16.04-3.17-7.01-13.37-5.28-13.37,2.28,0,20.59,28.43,34.2,62.08,29.72,11.99-1.6,11.95-1.64,11.26,12-.92,18.14-.29,17.14-15.59,24.73-43.97,21.79-42.01,60.35,2.59,51.02,6.98-1.46,9.64-1.25,9.67.79.14,8.44.89,19.93,1.48,22.87,1.03,5.09.06,5.34-23,6.16-28.43,1.01-46.91,2.49-51.58,4.14-2.29.81-5.94,1.47-8.11,1.47-9.65,0-16.26,8.36-12.45,15.74,3.09,5.98,9.89,6.38,30.44,1.83ZM129.53,98.5c.87-10.41,2.12-12.28,8.97-13.43,8.68-1.45,21.1-1.25,22.44.35,3.57,4.3-4.16,14.64-13.53,18.11-2.7,1-5.45,2.22-6.11,2.73-8.45,6.4-12.71,3.59-11.77-7.76ZM97.25,156.22c-13.78,1.99-13.7-1.08.25-9.12,8.6-4.96,10.89-4.96,11.3-.02.49,5.85-1.91,7.75-11.55,9.14Z"/>
</svg>