<?xml version="1.0" encoding="UTF-8"?>
<svg id="Layer_1" data-name="Layer 1" xmlns="http://www.w3.org/2000/svg" viewBox="0 0 256 256">
  <defs>
    <style>
      .cls-1 {
        fill: #231f20;
      }
    </style>
  </defs>
  <path class="cls-1" d="M171.3,140.53c12.68,2.38,19.2-8.26,10.54-17.19-4.12-4.25-4.46-6.84-5.42-41.7-.73-26.44-.78-26.91-3.16-29.74-5.37-6.38-11.79-8.92-16.32-6.44-4.67,2.56-5.36,5.97-2.44,12.13,2.28,4.82,2.49,6.21,1.96,13.15-2.98,39.29,3.04,67.58,14.84,69.79Z"/>
  <path class="cls-1" d="M225.14,188c-5.47,0-5.81-2.13-1.77-11.1,7.04-15.63,4.76-16.47-9.94-3.65-19.06,16.62-15.85,15.4-35.19,13.43-9.2-.94-20.85-1.7-25.87-1.69-15.03.02-15.86-5.42-15.86-103.49,0-53.38.38-48.85-4.51-53.75-3.79-3.79-4.24-3.97-8.25-3.3-2.33.39-4.91.66-5.74.61-15-.97-19.97-.87-24.5.51-2.75.84-6.62,1.88-8.6,2.32-3.26.72-5.52,1.64-16.9,6.94-32.86,15.28-48.21,38.69-52.58,80.19-2.11,20.05-.65,45.73,3.01,52.87,4.02,7.85,4.09,13.75.22,17.41-7.77,7.32-3.68,15.85,8.87,18.49,3.98.84,5.58,1.82,7.94,4.88,38.51,49.88,105.8,55.51,153.62,12.84,6.66-5.94,6.34-5.84,23.81-7.51,17.47-1.67,22.61-4.89,22.61-14.15,0-6-5.11-11.84-10.36-11.84ZM38.71,173.26c-12.66-33.81-8.21-79.38,10.14-103.67,8.2-10.87,34.21-25.28,54.15-30.02,7.75-1.84,7.95-1.82,8.88.68.46,1.24.38,15.52-.17,31.75-.71,21.08-.67,36.92.15,55.5,2.5,56.39,2.84,54.71-10.87,53.4-4.68-.45-15.93-1.52-25-2.39-13-1.24-18.15-1.35-24.28-.49-9.87,1.38-10.84,1.02-13.01-4.76ZM114.36,231.22c-1.5,2.42-22.19-1.59-26.86-5.2-.55-.43-2.12-1.11-3.5-1.52-10.19-3.05-29.53-17.83-26.4-20.17,1.68-1.25,4.47-1.13,25.9,1.2,7.15.78,16.21,1.7,20.13,2.06,3.92.35,7.74,1.02,8.48,1.48,1.33.82,3.32,20.42,2.25,22.16ZM141.25,226.25c-1.63-.61-1.69-12.41-.07-14.03,1.95-1.95,24.82-.43,24.82,1.64,0,2.51-21.88,13.46-24.75,12.39Z"/>
</svg>