<?xml version="1.0" encoding="UTF-8"?>
<svg id="Layer_1" data-name="Layer 1" xmlns="http://www.w3.org/2000/svg" viewBox="0 0 256 256">
  <path d="M208,17.44c-15.51.36-29.81.17-36.5-.49-14.34-1.41-50.71-2-61.34-1-4.59.43-13.14,1.51-19,2.39-44.96,6.77-48.91,7.05-54.16,3.82-5.25-3.23-9.52-2.85-13.6,1.24-7.69,7.69-2.01,21.62,10.27,25.19,7.03,2.04,7.38,3.3,2.49,9.12-22.54,26.86-29.18,86.57-13.56,121.94.77,1.73,1.39,3.5,1.39,3.93,0,18.26,31.91,49.95,61.5,61.08,43.75,16.45,97.21-4.27,126.94-49.21,2.17-3.28,4.68-6.86,5.57-7.96,2.46-3.02,8.99-18.33,8.99-21.08,0-5.33-1.12-4.5-36.5,27.08-46.6,41.59-45.79,41.75-46.7-9-1.22-67.5-.23-82.59,5.05-76.85,22.07,24.02,59.65,1.85,48.49-28.62-6.8-18.58-35.17-25.29-47.95-11.34-4.45,4.86-5.29,3.84-5.94-7.25-.29-4.92-.72-10.15-.95-11.63-.95-5.97,1.85-7.23,13.07-5.89,51.73,6.18,88.45.85,88.43-12.82-.02-11.31-5.87-13.36-36-12.67ZM109.52,231.98c-7.79.02-17.88-3.35-32.02-10.69-15.46-8.02-33.46-26.64-33.51-34.64,0-.63-.71-2.5-1.57-4.15-7.32-14.02-10.42-28.7-10.42-49.25,0-48.21,18.88-79.18,52.48-86.08,7.38-1.52,7.14-2.39,7.81,27.58.33,14.71,1.13,30.35,1.77,34.75,2.95,20.09-.07,54.94-5.84,67.43-6.15,13.29-5.19,26.62,2.83,39.65,7.63,12.39,20.64,2.36,14.85-11.45-2.85-6.81-3.24-16.43-.81-20.17,7.84-12.1,8.86-45.46,3.73-122.28-1.02-15.3-.99-17.96.24-18.73,7-4.43,9.5,17.71,7.9,70.06-.66,21.42.54,108.21,1.56,112.86.96,4.41-.25,5.1-9.01,5.12ZM160.17,77.75c1.19-2.3,4.72-2.19,7.83.25,1.38,1.08,2.95,1.97,3.5,1.98,5.97.16,10.69,11.9,6.4,15.9-11.76,10.96-25.5-3.09-17.73-18.13Z"/>
</svg>