<?xml version="1.0" encoding="UTF-8"?>
<svg id="Layer_1" data-name="Layer 1" xmlns="http://www.w3.org/2000/svg" viewBox="0 0 256 256">
  <path d="M137.36,26.07c-10.66-8.38-17.3,8.16-17.35,43.22-.01,6.75-1.73,8.27-5.42,4.8-2.2-2.07-2.33-3-2.82-20.05-.56-19.55-1.82-23.97-7.46-26.11-10.24-3.89-16.29,3.29-16.3,19.35,0,9.64-.78,10.08-8.61,4.97-3.24-2.12-9.72-5.79-14.4-8.16-9.54-4.83-13.18-6.9-20.71-11.78-12.11-7.84-20.36-10.11-23.63-6.49-3.05,3.37-.96,10.17,3.12,10.17,1.38,0,8.03,3.75,10.73,6.04,3.68,3.13,12.24,8.8,17.66,11.7,12.84,6.85,34.97,22.52,36.18,25.61,1.73,4.44-.4,129.62-2.22,130.55-.89.46-10.4.64-21.14.41-40.22-.87-58.45,9.2-41.88,23.14,3.69,3.11-2.19,2.83,55.58,2.62,41.9-.15,49.47.05,58,1.57,27.4,4.86,74.74,2.27,90.55-4.96,17.12-7.83,13.9-21.08-5.17-21.26-12.19-.12-11.28.74-9.97-9.48,2.08-16.27-1.02-33.98-8.57-48.88-3.45-6.8-3.29-7.56,2.89-14.04,16.27-17.05,4.54-30.8-12.36-14.49-8.33,8.05-6.31,8.55-21.05-5.21-6.88-6.42-16.64-14.96-21.69-18.99-13.88-11.06-12.99-7.06-9.64-43.33,1.85-20.05.91-26.82-4.31-30.93ZM112.77,209.65c-5.51.89-5.88-1.06-3.68-19.65,1.28-10.8,2.01-26.41,2.44-51.5.33-19.8.81-37.01,1.06-38.25.48-2.39,1.87-2.95,2.96-1.19.36.58.99,24.1,1.4,52.25.41,28.15,1.05,51.87,1.42,52.72,1.06,2.38-1.5,4.96-5.59,5.62ZM185.75,169.58c5.04-5.04,10.61,18.08,7.29,30.29-3.25,11.97-14.45,12.16-16.68.29-1.07-5.73,5.3-26.48,9.39-30.57ZM152.73,126.25c5.38,5.09,12.25,11.49,15.27,14.22,9,8.13,8.86,7.15,2.59,18-11.45,19.84-15.09,34.98-11.51,47.9,1.68,6.04.12,6.65-7.47,2.91-5.53-2.73-6.44-3.57-6.96-6.46-1.86-10.41-4.66-44.34-5.25-63.57-.83-27.18-1.25-26.78,13.32-13Z"/>
</svg>