<?xml version="1.0" encoding="UTF-8"?>
<svg id="Layer_1" data-name="Layer 1" xmlns="http://www.w3.org/2000/svg" viewBox="0 0 256 256">
  <defs>
    <style>
      .cls-1 {
        fill: #231f20;
      }
    </style>
  </defs>
  <path class="cls-1" d="M22.2,168.08c2.36.42,6.32,1.43,8.8,2.23,11.82,3.82,13.61,3.99,47.31,4.41,27.43.35,36.25.12,46.72-1.22,16.96-2.16,17.85-1.59,10.75,6.94-13.8,16.57-27.36,27-36.56,28.13-3.15.39-7.74,1.31-10.22,2.06-2.48.75-6.75,1.36-9.5,1.37-14.21.05-21.52,9.14-13.67,16.99,5,5,11.8,5.01,35.24.07,20.55-4.33,41.05-21.5,59.19-49.55,6.06-9.37,7.71-10.7,14.51-11.6,3.15-.42,7.98-1.44,10.73-2.26,15.12-4.52,23.32-7.27,26.44-8.86,1.92-.98,3.95-1.78,4.52-1.79,1.96-.02,12.79-8.83,16.75-13.62,26.69-32.3-8.16-75.15-55.31-68.02q-5.6.85-8.3-6c-12.02-30.54-42.08-48.47-66.93-39.93-3.76,1.29-7.34,2.85-7.95,3.47-.61.61-1.67,1.12-2.35,1.12-5.38,0-18.37,13.58-19.97,20.89-.31,1.44-1.24,4.73-2.05,7.32-8.99,28.63,10.42,62.9,35.56,62.78,6.09-.03,25.16-5.83,30.35-9.23,1.47-.96,3.05-1.75,3.5-1.75s3.63-2.25,7.04-5c11.46-9.23,13.11-4.97,10.05,25.94-2.15,21.69-2.32,21.81-32.85,23.11-11.82.5-32.63,1.45-46.24,2.1-22.51,1.08-25.77,1.02-36.18-.61-18.21-2.85-25.83-1.39-25.83,4.95,0,3.54,1.3,4.66,6.45,5.59ZM174.71,146c1.7-20.16,2.15-31.31,1.64-40.04-.54-9.14-.4-10.77,1.09-12.25,5.29-5.29,30.39-.4,38.47,7.5,14.73,14.4,9.09,32.43-12.64,40.41-20.28,7.45-28.92,8.77-28.55,4.38ZM150.28,80.62c-34.46,31.62-63.1,28.89-62.08-5.94.51-17.42,2.19-20.64,13.81-26.41,15.35-7.63,23.44-5.96,37.05,7.67,12.27,12.28,15.94,20.35,11.22,24.68Z"/>
</svg>