<?xml version="1.0" encoding="UTF-8"?>
<svg id="Layer_1" data-name="Layer 1" xmlns="http://www.w3.org/2000/svg" viewBox="0 0 256 256">
  <defs>
    <style>
      .cls-1 {
        fill: #231f20;
      }
    </style>
  </defs>
  <path class="cls-1" d="M31.7,83.99c-6.23,0-10.02,2.05-12.15,6.55-4.36,9.18,5.94,18,17.99,15.41,8.09-1.75,47.5-4,49.66-2.84,2.01,1.08,1.74,104.1-.28,106.3-.46.5-12.89.96-27.62,1.01-33.59.13-38.55,1.78-39.92,13.29-1.49,12.59-.63,12.77,57.67,12.46,43.72-.23,51.2-.05,59.72,1.46,14.51,2.58,67.21,2.64,75.44.1,3.99-1.24,7.29-1.58,11-1.16,13.82,1.58,21.02-12.69,11.5-22.79-2.78-2.95-3.64-5.02-5.11-12.41-.97-4.88-2.59-12.02-3.6-15.87-4.71-17.98-5.99-23.39-5.99-25.34,0-9.99-14.87-39.55-25.19-50.06-7.37-7.51-26-18.31-37.86-21.96-19.01-5.84-18.29-4.32-15.33-32.02,2.36-22.12-.57-32.13-9.41-32.13-8.14,0-9.78,6.19-12.51,47.4-.43,6.53-2.52,9.3-5.71,7.59-1.54-.82-1.78-3.27-2.16-21.76-.52-25.98-2.32-30.23-12.82-30.23-9.08,0-11.48,7.3-10.63,32.39.75,22.2.97,21.61-8.13,21.61q-6.51,0-5.64-5.25c1.32-8,.98-17.07-.8-21.38-10.3-24.87-12.25-26.9-28.81-29.93-7.48-1.37-11.49-1.56-15.75-.74-15.53,2.99-11.41,18.52,5.2,19.61,12.64.83,14.04,1.97,18.98,15.45,5.01,13.67-4.92,25.21-21.73,25.22ZM139.32,106.62c.76-1.98,1.69-2.01,5.9-.2,1.81.78,5.76,2.38,8.78,3.55,18.98,7.37,28.28,15.63,36.94,32.79,4.06,8.06,9.06,23.24,9.06,27.5,0,1.23.86,5.39,1.91,9.24,9.92,36.37,11.26,34-19.19,34-26.54,0-36.81-3-38.12-11.15-3.36-20.85-7.21-90.69-5.27-95.73ZM109.1,189.94c1.22-10.38,2.04-27.08,2.49-50.94.41-21.58,1.08-36.01,1.7-36.79,2.57-3.26,2.99,2.49,3.6,50.47.35,27.4.99,50.38,1.42,51.05,1.97,3.1-3.89,7.18-8.29,5.78-2.78-.88-2.87-2.95-.92-19.57Z"/>
</svg>