<?xml version="1.0" encoding="UTF-8"?>
<svg id="Layer_1" data-name="Layer 1" xmlns="http://www.w3.org/2000/svg" viewBox="0 0 256 256">
  <defs>
    <style>
      .cls-1 {
        fill: #231f20;
      }
    </style>
  </defs>
  <path class="cls-1" d="M102.23,159.12c-4.25-.53-18.53-1.49-31.73-2.12-13.2-.63-27.09-1.81-30.87-2.61-6.17-1.31-7.37-1.29-11.74.16-14.6,4.85-11.65,21.45,3.81,21.47,16.81.02,26.75,11.55,21.73,25.22-4.94,13.48-6.34,14.62-18.98,15.45-11.33.74-14.45,2.67-14.45,8.9,0,13.22,29.03,15.1,42.09,2.72,3.28-3.11,4.71-5.87,11.71-22.68,1.8-4.33,2.13-13.36.79-21.53-.81-4.9,29.31-7.52,39.86-3.47,1.13.43,1.46,5.09,1.72,24.21.36,25.76,1.15,29.46,6.57,30.82,8.06,2.02,11.36-6.52,13.21-34.15,1.51-22.67,1.71-23.19,10.13-25.93,29.11-9.49,43.09-17.91,55.08-33.16,2.77-3.53,6.01-6.59,7.19-6.8,17.33-3.11,24.49-6.99,26.73-14.46,2.01-6.71-3.9-15.13-10.62-15.14-5.98-.01-5.81-4.82,1.07-29.5,1.54-5.53,4.22-18.23,5.5-26.09.46-2.8,1.96-6.75,3.33-8.78,7.83-11.54-1.24-22.73-13.95-17.2-5.45,2.37-10.31,13.65-11.89,27.57-.6,5.26-2.46,13.3-6.61,28.5-1.05,3.85-1.91,8.17-1.91,9.59,0,3.09-3.48,13.58-5.2,15.66-.9,1.08-2.4,1.3-5.75.84-2.49-.34-13.31-1.3-24.04-2.14-31.53-2.45-28.44,1.88-27.81-39.06.57-36.43-.32-39.39-11.85-39.39-12.21,0-15.61,10.75-15.3,48.34.1,11.64.13,21.73.06,22.43-.23,2.52-4.53,3.04-12.65,1.55-29.38-5.39-59.37.17-71.43,13.26-12.41,13.46-1.17,20.92,21.57,14.31,12.87-3.75,58.66-2.49,62.87,1.72.78.77,1.53,5.64,1.95,12.58.38,6.22.93,12.74,1.23,14.48.81,4.7-1.7,5.68-11.42,4.45ZM137.67,130.62c.49-1.67,1.25-1.81,6.69-1.28,3.38.33,12.55,1.14,20.39,1.8,11.8,1,14.25,1.47,14.25,2.78,0,2.99-13.07,11.5-24.5,15.93-3.3,1.28-8.19,3.22-10.87,4.32-6.63,2.7-9.88-10.14-5.96-23.55Z"/>
</svg>