<?xml version="1.0" encoding="UTF-8"?>
<svg id="Layer_1" data-name="Layer 1" xmlns="http://www.w3.org/2000/svg" viewBox="0 0 256 256">
  <path d="M201.57,212.51c-37.27,3.91-59.49.02-61.06-10.67-5.44-37.06-5.38-37.46,7.04-47.2,5.33-4.18,15.97-13.34,23.64-20.36,16.95-15.51,14.57-14.79,22.75-6.9,16.99,16.4,28.81,2.75,12.47-14.39-6.18-6.48-6.33-7.23-2.89-14.04,20.05-39.58,5.89-81.07-25.61-75.01-23.46,4.51-26.69,36.38-7.09,70.06,5.71,9.82,5.7,9.95-2.22,17-2.78,2.48-10.45,9.56-17.03,15.75-12.48,11.73-15.07,13.1-16.2,8.59-1.2-4.76.43-63.16,2.2-79.2,2.44-22.08-.49-32.14-9.36-32.14-7.14,0-9.46,6.28-11.25,30.4-.57,7.76-1.7,19.78-2.5,26.72-.97,8.35-1.46,22.73-1.46,42.53,0,24.9-.25,30.27-1.49,32.04-3.77,5.39-44.46,34.64-58.9,42.34-3.2,1.71-7.91,4.55-10.46,6.31-5.25,3.62-8.73,5.29-14.94,7.19-12.71,3.87-16.35,15.88-6.92,22.86,2.73,2.02,3.65,2.06,52.76,1.79,43.72-.23,51.2-.05,59.72,1.46,36.38,6.46,88.97.79,98.57-10.63,10.12-12.03-1.13-17.51-29.76-14.5ZM179.72,44.75c6.94-7.67,15.06,3.82,13.95,19.75-1.68,24-8.44,24.16-15.49.37-3.05-10.3-2.66-15.48,1.55-20.12ZM88.83,210.15c-12.83.36-23.5.49-23.7.29-.55-.52,5.56-6.44,6.65-6.44s26.54-15.82,33.22-20.65c6.98-5.04,7.39-4.61,8.21,8.59.39,6.28.92,11.97,1.18,12.64,1.64,4.27-1.19,4.88-25.57,5.56Z"/>
</svg>