<?xml version="1.0" encoding="UTF-8"?>
<svg id="Layer_1" data-name="Layer 1" xmlns="http://www.w3.org/2000/svg" viewBox="0 0 256 256">
  <path d="M244.96,34.81c-13.87-13.87-48.23,6.07-52.02,30.19-4.77,30.35-4.39,29.42-12.24,30.42-2.86.37-8.95,1.55-13.54,2.62-26.19,6.15-26.31,6-25.52-29.85.99-44.8-2.98-56.18-16.95-48.6-4.4,2.39-4.41,2.5-4.21,69.4.19,68.08-.89,99.33-3.52,101.1-.9.6-11.73.89-27.97.73-14.57-.14-33.71.13-42.51.6-15.29.82-16.2.76-20.21-1.29-13.59-6.93-20.38,6.09-7.44,14.26,8.54,5.39,12.42,5.82,55.88,6.18,48.26.39,43.82-1.04,44.53,14.42.58,12.62,1.6,15.79,5.78,18.03,5.71,3.06,9.49-2.47,12.13-17.77,1.12-6.46,2.46-12.02,2.99-12.34,1.55-.96,38.11-1.95,40.84-1.11,8.56,2.64,11.57,7.5,5.36,8.66-18.98,3.56-14.9,28.04,5.05,30.28,14.01,1.58,24.9-19.23,19.64-37.55-1.52-5.31,10.72-5.34,18.16-.03,9.02,6.42,20.72-2.31,16.47-12.3-3.21-7.55-9.81-10.36-27.47-11.73-12.99-1-13.2-1.21-9.73-9.81,3.38-8.37,3.57-15.17,1.54-52.42-3.03-55.34,3.22-74.61,24.28-74.84,12.63-.14,18.42-9.5,10.66-17.25ZM161.5,188.5c-5.5.4-11.99,1.08-14.42,1.51-8.14,1.46-8.6.2-6.97-19.01.63-7.42,1.3-21.6,1.49-31.5.19-9.9.35-18.27.37-18.61.02-.34,6.22-.86,13.78-1.17,7.91-.32,15.66-1.19,18.25-2.04,12.44-4.09,15-2.35,15.01,10.27,0,5.25.68,14.01,1.5,19.46,4.52,29.96-1.96,39.14-29.01,41.08Z"/>
  <path d="M225.17,155.17c-8.38,5.37-6.73,19.11,2.64,21.88,7.75,2.29,15.2-3.86,15.2-12.55,0-9.51-9.66-14.56-17.83-9.33Z"/>
</svg>