<?xml version="1.0" encoding="UTF-8"?>
<svg id="Layer_1" data-name="Layer 1" xmlns="http://www.w3.org/2000/svg" viewBox="0 0 256 256">
  <defs>
    <style>
      .cls-1 {
        fill: #231f20;
      }
    </style>
  </defs>
  <path class="cls-1" d="M31.69,92.13c3.61-6.87,23.49-10.3,36.22-6.26,1.88.59,7.35,1.38,12.16,1.74,12.53.95,11.3-2.8,12.29,37.36,1.05,42.79,4.37,37.76-25.16,38.19-26.08.38-30.99,1.48-38.54,8.65-16.35,15.51-5.01,37.2,12.26,23.45,7.64-6.08,10.55-6.62,31.53-5.8,24.3.94,22.32-1.47,23.42,28.58.75,20.42,1.45,22.32,8.08,21.77,6.67-.56,8.05-5.44,8.05-28.45,0-18.73.55-22.19,3.15-19.6.55.55,1.05,10.08,1.16,22.19.22,23.97,1.42,27.06,10.48,27.06,10.22,0,14.04-9.33,15.72-38.32.87-15.05-.48-13.78,16.49-15.44,39.06-3.81,48.54-2.97,55.32,4.92,12.18,14.17,30.47,4.89,24.72-12.54-6.63-20.08-28.77-24.44-92.33-18.18-7.97.79-8.13.39-9.51-24-2.82-49.75-6.97-44.94,38.8-44.94s43.24.27,50.45-7.16c16.59-17.08,15.19-64.47-1.62-54.69-5.08,2.96-6.75,7.64-7.85,22.02-1.65,21.64.1,20.87-45.35,19.96-41.2-.82-39.92.22-34.58-27.94,2.44-12.89-6.89-22.34-15.43-15.62-3.79,2.98-4.56,4.89-5.68,14.15-2.31,19.13-5.91,23.92-8.04,10.71-.54-3.34-1.37-6.83-1.85-7.76-.48-.93-2.29-4.73-4.03-8.44-5.17-11.04-13.28-14.76-19.95-9.15-3.39,2.85-4.17,8-1.81,12.02,14.74,25.16,12.43,30.61-10.91,25.76-24.59-5.11-47.18,1.22-53.42,14.96-6.66,14.67,8.31,24.93,15.75,10.8ZM112.54,122.16c1.05-17.77,2.42-12.04,3.32,13.92.88,25.18.74,27.19-1.74,26.71-1.92-.37-2.74-21.17-1.58-40.63Z"/>
</svg>