<?xml version="1.0" encoding="UTF-8"?>
<svg id="Layer_1" data-name="Layer 1" xmlns="http://www.w3.org/2000/svg" viewBox="0 0 256 256">
  <defs>
    <style>
      .cls-1 {
        fill: #231f20;
      }
    </style>
  </defs>
  <path class="cls-1" d="M208,17.44c-15.51.36-29.81.17-36.5-.49-14.63-1.43-50.83-2-61.68-.96-4.77.46-13.32,1.54-19,2.41-40.92,6.28-48.82,6.83-53.82,3.75-5.26-3.23-9.52-2.84-13.6,1.24-7.69,7.69-2.01,21.62,10.27,25.19,7.03,2.04,7.38,3.3,2.49,9.12-22.54,26.86-29.18,86.57-13.56,121.94.77,1.73,1.39,3.5,1.39,3.93,0,18.2,32.01,49.99,61.5,61.08,43.75,16.45,97.21-4.27,126.94-49.21,2.17-3.28,4.68-6.86,5.57-7.96,2.46-3.02,8.99-18.33,8.99-21.08,0-5.33-1.04-4.56-36.5,27.09-26.05,23.26-36.85,30.88-42.88,30.29-3.64-.35-4.66-30.21-3.85-112.8.23-23.38-.01-47.45-.53-53.5-1.22-14.13-.38-16.07,6.58-15.11,6.23.85,6.87,1.77,4.24,6.03q-2.2,3.56.4,9.06c2.34,4.94,2.54,6.28,2.01,13.26-2.21,28.96,1.67,60.53,8.12,66.2,12.4,10.89,28.61-1.89,17.26-13.6-4.12-4.25-4.46-6.83-5.42-41.74q-.74-26.9-5.09-31.44c-5.6-5.85-5.23-6,13.03-5.45,43.77,1.31,59.66-2.58,59.64-14.6-.02-11.31-5.87-13.36-36-12.67ZM87.43,225.84c-2.24-1.01-4.39-1.84-4.8-1.84-8.8,0-38.6-28.83-38.64-37.38,0-.62-.71-2.47-1.57-4.12-7.32-14.02-10.42-28.7-10.42-49.25,0-48.15,18.96-79.24,52.48-86.08,7.38-1.51,7.14-2.38,7.81,27.58.33,14.71,1.13,30.35,1.77,34.75,2.95,20.09-.07,54.94-5.84,67.43-6.15,13.29-5.19,26.62,2.83,39.65,7.63,12.39,20.64,2.36,14.85-11.45-2.85-6.81-3.24-16.43-.81-20.17,7.84-12.1,8.86-45.46,3.73-122.28-1.02-15.3-.99-17.96.24-18.73,7-4.43,9.5,17.71,7.9,70.06-.66,21.42.54,108.21,1.56,112.86,1.71,7.84-12.5,7.38-31.09-1.02Z"/>
</svg>