<?xml version="1.0" encoding="UTF-8"?>
<svg id="Layer_1" data-name="Layer 1" xmlns="http://www.w3.org/2000/svg" viewBox="0 0 256 256">
  <path d="M137.78,140c-19.17,0-34.31,31.37-21.02,43.55,14.52,13.3,43.24,3.06,43.24-15.43,0-7.98,4.66-11.3,10-7.12,3.23,2.53,7.47,2.53,10,0,4.29-4.29,1.15-10.46-7.65-15-11.93-6.16-12-6.23-12.61-12.94-1.7-18.72-13.78-37.43-29.02-44.91-16.96-8.33-32.73-11.47-43.22-8.61-14.22,3.88-11.81,10.67,4.12,11.58,29.09,1.68,49.13,15.81,52.93,37.34,1.62,9.2.26,11.54-6.76,11.54ZM147.8,157.19c.6,9.29-6.33,18.81-13.67,18.81-13.83,0-10.65-15.88,4.37-21.85,7.59-3.02,8.94-2.58,9.3,3.03Z"/>
</svg>