<?xml version="1.0" encoding="UTF-8"?>
<svg id="Layer_1" data-name="Layer 1" xmlns="http://www.w3.org/2000/svg" viewBox="0 0 256 256">
  <defs>
    <style>
      .cls-1 {
        fill: #231f20;
      }
    </style>
  </defs>
  <path class="cls-1" d="M23.65,41.76c5.99,7.51,16.75,10.35,31.61,8.35,40.12-5.39,36.73-6.8,36.76,15.26.01,9.42.53,23.88,1.16,32.13,2.19,28.79,4.1,25.92-17.68,26.53-25,.7-39.91,7.09-48.63,20.84-8.23,12.97.68,19.7,12.53,9.45,16.41-14.19,56.79-16.7,55.09-3.42-1.76,13.74-3.04,19.05-6.23,25.96-6.18,13.36-5.24,26.65,2.8,39.71,7.63,12.39,20.64,2.36,14.85-11.45-2.86-6.82-3.24-16.43-.81-20.17,3.21-4.93,5.84-16.32,6.52-28.21.63-11.07,2.08-14.71,4.57-11.5.11.14.44,18.02.75,39.75.67,47.4,1.98,51.98,14.94,52,11.8.01,12.42-2.52,11.98-49.43-.39-42.24-.44-41.82,4.64-41.82s4.89.06,4.64,35.99c-.29,40.81,1.26,48.39,10.35,50.67,9.21,2.31,12.08-3.45,10.76-21.62-.6-8.22-.76-24.4-.4-38.11.71-26.42.78-26.66,7.58-26.68,13.12-.05,34.15-13.91,41.84-27.57,11.87-21.11,10.47-51.68-3.17-68.78-3.94-4.95-3.66-5.27,5.25-5.84,18.13-1.16,25.03-16.22,11.39-24.88-3.14-2-4.17-2.05-28.26-1.49-14.75.34-29.72.15-36.5-.48-15.5-1.43-51.46-1.98-62.18-.95-4.77.46-13.32,1.54-19,2.41-40.92,6.27-48.82,6.82-53.82,3.75-12.38-7.6-22.82,7.72-13.35,19.6ZM176.97,102.27c.74-11.97,1.62-28.07,1.94-35.77.33-7.7.95-14.56,1.4-15.25,1-1.55,1.14-1.55,6.83.18,28.55,8.66,33.88,51.41,8.49,68.09-19,12.48-20.44,11.16-18.67-17.25ZM143.75,44.13c1.35-2.22,1.84-2.32,7.6-1.68,9.08,1.01,8.76-.43,6.64,30.32-.51,7.3-1.22,21.7-1.59,32-.74,20.81-.88,21.22-6.91,21.22-5.7,0-5.47,1.31-5.57-32.33-.05-16.04-.43-33.22-.85-38.17-.6-7.12-.46-9.5.69-11.37ZM109.07,43.94c6.94-4.39,8.03,2.48,8.03,50.6,0,26.64-.26,29.46-2.74,29.46-2.06,0-2.13-.5-3.3-23-.58-11.27-1.59-28.52-2.25-38.33-1.01-15.29-.98-17.96.25-18.74Z"/>
</svg>