<?xml version="1.0" encoding="UTF-8"?>
<svg id="Layer_1" data-name="Layer 1" xmlns="http://www.w3.org/2000/svg" viewBox="0 0 256 256">
  <defs>
    <style>
      .cls-1 {
        fill: #231f20;
      }
    </style>
  </defs>
  <path class="cls-1" d="M222.08,187.43c-7.61-.86-7.97-3.04-2.47-15.05,6.34-13.85,6.37-14.06,6.38-46.58.01-32.18,0-32.27-5.74-39.44-5.09-6.37-5.97-6.53-33.37-6.17-21.29.28-24.7.54-26.86,2.07-11.76,8.32-24.01,1.74-23.31-12.52.78-15.81,2.79-17.25,10.23-7.31,8.34,11.16,21.67,6,18.04-6.97-2.67-9.53-13.82-19.43-21.9-19.45-1.59,0-4.56-2.06-8.66-6-7.01-6.73-9.43-7.35-15.68-4-3.19,1.71-5.64,2-16.86,2-14.26,0-25.61,3.91-36.38,12.51-2.2,1.76-5.07,3.54-6.38,3.95-3.19,1.01-16.39,14.14-18.63,18.53-.98,1.92-3.51,5.47-5.62,7.87-11.59,13.21-16.67,30.08-10.76,35.74,3.72,3.56,68.26,5.14,79.06,1.93,7.56-2.25,7.51-2.36,8.76,21.27,2.72,51.79,2.59,52.39-10.93,51.1-45.11-4.32-40.86-4.22-60.18-1.35-7.09,1.05-9.47.04-12.86-5.47-7.98-12.97-21.44-5.96-16.04,8.36,1.25,3.33,2.51,7.85,2.79,10.05.63,4.9,1.45,5.97,7.79,10.05,3.64,2.35,6.22,5.21,9.5,10.55,8.76,14.26,23.36,26.9,31.06,26.9,1.4,0,2.98.44,3.51.98,5.42,5.42,49.44,7.38,66.92,2.98,11.6-2.92,27.51-11.69,48.33-26.63,1.81-1.3,5.82-1.84,17.83-2.42,23.53-1.14,28.29-2.15,32.93-6.99,7.53-7.86,1.77-19.09-10.51-20.48ZM104.76,88.12c-3.13.34-6.82,1.35-8.19,2.25-3.65,2.39-50.57,2.48-50.57.09,0-5.33,16.04-24.1,24.97-29.24,2.49-1.43,5.8-3.64,7.35-4.91,2.36-1.93,13.19-7.54,18.68-9.67,2.21-.86,8.35-.06,11.63,1.51q2.87,1.37,3.15,15.59c.43,22.03-.03,23.62-7.02,24.38ZM113.79,219.36q-.29,8.14-15.2,8.42c-16,.3-13.82.72-31.23-6.07-10.44-4.07-21.12-17.15-14.61-17.9,4.49-.52,16.88.17,30.75,1.69,7.15.79,16.29,1.73,20.31,2.1,9.74.89,10.34,1.58,9.97,11.75ZM141.4,219.6c-1.71-.66-1.85-5.75-.2-7.4,2.34-2.34,11.8-.88,11.8,1.82,0,1.41-9.98,6.21-11.6,5.58ZM201.57,167.52c-.85,1.64-1.56,3.6-1.56,4.35-.04,9.84-11.11,15.81-26.51,14.29-6.6-.65-16.11-1.18-21.14-1.17-14.72.01-12.93,7.78-16.07-69.81-.55-13.47-.85-13.16,13.08-13.26,8.19-.06,12.45-.56,16.13-1.92,4.1-1.51,8.09-1.86,22.18-1.92,23.57-.11,30.94,36.75,13.89,69.44Z"/>
</svg>