<?xml version="1.0" encoding="UTF-8"?>
<svg id="Layer_1" data-name="Layer 1" xmlns="http://www.w3.org/2000/svg" viewBox="0 0 256 256">
  <path d="M204.5,17.42c-14.75.34-29.71.15-36.5-.48-15.18-1.4-51.34-1.98-61.84-.99-4.58.43-13.14,1.51-19,2.41-42.2,6.41-49.11,6.9-54.16,3.8-12.18-7.48-22.68,7.4-13.61,19.29,4.63,6.07,13.3,9.55,23.82,9.55,6.88,0,6.07,3.1-4,15.28-12.27,14.85-17.08,30.59-11.1,36.33,3.48,3.33,65.54,5.15,77.76,2.27,5.58-1.31,9.32.48,7.34,3.51-.4.61-.72,26.75-.72,58.1,0,64.95-1.6,66.94-41,51.23-6.81-2.72-19.36-14.33-19.47-18.03-.01-.44-1.83-3.18-4.03-6.09-2.2-2.91-4-5.62-4-6.01s-2.38-3.95-5.29-7.91c-2.91-3.96-6.29-8.83-7.51-10.83-4.41-7.23-12.11-7.46-15.58-.47-2.54,5.12-1.11,9.84,5.78,19.1,2.86,3.85,8.33,11.92,12.15,17.93,11.52,18.14,25.15,30.57,33.51,30.57,1.4,0,2.96.39,3.49.88,4.32,3.98,12.3,5.12,35.74,5.11,33.02-.02,40.1-2.13,66.31-19.73,6.35-4.26,13.07-8.57,14.94-9.57,7.6-4.06,28.28-24.9,30.94-31.18,12-28.26,11.51-25.79,11.51-59.01,0-46.3-.44-46.81-39.11-46.31-21.29.28-24.7.54-26.86,2.07-3.08,2.18-21.13,2.58-22.77.5-1.49-1.88-2.61-26.42-1.24-27.26,2.35-1.45,6.06.75,10.18,6.04,9.53,12.22,22.35,7.67,18.68-6.63-1.62-6.34-4.11-5.77,27.44-6.33,36.46-.65,43.7-3.1,43.68-14.77-.02-10.92-6.14-13.06-35.5-12.38ZM107.69,84.15c-2.65.39-5.89,1.41-7.21,2.27-3.57,2.34-50.47,2.37-50.47.03,0-5.32,16.01-24.08,24.97-29.25,2.49-1.44,5.9-3.69,7.58-5,1.68-1.31,5.95-3.65,9.5-5.2,17.31-7.54,19.84-5.28,20.18,18.04q.27,18.4-4.54,19.1ZM153.82,97.92c7.75-.06,12.05-.58,15.68-1.92,4.1-1.51,8.09-1.86,22.18-1.92,23.57-.11,30.94,36.75,13.89,69.44-.85,1.64-1.56,3.6-1.56,4.35-.02,4.74-18.22,24.16-28.11,30-2.97,1.75-8.55,5.44-12.4,8.19-7.65,5.47-19.56,11.94-21.97,11.94-1.33,0-1.55-3.52-1.69-26.75-.09-14.71-.31-28.77-.48-31.25-3.19-45.22.71-61.98,14.46-62.08Z"/>
</svg>