<?xml version="1.0" encoding="UTF-8"?>
<svg id="Layer_1" data-name="Layer 1" xmlns="http://www.w3.org/2000/svg" viewBox="0 0 256 256">
  <defs>
    <style>
      .cls-1 {
        fill: #231f20;
      }
    </style>
  </defs>
  <path class="cls-1" d="M48,53.73c0-8.02-9.23-12.67-12.97-6.54-2.8,4.59-2.54,8.73,1.04,16.29,7.27,15.39,19.67,17.96,62.09,12.89,4.6-.55,7.23,1.59,5.47,4.44-.28.45-.6,5.03-.7,10.16-.28,13.95.49,13.03-10.86,13.03-22.09,0-39.4,24.57-29.96,42.51,7.05,13.39,22.92,21.15,32.81,16.04,5.52-2.86,6.1-1.92,6.1,9.94,0,10-.12,10.6-2.25,11.49-2.59,1.08-15.71,3.57-23.67,4.5-2.98.35-6.97,1.28-8.87,2.07-8.17,3.41-10.2,1.18-5.21-5.72,7.63-10.53-2.85-18.4-13.59-10.21-25.97,19.81-8.98,48.04,21.33,35.45,2.69-1.12,9.52-2.46,15.71-3.1,6.02-.61,11.3-1.33,11.73-1.6,1.79-1.11,4.82,1.76,4.82,4.56,0,4.17,3.37,14.37,5.95,17.98,10.7,15.03,32.27,3.86,23.63-12.23-6.14-11.43-5.69-11.67,22.09-11.87q26.31-.19,29.8,5.7c7.79,13.3,24.46,4.3,19.04-10.28-5.24-14.11-20.38-18.59-54.24-16.06-15.3,1.14-18.83.79-19.4-1.93-4.8-22.86,1.59-108.86,8.13-109.52,4.12-.42,10.65-1.25,14.5-1.85,28.97-4.51,29.78-4,15.72,9.92-10.41,10.31-14.4,17.19-11.16,19.24,9.81,6.21,38.39-10.3,46.97-27.14,8.41-16.49-9.84-28.86-36.85-24.96-3.68.53-12.44,1.68-19.47,2.54-7.03.87-13.33,1.78-14,2.02-2.47.9-3.73-1.29-4.36-7.59-1.26-12.62-7.65-18.59-15.03-14.04-3.76,2.32-3.99,2.98-5.29,14.53-.55,4.92-1.58,9.46-2.28,10.09-4.19,3.8-25.83,7.37-45.1,7.44-6.61.03-11.67-3.55-11.67-8.25ZM82.01,146c-12.43-4.1-10.57-18.55,3.49-27.16,3.82-2.34,5.66-2.31,10.47.14,12.2,6.22-.8,31.36-13.96,27.02Z"/>
</svg>