<?xml version="1.0" encoding="UTF-8"?>
<svg id="Layer_1" data-name="Layer 1" xmlns="http://www.w3.org/2000/svg" viewBox="0 0 256 256">
  <defs>
    <style>
      .cls-1 {
        fill: #231f20;
      }
    </style>
  </defs>
  <path class="cls-1" d="M191.09,143.68c14.99-1.78,36.9-17.86,41.88-30.74,18.13-46.89-20.71-106.34-52.87-80.92-14,11.07-19.26,29.76-19.48,69.2-.12,21.58-.18,22.28-2.12,22.28-2.99,0-3.71-12.25-3.19-54.1.48-38.65.24-40.68-5.29-45.65-4.59-4.13-8.33-3.72-13.49,1.5-5.76,5.83-7.22,13.43-7.99,41.75-1.31,47.74-3.12,48.5-4.61,1.96-1.31-40.95-2.14-44.65-9.82-43.76-4.53.53-4.89,2.96-5.79,39.2-.7,28.55-1.07,34.01-2.34,34.64-.82.41-3.87,1.77-6.77,3.03-5.68,2.47-9.19,6.28-11.8,12.83-1.96,4.88-1.99,4.9-17.93,5.39-16.86.52-25.5,5.11-25.5,13.56,0,4.74,2.11,5.68,8,3.56,4.8-1.73,5.41-1.73,13.27-.1,4.53.94,10.39,1.71,13.03,1.7,5.05,0,9.71,3.09,9.71,6.45,0,2.49,6.99,9.51,12,12.05,7.65,3.87,7.39,2.76,6.71,28.64q-.6,23.06-4.16,28.22c-10.03,14.56,6.28,22.86,18.94,9.65,3.08-3.22,3.36-8.24,3.5-63.33,0-.46.56-.65,1.25-.42.95.32,1.25,5.9,1.26,23.33,0,25.4.78,29.11,7.83,37.42,13.67,16.12,32.59,3.33,22.57-15.26-2.15-3.99-3.25-56.75-1.25-59.98,4.65-7.52,7,.87,7.65,27.25.75,30.75,2.21,36.38,12.08,46.59,2.26,2.35,5.4,5.87,6.97,7.84,3.92,4.92,8.45,4.98,13.25.17,6.64-6.64,3.8-18.24-5.66-23.13-5.29-2.74-6.8-11.12-7.09-39.3-.22-21.6-.57-20.57,7.25-21.49ZM182.11,122.63c-1.64-1.98-2.58-30.58-1.28-39.13,3.72-24.55,4.81-28.24,9.97-33.75,13.45-14.37,31.21,22.91,24.93,52.34-2.38,11.16-28.28,26.99-33.62,20.55Z"/>
</svg>