<?xml version="1.0" encoding="UTF-8"?>
<svg id="Layer_1" data-name="Layer 1" xmlns="http://www.w3.org/2000/svg" viewBox="0 0 256 256">
  <path d="M231.45,215c-7.55,0-19.92-10.95-25.27-22.35-9.42-20.11-11.74-30.34-13.18-58.24-.59-11.37-1.69-22.44-2.53-25.5-.82-2.97-1.92-7.81-2.45-10.75-4.02-22.46-16.63-35.56-35.53-36.91-9.72-.7-12.68-9.78-8.37-25.75,3.28-12.18.26-18.34-8.42-17.2-9.48,1.25-11.46,6.24-12.07,30.46-.46,18.29-.88,19.52-6.55,19.04q-3.59-.3-4.18-14.8c-.74-18.1-1.35-21.53-4.72-26.4-4.72-6.85-13.2-12.14-17.69-11.02-.55.14-2.25.52-3.78.86-8.85,1.96-8.3,15.93.8,20.27,4.7,2.24,4.98,3.6,4.98,24.63s1.29,19.53-20,29.24c-11.62,5.3-28.3.49-40.98-11.81-8.57-8.31-14.13-9.4-18.93-3.7-7.66,9.1,2.89,22.61,26.41,33.85,11.17,5.34,32.31,5.68,41.86.68,15.25-7.99,14.73-9.69,17.14,55.33.52,13.99,1.23,27.99,1.59,31.12.88,7.74,2.04,7.45-30.58,7.45-36.6,0-43.84,3.07-44.79,18.97-.66,11.08,4.68,13.52,12.87,5.88,5.63-5.26,54.07-7.14,72.68-2.82,3.71.86,12.82,2.01,20.25,2.54,7.43.54,17.77,1.4,23,1.92,5.23.52,14.68,1.23,21,1.58,6.32.35,14.88,1.28,19,2.05,11,2.06,34.77,3.83,40.25,2.99,16.28-2.49,14.7-21.6-1.79-21.6ZM124.62,207.56c-9.25-1.16-9.18-.99-7.66-17.67,1.71-18.83.83-49.78-2.52-88.45q-.7-8.07,2.68-10.23c7.95-5.09,7.68-5.93,9.95,31.98,1.06,17.67,2.58,35.77,3.38,40.22,5.29,29.46,3.2,45.28-5.83,44.16ZM146.04,112.5c-.59-11-1.34-21.61-1.66-23.58-.42-2.6-.12-4.03,1.09-5.25,6.91-6.91,22.53,6.18,22.53,18.89,0,1.13.86,5.41,1.9,9.5,5.57,21.77,4.11,26.67-7.48,25.13-4.36-.58-9.15-.81-10.65-.51-3.99.79-4.51-1.38-5.74-24.18ZM166.62,210.53c-16.96-1.79-15.1,1.01-15.21-22.87-.05-11.69-.59-22.19-1.27-24.98-.65-2.65-.91-5.24-.6-5.75,3.97-6.43,24.19,2.91,26.47,12.22.99,4.04,2.34,8.92,3.01,10.84,4.89,14.04,10.3,26.46,11.97,27.49,6.96,4.3-1.91,5.41-24.37,3.04Z"/>
</svg>