<?xml version="1.0" encoding="UTF-8"?>
<svg id="Layer_1" data-name="Layer 1" xmlns="http://www.w3.org/2000/svg" viewBox="0 0 256 256">
  <defs>
    <style>
      .cls-1 {
        fill: #231f20;
      }
    </style>
  </defs>
  <path class="cls-1" d="M22.61,179.65c.77,1.73,1.39,3.5,1.39,3.93,0,18.26,31.91,49.95,61.5,61.08,43.77,16.46,97.2-4.25,126.94-49.21,2.17-3.28,4.68-6.86,5.57-7.96,2.46-3.02,8.99-18.33,8.99-21.08,0-5.34-.69-4.83-37,27.51-26.08,23.23-44.33,35.08-50.42,32.74-4.18-1.6-5.52-52.87-2.6-99.1,1.64-25.95,1.56-25.76,10.71-24.86,9,.88,8.96.84,9.6,12.01.92,16.16,5.27,24.18,14.01,25.81,12.64,2.37,19.2-8.26,10.59-17.15-3.48-3.59-5.35-11.03-3.79-15.13.82-2.17,1.31-2.25,13.63-2.27,29.63-.03,49.93-12.59,48.01-29.68-1.49-13.21-15.72-15.73-25.37-4.5-12.87,14.97-38.36,10.53-38.36-6.68q0-10.49-4.83-15.15c-10.84-10.45-22.6-4.91-16.58,7.81,4.24,8.97,2.66,17.59-3.3,18.02-7.58.55-7.95-.06-8.78-14.47-1.9-32.98-8.22-43.7-21.66-36.75-2.32,1.2-3.69,1.33-5.7.56-5.48-2.11-12.46-2.14-19.65-.08-3.85,1.1-8.62,2.37-10.6,2.81-12.78,2.86-35.27,16.23-46.51,27.66-4.46,4.53-8.99,8.52-10.07,8.87-5.53,1.76-7.6,5.94-7.8,15.81-.11,5.44-.87,11.37-1.84,14.29-7.31,22.17-5.38,64.09,3.92,85.15ZM112.61,39.58c2.19-5.71,3.25-.71,3.47,16.41.19,14.78-.42,18.16-2.99,16.57-1.16-.72-1.59-30.08-.48-32.97ZM115.86,127.93c-.85,24.49-2.1,31.06-3.2,16.87-.85-10.91-.84-42.28,0-43.13,3.72-3.72,4.12-.46,3.19,26.26ZM106.15,217.47c.41-.57,1.19-3.83,1.74-7.26s1.28-6.67,1.62-7.22c2.03-3.28,4.88,4.78,6.52,18.42,1.27,10.52,1.24,10.55-7.71,10.57-7.77.02-8.59-5.52-2.16-14.52ZM89,43.92c6.11-1.91,6.51-1.33,6.38,9.22-.27,21.57.93,20.49-23.98,21.43-20.06.75-23.4.26-23.4-3.48,0-4.8,27.31-22.9,41-27.17ZM36.09,99.83c.79-1.48,1.66-1.84,3.24-1.35,6.38,1.98,12.02,2.43,30.79,2.47,26.29.06,23.35-6.18,22.04,46.8-1.93,77.92-6.4,85.8-33.96,59.8-6.04-5.7-14.2-17.71-14.21-20.94,0-.62-.71-2.47-1.57-4.12-1.93-3.7-4.68-11.42-7.94-22.27-4.28-14.26-3.3-51.24,1.61-60.41Z"/>
</svg>