<?xml version="1.0" encoding="UTF-8"?>
<svg id="Layer_1" data-name="Layer 1" xmlns="http://www.w3.org/2000/svg" viewBox="0 0 256 256">
  <path d="M50.29,102.67c15.46.65,18.82.25,41.23-4.81,4.96-1.12,10.36-1.89,12-1.7,4.41.5,3.79,3.08-.97,4.07-2.17.45-4.65,1.42-5.5,2.15-.85.73-3.75,2.41-6.44,3.72-12.86,6.29-18.94,16.04-19.05,30.53-.1,14.54,7.25,21.52,28.34,26.89,7.46,1.9,7.31,1.34,6.69,24.87q-.55,20.89-4.07,26.01c-9.99,14.5,6.33,22.8,18.95,9.63,2.95-3.08,3.67-14.9,3.53-57.86,0-.73.56-1.15,1.24-.92.94.31,1.25,5.47,1.28,20.83.04,22.62.99,26.87,7.82,34.92,13.68,16.13,32.65,3.27,22.54-15.27-13.48-24.71-.32-44.71,26.86-40.84,6.81.97,6.51.45,7.37,12.87,2.23,32.15,30.46,64.16,42.61,48.32,1.94-2.53,1.58-9.8-.58-11.84-21.42-20.09-21.21-19.41-22.12-70.75-.79-44.18-1.2-47.17-7.89-56.77-9.68-13.91-22.67-20.67-39.8-20.72-9.4-.03-9.66-.52-8.81-16.43,1.31-24.4-7.09-35.62-18.59-24.83-5.3,4.97-6.9,10.95-7.77,28.96-.44,9.11-1.13,14.66-1.92,15.45-2.62,2.62-3.42-.93-3.89-17.3-.61-21.39-2.41-26.86-8.82-26.86-4.55,0-4.98,1.92-5.74,25.13-.81,24.99-.91,25.35-7.51,26.22-5.24.7-15.23,2.73-28.08,5.72-16.67,3.88-41.94,2.79-48.09-2.07-8.12-6.42-13.12-5.3-13.11,2.95.01,13.22,10.36,18.55,38.29,19.72ZM156.79,88.21c2.1-2.1,6.14-2.25,16.91-.62,11.02,1.67,16.81,13.68,17.84,37.04.94,21.19,2.49,19.38-16.54,19.38-20.33,0-19,1.25-19-17.92,0-8.12-.29-19.5-.64-25.29-.6-9.78-.5-10.66,1.43-12.59ZM101.94,144c-13.82,0-15.78-13.04-3.16-21.02,7.79-4.93,8.66-4.23,9,7.27.35,11.96-.41,13.75-5.84,13.75Z"/>
</svg>