<?xml version="1.0" encoding="UTF-8"?>
<svg id="Layer_1" data-name="Layer 1" xmlns="http://www.w3.org/2000/svg" viewBox="0 0 256 256">
  <path d="M115.85,108.2c-2.31-.2-4.31.38-6.05,1.75-14.63,11.5-13.51,39.27,1.81,45.09,16.64,6.33,41.8-13.61,32.67-25.89-3.46-4.66-12.27-2.53-12.27,2.96,0,4.4-7.84,11.48-12.33,11.14-8.6-.65-9.95-10.98-3.02-23.3,5.21-9.27,5.08-11.24-.8-11.75Z"/>
  <path d="M176.62,146.19c1.19-12.79-9.91-17.75-12.63-5.65-2.49,11.09-14.83,26.6-24.49,30.81-2.2.96-4.88,2.23-5.96,2.83-1.08.6-4.45,1.73-7.5,2.51-3.05.78-7.39,1.91-9.65,2.5-7.76,2.03-18.11-6.31-25.68-20.7-6.73-12.79-5.48-39.84,2.67-57.38,3.36-7.24,17.04-17.12,23.7-17.12,4.93,0,7.61-3.42,5.79-7.4-1.89-4.14-9.1-5.79-15.86-3.63-14.95,4.78-28.17,19.19-30.64,33.37-.3,1.73-1.29,5.4-2.21,8.15-13.68,41.24,18.78,87.48,53.84,76.7,27.35-8.42,46.9-26.51,48.62-45.01Z"/>
</svg>