<?xml version="1.0" encoding="UTF-8"?>
<svg id="Layer_1" data-name="Layer 1" xmlns="http://www.w3.org/2000/svg" viewBox="0 0 256 256">
  <path d="M22.61,179.65c.77,1.73,1.39,3.5,1.39,3.93,0,18.2,32.01,49.99,61.5,61.08,43.74,16.45,97.21-4.27,126.94-49.21,2.17-3.28,4.67-6.86,5.57-7.96,2.46-3.02,8.99-18.33,8.99-21.08,0-5.34-.92-4.65-37.31,27.77-33.14,29.52-57.02,41.89-56.52,29.27.04-1.08-.48-7.13-1.17-13.45-1.41-13.02-.71-58.42,1.36-87.86,1.31-18.62,2.18-21.03,7.14-19.7,1.1.29,4.47.55,7.5.56,8.03.04,8.38.47,9.1,11.21,1.12,16.6,5.48,24.69,14.19,26.32,12.64,2.37,19.2-8.26,10.59-17.15-3.48-3.59-5.35-11.03-3.79-15.13.81-2.14,1.38-2.25,11.63-2.27,27.55-.04,47.87-13.15,46.01-29.68-1.49-13.21-15.72-15.73-25.37-4.5-5.17,6.02-9.43,7.42-22.19,7.28-12.37-.13-12.17.09-12.17-13.39q0-11.06-4.83-15.72c-10.82-10.43-22.6-4.93-16.6,7.75,4.88,10.31,2.72,17.69-5.29,18.07-9.83.47-9.91.37-10.76-14.46-1.66-28.83-5.63-38.62-15.48-38.17-1.94.09-9.15.47-16.03.84-8.05.44-13.88,1.27-16.37,2.34-2.13.91-4.66,1.66-5.63,1.66-3.26,0-22.46,9.16-32.54,15.52-3.28,2.07-9.56,7.45-13.96,11.95-6.57,6.73-8.7,8.3-11.91,8.82-8.09,1.3-12.06,8.7-9.04,16.86,2.62,7.07,2.73,8.47,1.07,13.53-7.25,22.03-5.28,64,3.99,84.97ZM100.5,40.03c5.51-1.52,10.32-1.2,10.87.72,1.26,4.35,1.12,31.33-.18,32.13-1.51.93-60.88,2.44-62.27,1.58-7.95-4.91,25.49-27.23,51.57-34.42ZM35.42,101.13c.49-.79,75.61-.43,76.41.37.92.92.22,25.92-1.37,48.5-1.86,26.55-1.88,51.3-.05,61,4.36,23.06-1.19,26.43-23.99,14.54-1.61-.84-3.29-1.53-3.72-1.53-8.85-.07-38.7-28.82-38.7-37.28,0-.56-.84-2.86-1.88-5.12-2.55-5.59-5.52-13.73-8.03-22.03-3.55-11.73-2.63-52.04,1.33-58.46Z"/>
</svg>