<?xml version="1.0" encoding="UTF-8"?>
<svg id="Layer_1" data-name="Layer 1" xmlns="http://www.w3.org/2000/svg" viewBox="0 0 256 256">
  <path d="M98.06,191.69c14.9.73,13.91-.41,13.93,16.11.02,17.06,3.9,24.05,12.11,21.85,6.85-1.84,7.38-3.16,7.67-19.34.39-21.7-.4-20.54,15.3-22.32,55.71-6.31,99.55-67.09,78.53-108.88-.72-1.44-1.63-3.94-2.02-5.55-5.69-23.68-44.7-41.67-66.73-30.79-16.33,8.07-33.74,33.55-36.63,53.63-1.03,7.16-2.73,6.88-6.32-1.06-17.83-39.5-42.67-64.17-54.44-54.05-6.18,5.31-3.46,12.22,7.87,19.97,6.48,4.43,24.83,32.14,29.31,44.24,7.24,19.59,9.26,27.62,12.03,48,2.71,19.9,3.76,17.95-9.9,18.28-9.11.22-13.61-.17-20.14-1.75-4.62-1.12-8.97-2.03-9.66-2.03-1.68,0-33.39-12.71-37.56-15.05-1.8-1.01-5.17-3.21-7.49-4.89-7.54-5.46-12.88-.59-8.49,7.75,8.76,16.64,49.33,34.26,82.63,35.89ZM142.44,92.46c.85-1.63,1.57-3.63,1.61-4.46.17-4.04,11.13-18.76,18.44-24.75,8.75-7.17,30.08-1.35,38.45,10.51,13.12,18.57,11.28,48.89-3.97,65.58-21.65,23.69-64.94,39.49-64.99,23.73-.04-14.06,7.49-64.91,10.46-70.6Z"/>
</svg>