<?xml version="1.0" encoding="UTF-8"?>
<svg id="Layer_1" data-name="Layer 1" xmlns="http://www.w3.org/2000/svg" viewBox="0 0 256 256">
  <defs>
    <style>
      .cls-1 {
        fill: #231f20;
      }
    </style>
  </defs>
  <path class="cls-1" d="M69.63,66.43c-30.55-5.92-55.63,4.29-55.63,22.67,0,10.69,12.88,13,17.56,3.14,3.09-6.52,15.82-9.52,30.44-7.18,3.02.48,9.55,1.41,14.5,2.05,13.35,1.74,11.99-6.47,12.07,72.68.05,50.63.38,69.29,1.24,70.89,4.39,8.11,14.46,8.45,19.31.65q2.38-3.82,2.41-72.82c.03-66.34.1-69,1.88-69.35,3.46-.67,3.68,1.95,3.38,41.34-.24,32.61,0,41.05,1.44,51.5.95,6.88,2.18,19.04,2.74,27.04,1.71,24.54,4.05,30.96,11.24,30.96,8.95,0,11.86-10.2,9.35-32.75-2.99-26.84-3.08-111.09-.13-114.02.41-.4,17.46-.73,37.9-.73,41.43,0,39.95.23,47.12-7.16,7.45-7.67,12.53-24.91,12.54-42.54,0-7.66-6.09-13.81-13.7-13.81-2.09,0-6.95-.96-10.8-2.13-6.96-2.12-43.98-3.42-63-2.22-3.3.21-10.17,1.07-15.27,1.91-7.65,1.27-18.01,1.48-59.2,1.25-58.26-.33-59.16-.14-57.66,12.47,1.37,11.52,6.34,13.18,39.89,13.27,30.21.08,28.97-.27,28.54,8.05-.36,7.08-2.96,7.77-18.17,4.82ZM161.36,51.04c8.79-1.74,41.92-.81,52.28,1.47,4.7,1.04,3.99,11.62-1.15,17.07-4.98,5.28-67.58,4.83-68.33-.48-1.34-9.49,4.4-15.52,17.2-18.05ZM108.19,56.12c1.81-4.99,11.38-.77,10.29,4.54-.26,1.29-.71,3.46-.99,4.82-.6,2.9-4.29,4.22-7.29,2.62-2.27-1.21-3.43-8.09-2.01-11.98Z"/>
</svg>