<?xml version="1.0" encoding="UTF-8"?>
<svg id="Layer_1" data-name="Layer 1" xmlns="http://www.w3.org/2000/svg" viewBox="0 0 256 256">
  <path d="M210.32,71.84c-6.76,7.87-16.37,8.73-54.82,4.94-17.37-1.71-15.69,1.35-15.37-28.01.34-31.66-3.58-37.88-17.85-28.27-4.96,3.34-5.59,3.5-14.02,3.5-4.95,0-11.22.68-14.29,1.55-3.01.85-7.09,1.91-9.07,2.34-3.26.71-5.52,1.64-16.9,6.93-10.7,4.97-21.05,12.19-29.03,20.24-6.98,7.04-9.23,8.72-12.41,9.23-8.07,1.31-12.03,8.72-9.01,16.86,2.62,7.07,2.73,8.47,1.07,13.53-7.25,22.03-5.28,64,3.99,84.97.77,1.73,1.39,3.5,1.39,3.93,0,18.2,32.01,49.99,61.5,61.08,49.73,18.7,113.06-12.33,137.75-67.52,9.08-20.3,7.38-19.43-33.56,17.04-33.12,29.52-57.06,41.91-56.51,29.27.05-1.08-.48-6.9-1.18-12.95-1.44-12.49-.72-58.78,1.36-88.36,1.4-19.91,1.61-20.34,9.5-19.57,63.55,6.22,85.55,1.88,92.18-18.2,5.75-17.43-12.54-26.71-24.72-12.54ZM35.42,101.13c.47-.77,59.36-.43,61.4.36,2.88,1.11-5.03,7.52-14.82,12.01-9.74,4.47-45.89,10.67-48.69,8.35-1.95-1.62-.43-16.62,2.11-20.72ZM110.42,211c4.36,23.06-1.19,26.43-23.99,14.54-1.61-.84-3.29-1.53-3.72-1.53-8.93-.07-38.66-28.79-38.71-37.39,0-.62-.71-2.47-1.57-4.12-4.99-9.57-10.56-29.7-10.21-36.92q.29-6.08,14.79-6.61c7.97-.29,15.03-.86,15.68-1.27.65-.4,4.52-1.16,8.59-1.68,12.73-1.61,26.72-7.21,34.79-13.93,6.56-5.46,6.74-4.26,4.44,27.9-1.89,26.4-1.93,51.24-.08,61ZM111.2,72.88c-1.51.93-60.88,2.44-62.27,1.58-7.95-4.91,25.49-27.23,51.57-34.42,5.51-1.52,10.32-1.2,10.87.72,1.26,4.35,1.12,31.33-.18,32.13Z"/>
</svg>