<?xml version="1.0" encoding="UTF-8"?>
<svg id="Layer_1" data-name="Layer 1" xmlns="http://www.w3.org/2000/svg" viewBox="0 0 256 256">
  <path d="M73.15,101.67c27.21-5.98,30.78-5.95,29.16.24-.6,2.31-.46,2.28-11.82,2.11-20.33-.31-37.45,25.31-28.4,42.5,7.05,13.39,22.92,21.15,32.81,16.03q6.1-3.16,6.11,24.17c.02,27.15.86,33.47,5.35,40.27,10.67,16.12,33.2,5.46,24.13-11.42-2.8-5.22-4.66-45.2-2.32-49.81,1.43-2.82,59.63-2.28,62.48.58.38.38,1.03,5.53,1.44,11.43,2.22,32.15,30.46,64.16,42.61,48.32,1.94-2.53,1.58-9.8-.58-11.84-21.44-20.12-21.23-19.44-22.13-70.75-.85-48.59-1.66-52.23-14.41-64.45-4.56-4.37-4.52-6.11.16-8.58,6.03-3.18,20.86-18.05,23.72-23.78,9.82-19.7-5.88-38.8-22.73-27.64-8.67,5.74-11.68,15.83-6.84,22.95,1.68,2.48,3.07,4.98,3.08,5.58.06,3.58-20.15,15.48-27.98,16.48-3.03.39-12.66,1.68-21.4,2.87-19.02,2.59-17.4,3.85-17.93-14.01-.61-20.44-5.43-28.19-14.58-23.46-4.89,2.53-4.5.93-8.15,33.54-1.43,12.76-1.09,12.39-13.43,15-5.5,1.17-13.73,3-18.29,4.06-16.64,3.89-41.94,2.8-48.09-2.06-10.24-8.09-18.08-.65-11.2,10.63,6.26,10.27,36.8,15.96,59.23,11.03ZM82.01,146c-12.43-4.1-10.57-18.55,3.49-27.16,3.84-2.35,5.66-2.31,10.59.2,12.16,6.21-.94,31.29-14.08,26.96ZM128.23,116.93c.32-29.91-.75-28.22,18.77-29.72,10.86-.84,19.45-.71,26.7.38,11.02,1.66,16.81,13.68,17.85,37.04.97,21.79,4.82,19.38-30.86,19.36-37.08-.02-32.77,3.57-32.45-27.05Z"/>
  <path d="M231.89,66.94c-4.7-2.4-5.54-2.4-9.9-.11-11.17,5.88-7.86,24.02,4.4,24.13,14.07.13,18.13-17.58,5.51-24.02Z"/>
</svg>