<?xml version="1.0" encoding="UTF-8"?>
<svg id="Layer_1" data-name="Layer 1" xmlns="http://www.w3.org/2000/svg" viewBox="0 0 256 256">
  <defs>
    <style>
      .cls-1 {
        fill: #231f20;
      }
    </style>
  </defs>
  <path class="cls-1" d="M129.5,138.18c-12.14,6.77-13.41,7.19-21.77,7.08-11.97-.15-17.59,5.98-11.28,12.29,5.33,5.33,30.99,2.02,35.03-4.52.9-1.45,4.5-1.27,4.61.23.05.69.16,6.62.25,13.19.21,15.61,6.72,21.03,13.26,11.04,2.61-3.98,2.72-66.01.14-75.13-.96-3.38-1.74-7.35-1.74-8.83,0-9.84-8.86-10.53-18.66-1.45-8.67,8.04-10.43,8.93-17.66,8.9-5.02-.02-7.45-.49-16.39-3.13-7.12-2.1-11.26,4.23-6.04,9.23,10.76,10.31,29.63,11.04,42.97,1.68,3.01-2.12,3.77.37,4.03,13.19q.25,12.33-6.75,16.24Z"/>
</svg>