<?xml version="1.0" encoding="UTF-8"?>
<svg id="Layer_1" data-name="Layer 1" xmlns="http://www.w3.org/2000/svg" viewBox="0 0 256 256">
  <path d="M204.5,17.42c-14.75.34-29.71.15-36.5-.48-15.63-1.44-51.47-1.97-62.5-.93-4.95.47-13.05,1.53-18,2.36-4.95.83-11.93,1.79-15.5,2.13-3.57.34-10.28,1.27-14.91,2.06-13.13,2.26-19.96,2.15-24.09-.4-10.79-6.64-21.11,4.38-15.39,16.43,2.52,5.31,7.4,8.92,14.76,10.91,7.72,2.09,8.04,2.95,3.22,8.83-22.05,26.92-28.41,86.39-12.98,121.32.77,1.73,1.39,3.5,1.39,3.93,0,18.2,32.01,49.99,61.5,61.08,43.78,16.46,97.19-4.24,126.94-49.21,2.17-3.28,4.67-6.86,5.57-7.96,2.46-3.02,8.99-18.33,8.99-21.08,0-5.34-.69-4.83-37,27.51-25.33,22.57-39.41,32.07-47.49,32.07-2.5,0-2.67-5.19-2.91-91.59-.13-46.7-.56-85.62-.96-86.49-1.73-3.77,2.43-6.22,9.24-5.43,7.15.83,8.33,2.2,5.7,6.64-1.66,2.81-1.63,3.08.87,8.38,2.33,4.91,2.53,6.27,2,13.23-2.98,39.29,3.04,67.58,14.84,69.79,12.68,2.38,19.2-8.26,10.54-17.19-4.12-4.25-4.46-6.84-5.42-41.63q-.74-26.79-4.7-31.29c-5.15-5.85-7-5.41,24.49-5.86,36.28-.52,43.81-3.06,43.79-14.75-.02-10.92-6.14-13.06-35.5-12.38ZM55.82,205.34c-4.46-4.6-11.81-16.22-11.82-18.69,0-.63-.71-2.5-1.57-4.15-10.38-19.89-13.63-51.77-8.01-78.52,7.48-35.59,30.6-56.85,65.59-60.31,13.91-1.38,12.47-11.53,12.65,89.74.14,78.79.31,87.56,1.84,91.98,5.46,15.86-38.44.85-58.67-20.05Z"/>
</svg>