<?xml version="1.0" encoding="UTF-8"?>
<svg id="Layer_1" data-name="Layer 1" xmlns="http://www.w3.org/2000/svg" viewBox="0 0 256 256">
  <defs>
    <style>
      .cls-1 {
        fill: #231f20;
      }
    </style>
  </defs>
  <path class="cls-1" d="M189.5,194.41c-25.83,23.04-29.5,25.12-29.5,16.64,0-.86-.98-3.37-2.17-5.56-3.15-5.78-2.91-77.48.26-77.48.48,0,1.15,1.11,1.49,2.48.89,3.53,7.67,9.29,11.86,10.08,12.54,2.35,19-8.35,10.4-17.22-4.13-4.26-4.47-6.89-5.39-41.83-.75-28.28-3.44-36.04-12.69-36.65-1.24-.08-2.93-.19-3.75-.25-2.86-.19-4-1.74-4.01-5.41-.02-15.31-10.61-22.9-19.45-13.94-5.76,5.83-7.22,13.42-7.99,41.75-1.32,47.94-3.13,48.51-4.63,1.45-1.48-46.56-4.06-50.25-29.95-42.9-3.01.85-7.09,1.91-9.07,2.34-12.07,2.64-35.18,16.15-45.4,26.55-25.23,25.66-33.57,87.47-16.89,125.21.77,1.73,1.39,3.5,1.39,3.93,0,1.06,3.19,8.15,8.28,18.42,14.93,30.12,63.2,54.04,96.01,47.58,3.96-.78,9.26-1.69,11.76-2.03,22.38-3.02,55.86-27.11,72.39-52.09,2.17-3.28,4.68-6.86,5.57-7.96,2.46-3.02,8.99-18.33,8.99-21.08,0-5.36-.73-4.81-37.5,27.99ZM108.27,70.02c-.64,23.6-1.01,28.39-2.27,29.01-.82.41-3.87,1.78-6.77,3.04-20.18,8.78-19.3,45.43,1.33,55.75,6.98,3.49,6.8,2.67,6.17,28.28q-.57,23.02-4.29,28.42c-4.07,5.91-4.38,11.59-.79,14.22,4.41,3.22-7.13,1.12-14.41-2.62-.96-.49-4.67-2.34-8.25-4.11-16.31-8.07-34.96-26.9-35.01-35.35,0-.63-.71-2.5-1.57-4.15-7.25-13.9-10.42-28.74-10.42-48.79,0-53.62,19.39-80.14,68.5-93.68,8.82-2.43,8.66-3.04,7.77,29.98ZM101.44,140.58c-3.19-2.33-2.79-20.07.51-22.74,4.05-3.28,4.54-2.05,4.61,11.5.06,13.61-.42,14.68-5.12,11.24ZM134.42,228.27c-2.16.45-6.96,1.5-10.68,2.34-8.23,1.86-16.19-.21-8.37-2.17,9.18-2.3,9.46-4.29,9.62-67.77,0-.46.56-.65,1.25-.42.95.32,1.25,5.9,1.26,23.33,0,25.62.74,29,8.2,37.87,4.01,4.76,3.82,5.77-1.29,6.82Z"/>
</svg>