<?xml version="1.0" encoding="UTF-8"?>
<svg id="Layer_1" data-name="Layer 1" xmlns="http://www.w3.org/2000/svg" viewBox="0 0 256 256">
  <path d="M74.83,135.67c2.8-10.52-11.33-19.17-19.75-12.08-4.49,3.77-4.57,13.07-.15,17.49,5.98,5.98,17.72,2.79,19.91-5.41Z"/>
  <path d="M137.01,135.47c3.36-10.17-9.53-18.86-18.29-12.33-5.95,4.44-6.9,10.27-2.58,15.79,6.3,8.03,17.7,6.15,20.86-3.45Z"/>
  <path d="M190.5,144c5.75,0,7.3-.7,9.04-4.07,5.76-11.14-5.55-23.48-15.29-16.68-9.3,6.5-5.02,20.75,6.24,20.75Z"/>
</svg>