<?xml version="1.0" encoding="UTF-8"?>
<svg id="Layer_1" data-name="Layer 1" xmlns="http://www.w3.org/2000/svg" viewBox="0 0 256 256">
  <defs>
    <style>
      .cls-1 {
        fill: #231f20;
      }
    </style>
  </defs>
  <path class="cls-1" d="M208.24,212.3c-8.35,1.07-8.95-.45-3-7.53,14.33-17.05,26.12-40.77,20.26-40.77-1.63,0-6.87,4.43-35.9,30.31-23.8,21.22-24.37,21.46-37.27,15.28-6.67-3.2-7.16-3.65-7.74-7.25-6.83-42.39-7.48-142.76-.68-105.89,5.9,32.01,55.09,26.41,55.09-6.28,0-27.05-35.3-41.13-51.38-20.5-1.99,2.56-3.62,5.5-3.62,6.54s-.54,4-1.21,6.59c-2.81,10.88-3.52-5.87-1.15-27.12,1.95-17.47,1.1-24.1-3.68-28.88-4.87-4.87-12.06-2.76-13.53,3.97-.33,1.5-.99,3.98-1.47,5.51-.48,1.53-1.36,9.63-1.94,18-.58,8.37-1.74,20.84-2.57,27.71-.83,6.88-1.69,14.3-1.93,16.5-.64,6.12,1.05,103.79,1.83,105.53,1.07,2.38-1.49,4.96-5.59,5.62-5.54.9-5.9-1.07-3.57-19.65,1.64-13.14,3.46-109.57,2.83-150.17-.01-.92,1.55-2.64,3.47-3.83,11.36-7.02-4.07-15.16-21-11.07-1.65.4-3.98,1.25-5.18,1.9-1.2.65-3.14,1.17-4.31,1.17-7.66,0-35.3,16.06-45.5,26.44-25.23,25.66-33.57,87.47-16.89,125.21.77,1.73,1.39,3.5,1.39,3.93,0,.86,2.27,6.01,7.56,17.18,4.16,8.78,4.24,10.03.69,10.75-11.42,2.31-16.97,13.83-10.16,21.08,3.52,3.75,7.78,4.37,25.41,3.71,17.01-.64,20.17-.1,30.53,5.25,21.65,11.17,46.94,11.81,76.46,1.95,9.81-3.28,10.41-3.35,31.5-3.84,33.06-.76,52-7.58,52-18.73,0-8.52-9.37-11.25-29.76-8.64ZM160.17,77.75c1.19-2.3,4.72-2.19,7.83.25,1.37,1.08,2.95,1.97,3.5,1.98,5.97.16,10.69,11.9,6.4,15.9-11.76,10.96-25.5-3.09-17.73-18.13ZM87.01,209.35c-1.58,1.66-17.88,1.83-23.34.24-7.15-2.08-19.64-16.64-19.68-22.94,0-.63-.71-2.5-1.57-4.15-10.4-19.93-13.65-51.87-7.98-78.52,6.18-29.08,16.16-41.73,43.53-55.18,4.14-2.04,7.98-3.57,8.53-3.42,2.47.7,2.96,161.4.51,163.97Z"/>
</svg>