<?xml version="1.0" encoding="UTF-8"?>
<svg id="Layer_1" data-name="Layer 1" xmlns="http://www.w3.org/2000/svg" viewBox="0 0 256 256">
  <path d="M53.39,64.19c37.74-.23,37.63-.24,37.6,5.18-.03,5.55-1.2,5.99-5.71,2.13-8.88-7.6-19.02-1.63-16.85,9.94.93,4.93,6.3,12.42,12,16.7,7.09,5.34,7.33,6.74,3.99,23.6-.3,1.53-2.27,3.17-6.19,5.15-28.7,14.49-27.34,62.2,1.85,64.85,11.41,1.03,11.66,21.77.34,28.45-10.49,6.19-7.06,19.81,4.99,19.81,11.35,0,22.61-19.06,22.61-38.27,0-9.42.08-9.81,2.47-10.9,5.02-2.29,5.53-.5,5.53,19.26s1.73,24.91,9.7,24.91c8.52,0,10.3-4.4,10.3-25.47,0-26.84-1.92-25.32,32.44-25.74,28.75-.35,29.56-.06,29.56,10.53,0,9.72,6.44,13.29,10.25,5.67,12.23-24.49-10.96-36.31-66.17-33.71-5.41.25-5.67-.39-6.21-15.29-.43-11.81-1.09-10.93,10.13-13.52,49.27-11.39,50.07-56.98,1-56.98q-13.5,0-13.49-6.21c.01-8.95-.78-8.65,25.29-9.76,43.47-1.85,54.86-.83,62.88,5.64,4.97,4.01,12.88-2.26,9.96-7.9-6.65-12.86-34.33-20.81-57.14-16.41-4.01.77-11.4.93-22.33.49-18.76-.77-18.54-.66-19.73-10.35-1.25-10.16-6.71-16.6-11.34-13.36-2.55,1.79-4.09,7.23-4.1,14.49,0,6.67-2.2,9.7-4.61,6.39-.77-1.05-1.39-2.85-1.39-4.02,0-10.15-16.83-20.27-21.61-12.98-2.01,3.06-1.4,9.71,1.14,12.52,4.84,5.35-6.42,6.61-50.41,5.65-30.72-.67-33.13-.05-33.13,8.6,0,10.24,3.9,11.16,46.39,10.9ZM81.98,172c-4.8,0-6.32-11.7-2.64-20.34,2.69-6.32,4.08-4.21,4.89,7.42.83,11.85.64,12.92-2.25,12.92ZM138.5,101.21c11.52-4.04,27.32.83,23.18,7.15-2.16,3.3-8.09,6.44-17.63,9.36-10.81,3.31-12.06,2.62-12.06-6.64,0-6.31,1.1-7.98,6.5-9.88ZM111.03,68.41c2.48-6.51,4.81-2.04,2.44,4.67-.84,2.38-1.46,5.03-1.39,5.87.29,3.09-.12,4.04-1.72,4.04-1.76,0-1.34-9.33.66-14.59ZM107.13,106.75c2.62-4.89,6.46.78,5.39,7.95-.69,4.62-3.41,6.47-6.15,4.19-1.63-1.35-1.18-8.5.77-12.14ZM106.25,140.03c7.41-2.98,9.75,2.61,10.14,24.25.12,6.47-.83,7.68-6.07,7.7-6.68.03-10.43-29.4-4.07-31.95Z"/>
</svg>