<?xml version="1.0" encoding="UTF-8"?>
<svg id="Layer_1" data-name="Layer 1" xmlns="http://www.w3.org/2000/svg" viewBox="0 0 256 256">
  <path d="M69.5,66.34c-25.02-5-47.32,1.24-53.56,14.99-6.66,14.67,8.31,24.93,15.75,10.8,3.64-6.92,23.9-10.35,36.31-6.16,1.93.65,10.77,1.44,19.66,1.74,21.06.73,24.29,3.1,10.74,7.86-6.94,2.44-18.52,9.31-23.22,13.77-20.13,19.11-.93,58.06,28.02,56.85,5.01-.21,4.67-2.43,5.32,34.37.62,35.33.97,37.68,5.6,38.22,7.67.89,8.5-2.81,9.82-43.76,1.49-46.55,3.3-45.78,4.61,1.96,1.05,38.3,8.37,53.72,20.84,43.91,6.19-4.87,5.94-1.76,6.33-77.86.2-38.2.6-69.7.91-70,.3-.3,13.9-.55,30.21-.55,33.05,0,32.59.08,39.62-7.16,12.56-12.93,16.32-49.27,5.67-54.78-3.81-1.97-3.96-1.96-7.85.41-4.59,2.8-6.22,7.69-7.3,21.88-1.58,20.71-1.11,20.44-34.71,19.97-28.69-.4-32.11-2.24-24.81-13.4,8.2-12.53.03-26.88-13.22-23.23-7.38,2.04-16.11,15.51-16.19,24.99-.04,4.78-1.59,7.15-3.1,4.71-.46-.74-.75-6.17-.64-12.06.2-10.65.18-10.73-2.8-13.84-12.55-13.11-28.92-4.99-19.11,9.49,11.89,17.55.31,23.48-32.89,16.85ZM108.06,130.38c.17,17.72-.66,18.85-10.73,14.55-7.81-3.34-11.83-10.82-9.92-18.45.56-2.24,8.17-8.21,13.58-10.66,6.33-2.87,6.91-1.66,7.06,14.56Z"/>
</svg>