<?xml version="1.0" encoding="UTF-8"?>
<svg id="Layer_1" data-name="Layer 1" xmlns="http://www.w3.org/2000/svg" viewBox="0 0 256 256">
  <path d="M225.25,154c13.99-.01,19.26-13.27,8.82-22.2-4.26-3.64-14.02-6.79-21.05-6.79-5.6,0-6.67-.72-12.9-8.65-8.5-10.83-21.08-19.54-37.15-25.73-18.97-7.3-19.99-7.82-20.58-10.53-.31-1.43-.75-3.18-.97-3.89-.22-.71-.88-8.46-1.46-17.21-1.84-27.74-5.21-36.65-13.09-34.68-5.54,1.39-6.33,4.97-6.88,31.19q-.5,24-2.8,24.33c-5.04.71-5.2-.1-5.2-27.79s-.86-31.87-8.74-28.94c-3,1.11-6.09,6.41-6.66,11.37-.25,2.22-1.16,9.21-2.03,15.55-.86,6.33-1.57,15.02-1.57,19.31,0,11.35-.29,11.67-10.66,11.67q-8.59,0-7.72-5.25c2.07-12.53.94-18.69-6.4-34.75-5.77-12.61-21.76-20.11-37.29-17.49-17.05,2.88-14.24,18.64,3.54,19.8,12.64.83,14.04,1.97,18.98,15.45,5.01,13.67-4.92,25.21-21.73,25.22-6.23,0-10.02,2.05-12.15,6.55-4.36,9.18,5.94,18.01,17.99,15.41,39.54-8.53,54.85-4.69,53.99,13.55-.87,18.41-12.35,22.61-39.93,14.6-22.77-6.61-33.98.85-21.54,14.35,8.94,9.7,23.84,14.64,45.24,15.01,21.89.38,20.94,24.34-1.86,47.3-12.07,12.16-12.45,20.94-1.01,23.81,10.33,2.59,35.58-30.44,35.58-46.55,0-2.58,1.27-9.88,3.8-21.85,1.84-8.73,2.69-2.12,2.43,19.05-.46,38.26,2.8,48.77,15.12,48.77,11.58,0,12.39-2.76,11.85-40.73-.56-39.75-4.23-35.68,34.53-38.32,20.68-1.41,24.28.82,24.26,14.99,0,1.41.86,5.71,1.91,9.56,4.14,15.2,6.01,23.24,6.61,28.5,2.35,20.69,9.65,30.7,20.85,28.59,9.28-1.74,10.36-9.23,3.13-21.59-.8-1.38-1.47-3.44-1.48-4.59-.02-2.56-3.6-20.06-5.5-26.91-7.26-26.09-7.29-29.5-.26-29.5ZM116.97,115.03c-.5,6.86-.92,13.5-.94,14.76-.04,2.68-2.84,4.13-4.12,2.11-1.2-1.9-1.15-26.14.06-29.33.54-1.41,1.61-2.56,2.38-2.56,3.13,0,3.53,2.35,2.61,15.03ZM173.73,128.37c-36.47,3.56-32.7,4.84-32.72-11.12,0-6.19.32-11.25.74-11.24,3.44.05,17.38,5.69,25.26,10.22,13.93,8,15.73,11.26,6.73,12.14Z"/>
</svg>