<?xml version="1.0" encoding="UTF-8"?>
<svg id="Layer_1" data-name="Layer 1" xmlns="http://www.w3.org/2000/svg" viewBox="0 0 256 256">
  <path d="M228.97,125.12c11.75-9.91,6.76-24.11-7.97-22.67-17.05,1.67-20.66,1.68-27.5.08-3.85-.9-10.73-1.91-15.28-2.24-10.41-.75-9.46,2.47-9.64-32.67-.16-32.19-.09-32.62,4.97-32.62,7.27,0,11.97-7.45,8.7-13.76-3.39-6.54-11.16-8.78-19.65-5.67-13.8,5.06-14.67,7.87-14.35,46.84.29,35.17.39,34.59-6.31,34.59-5.17,0-5.24-.47-4.73-34.53.56-37.66-.27-40.47-11.84-40.47-12.21,0-15.51,10.38-15.26,48.06.08,11.79.09,22.01.02,22.71-.24,2.52-4.53,3.04-12.65,1.55-29.38-5.39-59.37.17-71.43,13.26-12.28,13.32-.84,20.98,21.47,14.39,31.35-9.27,63.92-2.14,64.95,14.22.39,6.22,1.18,14.46,1.74,18.31s1.32,21.18,1.67,38.5c.77,37.77,2.05,41.85,12.03,38.38,4.8-1.67,9.78-32.11,9.39-57.38-.7-45.15-.45-49,3.09-49,4.42,0,4.63,1.15,4.63,25.04,0,80.56,65.81,100.7,83.94,25.69,2.64-10.92.78-32.55-3.5-40.84-2.2-4.25-1.84-5.24,3.53-9.77ZM170.74,189.65c-5.22-9.33-8.08-54.92-3.77-60.11,2.12-2.56,26.1-1.18,33.6,1.93,4,1.66,6.87,9.39,8.42,22.7,4,34.34-24.24,60.54-38.25,35.47Z"/>
</svg>