<?xml version="1.0" encoding="UTF-8"?>
<svg id="Layer_1" data-name="Layer 1" xmlns="http://www.w3.org/2000/svg" viewBox="0 0 256 256">
  <path d="M86.86,163.26c-1.85-.13-12.36-.67-23.36-1.2-11-.53-21.57-1.43-23.49-2.01-12.96-3.89-25.54,5.21-20.55,14.86,2.13,4.11,5.67,5.7,14.22,6.39,17.2,1.38,24.47,11.24,19.33,26.2-4.04,11.73-6.31,13.18-21.73,13.84-11.11.48-15.08,8.05-7.95,15.18,9.87,9.87,44.72.35,44.68-12.2,0-.45.86-2.62,1.92-4.82,5.72-11.9,6.58-17.36,4.71-29.81q-.87-5.81,4-5.5t5.49,9.31c1.4,20.34,10.88,32.91,19.94,26.46,4.2-2.99,4.8-7.77,1.87-14.83-5-12.01-2.9-20.13,5.21-20.13,5.22,0,5.3.29,5.9,21,.78,27.22,8.19,37.21,21.5,28.98,4.83-2.99,4.92-3.48,5.47-28.93.58-27.05-.79-24.47,16.23-30.49,24.88-8.79,38.85-20.73,50.09-42.79,4.7-9.24,9.69-23.04,9.69-26.83,0-1.79,1.35-7.25,5.55-22.45.76-2.75,2.54-10.85,3.95-18,1.43-7.28,3.36-14.1,4.37-15.5,8.65-11.95,11.35-20.49,8.13-25.76-4.42-7.25-5.49-7.47-33.5-6.82-14.75.34-29.72.15-36.5-.48-15.5-1.43-51.46-1.98-62.18-.95-4.77.46-13.32,1.54-19,2.41-40.92,6.27-48.82,6.82-53.82,3.75-12.38-7.6-22.82,7.72-13.35,19.6,5.99,7.51,16.75,10.35,31.61,8.35,40.58-5.46,36.29-8.31,37.03,24.63.33,14.71,1.14,30.58,1.79,35.25,3.69,26.36-.03,53.77-7.23,53.26ZM143.66,44.25c1.6-2.6,1.12-2.56,12.84-1.15,4.95.6,19.12,1.38,31.5,1.74,21.67.63,22.5.73,22.38,2.66-.45,7.14-3.69,22.71-7.91,38-.76,2.75-1.67,7.02-2.03,9.5-3.8,26.37-18.31,47.8-38.85,57.39-20.1,9.38-18.68,12.69-17.96-41.62.31-23.67.14-47.1-.39-53.26-.77-8.88-.68-11.43.43-13.25ZM109.09,43.92c7.02-4.44,9.65,19.54,7.73,70.58-.37,9.9-.44,24.52-.15,32.5.44,12.06.27,14.84-1.01,16.5-3.35,4.37-3.95.78-3.77-22.69.14-19.33-1.19-51.71-3.54-86.16-.54-7.92-.4-10.02.74-10.74Z"/>
</svg>