<?xml version="1.0" encoding="UTF-8"?>
<svg id="Layer_1" data-name="Layer 1" xmlns="http://www.w3.org/2000/svg" viewBox="0 0 256 256">
  <path d="M229.31,172.1c-11.88,3.44-7.94,19.9,4.77,19.9,8.02,0,12.39-6.15,10.02-14.08-1.8-6.02-7-8.06-14.78-5.81Z"/>
  <path d="M26.5,45.23c6.55,2.66,7.62,2.73,47.49,2.8,23.23.04,39.04.46,40.16,1.06,2.81,1.5,2.38,7.77-3.71,54.42-.86,6.6-1.82,22.8-2.14,36-.68,28.84-.38,27.94-9.15,27.18-60.35-5.22-73.06-4.51-80.6,4.45-6.73,8-.98,16.15,7.68,10.87,3.92-2.39,8.51-2.52,15.27-.45,2.98.92,12.46,1.92,23.5,2.5,10.18.53,20.53,1.39,23,1.91,2.47.52,6.83.96,9.69.99,7.88.07,10.31,1.32,10.31,5.3,0,4.54,4.7,32.82,6.04,36.35,3.49,9.17,6.85,12.39,12.94,12.39,7.27,0,11.84-10.52,7.36-16.92-1.63-2.33-6.27-25.6-6.32-31.72-.03-3.98.98-4.35,11.81-4.38,4.77-.01,11.47-.43,14.91-.92,7.84-1.13,10.62-.37,22.2,6.07,17.93,9.98,19.16,12.85,9.56,22.26-14.6,14.31-2.47,34.03,15.81,25.7,17.36-7.92,18.22-39.27,1.48-53.41-8.11-6.85-8.76-7.57-8.18-9.09.32-.83,1.49-1.8,2.6-2.15,6.43-2.04,14.85-13.87,18.82-26.45,2.28-7.22,2.37-8.79,2.65-44.69.31-39.83.88-44.47,6.36-52.31.97-1.38,2.28-4.44,2.91-6.81,1-3.71,1.76-4.56,5.49-6.15,9.72-4.17,9.63-18.97-.11-19.04-1.01,0-2.73-.17-3.83-.36s-3.57-.18-5.5.02-7.55,1.03-12.5,1.85c-31.58,5.22-37.04,5.5-109.61,5.5q-68.61,0-75.23-3c-8.6-3.9-11.74-3.88-15.07.08-5.25,6.24.63,14.75,13.91,20.15ZM132.11,73.47c1.32-28.15-2.34-25.06,30.65-25.82,14.71-.34,28.76-1.02,31.24-1.51,11.7-2.32,12.43-1.83,9.45,6.4-2.98,8.22-4.89,24.58-4.05,34.67,1.07,12.78-.46,13.52-21.4,10.29-11.25-1.73-25.32-1.91-36.93-.45-10.81,1.36-10.2,2.94-8.96-23.58ZM129.03,117.5c1.39-1.71,32.45-1.76,41.26-.07,4.26.82,12.26,1.79,17.77,2.17,12.03.83,11.88.65,10.86,12.9-1.83,22.05-11.7,31.39-33.26,31.51-1.19,0-5.76.9-10.16,1.99-9.35,2.31-25.89,2.77-27.19.75-1.04-1.61-.36-47.92.72-49.25Z"/>
</svg>