<?xml version="1.0" encoding="UTF-8"?>
<svg id="Layer_1" data-name="Layer 1" xmlns="http://www.w3.org/2000/svg" viewBox="0 0 256 256">
  <defs>
    <style>
      .cls-1 {
        fill: #231f20;
      }
    </style>
  </defs>
  <path class="cls-1" d="M205.57,212.51c-36.27,3.8-59.12.04-61.01-10.04-1.01-5.4.58-6.65,6.75-5.32,39.46,8.51,70.06-57.49,35.28-76.1-3.42-1.83-3.28-3.05.87-7.45,19.65-20.83,8.26-47.41-23.43-54.65-6.01-1.38-21.04-14.74-21.04-18.71,0-11.96-9.75-20.22-16.23-13.74-3.2,3.2-4.52,9.75-5.85,29-.57,8.25-1.77,20.18-2.68,26.5-1.74,12.14-1.98,106.3-.31,118.66.85,6.27-.05,8.07-4.44,8.86-6.55,1.18-6.85-.71-3.82-24.51,3.08-24.25,2.64-147.19-.55-152.32-4.82-7.76-14.96-7.46-19.25.56-.79,1.48-1.2,27.35-1.41,88.54-.2,58.34-.64,86.79-1.34,87.5-.67.67-10.69,1.08-27.83,1.15-33.59.13-38.55,1.78-39.92,13.29-1.49,12.58-.64,12.76,57.64,12.46,43.75-.23,51.17-.05,59.72,1.47,36.41,6.46,88.99.8,98.6-10.62,10.12-12.02-1.13-17.51-29.76-14.5ZM140.48,70.25c.7-1.89,2.29-1.52,5.91,1.37,1.81,1.44,7.52,4.06,12.7,5.82,22.51,7.65,24.71,19.25,5.5,28.97-19.32,9.77-33.33-11.24-24.11-36.16ZM140.28,132.16c1.65-1.98,17.42-.82,25,1.84,3.12,1.1,6.28,1.99,7.02,1.99,2.22,0,9.33,6.69,10.75,10.1,4.58,11.07-12.89,30.99-27.05,30.86-5.67-.06-12.85-1.42-14.12-2.69-1.56-1.56-3.02-40.38-1.59-42.11Z"/>
</svg>