<?xml version="1.0" encoding="UTF-8"?>
<svg id="Layer_1" data-name="Layer 1" xmlns="http://www.w3.org/2000/svg" viewBox="0 0 256 256">
  <defs>
    <style>
      .cls-1 {
        fill: #231f20;
      }
    </style>
  </defs>
  <path class="cls-1" d="M204.5,17.42c-14.75.34-29.71.15-36.5-.48-15.62-1.44-51.48-1.97-62.45-.93-4.92.47-13.25,1.54-18.5,2.39-37.09,5.98-49.08,6.81-54.05,3.76-10.79-6.63-21.11,4.39-15.39,16.44,2.52,5.31,7.4,8.92,14.76,10.91,7.72,2.09,8.04,2.95,3.22,8.83-22.05,26.92-28.41,86.39-12.98,121.32.77,1.73,1.39,3.5,1.39,3.93,0,1.06,3.19,8.15,8.28,18.42,8.72,17.6,27.76,32.41,56.22,43.76,39.47,15.74,95.21-6.88,123.94-50.31,2.17-3.28,4.67-6.86,5.57-7.96,2.46-3.02,8.99-18.33,8.99-21.08,0-5.33-1.11-4.51-36.71,27.27-31.53,28.15-48.17,37.9-49.77,29.17-1.16-6.36-1.1-178.05.07-179.64.93-1.28,2.45-1.31,11-.28,51.37,6.2,88.43.82,88.41-12.83-.02-11.25-5.93-13.37-35.5-12.68ZM34.35,104.28c7.48-35.76,28.04-55.22,63.65-60.24,13.8-1.95,14-1.79,14,10.84,0,35.16-32.39,73.62-62,73.62-18.48,0-20.17-2.6-15.65-24.22ZM86.43,225.54c-1.61-.84-3.29-1.53-3.72-1.53-8.93-.07-38.66-28.79-38.71-37.39,0-.62-.71-2.47-1.57-4.12-9.63-18.46-13.05-42.17-5.29-36.67,12.62,8.94,46.07-2.34,64.86-21.87,10.92-11.35,10.01-15.21,10.58,44.86.41,43.74.74,53.06,2.04,56.89,2.89,8.52-11.7,8.44-28.19-.16Z"/>
</svg>