<?xml version="1.0" encoding="UTF-8"?>
<svg id="Layer_1" data-name="Layer 1" xmlns="http://www.w3.org/2000/svg" viewBox="0 0 256 256">
  <path d="M49.31,222.4c25.55,13.86,49.79,18.49,79.19,15.14,7.15-.82,19.75-1.92,28-2.45,40.93-2.63,59.21-10.55,77.48-33.59,17.51-22.08,12.76-49.17-13.32-75.87-8.61-8.82-30.83-17.47-53.17-20.69-3.85-.56-11.58-1.67-17.19-2.48-13.27-1.91-19.77-1.78-25.39.51-3.55,1.44-7.15,1.86-16,1.85-11.35-.01-24.15,2.21-32.22,5.61-1.76.74-5.8,2.28-8.97,3.42-13.85,4.99-17.61,6.68-23.73,10.7-40.07,26.26-37.45,74.66,5.31,97.85ZM69.5,134.08c3.3-1.22,7.57-2.91,9.5-3.75,8.77-3.85,20.12-6.33,29.27-6.4,5.08-.04,11.26-.43,13.73-.88,29.12-5.18,77.04,6.26,88.7,21.18,18.33,23.46,19.05,33.67,3.48,49.97-14.36,15.03-28.77,19.95-64.11,21.88-9.12.5-22.54,1.66-29.84,2.59-13.95,1.77-13.6,1.79-31.23-2.1-61.73-13.64-73.31-62.6-19.5-82.48Z"/>
  <path d="M118,77.5c11.82-.8,27.57-1.47,35-1.48,42.76-.07,59-6.52,59-23.44,0-11.3-9.07-13.92-17.63-5.08-2.93,3.02-5.66,5.5-6.06,5.5s-6.37.64-13.27,1.43c-6.9.79-23.11,1.69-36.04,2.01-12.93.31-29.8,1.12-37.5,1.8-31.74,2.77-45.42,1.03-50.1-6.4-8.62-13.65-20.5-3.5-12.43,10.61,8.86,15.49,25.58,18.68,79.03,15.06Z"/>
</svg>