<?xml version="1.0" encoding="UTF-8"?>
<svg id="Layer_1" data-name="Layer 1" xmlns="http://www.w3.org/2000/svg" viewBox="0 0 256 256">
  <path d="M208.5,17.42c-14.75.34-29.72.15-36.5-.48-15.92-1.47-51.56-1.97-62.94-.89-5.19.49-13.07,1.54-17.5,2.33-4.43.79-10.98,1.72-14.56,2.07s-10.34,1.28-15.04,2.08c-13.47,2.28-20.81,2.17-24.96-.38-12.38-7.62-22.82,7.72-13.35,19.6,3.72,4.67,8.31,6.99,16.97,8.59,7.93,1.46,8.73,2.71,4.42,6.92-1.75,1.71-3.89,4.49-4.76,6.17-.87,1.68-3.3,5.03-5.41,7.43-25.57,29.14-19.68,38.45,24.77,39.13,40.11.62,35.77-2.62,34.96,26-.68,24.03-1.83,31.31-6.6,41.5-5.92,12.66-4.86,26.25,3.04,39.08,7.63,12.39,20.64,2.36,14.85-11.45-2.85-6.81-3.24-16.43-.81-20.17,5.23-8.08,6.17-14.74,6.59-46.94.39-30.42.78-33.54,3.85-30.99,1.4,1.16,1.57,3.75,1.29,19.41-.18,9.94-.15,36.74.06,59.57q.38,41.5-16.42,41.77c-18.07.3-16.2.64-32.96-6.04-6.81-2.72-19.36-14.33-19.48-18.03-.01-.44-1.82-3.18-4.02-6.09-2.2-2.91-4-5.62-4-6.01s-2.38-3.95-5.29-7.91c-2.91-3.96-6.29-8.83-7.51-10.83-4.41-7.23-12.11-7.46-15.58-.47-2.54,5.12-1.11,9.84,5.78,19.1,2.86,3.85,8.33,11.92,12.15,17.93,11.52,18.14,25.15,30.57,33.51,30.57,1.4,0,2.98.44,3.51.98,3.81,3.81,12.49,5.02,35.83,5.01,32.88-.02,40.01-2.15,66.19-19.73,6.35-4.26,13.07-8.57,14.95-9.57,7.55-4.04,28.2-24.82,30.98-31.18,2.54-5.81,7.75-19.06,9.6-24.4,2.32-6.7,2.86-62.72.66-67.8-1.96-4.49-7.61-10.98-10.68-12.25-4.91-2.04-50.95-1.01-54.08,1.21-2.9,2.05-12.95,2.42-14.83.55-.77-.77-1.2-4.71-1.2-11,0-10.93.65-11.77,5.27-6.88,8.41,8.91,19.12,1.48,15.3-10.62-.91-2.88-2.08-5.5-2.61-5.83-5.66-3.5-1.08-4.47,18.29-3.88,48.03,1.45,63.76-2.12,63.75-14.49-.02-11.25-5.93-13.37-35.5-12.68ZM91.72,90.25c-1.13,2.51-45.72,2.71-45.72.21,0-5.34,16.08-24.15,24.97-29.21,2.49-1.42,5.44-3.39,6.56-4.38,1.11-.99,4.04-2.91,6.5-4.27,7.57-4.18,7.41-4.53,7.97,16.92.27,10.44.15,19.78-.28,20.74ZM115.49,87.64c-4.23,1.62-4.93-.47-6.24-18.75-.68-9.56-1.04-17.95-.78-18.64.71-1.91,4-1.49,6.06.79,2.79,3.08,3.64,35.58.96,36.61ZM153.32,101.98c3.4,0,8.88-.88,12.18-1.95,4.91-1.58,9.04-1.94,22.68-1.98,23.06-.08,30.24,37.15,13.39,69.46-.85,1.64-1.56,3.6-1.56,4.35-.02,4.75-18.14,24.07-28.05,29.92-3,1.77-9.69,6.16-14.87,9.75-13.63,9.47-12.47,12.1-13.28-30.06-1.43-74.16-.79-79.48,9.51-79.5Z"/>
</svg>