<?xml version="1.0" encoding="UTF-8"?>
<svg id="Layer_1" data-name="Layer 1" xmlns="http://www.w3.org/2000/svg" viewBox="0 0 256 256">
  <path d="M216.5,92.79c15.6-1.38,22.5-5.12,22.5-12.18,0-6.4-4.5-10.19-11.67-9.81-19.92,1.04-18.8,1.38-19.13-5.71-.21-4.36.36-8.58,1.78-13.25,2.28-7.51,2.77-7.89,14.64-11.59,8.21-2.56,11.67-5.99,11.79-11.7.18-8.58-6.65-11.59-18.4-8.1-22.02,6.54-27.48,13.23-30.19,37.03-1.46,12.81-1.51,12.87-10.28,12.2-3.87-.29-11.85-.06-17.75.53-14.08,1.39-13.35,2.21-14.16-15.99-1.3-29.22-2.76-33.64-11.06-33.64s-10.94,6.38-9.46,26.33c1.68,22.69.69,25.49-8.88,24.87-5.33-.34-5.17.38-7.03-31.19-.89-15.03-1.59-16.67-7.84-18.24-9.81-2.46-12.83,4.93-12.01,29.38.74,22.04.55,22.63-7.52,23.64-2.38.3-11.5,1.53-20.26,2.73q-16.95,2.33-31.19-1.76c-7.23-2.08-10.69-.75-11.85,4.52-3.14,14.32,23.71,22.89,52.29,16.69,20.27-4.39,20.7-3.98,19.23,18.61-.62,9.52-1.4,22.63-1.74,29.14-.82,16,1.31,15.1-38.3,16.22-22.21.62-27.31,2.45-30.56,10.96-4.45,11.65,2.71,19.66,10.64,11.91q3.67-3.59,29.88-3.75c29.95-.19,28.17-.81,26.99,9.34-.48,4.12-.89,12.79-.91,19.25q-.04,11.75-3.54,15.62c-8.6,9.52,2.87,19.51,13.71,11.94,7-4.88,9.02-12.7,10.61-41.03.98-17.48,1.47-18.79,7.11-18.79,6.68,0,8.04,10.72,4.48,35.45-2.76,19.18,2.8,28.52,13.95,23.44,5.09-2.32,7.64-16.36,7.65-42.01,0-15.8-1.76-14.86,22.27-11.86,36.13,4.5,49.41-9.07,46.74-47.75-2.48-35.85-1.61-40.66,7.5-41.47ZM120.27,155.77c-1.86,1.39-7.75,1.4-10.52.03-2.06-1.02-2.29-6.62-.69-16.8.56-3.58,1.34-14.87,1.73-25.1.51-13.43,1.09-19.06,2.08-20.25,1.37-1.65,6.51-2.21,9.55-1.05,3.24,1.24,1.22,60.65-2.15,63.16ZM164.98,160.39c-24.85-.14-22.25,4.03-21.41-34.32.76-34.91.52-33.82,7.76-34.38,36.05-2.79,35.24-3.47,36.46,30.55,1.47,40.86,3.01,38.29-22.81,38.15Z"/>
</svg>