<?xml version="1.0" encoding="UTF-8"?>
<svg id="Layer_1" data-name="Layer 1" xmlns="http://www.w3.org/2000/svg" viewBox="0 0 256 256">
  <path d="M231.99,215c-20,0-36.59-34.29-38.99-80.6-.59-11.37-1.69-22.44-2.53-25.5-.82-2.97-1.93-7.84-2.46-10.81-1.08-6.02-5.68-18.76-7.1-19.64-.5-.31-.92-1.63-.92-2.94,0-2.4.64-2.79,6.58-3.97,26.71-5.35,45.63-30.08,34.89-45.59-11.57-16.69-38.65-2.95-29.5,14.97,3.26,6.39,2.15,7.25-16.96,13.04-4.12,1.25-9.75,3.11-12.5,4.13-17.78,6.62-24.14-1.2-18.37-22.59,3.26-12.09.25-18.35-8.27-17.21-9.41,1.26-11.53,6.34-12.15,28.97-.54,19.9-.9,21.02-6.62,20.54q-3.59-.3-4.18-14.8c-.74-18.1-1.35-21.53-4.72-26.4-4.72-6.85-13.2-12.14-17.69-11.02-.55.14-2.25.52-3.78.86-8.85,1.96-8.3,15.93.8,20.27,4.7,2.24,4.98,3.6,4.98,24.63s1.29,19.53-20,29.24c-11.62,5.3-28.3.49-40.98-11.81-8.57-8.31-14.13-9.4-18.93-3.7-16.03,19.05,41.9,48.34,68.27,34.52,15.28-8.01,14.6-10.23,17.14,55.9.53,13.75,1.24,27.53,1.59,30.62.86,7.65,1.99,7.38-30.59,7.38-36.6,0-43.84,3.07-44.79,18.97-.66,11.08,4.68,13.52,12.87,5.88,5.63-5.26,54.07-7.14,72.68-2.82,3.71.86,12.82,2.01,20.25,2.54,7.43.54,17.77,1.4,23,1.92,5.23.52,14.68,1.23,21,1.58,6.32.35,14.88,1.28,19,2.05,11,2.06,34.77,3.83,40.25,2.99,15.89-2.43,14.77-21.6-1.25-21.6ZM124.62,207.56c-9.25-1.16-9.18-.99-7.66-17.67,1.71-18.83.83-49.78-2.52-88.45q-.7-8.07,2.68-10.23c7.95-5.09,7.68-5.93,9.95,31.98,1.06,17.67,2.58,35.77,3.38,40.22,5.29,29.46,3.2,45.28-5.83,44.16ZM146.04,112.5c-.59-11-1.34-21.61-1.66-23.58-.42-2.6-.12-4.03,1.09-5.25,6.86-6.86,22.53,6.27,22.53,18.89,0,1.13.86,5.41,1.9,9.5,5.57,21.77,4.11,26.67-7.48,25.13-4.36-.58-9.15-.81-10.65-.51-3.99.79-4.51-1.38-5.74-24.18ZM166.62,210.53c-16.96-1.79-15.1,1.01-15.21-22.87-.05-11.69-.59-22.19-1.27-24.98-.65-2.65-.91-5.24-.6-5.75,3.97-6.43,24.19,2.91,26.47,12.22.99,4.04,2.34,8.92,3.01,10.84,4.89,14.04,10.3,26.46,11.97,27.49,6.96,4.3-1.91,5.41-24.37,3.04Z"/>
  <path d="M216.45,74.41c-12.4,5.4-11.88,31.46.68,33.97,10.5,2.1,21.11-9.15,19.24-20.38-1.62-9.72-12.22-16.95-19.92-13.59Z"/>
</svg>