<?xml version="1.0" encoding="UTF-8"?>
<svg id="Layer_1" data-name="Layer 1" xmlns="http://www.w3.org/2000/svg" viewBox="0 0 256 256">
  <defs>
    <style>
      .cls-1 {
        fill: #231f20;
      }
    </style>
  </defs>
  <path class="cls-1" d="M132.43,178.61c3.77,1.45,36.39-36.11,43.79-50.41,15.95-30.81-12.49-62.59-50.28-56.19-16.6,2.81-29.11,17.1-29.22,33.35-.13,19.74,15.13,22.76,18.4,3.64,4.41-25.84,44.95-23.66,44.86,2.41-.02,5.94-1.88,9.27-12.86,23.09-13.38,16.84-21.58,41.47-14.69,44.11Z"/>
  <path class="cls-1" d="M194,193.93c-26.44,23.55-42.81,34.01-53.33,34.09-1.19,0-6.4.91-11.57,2-17.79,3.75-26.83,2.1-47.6-8.71-15.39-8.01-33.5-26.69-33.5-34.54,0-.57-.84-2.89-1.88-5.15-8.35-18.28-10.12-26.61-10.12-47.55,0-55.12,22.34-84.33,72.36-94.59,13.72-2.81,17.93-7.26,12.25-12.95-3.02-3.02-14.44-3.47-23.11-.91-2.75.81-6.62,1.84-8.6,2.27-12.1,2.66-35.18,16.16-45.4,26.55-25.23,25.66-33.57,87.47-16.89,125.21.76,1.73,1.39,3.5,1.39,3.93,0,18.2,32.01,49.99,61.5,61.08,49.74,18.71,113.05-12.33,137.75-67.52,9.08-20.3,7.45-19.47-33.25,16.78Z"/>
</svg>