<?xml version="1.0" encoding="UTF-8"?>
<svg id="Layer_1" data-name="Layer 1" xmlns="http://www.w3.org/2000/svg" viewBox="0 0 256 256">
  <defs>
    <style>
      .cls-1 {
        fill: #231f20;
      }
    </style>
  </defs>
  <path class="cls-1" d="M230.33,51.89c6.72-5.99,8.36-9.98,6.22-15.11-7.21-17.26-36.48,8.49-40.04,35.22-1.12,8.44.73,7.98-29.85,7.33-32.7-.7-29.65,1.04-30.84-17.5-1.58-24.52-10.73-40.92-17.95-32.17-1.08,1.31-1.37,6.81-1.37,25.75q0,24.09-8,24.8c-4.4.4-12.05,1.24-17,1.88-29.96,3.88-53.98,1.86-60.5-5.07-9.29-9.89-17.86-6.15-15.05,6.56,3.89,17.62,33.87,23.96,84.67,17.89,20.23-2.42,18.34-5.49,18.07,29.29-.29,36.63.17,35.86-18.68,31.75-20.73-4.52-72.6-4.03-79.85.77-8.97,5.93-3.78,17.64,6.55,14.79,2.57-.71,9.15-.57,22.22.45,10.22.8,21.73,1.48,25.58,1.5s10.6.7,15,1.49c4.4.8,11.71,1.75,16.25,2.11,11.52.92,11.1-.24,8.44,23.72-3.25,29.21-2.99,32.56,2.8,35.98,7.23,4.27,15.01-1.32,15.01-10.8,0-1.96.65-7.72,1.44-12.8.79-5.08,1.75-14.11,2.12-20.07.84-13.14-1.97-11.88,26.73-12.09,47.05-.36,56.35-12.01,54.09-67.76-.82-20.32-1.06-19.82,9.35-19.82,7.17,0,7.62-.14,10.88-3.4,7.77-7.77,1.38-16.6-12.02-16.6-12.27,0-9.26-14.74,5.75-28.11ZM192.9,157.94c-2.26,7.55-9.78,10.09-29.62,10-25.69-.11-28.23-2.08-23.6-18.31.57-2,9.07-1.86,25.32.42,3.57.5,11.06.92,16.63.93,12.08.02,13.15.69,11.27,6.96ZM192,129.24c-4.76,1.11-49.78-.37-51.95-1.71-1.99-1.23-1.36-26.24.7-27.53,3.1-1.95,52.43-.33,54.03,1.78,3.31,4.35,1.06,26.56-2.78,27.46Z"/>
</svg>