<?xml version="1.0" encoding="UTF-8"?>
<svg id="Layer_1" data-name="Layer 1" xmlns="http://www.w3.org/2000/svg" viewBox="0 0 256 256">
  <path d="M204.5,17.42c-14.75.34-29.71.15-36.5-.48-15.8-1.46-51.54-1.97-62.67-.91-5.04.48-13.15,1.54-18,2.35-4.86.81-11.75,1.76-15.33,2.11s-10.49,1.31-15.36,2.12c-13.48,2.25-19.48,2.14-23.64-.44-8-4.97-16.9-.51-16.97,8.5-.09,11.9,7.52,18.05,25.09,20.27,10.28,1.3,13.63,3.18,46.38,26.04,27.07,18.89,26.39,17.68,25.2,44.86-3.48,79.47,1.22,115.13,15.15,115.15,12.36.01,12.57-.99,11.93-58.92-.75-68.96-1.64-65.56,13.37-51.37,5.7,5.39,12.65,11.82,15.44,14.3,7.94,7.04,7.95,7.18,2.24,17-21.69,37.28-15.46,70.33,13.23,70.21,8.73-.04,10.44-.75,17.78-7.43,14.17-12.88,14.88-41.68,1.68-67.74-3.45-6.8-3.29-7.56,2.89-14.04,16.26-17.05,4.54-30.8-12.36-14.49-8.33,8.05-6.31,8.55-21.05-5.21-6.87-6.42-16.65-14.97-21.73-19.02-11.5-9.17-11.25-8.65-11.36-23.48-.05-6.77-.43-16.37-.85-21.32-1.01-11.93.06-14,6.78-13.16,55.52,6.94,94.17,1.91,94.15-12.24-.02-11.26-5.93-13.37-35.5-12.68ZM107.64,70.13c-1.24-1.17-2.56-2.13-2.92-2.13s-3.26-1.72-6.44-3.83c-11.84-7.84-17.45-11.29-19.91-12.22-7.06-2.68-.9-5.28,18.62-7.85,15.11-1.99,14.53-2.52,15.42,14.16.76,14.15-.1,16.26-4.78,11.86ZM185.76,169.58c5.04-5.04,10.61,18.08,7.29,30.29-3.25,11.97-14.45,12.16-16.68.29-1.08-5.73,5.3-26.48,9.39-30.57Z"/>
</svg>