<?xml version="1.0" encoding="UTF-8"?>
<svg id="Layer_1" data-name="Layer 1" xmlns="http://www.w3.org/2000/svg" viewBox="0 0 256 256">
  <path d="M22.61,179.65c.77,1.73,1.39,3.5,1.39,3.93,0,18.26,31.91,49.95,61.5,61.08,43.74,16.45,97.21-4.27,126.94-49.21,2.17-3.28,4.67-6.86,5.57-7.96,2.46-3.02,8.99-18.33,8.99-21.08,0-5.34-.92-4.65-37.31,27.77-33.12,29.52-57.06,41.91-56.51,29.27.05-1.08-.48-6.9-1.18-12.95-2.29-19.9.74-103.07,3.89-106.87,3.01-3.63,8.49-.7,9.51,5.08.37,2.08,1.3,7.51,2.06,12.05,2.92,17.32,14,27.14,32.9,29.17,22.69,2.43,34.17-8.68,35.61-34.49.79-14.05.41-13.18,7.99-18.49,8.64-6.06,11.54-10.72,11.54-18.54,0-14.98-14.63-18.82-25.14-6.6-5.91,6.88-20.23,9.23-39.81,6.55-11.61-1.59-6.43-19.75,6.95-24.35,9.8-3.37,11.75-6.58,6.75-11.12-14.08-12.8-31.99-.59-37.23,25.38-.79,3.93-1.79,6.09-3.15,6.82-3.71,1.99-4.58-.24-5.36-13.79-1.66-28.78-5.64-38.57-15.48-38.12-1.94.09-9.15.47-16.03.84-8.05.44-13.88,1.27-16.37,2.34-2.13.91-4.74,1.66-5.81,1.66-3.21,0-22.21,9.12-32.36,15.52-3.28,2.07-9.56,7.45-13.96,11.95-6.57,6.73-8.7,8.3-11.91,8.82-8.09,1.3-12.06,8.7-9.04,16.86,2.62,7.07,2.73,8.47,1.07,13.53-7.25,22.03-5.28,64,3.99,84.97ZM165.69,105.64c1.82-1.82,26.77.52,28.65,2.68,3.89,4.48-.25,19.42-5.77,20.85-13.17,3.4-31.23-15.17-22.88-23.53ZM100.5,40.03c5.51-1.52,10.32-1.2,10.87.72,1.26,4.35,1.12,31.33-.18,32.13-1.51.93-60.88,2.44-62.27,1.58-7.95-4.91,25.49-27.23,51.57-34.42ZM35.42,101.13c.49-.79,75.61-.43,76.41.37.94.94.21,27.29-1.37,49.38-1.87,26.11-1.89,50.36-.04,60.12,4.36,23.06-1.19,26.43-23.99,14.54-1.61-.84-3.29-1.53-3.72-1.53-8.93-.07-38.66-28.79-38.71-37.39,0-.62-.71-2.47-1.57-4.12-1.93-3.7-4.68-11.42-7.94-22.27-3.91-13.03-3.29-52.26.94-59.11Z"/>
</svg>